<svg width="313" height="200" viewBox="0 0 313 200" fill="none" xmlns="http://www.w3.org/2000/svg">
<g opacity="0.5">
<path d="M69.3716 33.3164L11.0911 72.3188L68.4971 158.172L126.778 119.17L69.3716 33.3164Z" fill="#F5F5F5"/>
<path d="M96.6608 115.109L95.9959 119.204L67.0221 115.026L67.687 110.931L96.6608 115.109Z" fill="#E0E0E0"/>
<path d="M82.0699 100.502L86.2254 101.099L81.618 129.638L77.4574 129.036L82.0699 100.502Z" fill="#E0E0E0"/>
<path d="M55.4075 64.2297C55.4491 64.2868 49.6107 68.2725 42.3646 73.1157C35.1186 77.9588 29.2127 81.8458 29.1711 81.7834C29.1296 81.7211 34.968 77.7406 42.214 72.8922C49.4601 68.0439 55.34 64.1673 55.4075 64.2297Z" fill="#E0E0E0"/>
<path d="M76.8185 58.8464C76.8601 58.9088 67.1467 65.4771 55.1271 73.5213C43.1075 81.5655 33.311 88.0351 33.2799 87.978C33.2487 87.9208 42.9413 81.342 54.9765 73.2979C67.0117 65.2537 76.777 58.784 76.8185 58.8464Z" fill="#E0E0E0"/>
<path d="M81.1143 65.2691C81.1559 65.3315 71.4425 71.9051 59.4229 79.9492C47.4033 87.9934 37.6068 94.4631 37.5756 94.4007C37.5445 94.3384 47.2474 87.77 59.2723 79.7206C71.2971 71.6712 81.0728 65.2068 81.1143 65.2691Z" fill="#E0E0E0"/>
<path d="M85.4097 71.6971C85.4513 71.7594 75.7379 78.333 63.7183 86.372C51.6987 94.411 41.9022 100.891 41.9022 100.829C41.9022 100.766 51.5688 94.1927 63.5936 86.1485C75.6185 78.1044 85.3682 71.6347 85.4097 71.6971Z" fill="#E0E0E0"/>
<path d="M89.69 78.1253C89.7316 78.1876 80.0182 84.756 67.9986 92.8002C55.979 100.844 46.1825 107.314 46.1565 107.252C46.1306 107.189 55.8387 100.621 67.8739 92.5767C79.9091 84.5326 89.69 78.0629 89.69 78.1253Z" fill="#E0E0E0"/>
<path d="M264.255 90.8435L215.308 123.599L263.519 195.7L312.465 162.944L264.255 90.8435Z" fill="#F5F5F5"/>
<path d="M287.177 159.549L286.622 162.989L262.286 159.482L262.842 156.042L287.177 159.549Z" fill="#E0E0E0"/>
<path d="M274.919 147.28L278.415 147.784L274.54 171.751L271.049 171.247L274.919 147.28Z" fill="#E0E0E0"/>
<path d="M252.511 116.845C252.552 116.907 247.654 120.259 241.566 124.327C235.479 128.396 230.513 131.649 230.471 131.603C230.43 131.556 235.333 128.194 241.416 124.12C247.498 120.046 252.469 116.756 252.511 116.845Z" fill="#E0E0E0"/>
<path d="M270.509 112.297C270.55 112.36 262.401 117.889 252.329 124.639C242.257 131.389 234.014 136.825 233.972 136.763C233.931 136.7 242.08 131.171 252.152 124.416C262.224 117.66 270.452 112.235 270.509 112.297Z" fill="#E0E0E0"/>
<path d="M274.119 117.692C274.16 117.754 266.011 123.283 255.939 130.038C245.867 136.794 237.624 142.219 237.582 142.157C237.541 142.094 245.665 136.591 255.762 129.836C265.86 123.08 274.088 117.634 274.119 117.692Z" fill="#E0E0E0"/>
<path d="M277.724 123.08C277.765 123.143 269.61 128.672 259.544 135.427C249.477 142.182 241.229 147.608 241.187 147.545C241.145 147.483 249.295 141.959 259.367 135.198C269.439 128.438 277.687 123.028 277.724 123.08Z" fill="#E0E0E0"/>
<path d="M281.36 128.49C281.401 128.552 273.251 134.076 263.18 140.831C253.108 147.587 244.864 153.012 244.823 152.955C244.781 152.898 252.931 147.363 263.003 140.608C273.075 133.853 281.292 128.427 281.36 128.49Z" fill="#E0E0E0"/>
<path d="M186.814 36.4751L133.407 7.89862L91.347 86.5715L144.754 115.148L186.814 36.4751Z" fill="#F5F5F5"/>
<path d="M135.618 90.5345L132.231 91.6933L123.63 67.9089L127.016 66.7449L135.618 90.5345Z" fill="#E0E0E0"/>
<path d="M140.812 73.4693L142.049 76.8834L118.435 84.9743L117.199 81.5602L140.812 73.4693Z" fill="#E0E0E0"/>
<path d="M157.59 38.3773C157.548 38.4552 152.136 35.6387 145.492 32.0895C138.849 28.5403 133.504 25.5939 133.546 25.516C133.587 25.438 139.005 28.2545 145.648 31.8037C152.292 35.3529 157.632 38.2941 157.59 38.3773Z" fill="#E0E0E0"/>
<path d="M170.409 52.5273C170.368 52.6052 161.403 47.8868 150.385 41.994C139.368 36.1012 130.476 31.258 130.517 31.1801C130.559 31.1021 139.519 35.8153 150.536 41.7134C161.553 47.6114 170.451 52.4493 170.409 52.5273Z" fill="#E0E0E0"/>
<path d="M167.262 58.4149C167.22 58.4929 158.255 53.7797 147.238 47.8868C136.221 41.994 127.328 37.1457 127.37 37.0677C127.411 36.9898 136.371 41.7082 147.388 47.601C158.406 53.4939 167.303 58.337 167.262 58.4149Z" fill="#E0E0E0"/>
<path d="M164.114 64.3026C164.073 64.3806 155.107 59.6673 144.09 53.7745C133.073 47.8817 124.18 43.0541 124.222 42.9606C124.263 42.8671 133.224 47.5959 144.241 53.4887C155.258 59.3815 164.156 64.2247 164.114 64.3026Z" fill="#E0E0E0"/>
<path d="M160.966 70.1901C160.925 70.2681 151.959 65.5548 140.942 59.662C129.925 53.7692 121.027 48.926 121.074 48.8481C121.121 48.7701 130.076 53.4834 141.093 59.3762C152.11 65.269 161.008 70.1122 160.966 70.1901Z" fill="#E0E0E0"/>
<path d="M299.888 198.341C299.888 198.414 232.752 198.476 149.949 198.476C67.1468 198.476 0 198.429 0 198.341C0 198.253 67.126 198.206 149.949 198.206C232.772 198.206 299.888 198.263 299.888 198.341Z" fill="#333E57"/>
<path d="M16.6011 165.796C17.4792 165.859 18.3357 166.099 19.1192 166.5C19.9028 166.902 20.5974 167.458 21.1617 168.134C22.2835 169.494 23.0779 171.095 23.4835 172.811C24.3613 176.095 23.8211 179.977 22.8862 183.245C19.3333 181.972 17.1361 178.179 16.1336 176.183C14.5753 173.034 13.6455 166.383 16.5855 165.79" fill="#FF3E79"/>
<path d="M28.0025 187.231C27.469 186.403 27.1639 185.449 27.1183 184.465C27.0727 183.481 27.2881 182.503 27.7428 181.629C28.2117 180.764 28.8482 180.001 29.6152 179.384C30.3822 178.768 31.2642 178.31 32.2099 178.039C33.0773 177.768 34.085 177.659 34.8382 178.163C35.1777 178.42 35.4421 178.763 35.6039 179.157C35.7656 179.551 35.8187 179.982 35.7576 180.403C35.6213 181.247 35.2627 182.04 34.7187 182.7C32.989 185.043 30.8905 186.992 27.9661 187.231" fill="#FF3E79"/>
<path d="M28.3972 198.211C28.3201 197.991 28.2661 197.762 28.2361 197.531C28.1426 197.042 28.018 196.413 27.8673 195.66C27.4011 193.597 27.2713 191.472 27.483 189.367C27.7279 187.252 28.533 185.241 29.8152 183.542C30.2069 183.034 30.6587 182.575 31.1605 182.175C31.2969 182.067 31.4391 181.966 31.5865 181.874C31.6333 181.835 31.6859 181.803 31.7423 181.78C31.0852 182.342 30.485 182.966 29.9503 183.646C28.7357 185.347 27.9709 187.327 27.7271 189.403C27.3947 191.825 27.805 194.044 28.0439 195.639C28.1686 196.434 28.2725 197.079 28.3296 197.525C28.3705 197.752 28.3931 197.981 28.3972 198.211Z" fill="#333E57"/>
<path d="M17.7437 170.8C17.803 170.882 17.8518 170.971 17.8891 171.065C17.9826 171.273 18.1073 171.532 18.2527 171.86C18.5695 172.551 19.0111 173.554 19.5461 174.796C20.6161 177.285 22.0497 180.746 23.5457 184.602C25.0417 188.457 26.3143 191.975 27.1817 194.537C27.6284 195.816 27.9764 196.855 28.2206 197.577C28.3296 197.92 28.4128 198.196 28.4803 198.409C28.5173 198.504 28.5435 198.603 28.5582 198.705C28.5055 198.617 28.4637 198.522 28.4335 198.424C28.3556 198.216 28.2569 197.946 28.1271 197.608L27.0311 194.594C26.1013 192.053 24.8027 188.54 23.312 184.69C21.8212 180.839 20.4083 177.368 19.3799 174.863C18.8604 173.632 18.4605 172.629 18.1644 171.896C18.0293 171.564 17.9203 171.298 17.8371 171.085C17.7981 170.993 17.7669 170.897 17.7437 170.8Z" fill="#333E57"/>
<path d="M24.1742 190.946C23.1054 189.166 21.6284 187.666 19.8653 186.57C18.1022 185.474 16.1037 184.813 14.0349 184.643C12.996 184.57 11.7182 184.747 11.2508 185.682C10.7833 186.618 11.4066 187.761 12.1234 188.52C13.6464 190.114 15.607 191.221 17.758 191.702C19.909 192.183 22.1542 192.016 24.2105 191.222" fill="#FF3E79"/>
<path d="M15.6349 187.46C15.8551 187.449 16.0759 187.457 16.2946 187.486C16.5507 187.499 16.8057 187.529 17.0581 187.574C17.3542 187.631 17.7022 187.662 18.0658 187.766C18.4723 187.852 18.873 187.963 19.2657 188.099C19.7207 188.245 20.1665 188.419 20.6007 188.618C21.5992 189.066 22.5437 189.626 23.416 190.286C24.2781 190.963 25.059 191.737 25.743 192.594C26.0384 192.967 26.3107 193.357 26.5585 193.763C26.7825 194.114 26.9871 194.476 27.1715 194.849C27.3275 195.153 27.4663 195.465 27.587 195.784C27.6912 196.021 27.7796 196.264 27.8519 196.512C27.9289 196.719 27.9862 196.933 28.0233 197.151C27.9662 197.151 27.7169 196.257 27.0156 194.927C26.8247 194.57 26.6149 194.223 26.3871 193.888C26.134 193.494 25.86 193.114 25.5664 192.75C24.2078 191.07 22.4752 189.732 20.5072 188.842C20.0553 188.644 19.6241 188.457 19.2034 188.322C18.8171 188.181 18.4235 188.062 18.0243 187.964C16.5699 187.564 15.6297 187.517 15.6349 187.46Z" fill="#333E57"/>
<path d="M251.42 24.5962C249.893 24.9444 249.15 26.706 249.005 28.2649C248.859 29.8239 249.057 31.4764 248.402 32.9002C247.665 34.5007 245.904 35.6855 245.847 37.4471C245.81 38.5228 246.449 39.5257 246.418 40.6118C246.366 42.3786 244.569 43.7297 244.47 45.4757C244.403 46.7489 245.249 47.9649 245.047 49.2224C244.891 50.1994 244.127 50.9684 243.805 51.9038C243.166 53.7745 244.449 55.8272 246.117 56.8769C247.051 57.4644 248.102 57.8408 249.197 57.9797C250.291 58.1187 251.403 58.0169 252.454 57.6813C253.505 57.3458 254.471 56.7847 255.282 56.0372C256.094 55.2897 256.733 54.3738 257.155 53.3536C258.079 51.1087 257.877 48.578 257.674 46.1617C257.051 38.6233 256.587 31.0745 256.282 23.5153" fill="#333E57"/>
<path d="M246.984 51.1918C247.299 50.9964 247.544 50.7075 247.685 50.3656C247.835 49.9589 247.896 49.5246 247.862 49.0924C247.805 48.5194 247.678 47.9557 247.483 47.4139C247.234 46.733 247.142 46.0048 247.213 45.2834C247.343 44.4727 247.924 43.8076 248.449 43.1528C248.732 42.8324 248.968 42.4738 249.15 42.0875C249.333 41.6969 249.363 41.2518 249.233 40.8404C248.963 39.9933 248.132 39.3698 247.753 38.3876C247.575 37.9014 247.546 37.373 247.67 36.8702C247.788 36.3988 247.962 35.9434 248.189 35.514C248.628 34.7405 248.976 33.9193 249.228 33.0664C249.592 31.4191 249.42 29.8446 249.67 28.5506C249.808 27.5143 250.268 26.5475 250.984 25.7861C251.186 25.581 251.417 25.406 251.67 25.2665C251.756 25.2212 251.849 25.1879 251.945 25.1677C251.619 25.347 251.32 25.5709 251.057 25.8329C250.393 26.6019 249.975 27.5521 249.857 28.561C249.766 29.2503 249.717 29.9444 249.711 30.6396C249.71 31.4578 249.63 32.2739 249.472 33.0768C249.224 33.9493 248.876 34.7898 248.433 35.5815C248.044 36.3974 247.685 37.3535 248.028 38.2473C248.371 39.1411 249.197 39.7595 249.514 40.7157C249.657 41.188 249.622 41.6965 249.415 42.1447C249.213 42.5697 248.95 42.9635 248.636 43.3139C248.117 43.9687 247.55 44.5922 247.426 45.3198C247.353 46.0098 247.435 46.7074 247.665 47.362C247.85 47.9206 247.965 48.5001 248.008 49.0872C248.033 49.5394 247.953 49.9913 247.774 50.4071C247.662 50.6678 247.483 50.8939 247.254 51.0619C247.173 51.1214 247.081 51.1655 246.984 51.1918Z" fill="#313131"/>
<path d="M242.922 63.5128L238.247 77.0238L218.696 78.0631L215.434 85.3382L235.848 87.4168C236.812 87.8129 237.847 88.0093 238.889 87.9941C239.932 87.9789 240.96 87.7525 241.913 87.3285C242.865 86.9045 243.722 86.2917 244.431 85.5271C245.141 84.7626 245.687 83.8621 246.039 82.8802L251.488 67.6649L242.922 63.5128Z" fill="#B78876"/>
<path d="M283.339 190.999C283.339 190.999 269.013 145.467 268.707 143.991C268.431 142.65 273.901 109.886 274.597 101.38L255.238 102.102V102.294L247.01 102.752L254.376 195.831H263.284L262.401 164.938C267.896 179.691 275.771 194.73 275.771 194.73L283.339 190.999Z" fill="#B78876"/>
<path d="M262.765 176.022C262.765 175.742 262.655 165.671 262.655 165.671C262.546 166.274 259.243 156.93 259.321 156.364C259.362 156.068 262.765 176.022 262.765 176.022Z" fill="#A36957"/>
<path d="M258.947 151.936C258.901 152.122 258.882 152.312 258.89 152.503C258.861 153.022 258.861 153.543 258.89 154.062C258.89 154.389 258.936 154.743 258.978 155.127C259.019 155.512 259.077 155.917 259.165 156.338C259.35 157.257 259.594 158.163 259.897 159.05C260.541 160.937 261.258 162.584 261.762 163.779C262.001 164.299 262.209 164.793 262.385 165.187C262.449 165.371 262.536 165.546 262.645 165.707C262.617 165.528 262.565 165.353 262.489 165.187C262.37 164.845 262.188 164.351 261.97 163.743C261.513 162.527 260.827 160.864 260.188 158.998C259.886 158.124 259.638 157.232 259.445 156.327C259.352 155.912 259.29 155.512 259.232 155.137C259.175 154.763 259.134 154.41 259.108 154.098C259.045 153.454 259.019 152.934 259.004 152.57C259.014 152.357 258.994 152.144 258.947 151.936Z" fill="#A36957"/>
<path d="M254.21 196.304V195.468L263.336 195.067L263.362 198.523L262.801 198.559C260.292 198.705 250.049 199.131 248.377 198.627C246.501 198.066 254.21 196.304 254.21 196.304Z" fill="#313131"/>
<path d="M263.482 198.315C263.43 198.319 263.378 198.319 263.326 198.315L262.879 198.346L261.227 198.419C259.835 198.476 257.908 198.528 255.784 198.539C253.659 198.549 251.727 198.513 250.33 198.471L248.683 198.403H248.231H248.075C248.127 198.399 248.179 198.399 248.231 198.403H248.683L250.335 198.435C251.727 198.435 253.654 198.476 255.778 198.466C257.903 198.455 259.835 198.419 261.227 198.383L262.879 198.341H263.482V198.315Z" fill="#333E57"/>
<path d="M251.233 198.606C251.157 198.334 251.053 198.071 250.921 197.822C250.757 197.591 250.567 197.38 250.355 197.193C250.639 197.294 250.874 197.498 251.015 197.764C251.187 198.01 251.264 198.308 251.233 198.606Z" fill="#333E57"/>
<path d="M253.924 197.24C253.924 197.24 253.773 197.099 253.638 196.891C253.503 196.684 253.42 196.502 253.446 196.486C253.472 196.471 253.597 196.621 253.732 196.829C253.867 197.037 253.95 197.224 253.924 197.24Z" fill="#333E57"/>
<path d="M254.661 196.871C254.661 196.897 254.495 196.798 254.339 196.658C254.184 196.517 254.069 196.388 254.09 196.367C254.111 196.346 254.256 196.439 254.412 196.58C254.568 196.72 254.682 196.824 254.661 196.871Z" fill="#333E57"/>
<path d="M255.124 195.987C254.971 196.043 254.808 196.064 254.646 196.049C254.487 196.071 254.325 196.055 254.173 196.003C254.324 195.947 254.486 195.926 254.646 195.94C254.807 195.918 254.97 195.934 255.124 195.987Z" fill="#333E57"/>
<path d="M255.28 195.384C255.125 195.485 254.945 195.539 254.76 195.54C254.584 195.564 254.404 195.539 254.241 195.468C254.412 195.439 254.586 195.425 254.76 195.426C254.932 195.395 255.105 195.382 255.28 195.384Z" fill="#333E57"/>
<path d="M253.618 196.444C253.424 196.481 253.225 196.481 253.031 196.444C252.821 196.419 252.614 196.374 252.412 196.309C252.288 196.275 252.167 196.226 252.054 196.164C251.985 196.123 251.933 196.058 251.909 195.982C251.899 195.939 251.902 195.893 251.918 195.852C251.934 195.81 251.961 195.774 251.997 195.748C252.141 195.678 252.298 195.642 252.458 195.64C252.618 195.639 252.776 195.673 252.921 195.74C253.066 195.807 253.195 195.905 253.297 196.028C253.4 196.151 253.474 196.295 253.514 196.45C253.524 196.501 253.524 196.554 253.514 196.606C253.455 196.418 253.363 196.242 253.244 196.086C253.105 195.93 252.925 195.818 252.724 195.764C252.494 195.689 252.244 195.708 252.028 195.816C251.94 195.883 251.976 195.992 252.075 196.055C252.181 196.112 252.292 196.159 252.407 196.195C252.603 196.259 252.802 196.31 253.005 196.346C253.394 196.429 253.618 196.429 253.618 196.444Z" fill="#333E57"/>
<path d="M253.467 196.476C253.391 196.355 253.365 196.21 253.394 196.07C253.413 195.917 253.468 195.771 253.555 195.644C253.604 195.557 253.674 195.484 253.758 195.432C253.842 195.379 253.939 195.348 254.038 195.343C254.097 195.356 254.148 195.392 254.182 195.442C254.216 195.492 254.229 195.553 254.22 195.613C254.207 195.706 254.173 195.795 254.121 195.873C254.042 196.002 253.95 196.122 253.846 196.231C253.756 196.335 253.642 196.415 253.514 196.465C253.514 196.465 253.628 196.361 253.789 196.174C253.882 196.067 253.964 195.95 254.033 195.826C254.111 195.701 254.168 195.478 254.033 195.452C253.898 195.426 253.742 195.587 253.654 195.701C253.571 195.814 253.514 195.944 253.488 196.081C253.466 196.211 253.459 196.344 253.467 196.476Z" fill="#333E57"/>
<path d="M263.289 195.831C263.289 195.831 263.029 195.831 262.619 195.857C262.085 195.921 261.579 196.134 261.159 196.471C260.74 196.808 260.423 197.256 260.245 197.764C260.11 198.154 260.1 198.419 260.079 198.414C260.058 198.409 260.079 198.346 260.079 198.232C260.092 198.065 260.124 197.899 260.173 197.738C260.338 197.207 260.656 196.735 261.087 196.382C261.523 196.036 262.053 195.828 262.609 195.785C262.781 195.764 262.956 195.764 263.128 195.785C263.184 195.793 263.238 195.809 263.289 195.831Z" fill="#333E57"/>
<path d="M258.921 197.588C258.485 197.689 258.038 197.733 257.591 197.718C257.146 197.74 256.701 197.701 256.266 197.603C256.266 197.572 256.859 197.603 257.591 197.603C258.323 197.603 258.916 197.557 258.921 197.588Z" fill="#333E57"/>
<path d="M260.697 197.572C260.697 197.572 260.651 197.697 260.588 197.832C260.526 197.967 260.495 198.092 260.464 198.087C260.433 198.081 260.417 197.946 260.49 197.785C260.562 197.624 260.677 197.546 260.697 197.572Z" fill="#333E57"/>
<path d="M261.367 196.736C261.367 196.736 261.331 196.85 261.237 196.944C261.144 197.037 261.05 197.099 261.024 197.079C260.999 197.058 261.061 196.964 261.154 196.866C261.248 196.767 261.341 196.71 261.367 196.736Z" fill="#333E57"/>
<path d="M262.323 196.351C262.323 196.382 262.198 196.382 262.063 196.429C261.928 196.476 261.835 196.548 261.809 196.528C261.783 196.507 261.861 196.382 262.027 196.325C262.193 196.268 262.333 196.32 262.323 196.351Z" fill="#333E57"/>
<path d="M263.004 196.164C263.004 196.195 262.968 196.242 262.89 196.268C262.811 196.294 262.744 196.299 262.733 196.268C262.723 196.237 262.775 196.19 262.848 196.164C262.921 196.138 262.994 196.138 263.004 196.164Z" fill="#333E57"/>
<path d="M275.589 195.499L275.246 194.735L283.407 190.635L284.846 193.753L284.326 194.018C282.098 195.177 272.93 199.76 271.195 199.989C269.278 200.264 275.589 195.499 275.589 195.499Z" fill="#313131"/>
<path d="M284.877 193.529L284.742 193.612L284.342 193.82L282.867 194.569C281.62 195.187 279.885 196.024 277.948 196.907C276.01 197.79 274.234 198.544 272.945 199.079L271.413 199.698L270.998 199.859C270.95 199.881 270.899 199.897 270.847 199.905L270.987 199.838L271.398 199.656L272.914 199.006C274.197 198.456 275.963 197.686 277.901 196.803C279.838 195.92 281.578 195.099 282.835 194.496L284.321 193.784L284.731 193.592L284.877 193.529Z" fill="#333E57"/>
<path d="M273.839 198.814C273.659 198.595 273.455 198.396 273.231 198.222C272.987 198.077 272.728 197.962 272.457 197.879C272.755 197.875 273.048 197.962 273.295 198.13C273.542 198.297 273.732 198.536 273.839 198.814Z" fill="#333E57"/>
<path d="M275.714 196.465C275.714 196.465 275.516 196.403 275.309 196.268C275.101 196.133 274.95 196.003 274.966 195.977C274.981 195.951 275.163 196.039 275.371 196.174C275.579 196.309 275.729 196.439 275.714 196.465Z" fill="#333E57"/>
<path d="M276.223 195.831C276.223 195.857 276.046 195.831 275.844 195.769C275.641 195.707 275.491 195.629 275.496 195.597C275.627 195.585 275.759 195.607 275.88 195.66C276.078 195.707 276.233 195.779 276.223 195.831Z" fill="#333E57"/>
<path d="M276.296 194.834C276.296 194.865 276.124 194.974 275.885 195.088C275.747 195.171 275.593 195.223 275.433 195.239C275.433 195.208 275.605 195.099 275.839 194.984C275.978 194.902 276.134 194.851 276.296 194.834Z" fill="#333E57"/>
<path d="M276.192 194.221C276.192 194.221 276.041 194.428 275.771 194.579C275.618 194.683 275.436 194.737 275.251 194.735C275.4 194.635 275.559 194.55 275.724 194.48C275.979 194.34 276.166 194.195 276.192 194.221Z" fill="#333E57"/>
<path d="M275.127 195.873C274.969 195.982 274.793 196.062 274.608 196.112C274.403 196.171 274.195 196.215 273.984 196.242C273.857 196.258 273.727 196.258 273.6 196.242C273.52 196.236 273.445 196.198 273.392 196.138C273.368 196.101 273.355 196.057 273.355 196.013C273.355 195.969 273.368 195.926 273.392 195.888C273.55 195.697 273.769 195.566 274.013 195.519C274.256 195.472 274.509 195.51 274.727 195.629C274.856 195.696 274.969 195.79 275.059 195.904C275.122 195.987 275.148 196.039 275.143 196.044C275.015 195.901 274.861 195.783 274.691 195.696C274.508 195.61 274.304 195.58 274.104 195.608C273.985 195.62 273.869 195.656 273.764 195.713C273.659 195.77 273.566 195.847 273.491 195.94C273.434 196.039 273.491 196.122 273.631 196.138C273.75 196.148 273.87 196.148 273.989 196.138C274.196 196.117 274.401 196.081 274.602 196.029C274.898 195.946 275.127 195.857 275.127 195.873Z" fill="#333E57"/>
<path d="M274.982 195.961C274.866 195.879 274.784 195.757 274.753 195.618C274.707 195.472 274.697 195.317 274.722 195.166C274.731 195.066 274.765 194.971 274.821 194.888C274.878 194.805 274.954 194.738 275.044 194.693C275.174 194.652 275.475 194.917 275.496 195.015C275.517 195.114 275.345 195.062 275.335 195.145C275.318 195.293 275.283 195.438 275.231 195.577C275.193 195.71 275.122 195.832 275.023 195.93C275.023 195.93 275.086 195.79 275.158 195.556C275.195 195.418 275.222 195.277 275.236 195.135C275.236 194.989 275.236 194.766 275.07 194.802C274.904 194.839 274.857 195.041 274.821 195.187C274.789 195.322 274.789 195.462 274.821 195.597C274.864 195.723 274.917 195.845 274.982 195.961Z" fill="#333E57"/>
<path d="M283.682 191.342C283.682 191.342 283.433 191.43 283.08 191.643C282.618 191.919 282.242 192.319 281.994 192.797C281.754 193.279 281.651 193.819 281.698 194.356C281.729 194.771 281.828 195.01 281.807 195.021C281.773 194.969 281.747 194.913 281.729 194.854C281.678 194.695 281.641 194.532 281.62 194.366C281.546 193.813 281.641 193.25 281.895 192.752C282.148 192.254 282.547 191.846 283.038 191.581C283.185 191.499 283.34 191.433 283.5 191.383C283.559 191.361 283.62 191.347 283.682 191.342Z" fill="#333E57"/>
<path d="M280.415 194.74C279.682 195.25 278.864 195.623 278 195.842C278 195.811 278.545 195.603 279.21 195.322C279.875 195.041 280.399 194.714 280.415 194.74Z" fill="#333E57"/>
<path d="M282.03 193.997C282.056 193.997 282.03 194.127 282.03 194.278C282.03 194.428 282.03 194.553 282.03 194.563C282.03 194.574 281.926 194.449 281.926 194.278C281.926 194.106 282.004 193.981 282.03 193.997Z" fill="#333E57"/>
<path d="M282.295 192.958C282.321 192.958 282.295 193.077 282.264 193.202C282.233 193.327 282.155 193.42 282.129 193.41C282.103 193.399 282.129 193.29 282.16 193.166C282.191 193.041 282.264 192.947 282.295 192.958Z" fill="#333E57"/>
<path d="M283.012 192.194C283.012 192.225 282.908 192.272 282.804 192.37C282.7 192.469 282.643 192.573 282.617 192.563C282.591 192.552 282.617 192.407 282.732 192.287C282.846 192.168 283.007 192.194 283.012 192.194Z" fill="#333E57"/>
<path d="M283.558 191.768C283.558 191.768 283.558 191.851 283.495 191.908C283.433 191.966 283.376 191.997 283.355 191.976C283.334 191.955 283.355 191.893 283.417 191.835C283.48 191.778 283.537 191.747 283.558 191.768Z" fill="#333E57"/>
<path d="M273.34 85.9981L271.824 67.4466L279.615 67.5869C279.615 67.5869 279.973 64.8483 278.825 58.8516C278.119 55.1725 275.672 52.9172 272.925 51.5765V51.5245L272.686 51.4622C270.424 50.4462 268.008 49.8157 265.538 49.5966L255.955 49.7057C255.955 49.7057 248.636 48.7704 244.6 54.0136C243.042 56.0247 238.206 69.7902 238.206 69.7902L249.711 75.3297L248.636 67.696C248.636 67.696 248.854 73.2303 249.561 74.9711C249.95 75.9481 251.119 78.9828 251.119 78.9828L250.968 88.1391L273.34 85.9981Z" fill="#FF3E79"/>
<path d="M268.052 64.7548L266.634 70.8139H280.051L279.168 60.6496L268.052 64.7548Z" fill="#FF3E79"/>
<path d="M280.051 70.8138C279.465 70.7057 278.871 70.6466 278.275 70.6371C277.174 70.5747 275.678 70.5176 273.974 70.528C272.27 70.5384 270.769 70.6111 269.668 70.6943C269.072 70.715 268.479 70.788 267.896 70.9125C268.491 70.9599 269.089 70.9599 269.683 70.9125C270.779 70.8761 272.28 70.8346 273.974 70.8294C275.667 70.8242 277.168 70.8294 278.27 70.8554C278.864 70.8887 279.459 70.8748 280.051 70.8138Z" fill="#333E57"/>
<path d="M267.476 60.6028C267.412 61.1199 267.398 61.642 267.434 62.1617C267.434 63.1127 267.476 64.4222 267.533 65.872C267.59 67.3219 267.658 68.6366 267.72 69.5823C267.722 70.1063 267.778 70.6286 267.886 71.1413C267.95 70.6242 267.964 70.1021 267.928 69.5823C267.928 68.6314 267.886 67.3167 267.829 65.8668C267.772 64.417 267.704 63.1075 267.642 62.1565C267.64 61.6343 267.584 61.1137 267.476 60.6028Z" fill="#333E57"/>
<g opacity="0.3">
<path opacity="0.3" d="M255.269 65.8511C255.269 65.8511 258.251 87.9726 266.634 87.3854C266.634 87.3854 270.411 87.3438 271.621 84.8339V83.8466L255.269 65.8511Z" fill="#313131"/>
</g>
<g opacity="0.3">
<path opacity="0.3" d="M267.476 61.9072L265.871 72.7523L266.91 74.6542L268.619 70.9335L267.897 70.9128L267.476 61.9072Z" fill="#313131"/>
</g>
<path d="M251.072 78.9931C250.973 78.8312 250.896 78.6564 250.844 78.4735C250.714 78.1357 250.542 77.6421 250.324 77.0237C249.804 75.4124 249.376 73.7728 249.041 72.113C248.708 70.4522 248.496 68.7692 248.407 67.0776C248.376 66.428 248.366 65.9032 248.376 65.5186C248.363 65.3308 248.375 65.142 248.413 64.9574C248.454 64.9574 248.485 65.7577 248.594 67.036C248.741 68.7123 248.978 70.3794 249.306 72.0298C249.69 73.9629 250.153 75.6934 250.506 76.9353C250.672 77.5121 250.812 78.0058 250.927 78.4111C250.998 78.5987 251.047 78.7941 251.072 78.9931Z" fill="#333E57"/>
<path d="M254.459 85.3485C254.386 85.3485 254.178 84.8964 253.997 84.3092C253.84 83.9493 253.771 83.5576 253.794 83.1659C254.023 83.4835 254.181 83.8469 254.256 84.2312C254.405 84.5841 254.475 84.9657 254.459 85.3485Z" fill="#333E57"/>
<path d="M255.617 85.2652C255.225 84.2228 255.208 83.0759 255.571 82.0226C255.611 82.5623 255.611 83.1042 255.571 83.6439C255.627 84.1824 255.643 84.7244 255.617 85.2652Z" fill="#333E57"/>
<path d="M249.945 75.5843C249.909 75.6466 247.234 74.3787 243.966 72.747C240.699 71.1153 238.076 69.733 238.107 69.6655C238.138 69.5979 240.819 70.8711 244.086 72.5028C247.353 74.1345 249.976 75.5167 249.945 75.5843Z" fill="#333E57"/>
<path d="M254.661 51.4985C254.719 48.869 254.734 46.1045 254.734 46.1045C254.734 46.1045 251.363 45.4549 250.776 41.0171C250.215 36.7872 251.784 26.8567 251.784 26.8567C256.708 24.9963 261.824 26.6852 265.195 30.6761L264.359 52.0181C264.261 54.4968 262.053 56.3884 259.404 56.2637C256.724 56.1337 254.604 54.0032 254.661 51.4985Z" fill="#B78876"/>
<path d="M251.524 34.7918C251.519 34.9374 251.571 35.0794 251.667 35.1885C251.764 35.2977 251.898 35.3658 252.043 35.379C252.117 35.3861 252.192 35.3781 252.262 35.3555C252.333 35.3329 252.398 35.2962 252.454 35.2476C252.51 35.199 252.555 35.1395 252.587 35.0727C252.619 35.006 252.638 34.9333 252.641 34.8593C252.645 34.7142 252.594 34.5729 252.497 34.4646C252.401 34.3563 252.266 34.2892 252.121 34.2773C252.047 34.2661 251.972 34.271 251.9 34.2917C251.828 34.3124 251.761 34.3484 251.705 34.3973C251.648 34.4461 251.602 34.5067 251.571 34.5748C251.54 34.6428 251.524 34.7169 251.524 34.7918Z" fill="#333E57"/>
<path d="M251.316 34.0485C251.384 34.1213 251.836 33.8147 252.433 33.8355C253.03 33.8563 253.472 34.168 253.545 34.0953C253.617 34.0225 253.513 33.929 253.321 33.7783C253.061 33.5898 252.749 33.4864 252.428 33.4821C252.111 33.47 251.8 33.5612 251.54 33.7419C251.347 33.8822 251.28 34.0122 251.316 34.0485Z" fill="#333E57"/>
<path d="M257.711 35.1762C257.705 35.3222 257.755 35.4648 257.852 35.5743C257.949 35.6837 258.084 35.7515 258.23 35.7634C258.304 35.7747 258.38 35.7697 258.453 35.7487C258.525 35.7277 258.592 35.6912 258.649 35.6418C258.706 35.5924 258.751 35.5312 258.782 35.4624C258.813 35.3937 258.828 35.3191 258.827 35.2438C258.833 35.0983 258.782 34.9563 258.685 34.8477C258.588 34.7391 258.453 34.6724 258.308 34.6618C258.234 34.6505 258.158 34.6554 258.086 34.6761C258.014 34.6968 257.948 34.7329 257.891 34.7817C257.834 34.8306 257.789 34.8911 257.758 34.9592C257.727 35.0273 257.71 35.1013 257.711 35.1762Z" fill="#333E57"/>
<path d="M257.669 34.4333C257.737 34.5113 258.188 34.2047 258.786 34.2202C259.383 34.2358 259.825 34.5528 259.903 34.4801C259.98 34.4073 259.866 34.3138 259.674 34.1683C259.418 33.9748 259.107 33.8691 258.786 33.8669C258.468 33.8574 258.155 33.9483 257.892 34.1267C257.705 34.267 257.638 34.3969 257.669 34.4333Z" fill="#333E57"/>
<path d="M255.342 38.8971C255.023 38.7875 254.691 38.7194 254.355 38.6945C254.199 38.6945 254.054 38.6373 254.033 38.5334C254.02 38.3709 254.06 38.2088 254.147 38.0709L254.635 36.9017C255.09 35.9079 255.463 34.8792 255.752 33.8253C255.22 34.7802 254.765 35.7758 254.391 36.8029C254.23 37.2135 254.069 37.6084 253.919 37.9826C253.818 38.1682 253.785 38.3832 253.825 38.5905C253.846 38.6469 253.879 38.6978 253.922 38.7392C253.965 38.7807 254.017 38.8116 254.074 38.8296C254.161 38.8545 254.25 38.8685 254.339 38.8712C254.671 38.9222 255.008 38.931 255.342 38.8971Z" fill="#333E57"/>
<path d="M254.734 46.1045C256.812 46.1877 258.873 45.6931 260.687 44.6755C260.687 44.6755 259.175 47.6739 254.765 47.149L254.734 46.1045Z" fill="#A36957"/>
<path d="M259.622 32.6611C259.497 32.8534 259.03 32.7703 258.511 32.6611C257.991 32.552 257.534 32.4637 257.472 32.2402C257.409 32.0168 257.955 31.7206 258.651 31.8609C259.347 32.0012 259.747 32.4948 259.622 32.6611Z" fill="#333E57"/>
<path d="M253.56 31.7778C253.513 32.0013 253.015 32.0844 252.443 32.1104C251.872 32.1364 251.368 32.1104 251.301 31.8818C251.233 31.6531 251.716 31.3309 252.407 31.2998C253.098 31.2686 253.607 31.5648 253.56 31.7778Z" fill="#333E57"/>
<path d="M255.352 40.3573C255.287 40.3418 255.218 40.3487 255.157 40.3769C255.096 40.4052 255.046 40.4532 255.015 40.5132C254.985 40.5662 254.97 40.626 254.971 40.6867C254.971 40.7474 254.988 40.8068 255.019 40.8592C255.049 40.9115 255.093 40.9549 255.146 40.9851C255.198 41.0152 255.258 41.0311 255.319 41.0311C255.379 41.0311 255.439 41.0152 255.492 40.9851C255.544 40.9549 255.588 40.9115 255.619 40.8592C255.65 40.8068 255.666 40.7474 255.667 40.6867C255.667 40.626 255.652 40.5662 255.623 40.5132C255.585 40.4434 255.525 40.3884 255.453 40.3572C255.38 40.3261 255.299 40.3206 255.223 40.3417" fill="#A36957"/>
<path d="M255.493 40.4195C255.493 40.3935 255.394 40.2428 255.129 40.2999C255.05 40.3206 254.977 40.3617 254.919 40.4192C254.861 40.4767 254.818 40.5484 254.796 40.6273C254.769 40.7268 254.771 40.8324 254.803 40.9305C254.836 41.0286 254.897 41.1148 254.978 41.1782C255.065 41.2374 255.167 41.2691 255.272 41.2691C255.377 41.2691 255.479 41.2374 255.565 41.1782C255.634 41.1316 255.689 41.0663 255.722 40.9898C255.755 40.9134 255.765 40.8291 255.752 40.7469C255.7 40.4714 255.498 40.4299 255.487 40.4662C255.477 40.5026 255.56 40.5962 255.544 40.7572C255.541 40.7971 255.528 40.8354 255.506 40.8689C255.484 40.9024 255.455 40.9301 255.42 40.9495C255.38 40.9728 255.334 40.985 255.287 40.985C255.241 40.985 255.195 40.9728 255.155 40.9495C255.119 40.9188 255.091 40.8791 255.075 40.8345C255.058 40.7899 255.054 40.7418 255.061 40.6949C255.067 40.6538 255.083 40.6149 255.108 40.5814C255.132 40.5478 255.164 40.5208 255.202 40.5026C255.347 40.4143 255.477 40.4558 255.493 40.4195Z" fill="#333E57"/>
<path d="M263.18 35.8883C262.661 37.1043 261.372 38.0448 261.549 39.3595C261.663 40.2066 262.209 40.9964 262.105 41.8487C261.97 42.888 260.863 43.6571 260.702 44.7223C260.51 46.0267 261.783 47.04 262.287 48.2559C263.029 50.0332 262.084 52.0286 262.058 53.9721C262.089 55.4476 262.653 56.8621 263.646 57.9532C264.639 59.0444 265.994 59.7384 267.46 59.9065C268.644 60.0052 269.979 59.6467 270.577 58.6282C271.096 57.7863 270.982 56.7159 271.283 55.7857C271.74 54.393 273.065 53.3745 273.361 51.9403C273.88 49.342 270.712 47.1595 270.92 44.4989C271.008 43.3608 271.709 42.3735 272.005 41.2719C272.194 40.5479 272.208 39.7895 272.047 39.0588C271.887 38.3281 271.555 37.6459 271.081 37.0679C270.296 36.1377 269.164 35.5089 268.483 34.5112C267.73 33.3628 267.704 31.913 267.445 30.5567C267.096 28.9081 266.335 27.375 265.233 26.1005C264.131 24.826 262.724 23.8517 261.144 23.2688C259.564 22.686 257.861 22.5134 256.196 22.7674C254.531 23.0213 252.958 23.6935 251.623 24.721C251.623 24.721 250.87 28.1455 254.386 28.7223C257.903 29.2991 259.528 28.634 259.923 30.0422C259.83 30.6224 259.876 31.2163 260.056 31.7754C260.237 32.3345 260.547 32.8428 260.962 33.2588C262.396 34.8074 263.762 34.4748 263.18 35.8883Z" fill="#333E57"/>
<path d="M268.764 59.6414C268.656 59.6451 268.547 59.6346 268.442 59.6102C268.137 59.5562 267.838 59.4744 267.548 59.366C266.476 58.9546 265.535 58.2595 264.827 57.3549C264.33 56.7308 263.94 56.0283 263.673 55.2763C263.37 54.4199 263.21 53.5191 263.201 52.6105C263.19 51.6091 263.316 50.6108 263.575 49.6433C263.716 49.1324 263.89 48.6308 264.094 48.1415C264.309 47.6546 264.498 47.1568 264.66 46.6501C264.803 46.1509 264.803 45.6216 264.66 45.1224C264.508 44.6309 264.312 44.1543 264.073 43.6985C263.833 43.2466 263.629 42.7755 263.466 42.2903C263.306 41.81 263.268 41.2973 263.357 40.7989C263.564 39.8219 264.157 39.0944 264.51 38.3513C264.846 37.6635 265.007 36.9028 264.977 36.1376C264.93 35.0178 264.524 33.9428 263.819 33.0717C263.546 32.7665 263.253 32.4801 262.941 32.2143C263.305 32.419 263.631 32.6864 263.902 33.0041C264.659 33.874 265.104 34.9708 265.169 36.122C265.212 36.9206 265.055 37.7173 264.712 38.4397C264.354 39.2088 263.777 39.9415 263.601 40.8353C263.424 41.7291 263.845 42.6696 264.307 43.5738C264.559 44.0427 264.765 44.5353 264.92 45.0444C265.073 45.5881 265.073 46.1636 264.92 46.7073C264.747 47.2316 264.548 47.7467 264.323 48.2507C264.118 48.7293 263.945 49.2205 263.803 49.7213C263.545 50.6643 263.418 51.6381 263.424 52.6157C263.408 54.2807 263.945 55.9038 264.951 57.2302C265.624 58.1235 266.52 58.8242 267.548 59.2621C268.322 59.5634 268.769 59.6102 268.764 59.6414Z" fill="#313131"/>
<path d="M268.244 33.4197C267.991 33.4853 267.732 33.5236 267.47 33.534C266.758 33.6103 266.038 33.5911 265.33 33.4769C264.794 33.3974 264.279 33.2117 263.815 32.9306C263.351 32.6496 262.948 32.2788 262.629 31.84C262.332 31.2848 262.096 30.6995 261.923 30.0939C261.701 29.4891 261.285 28.9753 260.739 28.6337C259.601 27.9114 258.266 27.8231 257.103 27.6828C256.029 27.6293 254.987 27.3038 254.074 26.737C253.463 26.3316 253.021 25.7159 252.833 25.0066C252.788 24.8143 252.775 24.6157 252.797 24.4194C252.797 24.2843 252.828 24.2167 252.838 24.2167C252.844 24.4741 252.877 24.7301 252.937 24.9806C253.152 25.6439 253.593 26.2104 254.183 26.5811C255.08 27.1043 256.092 27.3971 257.129 27.4333C258.292 27.5685 259.674 27.636 260.889 28.4051C261.484 28.7788 261.937 29.3401 262.177 30.0004C262.34 30.5906 262.565 31.1619 262.847 31.7049C263.452 32.5352 264.359 33.0949 265.372 33.2638C266.057 33.3912 266.754 33.4383 267.45 33.4041C267.715 33.3892 267.98 33.3944 268.244 33.4197Z" fill="#313131"/>
<path d="M266.956 29.1898C266.761 29.2552 266.555 29.2852 266.349 29.2781C265.38 29.2846 264.448 28.9116 263.751 28.2388C263.434 27.9201 263.163 27.5579 262.946 27.1631C262.479 26.3733 262.027 25.4015 261.056 24.9962C260.12 24.6821 259.123 24.5948 258.147 24.7416C257.323 24.8573 256.488 24.8573 255.664 24.7416C255.091 24.662 254.551 24.4245 254.106 24.0556C253.991 23.9552 253.889 23.8398 253.804 23.7127C253.742 23.6226 253.716 23.5758 253.726 23.5724C253.726 23.5724 253.872 23.7386 254.173 23.9725C254.617 24.2885 255.133 24.4886 255.674 24.5545C256.483 24.6457 257.3 24.6317 258.105 24.5129C259.124 24.3465 260.168 24.4358 261.144 24.7727C261.645 24.9982 262.075 25.3579 262.385 25.812C262.659 26.2172 262.911 26.637 263.139 27.0696C263.343 27.4473 263.597 27.7967 263.892 28.1089C264.152 28.3729 264.452 28.5955 264.78 28.7689C265.263 29.0212 265.794 29.1682 266.338 29.2002C266.738 29.195 266.951 29.1638 266.956 29.1898Z" fill="#313131"/>
<path d="M270.312 58.5191C270.286 58.5191 270.452 58.1761 270.644 57.5317C270.904 56.6271 271.02 55.6871 270.987 54.7464C270.949 53.3539 270.569 51.9921 269.881 50.7815C269.502 50.1007 268.925 49.4927 268.452 48.7444C268.202 48.3632 268.026 47.9384 267.933 47.4921C267.851 47.0223 267.89 46.5394 268.047 46.089C268.338 45.19 268.857 44.4365 268.972 43.6103C269.086 42.7841 268.691 42.0513 268.296 41.3602C268.093 41.0239 267.907 40.677 267.741 40.3209C267.589 39.9756 267.489 39.6095 267.445 39.2348C267.396 38.5745 267.417 37.9109 267.507 37.255C267.673 36.3278 267.587 35.3729 267.258 34.4904C267.111 34.1813 266.902 33.9054 266.645 33.6798C266.645 33.6798 266.671 33.6798 266.707 33.711C266.768 33.7415 266.825 33.7819 266.873 33.8305C267.076 33.9998 267.241 34.2106 267.356 34.4489C267.732 35.3389 267.849 36.3169 267.694 37.2706C267.622 37.9143 267.614 38.5635 267.668 39.2089C267.796 39.9349 268.083 40.6235 268.509 41.2251C268.731 41.5763 268.92 41.9467 269.076 42.332C269.239 42.7478 269.293 43.1988 269.231 43.6415C269.107 44.5509 268.572 45.3199 268.302 46.167C268.16 46.5757 268.122 47.0133 268.193 47.4401C268.283 47.853 268.449 48.2457 268.681 48.5989C269.122 49.3212 269.72 49.9396 270.099 50.6516C270.795 51.9031 271.166 53.3091 271.179 54.7412C271.196 55.6998 271.048 56.6541 270.743 57.5629C270.66 57.8089 270.559 58.0485 270.442 58.28C270.41 58.3655 270.366 58.446 270.312 58.5191Z" fill="#313131"/>
<path d="M249.155 155.345C249.155 155.345 245.654 122.171 245.452 109.912C245.249 97.6539 250.963 85.5564 250.963 85.5564L273.34 84.6262C273.34 84.6262 277.766 97.0614 277.844 102.294C277.999 112.448 275.148 122.472 275.475 130.527L276.223 155.366" fill="#333E57"/>
<path d="M276.976 114.558C276.859 114.659 276.736 114.753 276.607 114.839L276.405 114.979L276.187 115.192C275.994 115.358 275.82 115.545 275.667 115.748C274.945 116.631 274.42 118.216 273.917 120.186C273.659 121.278 273.279 122.338 272.784 123.345C272.634 123.621 272.46 123.884 272.265 124.13C272.171 124.255 272.083 124.39 271.974 124.509L271.631 124.852C271.14 125.311 270.57 125.678 269.948 125.933C268.696 126.484 267.278 126.744 265.99 127.393C264.67 128.104 263.651 129.266 263.118 130.667C262.484 132.075 262.079 133.551 261.559 134.934C261.04 136.316 260.339 137.636 259.222 138.478C258.154 139.22 256.886 139.62 255.586 139.626C254.381 139.699 253.264 139.662 252.262 139.813C251.359 139.907 250.497 140.233 249.758 140.759C249.218 141.181 248.814 141.752 248.594 142.401C248.455 142.81 248.425 143.249 248.506 143.674C248.568 143.965 248.646 144.105 248.631 144.111C248.547 143.98 248.487 143.836 248.454 143.684C248.345 143.251 248.359 142.795 248.496 142.37C248.702 141.688 249.109 141.085 249.664 140.639C250.422 140.068 251.319 139.709 252.262 139.6C253.3 139.434 254.407 139.455 255.596 139.377C256.858 139.368 258.088 138.977 259.123 138.254C260.173 137.336 260.948 136.146 261.362 134.814C261.881 133.447 262.261 131.966 262.92 130.532C263.479 129.073 264.545 127.865 265.923 127.128C267.263 126.463 268.681 126.209 269.901 125.679C270.499 125.431 271.048 125.079 271.522 124.639L271.849 124.312C271.953 124.198 272.041 124.068 272.135 123.948C272.318 123.712 272.48 123.46 272.618 123.195C273.116 122.201 273.501 121.156 273.766 120.077C274.285 118.112 274.852 116.507 275.615 115.618C275.767 115.416 275.941 115.231 276.135 115.067C276.218 114.995 276.29 114.922 276.363 114.865L276.576 114.73C276.706 114.664 276.839 114.607 276.976 114.558Z" fill="#FAFAFA"/>
<path d="M277.111 99.2076C277.135 99.3535 277.145 99.5014 277.142 99.6493C277.141 100.078 277.088 100.506 276.987 100.922C276.539 102.443 275.661 103.8 274.457 104.83C273.663 105.561 272.792 106.204 271.86 106.748C270.857 107.34 269.751 107.906 268.613 108.551C267.419 109.192 266.306 109.975 265.299 110.884C264.267 111.909 263.417 113.102 262.785 114.413C262.148 115.741 261.421 117.024 260.609 118.253C260.196 118.825 259.718 119.349 259.186 119.812C258.66 120.259 258.083 120.641 257.466 120.95C256.35 121.498 255.187 121.945 253.991 122.285C252.88 122.628 251.841 122.935 250.937 123.325C250.117 123.651 249.336 124.069 248.61 124.572C248.064 124.951 247.573 125.404 247.151 125.918C246.797 126.363 246.502 126.852 246.273 127.373C246.31 127.229 246.358 127.088 246.418 126.952C246.588 126.559 246.806 126.189 247.067 125.85C247.482 125.314 247.972 124.842 248.522 124.447C249.251 123.927 250.037 123.491 250.864 123.148C251.865 122.74 252.886 122.384 253.924 122.083C255.103 121.735 256.25 121.286 257.352 120.742C257.937 120.437 258.486 120.067 258.988 119.64C259.501 119.184 259.961 118.671 260.36 118.112C261.161 116.89 261.881 115.615 262.515 114.298C263.167 112.959 264.046 111.742 265.112 110.702C266.136 109.78 267.27 108.987 268.489 108.343C269.631 107.704 270.738 107.148 271.74 106.561C272.67 106.035 273.54 105.411 274.337 104.7C275.531 103.701 276.417 102.384 276.893 100.902C277.026 100.346 277.1 99.7784 277.111 99.2076Z" fill="#FAFAFA"/>
<path d="M245.566 111.648C245.546 111.616 245.53 111.581 245.519 111.544C245.481 111.444 245.448 111.341 245.421 111.237C245.332 110.824 245.35 110.395 245.473 109.99C245.764 108.951 246.912 107.615 248.761 106.956C249.685 106.639 250.729 106.436 251.82 106.166C252.726 106.015 253.583 105.651 254.319 105.102C255.056 104.553 255.65 103.837 256.054 103.011C256.349 102.406 256.607 101.783 256.827 101.146C257.234 99.7626 257.786 98.4265 258.474 97.1601C259.263 95.9153 260.46 94.9838 261.861 94.5255C263.135 94.112 264.434 93.7822 265.751 93.5381C266.926 93.3124 268.065 92.9241 269.133 92.3845C270.038 91.8674 270.818 91.1578 271.418 90.3059C272.305 89.0759 272.811 87.6121 272.873 86.0967C272.875 85.5406 272.839 84.9849 272.764 84.4339C272.921 84.9737 272.992 85.5348 272.977 86.0967C272.956 87.645 272.467 89.1506 271.574 90.415C270.966 91.2951 270.169 92.0283 269.242 92.5612C268.16 93.1209 267.004 93.525 265.808 93.7616C264.504 94.0094 263.216 94.3409 261.954 94.7541C260.61 95.1948 259.46 96.0894 258.703 97.2848C258.025 98.534 257.48 99.8507 257.077 101.213C256.852 101.862 256.587 102.495 256.282 103.11C255.974 103.701 255.582 104.243 255.119 104.721C254.206 105.553 253.083 106.119 251.872 106.358C250.771 106.639 249.732 106.815 248.823 107.117C247.021 107.73 245.878 108.993 245.571 110.001C245.445 110.389 245.412 110.802 245.473 111.206C245.517 111.35 245.548 111.498 245.566 111.648Z" fill="#FAFAFA"/>
<path d="M275.189 139.709C275.21 139.817 275.223 139.927 275.226 140.036C275.236 140.351 275.202 140.666 275.127 140.972C274.801 142.099 274.11 143.085 273.163 143.778C272.532 144.282 271.832 144.695 271.086 145.004C270.291 145.342 269.413 145.612 268.489 145.898C267.529 146.179 266.59 146.526 265.679 146.937C264.732 147.39 263.883 148.024 263.18 148.803C262.422 149.593 261.767 150.461 261.04 151.23C260.344 151.975 259.536 152.606 258.645 153.1C257.129 153.928 255.433 154.371 253.706 154.389C252.549 154.402 251.399 154.21 250.309 153.823C250.013 153.721 249.724 153.598 249.446 153.454C249.345 153.412 249.249 153.358 249.161 153.293C249.265 153.322 249.368 153.358 249.467 153.402C249.752 153.524 250.044 153.631 250.34 153.724C251.428 154.066 252.565 154.225 253.706 154.197C255.395 154.153 257.048 153.702 258.526 152.882C259.389 152.393 260.172 151.774 260.848 151.048C261.559 150.289 262.209 149.427 262.983 148.616C263.727 147.807 264.624 147.154 265.621 146.693C266.546 146.28 267.499 145.933 268.473 145.654C269.387 145.373 270.26 145.134 271.07 144.791C271.795 144.494 272.476 144.101 273.096 143.622C274.027 142.964 274.721 142.024 275.075 140.941C275.152 140.535 275.19 140.122 275.189 139.709Z" fill="#FAFAFA"/>
<path d="M272.639 70.8347L268.307 70.9386C268.14 71.8125 267.809 72.6467 267.33 73.3966C263.694 67.1088 260.905 58.6905 260.209 55.3075C260.313 54.9698 260.432 54.5956 260.583 54.1799C260.691 53.5485 260.672 52.9018 260.526 52.278C260.401 51.5245 260.193 50.5112 260.131 50.0435C259.939 48.6092 259.705 48.3858 259.206 48.5469C258.531 48.7703 259.487 52.5638 258.931 52.6469C258.63 52.6885 258.266 51.3894 258.162 50.3241C258.059 49.2588 257.57 45.9746 257.222 45.7564C256.703 45.4342 256.251 45.9434 256.386 47.0035C256.521 48.0636 256.682 51.2854 256.121 51.3322C255.56 51.379 255.082 45.933 255.082 45.933C255.082 45.933 255.171 44.7482 254.516 44.7742C253.342 44.8262 254.262 50.5631 254.36 51.1088C254.433 51.4829 253.841 51.5557 253.768 51.1451C253.695 50.7346 253.425 45.7044 252.21 45.746C251.285 45.746 252.921 50.4696 252.402 51.5609C251.883 52.6521 251.529 47.8609 250.651 47.9233C250.324 47.9493 250.08 48.0116 250.683 50.719C251.26 52.8701 251.953 54.9882 252.76 57.064C254.152 64.5729 260.261 88.5963 269.834 84.2001C275.195 81.7369 277.366 70.8347 277.366 70.8347H272.639Z" fill="#B78876"/>
<path d="M254.173 51.4726C254.214 51.4829 254.257 51.4829 254.298 51.4726C254.36 51.4534 254.414 51.4125 254.449 51.3573C254.485 51.3021 254.499 51.2361 254.49 51.1712C254.49 50.849 254.428 50.3813 254.355 49.7733C254.233 49.0405 254.153 48.3014 254.116 47.5596C254.116 47.1231 254.116 46.6554 254.142 46.1617C254.15 45.9107 254.176 45.6606 254.22 45.4134C254.261 45.1796 254.417 44.8938 254.599 44.9406H254.63C254.812 44.9406 254.957 45.0757 255.015 45.2939C255.079 45.5201 255.103 45.7557 255.087 45.9902C255.194 47.4456 255.38 48.894 255.643 50.3293C255.685 50.5216 255.726 50.7191 255.789 50.9165C255.816 51.0176 255.851 51.1166 255.892 51.2127C255.919 51.2663 255.949 51.3183 255.981 51.3686C256.004 51.4066 256.036 51.4386 256.074 51.4621C256.112 51.4855 256.155 51.4998 256.199 51.5037C256.275 51.4954 256.346 51.4648 256.404 51.4158C256.463 51.3667 256.505 51.3015 256.526 51.2283C256.571 51.1267 256.604 51.0203 256.625 50.9113C256.665 50.7019 256.693 50.4902 256.708 50.2774C256.755 49.4115 256.743 48.5433 256.672 47.6791C256.606 47.2476 256.588 46.8101 256.62 46.3748C256.639 46.1867 256.73 46.0134 256.874 45.8915C256.907 45.8717 256.945 45.8591 256.983 45.8547C257.022 45.8502 257.061 45.8539 257.098 45.8655C257.142 45.8761 257.184 45.8936 257.222 45.9175C257.249 45.9372 257.268 45.9644 257.279 45.9954C257.443 46.4168 257.563 46.8539 257.638 47.2998C257.731 47.7571 257.809 48.2299 257.882 48.7028C257.955 49.1757 258.022 49.6538 258.079 50.1371C258.124 50.6358 258.204 51.1307 258.318 51.6181C258.38 51.8673 258.458 52.1121 258.552 52.3508C258.605 52.4844 258.679 52.6089 258.77 52.7197C258.805 52.7658 258.853 52.801 258.907 52.8212C258.961 52.8414 259.02 52.8459 259.077 52.834C259.129 52.8167 259.176 52.786 259.214 52.7451C259.251 52.7041 259.277 52.6542 259.29 52.6002C259.351 52.3346 259.37 52.0611 259.347 51.7895C259.347 51.5297 259.316 51.2699 259.29 51.0205C259.253 50.584 259.212 50.1526 259.196 49.7265C259.183 49.5171 259.183 49.3071 259.196 49.0978C259.206 49.0051 259.229 48.9142 259.264 48.8275C259.274 48.799 259.29 48.7726 259.31 48.7496H259.378C259.721 48.6093 259.835 49.0874 259.928 49.4719C260.022 49.8564 260.058 50.2929 260.141 50.7035C260.276 51.5193 260.453 52.3352 260.541 53.1146C260.601 53.4879 260.587 53.8693 260.5 54.2371C260.375 54.6112 260.25 54.9802 260.131 55.3491V55.3855V55.4167C260.739 57.9696 261.515 60.4798 262.453 62.9308C263.274 65.1497 264.099 67.088 264.821 68.647C265.543 70.2059 266.198 71.4271 266.645 72.2482L267.164 73.1783C267.22 73.2892 267.288 73.3937 267.367 73.4901C267.323 73.3747 267.269 73.2634 267.206 73.1576L266.686 72.2066C266.26 71.37 265.647 70.128 264.941 68.569C264.235 67.0101 263.435 65.0718 262.635 62.8529C261.719 60.4055 260.959 57.9028 260.36 55.3595V55.4323C260.479 55.0685 260.599 54.6996 260.723 54.3306C260.831 53.9257 260.852 53.5024 260.785 53.0887C260.692 52.2728 260.521 51.4829 260.386 50.6619C260.308 50.2566 260.256 49.8409 260.173 49.4147C260.167 49.1958 260.13 48.9788 260.063 48.7704C260.004 48.6436 259.903 48.5409 259.778 48.4794C259.644 48.4357 259.501 48.4357 259.367 48.4794H259.284C259.24 48.4935 259.2 48.5165 259.165 48.5469C259.107 48.5959 259.063 48.6584 259.035 48.7288C258.987 48.8413 258.958 48.9605 258.947 49.0822C258.931 49.3071 258.931 49.5328 258.947 49.7577C258.947 50.1942 259.009 50.6307 259.045 51.0672C259.045 51.3219 259.087 51.5869 259.097 51.8207C259.118 52.0551 259.106 52.2912 259.061 52.5222C259.061 52.5742 259.019 52.5638 259.061 52.5898L259.03 52.5586C258.964 52.4737 258.911 52.3791 258.874 52.278C258.783 52.0532 258.709 51.8223 258.651 51.5869C258.537 51.1136 258.458 50.6325 258.417 50.1474C258.361 49.659 258.294 49.1757 258.214 48.6976C258.142 48.2195 258.058 47.7519 257.965 47.2842C257.887 46.8081 257.754 46.3426 257.57 45.8967C257.535 45.8222 257.479 45.7592 257.409 45.7148C257.349 45.6797 257.284 45.6518 257.217 45.6317C257.143 45.6122 257.066 45.6077 256.99 45.6184C256.914 45.6291 256.841 45.6548 256.775 45.694C256.668 45.7741 256.579 45.8755 256.513 45.9917C256.447 46.1079 256.405 46.2366 256.391 46.3696C256.357 46.6057 256.357 46.8454 256.391 47.0815C256.391 47.305 256.443 47.5232 256.459 47.7415C256.531 48.5917 256.547 49.4458 256.505 50.2981C256.493 50.5006 256.467 50.702 256.427 50.9009C256.413 50.9938 256.386 51.0846 256.35 51.1712C256.336 51.2054 256.317 51.2371 256.292 51.2647C256.292 51.3115 256.256 51.2647 256.261 51.3271C256.261 51.2751 256.261 51.327 256.261 51.2595C256.238 51.2244 256.217 51.188 256.199 51.1504C256.163 51.0672 256.131 50.9737 256.1 50.8854C256.043 50.6983 256.002 50.506 255.96 50.3189C255.689 48.896 255.493 47.4598 255.373 46.0162C255.389 45.755 255.359 45.493 255.285 45.242C255.25 45.111 255.18 44.9922 255.082 44.899C255.031 44.8498 254.971 44.8116 254.905 44.7866C254.839 44.7616 254.768 44.7503 254.698 44.7535H254.729C254.641 44.7406 254.551 44.754 254.471 44.7919C254.391 44.8298 254.323 44.8905 254.277 44.9665C254.2 45.0905 254.147 45.2281 254.121 45.3719C254.078 45.6295 254.053 45.8901 254.048 46.1513C254.048 46.671 254.048 47.1231 254.048 47.5648C254.098 48.3113 254.193 49.0541 254.334 49.7889C254.422 50.3917 254.49 50.8594 254.521 51.1764C254.531 51.2319 254.522 51.2891 254.494 51.3384C254.467 51.3876 254.423 51.4259 254.371 51.4466C254.215 51.4622 254.168 51.4674 254.173 51.4726Z" fill="#A36957"/>
<path d="M220.343 77.9904C219.329 77.9687 218.317 78.0859 217.335 78.3386C214.65 79.0453 210.022 81.8514 209.829 85.3175H213.195C213.195 85.3175 211.31 89.3292 211.86 88.955C213.299 87.9885 216.156 85.0836 216.156 85.0836L220.343 77.9904Z" fill="#B78876"/>
<path d="M266.224 17.5913C266.146 17.5913 265.845 14.8164 265.543 11.3555C265.242 7.89462 265.055 5.11969 265.128 5.11969C265.2 5.11969 265.507 7.89462 265.808 11.3555C266.109 14.8164 266.296 17.5913 266.224 17.5913Z" fill="#333E57"/>
<path d="M280.981 5.33273C281.038 5.37431 278.768 8.67408 275.906 12.7014C273.044 16.7287 270.67 19.9765 270.608 19.9141C270.546 19.8518 272.821 16.5728 275.683 12.5455C278.545 8.51819 280.919 5.29116 280.981 5.33273Z" fill="#333E57"/>
<path d="M287.11 20.2882C287.11 20.361 284.472 20.969 281.189 21.6445C277.906 22.32 275.226 22.8085 275.21 22.7358C275.195 22.663 277.844 22.055 281.132 21.3795C284.42 20.7039 287.074 20.2155 287.11 20.2882Z" fill="#333E57"/>
<path d="M110.467 91.6621L92.0794 186.135L89.6901 198.502L212.276 197.91C217.782 197.884 222.664 192.994 224.425 185.729L246.168 96.5417C247.514 91.0282 244.563 85.2912 240.387 85.2964L116.285 85.4263C113.584 85.4211 111.163 87.9778 110.467 91.6621Z" fill="#FF3E79"/>
<g opacity="0.5">
<path opacity="0.5" d="M110.467 91.6621L92.0794 186.135L89.6901 198.502L212.276 197.91C217.782 197.884 222.664 192.994 224.425 185.729L246.168 96.5417C247.514 91.0282 244.563 85.2912 240.387 85.2964L116.285 85.4263C113.584 85.4211 111.163 87.9778 110.467 91.6621Z" fill="#313131"/>
</g>
<path d="M200.531 179.722L187.545 75.0592C187.026 70.7721 183.603 67.571 179.567 67.5866L151.102 67.6749C150.044 67.6869 149 67.9142 148.033 68.343C147.066 68.7718 146.196 69.3932 145.477 70.1693L131.972 84.548L52.8103 84.9741C47.9744 85.0001 44.2553 89.5834 44.8942 94.7279L56.9502 191.461C57.4696 195.743 60.8927 198.939 64.9183 198.933L202.905 198.658C218.27 198.975 219.74 194.438 219.74 194.438C202.1 198.341 200.531 179.748 200.531 179.722Z" fill="#FF3E79"/>
<g opacity="0.5">
<path opacity="0.5" d="M141.031 158.791L136.376 163.79L100.536 131.53L105.19 126.531L141.031 158.791Z" fill="white"/>
<path opacity="0.5" d="M134.428 125.424L139.571 130.054L107.138 164.896L101.995 160.266L134.428 125.424Z" fill="white"/>
</g>
<path d="M220.233 23.7128C220.065 23.6419 219.921 23.5246 219.817 23.3746C219.713 23.2246 219.654 23.0481 219.646 22.8658L219.439 18.0434C219.431 17.8936 219.459 17.7441 219.519 17.6068C219.58 17.4695 219.671 17.3481 219.787 17.2523C219.902 17.1565 220.038 17.0889 220.184 17.0548C220.33 17.0208 220.482 17.0212 220.628 17.0561C221.03 17.1429 221.446 17.1466 221.85 17.0671C222.253 16.9876 222.637 16.8265 222.976 16.5936C223.288 16.3958 223.557 16.136 223.765 15.8303C223.973 15.5247 224.116 15.1796 224.186 14.8164C224.233 14.4486 224.206 14.0751 224.106 13.718C224.006 13.361 223.835 13.0277 223.604 12.7378C223.361 12.408 223.055 12.1294 222.704 11.9181C222.353 11.7068 221.963 11.5668 221.558 11.5062C220.74 11.4607 219.932 11.6925 219.262 12.1641C218.593 12.6356 218.102 13.3193 217.87 14.1045C217.792 14.3424 217.626 14.5412 217.405 14.6594C217.185 14.7777 216.927 14.8063 216.686 14.7393C216.445 14.6724 216.24 14.5149 216.112 14.2999C215.984 14.0848 215.944 13.8287 216 13.5848C216.353 12.3498 217.121 11.2742 218.174 10.5389C219.227 9.80357 220.501 9.45334 221.781 9.54712C222.448 9.63596 223.09 9.85792 223.669 10.1998C224.248 10.5417 224.752 10.9966 225.152 11.5374C225.541 12.0386 225.826 12.6128 225.989 13.226C226.152 13.8392 226.191 14.479 226.103 15.1074C225.985 15.7349 225.74 16.3316 225.382 16.8606C225.025 17.3897 224.563 17.84 224.025 18.1837C223.246 18.7086 222.336 19.0055 221.397 19.0411L221.558 22.7618C221.564 22.9253 221.529 23.0877 221.455 23.2338C221.382 23.38 221.273 23.5053 221.138 23.598C221.003 23.6908 220.847 23.7481 220.685 23.7645C220.522 23.7809 220.358 23.756 220.207 23.692L220.233 23.7128Z" fill="#FF3E79"/>
<path d="M221.657 25.6874C221.668 25.8443 221.632 26.001 221.554 26.1375C221.476 26.2741 221.359 26.3844 221.218 26.4545C221.077 26.5246 220.919 26.5513 220.763 26.5313C220.607 26.5114 220.46 26.4455 220.342 26.3422C220.223 26.2389 220.138 26.1027 220.097 25.9509C220.056 25.799 220.06 25.6384 220.111 25.4893C220.161 25.3402 220.254 25.2093 220.378 25.1132C220.503 25.0171 220.653 24.9601 220.81 24.9495C220.914 24.9417 221.019 24.9547 221.118 24.9877C221.217 25.0206 221.309 25.073 221.387 25.1416C221.466 25.2102 221.53 25.2938 221.577 25.3875C221.623 25.4812 221.65 25.5831 221.657 25.6874Z" fill="#FF3E79"/>
<path d="M203.544 16.9105C203.566 16.8077 203.582 16.7035 203.591 16.5987C203.591 16.37 203.648 16.079 203.689 15.6685C203.74 15.1645 203.825 14.6645 203.944 14.1719C204.011 13.8809 204.048 13.5587 204.152 13.2313C204.255 12.904 204.359 12.5506 204.474 12.192C205.075 10.4155 205.951 8.74441 207.071 7.23978C208.538 5.29142 210.398 3.67325 212.53 2.49017C213.744 1.80561 215.036 1.27163 216.379 0.900045C217.828 0.515733 219.321 0.320114 220.82 0.318036C221.61 0.305348 222.399 0.347019 223.183 0.442752C223.583 0.484324 223.978 0.588254 224.378 0.655809C224.783 0.725118 225.182 0.822352 225.573 0.946814C227.21 1.40454 228.767 2.11081 230.191 3.041C233.355 5.09428 235.765 8.1222 237.057 11.6672C237.753 13.5661 238.105 15.5739 238.096 17.5964C238.118 19.6799 237.75 21.749 237.011 23.6971L236.777 24.2895L236.746 24.3674L236.777 24.4454C238.081 27.4438 239.374 30.3902 240.595 33.2431L240.813 32.9936L233.021 30.0057L232.928 29.9693L232.85 30.042C230.789 32.04 228.266 33.4967 225.505 34.2824C223.147 34.932 220.677 35.0738 218.26 34.6985C215.842 34.3232 213.532 33.4393 211.481 32.105C209.801 31.003 208.32 29.6236 207.102 28.0258C205.336 25.6935 204.192 22.9504 203.778 20.0543C203.715 19.5347 203.663 19.0982 203.617 18.7033C203.57 18.3083 203.617 17.9861 203.591 17.7107C203.565 17.4353 203.591 17.2534 203.591 17.1027C203.616 17.0988 203.64 17.0852 203.656 17.0647C203.673 17.0442 203.681 17.0183 203.679 16.9922C203.677 16.966 203.665 16.9416 203.646 16.9238C203.626 16.906 203.601 16.8961 203.575 16.8961C203.549 16.8961 203.524 16.906 203.504 16.9238C203.485 16.9416 203.473 16.966 203.471 16.9922C203.469 17.0183 203.477 17.0442 203.494 17.0647C203.51 17.0852 203.533 17.0988 203.559 17.1027C203.559 17.2534 203.559 17.4561 203.559 17.7107C203.559 17.9654 203.559 18.3187 203.559 18.7137C203.559 19.1086 203.648 19.5607 203.7 20.0751C203.87 21.325 204.168 22.5543 204.588 23.7439C205.182 25.3148 205.982 26.8001 206.967 28.1609C208.19 29.7872 209.681 31.1931 211.377 32.3181C213.453 33.6856 215.796 34.5958 218.251 34.9882C220.706 35.3806 223.216 35.2463 225.614 34.5942C228.408 33.8004 230.963 32.3297 233.053 30.3122L232.881 30.3486L240.673 33.3522L241.062 33.5029L240.891 33.1028C239.655 30.2499 238.377 27.3087 237.078 24.3051V24.4558L237.317 23.8478C238.075 21.8573 238.452 19.7419 238.429 17.612C238.445 15.5466 238.093 13.4948 237.39 11.5529C236.07 7.93723 233.606 4.85173 230.372 2.76559C228.913 1.8137 227.315 1.0949 225.635 0.635022C225.238 0.509188 224.831 0.413646 224.42 0.349215C224.015 0.276464 223.615 0.172534 223.209 0.136159C222.415 0.037506 221.615 -0.00763122 220.815 0.00105052C219.292 0.00750089 217.776 0.213653 216.306 0.614238C214.946 1.00079 213.636 1.54857 212.405 2.24594C210.252 3.45804 208.38 5.11421 206.915 7.10467C205.799 8.63421 204.934 10.3324 204.354 12.1349C204.245 12.509 204.141 12.8676 204.048 13.1742C203.965 13.4874 203.899 13.8049 203.85 14.1251C203.739 14.6211 203.666 15.1249 203.632 15.6321C203.601 16.0323 203.58 16.3389 203.565 16.5675C203.543 16.6804 203.536 16.7957 203.544 16.9105Z" fill="#333E57"/>
</g>
</svg>
