<svg width="34" height="34" viewBox="0 0 34 34" fill="none" xmlns="http://www.w3.org/2000/svg">
<path d="M4.55633 16.9965H1L16.9965 1L33 16.9965H29.4437" stroke="#BDBDBD" stroke-width="1.5" stroke-linecap="round" stroke-linejoin="round"/>
<path d="M4.5564 17.0035V29.4437C4.5564 30.3869 4.93107 31.2914 5.59801 31.9584C6.26495 32.6253 7.16952 33 8.11272 33H25.9082C26.8514 33 27.756 32.6253 28.4229 31.9584C29.0899 31.2914 29.4646 30.3869 29.4646 29.4437V17.0035" stroke="#BDBDBD" stroke-width="1.5" stroke-linecap="round" stroke-linejoin="round"/>
<path d="M11.6691 33V22.3379C11.6691 21.3947 12.0437 20.4902 12.7107 19.8232C13.3776 19.1563 14.2822 18.7816 15.2254 18.7816H18.7817C19.2484 18.7816 19.7105 18.8736 20.1416 19.0525C20.5727 19.2313 20.9643 19.4933 21.294 19.8237C21.6236 20.154 21.885 20.5461 22.0629 20.9775C22.2409 21.4089 22.332 21.8712 22.3311 22.3379V33" stroke="#BDBDBD" stroke-width="1.5" stroke-linecap="round" stroke-linejoin="round"/>
</svg>
