<svg width="37" height="42" viewBox="0 0 37 42" fill="none" xmlns="http://www.w3.org/2000/svg">
<path d="M31.6146 5.19666H5.37028C2.95664 5.19666 1 7.1533 1 9.56694V35.8113C1 38.2249 2.95664 40.1816 5.37028 40.1816H31.6146C34.0283 40.1816 35.9849 38.2249 35.9849 35.8113V9.56694C35.9849 7.1533 34.0283 5.19666 31.6146 5.19666Z" stroke="#FF3E79" stroke-width="2" stroke-linecap="round" stroke-linejoin="round"/>
<path d="M27.7578 1V9.75566" stroke="#FF3E79" stroke-width="2" stroke-linecap="round" stroke-linejoin="round"/>
<path d="M10.269 1V9.75566" stroke="#FF3E79" stroke-width="2" stroke-linecap="round" stroke-linejoin="round"/>
<path d="M1 18.5036H36" stroke="#FF3E79" stroke-width="2" stroke-linecap="round" stroke-linejoin="round"/>
<path d="M8.25 26.3934V25.1855H9.45789V26.3934H8.25Z" fill="#FF3E79" stroke="#FF3E79" stroke-width="2"/>
<path d="M17.708 26.3934V25.1855H18.9159V26.3934H17.708Z" fill="#FF3E79" stroke="#FF3E79" stroke-width="2"/>
<path d="M27.166 26.3934V25.1855H28.3739V26.3934H27.166Z" fill="#FF3E79" stroke="#FF3E79" stroke-width="2"/>
<path d="M8.25 33.3512V32.1433H9.45789V33.3512H8.25Z" fill="#FF3E79" stroke="#FF3E79" stroke-width="2"/>
<path d="M17.708 33.3512V32.1433H18.9159V33.3512H17.708Z" fill="#FF3E79" stroke="#FF3E79" stroke-width="2"/>
<path d="M27.166 33.3512V32.1433H28.3739V33.3512H27.166Z" fill="#FF3E79" stroke="#FF3E79" stroke-width="2"/>
</svg>
