<svg width="24" height="17" viewBox="0 0 24 17" fill="none" xmlns="http://www.w3.org/2000/svg">
<path d="M24 2.07981V14.7768C24 15.7989 23.1028 16.6304 22 16.6304H2C0.8972 16.6304 0 15.7989 0 14.7768V9.21609C0 9.01136 0.1791 8.84537 0.4 8.84537C0.6209 8.84537 0.8 9.01136 0.8 9.21609V14.7768C0.8 15.39 1.33835 15.889 2 15.889H22C22.6616 15.889 23.2 15.39 23.2 14.7768V2.07981C23.2 1.4666 22.6616 0.967667 22 0.967667H2C1.33835 0.967667 0.8 1.4666 0.8 2.07981V3.56268H21.3C21.5209 3.56268 21.7 3.72866 21.7 3.93339C21.7 4.13812 21.5209 4.30411 21.3 4.30411H0.8V6.71376H21.3C21.5209 6.71376 21.7 6.87974 21.7 7.08447C21.7 7.2892 21.5209 7.45519 21.3 7.45519H0.4C0.1791 7.45519 0 7.2892 0 7.08447V2.07981C0 1.05775 0.8972 0.226236 2 0.226236H22C23.1028 0.226236 24 1.05775 24 2.07981ZM20.8 11.7184C20.8 10.7667 19.6585 10.1896 18.7938 10.7074C19.6423 11.9957 18.6379 13.6647 17 13.6647C15.842 13.6647 14.9 12.7916 14.9 11.7184C14.9 10.1212 16.8719 9.20635 18.25 10.1556C19.6343 9.20658 21.6 10.1242 21.6 11.7184C21.6 12.7916 20.6579 13.6647 19.5 13.6647C19.2791 13.6647 19.1 13.4987 19.1 13.294C19.1 13.0892 19.2791 12.9232 19.5 12.9232C20.2169 12.9232 20.8 12.3828 20.8 11.7184ZM18.3 11.7184C18.3 11.054 17.7169 10.5136 17 10.5136C16.2831 10.5136 15.7 11.054 15.7 11.7184C15.7 12.3828 16.2831 12.9232 17 12.9232C17.7169 12.9232 18.3 12.3828 18.3 11.7184ZM3.65 10.9306H7C7.2209 10.9306 7.4 10.7647 7.4 10.5599C7.4 10.3552 7.2209 10.1892 7 10.1892H3.65C3.4291 10.1892 3.25 10.3552 3.25 10.5599C3.25 10.7647 3.4291 10.9306 3.65 10.9306ZM3.65 13.2476H7C7.2209 13.2476 7.4 13.0816 7.4 12.8769C7.4 12.6722 7.2209 12.5062 7 12.5062H3.65C3.4291 12.5062 3.25 12.6722 3.25 12.8769C3.25 13.0816 3.4291 13.2476 3.65 13.2476Z" fill="#54514C" fill-opacity="0.75"/>
</svg>
