<svg width="26" height="26" viewBox="0 0 26 26" fill="none" xmlns="http://www.w3.org/2000/svg">
<path d="M10.3335 3.66667C10.3335 2.95943 10.6145 2.28115 11.1146 1.78105C11.6147 1.28095 12.2929 1 13.0002 1C13.7074 1 14.3857 1.28095 14.8858 1.78105C15.3859 2.28115 15.6668 2.95943 15.6668 3.66667C17.1981 4.39071 18.5034 5.51777 19.4429 6.92707C20.3825 8.33637 20.9208 9.97478 21.0002 11.6667V15.6667C21.1005 16.4956 21.3941 17.2894 21.8573 17.9842C22.3204 18.6789 22.9403 19.2552 23.6669 19.6667H2.3335C3.06008 19.2552 3.67991 18.6789 4.14308 17.9842C4.60625 17.2894 4.89983 16.4956 5.00017 15.6667V11.6667C5.07958 9.97478 5.6179 8.33637 6.55743 6.92707C7.49697 5.51777 8.80229 4.39071 10.3335 3.66667" stroke="#FF3E79" stroke-width="1.5" stroke-linecap="round" stroke-linejoin="round"/>
<path d="M9 19.6667V21C9 22.0609 9.42143 23.0783 10.1716 23.8285C10.9217 24.5786 11.9391 25 13 25C14.0609 25 15.0783 24.5786 15.8284 23.8285C16.5786 23.0783 17 22.0609 17 21V19.6667" stroke="#FF3E79" stroke-width="1.5" stroke-linecap="round" stroke-linejoin="round"/>
<path d="M25.0002 5.96934C24.1257 4.06701 22.8557 2.37293 21.2749 1" stroke="#FF3E79" stroke-width="1.5" stroke-linecap="round" stroke-linejoin="round"/>
<path d="M1 5.96934C1.8738 4.06726 3.14287 2.3732 4.72267 1" stroke="#FF3E79" stroke-width="1.5" stroke-linecap="round" stroke-linejoin="round"/>
</svg>
