<svg width="305" height="313" viewBox="0 0 305 313" fill="none" xmlns="http://www.w3.org/2000/svg">
<g clip-path="url(#clip0_1_39481)">
<path d="M38.9466 123.474H5.58179V158.107H38.9466V123.474Z" fill="#E0E0E0"/>
<path d="M36.6845 123.474H3.31976V158.107H36.6845V123.474Z" fill="#FAFAFA"/>
<path d="M36.6948 158.118H3.30963V123.464H36.6948V158.118ZM3.32998 158.097H36.6744V123.484H3.32998V158.097Z" fill="#E0E0E0"/>
<path d="M32.2017 128.13H7.80627V153.454H32.2017V128.13Z" fill="#FAFAFA"/>
<path d="M7.80642 153.619C7.63176 153.874 7.42932 154.108 7.20281 154.318C6.81284 154.727 6.26688 155.281 5.65309 155.882C5.03931 156.483 4.47639 157.02 4.05929 157.402C3.84909 157.624 3.6122 157.82 3.35394 157.986C3.52766 157.739 3.72903 157.512 3.95416 157.31C4.34414 156.898 4.8901 156.345 5.50727 155.74C6.12445 155.136 6.68737 154.599 7.10447 154.22C7.31334 153.993 7.54903 153.791 7.80642 153.619Z" fill="#E0E0E0"/>
<path d="M32.2017 153.559C32.4562 153.731 32.6905 153.932 32.9002 154.156C33.3105 154.545 33.8667 155.092 34.4703 155.703C35.0739 156.314 35.6165 156.875 35.9963 157.29C36.2209 157.499 36.419 157.735 36.5863 157.993C36.3299 157.822 36.0954 157.622 35.8878 157.395C35.4774 157.006 34.9179 156.459 34.3109 155.848C33.7039 155.237 33.1681 154.673 32.7849 154.258C32.5622 154.05 32.3662 153.815 32.2017 153.559Z" fill="#E0E0E0"/>
<path d="M32.1338 128.198C32.304 127.941 32.5056 127.706 32.734 127.499C33.124 127.091 33.6733 126.537 34.2871 125.936C34.9009 125.335 35.4638 124.794 35.8809 124.416C36.0894 124.191 36.3265 123.995 36.5863 123.832C36.4136 124.085 36.2122 124.317 35.986 124.524C35.5961 124.933 35.0467 125.49 34.4329 126.094C33.8192 126.699 33.2495 127.236 32.8357 127.614C32.625 127.835 32.3895 128.031 32.1338 128.198Z" fill="#E0E0E0"/>
<path d="M7.7386 128.259C7.48277 128.087 7.24828 127.885 7.04004 127.658C6.62633 127.273 6.07019 126.726 5.46658 126.115C4.86297 125.503 4.32379 124.943 3.9406 124.527C3.71755 124.317 3.5206 124.082 3.35394 123.825C3.60876 123.997 3.84311 124.198 4.0525 124.423C4.46282 124.811 5.01896 125.358 5.62596 125.969C6.23296 126.581 6.77215 127.144 7.15534 127.56C7.37811 127.768 7.57404 128.003 7.7386 128.259Z" fill="#E0E0E0"/>
<path d="M32.1339 153.451C32.1309 153.41 32.1309 153.37 32.1339 153.329C32.1339 153.241 32.1339 153.127 32.1339 152.975C32.1339 152.657 32.1339 152.201 32.1339 151.624C32.1339 150.422 32.1339 148.676 32.1102 146.46C32.1102 142.027 32.083 135.708 32.0627 128.144L32.1576 128.235H7.83006L7.93857 128.131C7.93857 137.424 7.93857 146.119 7.93857 153.457L7.84701 153.366L25.4603 153.414L30.3705 153.424H31.6795H32.0186H32.1373H32.0288H31.6897H30.401L25.4738 153.447L7.79954 153.495H7.70459V153.4C7.70459 146.069 7.70459 137.373 7.70459 128.073V127.965H7.8131H32.1407H32.2356V128.06C32.2153 135.648 32.1983 141.986 32.1848 146.437C32.1848 148.645 32.1678 150.381 32.161 151.577C32.161 152.161 32.161 152.613 32.161 152.927C32.161 153.076 32.161 153.187 32.161 153.265C32.161 153.343 32.1339 153.454 32.1339 153.451Z" fill="#E0E0E0"/>
<path d="M24.0733 136.738H15.9347V144.843H24.0733V136.738Z" fill="#EBEBEB"/>
<path d="M264.663 53.8044V48.739H261.075V53.8044H257.474V82.8155H268.01V53.8044H264.663Z" fill="#EBEBEB"/>
<path d="M274.874 82.802H195.373V87.219H274.874V82.802Z" fill="#E0E0E0"/>
<path d="M262.164 87.2158H259.634V102.155H262.164V87.2158Z" fill="#E0E0E0"/>
<path d="M208.141 87.2158H205.611V102.155H208.141V87.2158Z" fill="#E0E0E0"/>
<path d="M237.331 61.595V57.8804H234.71V61.595H232.078V82.8021H239.78V61.595H237.331Z" fill="#F5F5F5"/>
<path d="M252.401 61.595V57.8804H249.773V61.595H247.138V82.8021H254.86V61.595H252.401Z" fill="#EBEBEB"/>
<path d="M221.976 69.0242H208.141V82.802H221.976V69.0242Z" fill="#E0E0E0"/>
<path d="M221.909 72.5633C221.909 72.6544 218.857 72.7253 215.086 72.7253C211.315 72.7253 208.266 72.6544 208.266 72.5633C208.266 72.4721 211.318 72.4045 215.086 72.4045C218.853 72.4045 221.909 72.4755 221.909 72.5633Z" fill="#EBEBEB"/>
<path d="M215.584 74.3835C215.584 74.3835 215.635 74.3835 215.723 74.4037C215.856 74.4379 215.981 74.4963 216.093 74.5759C216.5 74.8844 216.771 75.3385 216.849 75.8423C217.029 76.5812 216.907 77.3608 216.51 78.0103C216.256 78.3956 215.876 78.6818 215.435 78.8207C214.965 78.9558 214.467 78.9558 213.997 78.8207C213.055 78.581 212.234 77.8549 212.074 76.9803C211.991 76.6066 212.007 76.2177 212.121 75.8521C212.235 75.4865 212.444 75.1572 212.726 74.8967C213.105 74.5567 213.592 74.3606 214.102 74.3429C214.285 74.3188 214.472 74.3481 214.638 74.4274C214.638 74.4578 214.445 74.4274 214.113 74.4679C213.649 74.5301 213.218 74.7383 212.882 75.0622C212.645 75.3024 212.474 75.5986 212.383 75.9229C212.293 76.2472 212.287 76.589 212.366 76.9161C212.515 77.6624 213.221 78.2872 214.082 78.5101C214.492 78.6323 214.929 78.6405 215.343 78.5337C215.719 78.4194 216.044 78.1812 216.266 77.8583C216.637 77.278 216.771 76.5788 216.642 75.9031C216.592 75.4389 216.376 75.0083 216.032 74.6908C215.761 74.4645 215.571 74.4037 215.584 74.3835Z" fill="#EBEBEB"/>
<path d="M294.789 99.6867V94.6213H291.205V99.6867H287.604V128.698H298.14V99.6867H294.789Z" fill="#EBEBEB"/>
<path d="M305.004 128.698H225.503V133.115H305.004V128.698Z" fill="#E0E0E0"/>
<path d="M292.294 133.111H289.764V148.051H292.294V133.111Z" fill="#E0E0E0"/>
<path d="M238.27 133.111H235.741V148.051H238.27V133.111Z" fill="#E0E0E0"/>
<path d="M267.461 107.498V103.783H264.839V107.498H262.208V128.705H269.909V107.498H267.461Z" fill="#F5F5F5"/>
<path d="M282.527 107.498V103.783H279.906V107.498H277.275V128.705H284.976V107.498H282.527Z" fill="#EBEBEB"/>
<path d="M252.106 114.92H238.27V128.698H252.106V114.92Z" fill="#E0E0E0"/>
<path d="M252.038 118.459C252.038 118.55 248.986 118.621 245.215 118.621C241.444 118.621 238.392 118.55 238.392 118.459C238.392 118.368 241.444 118.3 245.215 118.3C248.986 118.3 252.038 118.371 252.038 118.459Z" fill="#EBEBEB"/>
<path d="M245.704 120.276C245.704 120.276 245.755 120.276 245.843 120.296C245.975 120.334 246.1 120.393 246.212 120.472C246.619 120.781 246.89 121.235 246.969 121.738C247.146 122.477 247.025 123.256 246.629 123.906C246.375 124.291 245.996 124.578 245.555 124.716C245.085 124.852 244.586 124.852 244.117 124.716C243.171 124.477 242.353 123.751 242.194 122.873C242.111 122.499 242.127 122.11 242.242 121.745C242.356 121.379 242.564 121.05 242.845 120.789C243.225 120.45 243.712 120.254 244.222 120.235C244.405 120.214 244.591 120.244 244.758 120.323C244.758 120.353 244.564 120.323 244.232 120.36C243.769 120.425 243.338 120.634 243.001 120.958C242.764 121.197 242.593 121.493 242.503 121.817C242.413 122.141 242.407 122.482 242.486 122.808C242.635 123.558 243.34 124.183 244.201 124.406C244.612 124.529 245.049 124.536 245.463 124.426C245.84 124.314 246.166 124.075 246.385 123.751C246.756 123.17 246.891 122.471 246.762 121.795C246.71 121.332 246.494 120.902 246.151 120.583C245.89 120.36 245.704 120.31 245.704 120.276Z" fill="#EBEBEB"/>
<path d="M52.0632 0.273438H107.714V72.4045L52.4396 72.1208L52.0632 0.273438Z" fill="#E0E0E0"/>
<path d="M48.8619 71.8508H104.187L104.187 0.273628H48.8619L48.8619 71.8508Z" fill="white"/>
<path d="M104.459 0V72.1243H48.584V0H104.459ZM103.913 71.5907V0.547062H49.1333V71.5772L103.913 71.5907Z" fill="#E0E0E0"/>
<path d="M96.9032 8.02686H54.5453V64.1006H96.9032V8.02686Z" fill="white"/>
<path d="M54.5453 8.02693C54.5453 8.02693 54.5453 8.12148 54.5453 8.29708C54.5453 8.47268 54.5453 8.74284 54.5453 9.08729C54.5453 9.78631 54.5453 10.8095 54.5453 12.1265C54.5453 14.7977 54.5656 18.6946 54.5792 23.6283C54.5961 33.4889 54.6165 47.4896 54.6436 64.0838L54.5148 63.9555H96.8693L96.7268 64.0973C96.7268 43.2178 96.7438 23.8613 96.7506 8.04044L96.8693 8.15525L66.1122 8.09447L57.5464 8.06408H55.2913H54.5114C54.5114 8.06408 54.7623 8.06408 55.2676 8.06408H57.4989L66.0376 8.03369L96.8693 7.9729H96.9846V8.09109C96.9846 23.9255 96.9846 43.282 97.0117 64.148V64.2898H96.8659H54.5114H54.3825V64.1615C54.4096 47.5335 54.43 33.5024 54.4469 23.6384C54.4469 18.7183 54.4741 14.8314 54.4809 12.1569C54.4809 10.8365 54.4808 9.82345 54.4978 9.11768C54.4978 8.77998 54.4978 8.52334 54.4978 8.34436C54.4978 8.16538 54.5453 8.02693 54.5453 8.02693Z" fill="#E0E0E0"/>
<path d="M48.7298 71.8508C48.9395 71.4234 49.1905 71.0174 49.4792 70.6385C49.9709 69.9125 50.6661 68.9196 51.463 67.8458C52.2599 66.7719 53.0161 65.8196 53.579 65.1442C53.8637 64.7628 54.1876 64.4119 54.5455 64.0974C54.3147 64.5128 54.0444 64.9052 53.7384 65.2692L51.7038 68.0146C50.934 69.0277 50.2354 69.9733 49.6691 70.7567C49.3953 71.1531 49.0805 71.5198 48.7298 71.8508Z" fill="#E0E0E0"/>
<path d="M48.8585 0.273669C48.923 0.226392 50.2489 1.92498 51.8189 4.06595C53.389 6.20692 54.6098 7.9798 54.5318 8.02708C54.4538 8.07435 53.1449 6.37576 51.5748 4.23479C50.0047 2.09383 48.7941 0.320945 48.8585 0.273669Z" fill="#E0E0E0"/>
<path d="M96.9035 8.31074C96.8459 8.25671 98.4261 6.41629 100.437 4.19765C102.448 1.97902 104.126 0.219642 104.184 0.273673C104.242 0.327704 102.662 2.16813 100.651 4.38676C98.6397 6.6054 96.9612 8.36477 96.9035 8.31074Z" fill="#E0E0E0"/>
<path d="M104.184 71.8507C104.126 71.9014 102.522 70.2264 100.603 68.1091C98.6835 65.9918 97.1711 64.229 97.2321 64.1784C97.2932 64.1277 98.8938 65.7993 100.813 67.92C102.732 70.0407 104.245 71.7967 104.184 71.8507Z" fill="#E0E0E0"/>
<path d="M84.4445 31.6925C84.9498 31.7297 86.7199 31.7972 87.9373 30.5916C88.9547 29.5786 88.9987 28.2447 89.0394 26.3806C89.0801 24.6719 89.1174 23.1151 88.1205 22.3519C87.1913 21.6428 85.3635 21.6192 85.3635 21.6192C83.7019 21.4064 82.8609 22.0278 81.4061 22.021C81.213 22.0136 81.0253 21.9548 80.8625 21.8509C80.6998 21.747 80.5678 21.6017 80.4804 21.43C80.2091 20.9438 79.8022 20.3089 79.48 19.7821C79.3382 19.5393 79.1362 19.3367 78.8934 19.1936C78.6506 19.0505 78.3751 18.9718 78.0931 18.9649C74.8478 18.8636 65.6309 18.7082 65.129 19.1405C64.756 19.4579 64.6848 20.5689 64.7085 21.6799C64.7085 21.8657 65.1392 23.5845 65.3664 24.4895C65.4542 24.8435 65.4007 25.2175 65.2172 25.533L63.759 27.7854C63.4954 28.6083 63.3415 29.4621 63.3012 30.3249C63.2809 31.5912 63.1486 33.5329 62.5721 32.996C61.7651 32.2396 60.785 35.9339 60.785 35.9339L62.562 38.2978L62.4297 42.1103C62.4147 42.5365 62.5464 42.955 62.803 43.2965C63.0595 43.638 63.4256 43.8819 63.8404 43.9879C66.0615 44.5653 70.0732 45.5683 70.4699 45.4366C70.9515 45.2779 71.5754 54.0882 71.7246 56.2934C71.7261 56.3288 71.7384 56.363 71.7598 56.3914C71.7812 56.4198 71.8107 56.4411 71.8445 56.4524C71.8783 56.4638 71.9147 56.4647 71.949 56.4549C71.9833 56.4452 72.0139 56.4254 72.0366 56.398C72.7386 55.5268 74.8987 53.4432 79.8361 52.7611C79.8361 52.7611 79.7513 47.3074 78.968 45.0955C78.8521 44.7639 78.8611 44.4016 78.9934 44.0762C79.1256 43.7507 79.372 43.4841 79.6869 43.326C80.5821 42.8667 81.83 42.3129 82.7795 42.3129C84.4344 42.3129 86.6386 38.6523 85.9027 36.6397C85.1668 34.627 84.4445 31.6925 84.4445 31.6925Z" fill="#EBEBEB"/>
<path d="M96.6254 90.1133H152.273V162.244L96.9984 161.961L96.6254 90.1133Z" fill="#E0E0E0"/>
<path d="M93.4206 161.69H148.746V90.1132H93.4206V161.69Z" fill="white"/>
<path d="M149.021 89.8396V161.964H93.1461V89.8396H149.021ZM148.471 161.43V90.3867H93.6955V161.417L148.471 161.43Z" fill="#E0E0E0"/>
<path d="M141.465 97.8665H99.1075V153.94H141.465V97.8665Z" fill="white"/>
<path d="M99.1042 97.8666C99.1042 97.8666 99.1042 97.9611 99.1042 98.1367C99.1042 98.3123 99.1042 98.5825 99.1042 98.9269C99.1042 99.626 99.1042 100.649 99.1042 101.966C99.1042 104.637 99.1246 108.534 99.1381 113.468C99.1551 123.329 99.1788 137.329 99.2026 153.923L99.0737 153.795H141.428L141.286 153.937C141.286 133.057 141.306 113.701 141.313 97.8801L141.428 97.9949L110.671 97.9341L102.109 97.9071H99.8536H99.0703C99.0703 97.9071 99.3246 97.9071 99.8265 97.9071H102.061L110.6 97.8767L141.428 97.8159H141.598V97.9341C141.598 113.768 141.615 133.125 141.621 153.991V154.099H141.476L99.1212 154.082H98.9923V153.954C99.0194 137.326 99.0432 123.295 99.0567 113.431C99.0737 108.511 99.0839 104.624 99.0907 101.949C99.0907 100.632 99.0907 99.6158 99.0907 98.91C99.0907 98.5724 99.0907 98.3191 99.0907 98.1367C99.0907 97.9544 99.1042 97.8666 99.1042 97.8666Z" fill="#E0E0E0"/>
<path d="M93.292 161.69C93.4975 161.263 93.7476 160.857 94.038 160.481C94.5297 159.752 95.2249 158.759 96.0218 157.685C96.8187 156.612 97.5749 155.659 98.1412 154.984C98.4255 154.603 98.7482 154.252 99.1043 153.937C98.8772 154.354 98.608 154.747 98.3006 155.109L96.266 157.854C95.4962 158.867 94.801 159.816 94.2313 160.596C93.9567 160.992 93.6419 161.359 93.292 161.69Z" fill="#E0E0E0"/>
<path d="M93.4208 90.113C93.4818 90.0657 94.8078 91.7643 96.3778 93.9053C97.9479 96.0463 99.1687 97.8192 99.0907 97.8664C99.0127 97.9137 97.7037 96.2151 96.1337 94.0742C94.5636 91.9332 93.3564 90.1603 93.4208 90.113Z" fill="#E0E0E0"/>
<path d="M141.462 98.1502C141.404 98.0996 142.988 96.2558 144.999 94.0371C147.01 91.8185 148.688 90.0625 148.746 90.1131C148.804 90.1638 147.224 92.0076 145.209 94.2262C143.195 96.4449 141.523 98.2043 141.462 98.1502Z" fill="#E0E0E0"/>
<path d="M148.746 161.69C148.689 161.744 147.081 160.069 145.162 157.949C143.243 155.828 141.734 154.069 141.791 154.018C141.849 153.967 143.453 155.639 145.376 157.76C147.298 159.88 148.804 161.636 148.746 161.69Z" fill="#E0E0E0"/>
<path d="M129.003 121.532C129.512 121.569 131.279 121.637 132.496 120.431C133.513 119.418 133.557 118.084 133.602 116.22C133.639 114.511 133.676 112.954 132.683 112.191C131.753 111.482 129.922 111.462 129.922 111.462C128.261 111.246 127.423 111.867 125.965 111.86C125.772 111.853 125.584 111.794 125.421 111.69C125.258 111.586 125.127 111.441 125.039 111.269C124.768 110.783 124.361 110.152 124.039 109.625C123.897 109.382 123.696 109.179 123.454 109.036C123.212 108.892 122.937 108.812 122.655 108.804C119.407 108.703 110.19 108.551 109.688 108.98C109.318 109.301 109.243 110.412 109.267 111.523C109.267 111.705 109.698 113.427 109.925 114.329C110.016 114.684 109.963 115.06 109.776 115.376L108.318 117.625C108.055 118.449 107.902 119.304 107.86 120.168C107.84 121.431 107.707 123.372 107.131 122.835C106.327 122.079 105.344 125.773 105.344 125.773L107.124 128.137L107.009 131.936C106.994 132.362 107.125 132.781 107.381 133.122C107.637 133.464 108.002 133.709 108.416 133.817C110.637 134.391 114.649 135.394 115.046 135.262C115.531 135.104 116.151 143.914 116.3 146.123C116.302 146.158 116.315 146.192 116.337 146.219C116.358 146.247 116.388 146.268 116.422 146.279C116.455 146.29 116.491 146.291 116.525 146.281C116.559 146.271 116.59 146.251 116.612 146.224C117.318 145.353 119.474 143.269 124.412 142.587C124.412 142.587 124.324 137.133 123.54 134.925C123.424 134.593 123.433 134.231 123.566 133.905C123.698 133.58 123.944 133.313 124.259 133.155C125.154 132.693 126.406 132.142 127.352 132.142C129.007 132.142 131.214 128.478 130.478 126.466C129.742 124.453 129.003 121.532 129.003 121.532Z" fill="#EBEBEB"/>
<path d="M193.44 54.3548C193.437 54.3133 193.437 54.2714 193.44 54.2299C193.44 54.1421 193.44 54.0272 193.44 53.8922C193.44 53.5747 193.44 53.129 193.42 52.5617C193.42 51.3899 193.396 49.7116 193.376 47.5909L193.457 47.6719L167.746 47.7226C167.804 47.6618 167.614 47.8509 167.875 47.5909V51.0252C167.875 52.1508 167.875 53.2618 167.875 54.3582L167.75 54.2299L186.061 54.2873L191.47 54.3244L192.932 54.3413H193.315H193.451H193.329H192.962H191.528L186.15 54.3751L167.739 54.4359H167.611V54.3075C167.611 53.2168 167.611 52.1058 167.611 50.9745V47.5875C167.872 47.3275 167.685 47.5166 167.743 47.4558L193.454 47.5098H193.532V47.5875C193.515 49.7284 193.498 51.4237 193.488 52.6056C193.488 53.1661 193.488 53.6186 193.468 53.9192C193.468 54.0576 193.468 54.1657 193.468 54.2569C193.468 54.3481 193.44 54.3582 193.44 54.3548Z" fill="#E0E0E0"/>
<path d="M186.377 47.6146C186.374 47.5742 186.374 47.5336 186.377 47.4931C186.377 47.4019 186.377 47.2871 186.377 47.1554C186.377 46.838 186.377 46.3922 186.377 45.8215C186.377 44.6531 186.35 42.9714 186.333 40.854L186.411 40.9317L160.703 40.9824L160.832 40.854V44.2918C160.832 45.4174 160.832 46.5273 160.832 47.6214L160.703 47.4965L179.015 47.5539L184.44 47.591H185.902H186.285H186.421C186.381 47.596 186.342 47.596 186.302 47.591H185.936L184.501 47.6079L179.123 47.645L160.71 47.7024H160.581V40.8473C160.842 40.5839 160.652 40.773 160.713 40.7156L186.421 40.7663H186.502V40.8473C186.482 42.9849 186.468 44.6835 186.458 45.862C186.458 46.4248 186.451 46.8638 186.438 47.179C186.438 47.3141 186.438 47.4255 186.438 47.5167C186.423 47.5523 186.402 47.5853 186.377 47.6146Z" fill="#E0E0E0"/>
<path d="M265.168 133.956C265.168 133.956 265.168 133.908 265.168 133.831C265.168 133.753 265.168 133.625 265.168 133.493C265.168 133.176 265.168 132.73 265.148 132.159C265.148 130.991 265.121 129.309 265.104 127.192L265.182 127.269L239.474 127.32L239.603 127.192V130.629C239.603 131.761 239.603 132.872 239.603 133.959L239.474 133.834L257.786 133.891L263.191 133.929L264.656 133.946H265.036C265.081 133.941 265.127 133.941 265.172 133.946H265.053H264.687L263.252 133.962L257.874 134L239.461 134.057H239.335V133.929C239.335 132.841 239.335 131.731 239.335 130.599V127.185L239.467 127.053L265.175 127.104H265.257V127.185C265.236 129.323 265.223 131.021 265.212 132.2C265.212 132.762 265.206 133.201 265.192 133.517C265.192 133.652 265.192 133.763 265.192 133.854C265.188 133.889 265.18 133.923 265.168 133.956Z" fill="#E0E0E0"/>
<path d="M268.654 127.182C268.654 127.182 268.654 127.134 268.654 127.053C268.654 126.972 268.654 126.837 268.654 126.692C268.654 126.354 268.654 125.905 268.631 125.341C268.631 124.152 268.6 122.478 268.58 120.414L268.671 120.509L253.225 120.546L253.357 120.414V121.292C253.357 121.589 253.357 121.88 253.357 122.174V123.896C253.357 125.03 253.357 126.128 253.357 127.182L253.232 127.057L264.283 127.114L267.501 127.151H268.37C268.473 127.15 268.576 127.156 268.678 127.168C268.586 127.175 268.493 127.175 268.4 127.168L267.556 127.185L264.368 127.219L253.232 127.276H253.106V127.151C253.106 126.098 253.106 125 253.106 123.865C253.106 123.298 253.106 122.724 253.106 122.143V120.384C253.079 120.411 253.357 120.137 253.239 120.252L268.685 120.289H268.763V120.384C268.743 122.471 268.726 124.166 268.712 125.368C268.712 125.932 268.712 126.381 268.688 126.719C268.687 126.874 268.676 127.028 268.654 127.182Z" fill="#E0E0E0"/>
<path d="M104.33 199.12H78.6185V205.894H104.33V199.12Z" fill="#E0E0E0"/>
<path d="M93.4445 213.026C93.4445 213.026 93.4445 212.982 93.4445 212.905C93.4445 212.827 93.4445 212.699 93.4445 212.567C93.4445 212.25 93.4445 211.804 93.4242 211.216C93.4242 210.048 93.3971 208.366 93.3801 206.249L93.4581 206.326L67.7504 206.377L67.8792 206.249V209.686C67.8792 210.818 67.8792 211.929 67.8792 213.016L67.7504 212.891L86.0622 212.949L91.4675 212.986H92.9325H93.3123H93.4479C93.4085 212.991 93.3686 212.991 93.3292 212.986H92.963L91.5286 213.003L86.1503 213.04L67.7368 213.097H67.6113V212.969C67.6113 211.881 67.6113 210.772 67.6113 209.639V206.259L67.7436 206.127L93.4513 206.178H93.5327V206.259C93.5124 208.396 93.4988 210.095 93.4886 211.274C93.4886 211.839 93.4818 212.278 93.4683 212.591C93.4683 212.726 93.4683 212.837 93.4683 212.928C93.4647 212.962 93.4567 212.995 93.4445 213.026Z" fill="#E0E0E0"/>
<path d="M58.6418 242.638H57.8517V274.53H58.6418V242.638Z" fill="#363636"/>
<path d="M57.5535 229.05H56.7634V274.733H57.5535V229.05Z" fill="#363636"/>
<path d="M37.6951 215.289H36.905V275.682H37.6951V215.289Z" fill="#363636"/>
<path d="M45.0164 218.298H43.8702V274.53H45.0164V218.298Z" fill="#363636"/>
<path d="M49.2521 211.395H48.462V274.621H49.2521V211.395Z" fill="#363636"/>
<path d="M42.5952 254.056C40.5233 253.499 39.2754 251.446 38.3496 249.521C36.6167 245.906 35.2775 242.117 34.3549 238.218C33.6937 235.432 33.2494 232.535 33.7005 229.708C34.1854 226.696 35.6503 223.944 37.0915 221.266C37.885 219.79 38.6955 218.291 39.8824 217.102C41.0693 215.914 42.7072 215.076 44.3823 215.204C45.1934 215.284 45.9668 215.585 46.6171 216.074C47.2675 216.563 47.7697 217.222 48.0684 217.977C50.6558 218.787 53.5993 219.979 54.8777 222.367C55.3847 223.413 55.6599 224.555 55.6848 225.717C56.0002 230.941 54.013 235.999 52.0597 240.855C51.1882 243.03 50.2489 245.296 48.4618 246.816C46.9087 248.133 44.6808 248.957 44.0534 250.892C43.8194 251.614 43.8533 252.391 43.7516 253.144C43.6499 253.897 43.2565 253.664 42.5952 254.056Z" fill="#FF3E79"/>
<path d="M47.0241 218.936C46.7969 220.435 46.4951 221.914 46.1967 223.39C45.8983 224.866 45.5829 226.342 45.2133 227.8C44.8436 229.259 44.4062 230.711 44.0942 232.19C43.7822 233.669 43.5584 235.159 43.3753 236.655C43.1922 238.151 43.0362 239.653 42.8259 241.143L42.263 245.614L41.9544 247.852C41.8459 248.599 41.7408 249.335 41.673 250.075C41.5475 251.54 41.5746 253.046 42.2189 254.421L42.1477 254.461C41.7035 253.831 41.3889 253.119 41.222 252.367C41.0627 251.609 40.9888 250.836 41.0015 250.061C41.0015 249.291 41.0626 248.528 41.1338 247.778C41.205 247.029 41.2796 246.272 41.3644 245.522C41.5373 244.02 41.7849 242.527 42.0426 241.034C42.1647 240.288 42.3003 239.545 42.4427 238.802C42.5852 238.059 42.7547 237.323 42.9209 236.587C43.087 235.851 43.26 235.111 43.4024 234.372C43.5448 233.632 43.6941 232.889 43.8263 232.146C44.0874 230.661 44.2604 229.154 44.5283 227.665C44.6673 226.922 44.8165 226.179 44.9996 225.447L45.2675 224.346L45.5625 223.252C45.9627 221.793 46.4069 220.344 46.9427 218.926L47.0241 218.936Z" fill="#263238"/>
<path d="M34.9993 229.009C35.8742 228.486 36.7525 227.996 37.6138 227.503C38.4752 227.01 39.3297 226.49 40.1978 226C41.0863 225.536 41.9468 225.021 42.7751 224.457C43.5839 223.856 44.3312 223.178 45.0064 222.431L45.5117 221.874C45.6969 221.647 45.928 221.462 46.1899 221.33C46.357 221.257 46.5397 221.225 46.7219 221.239C46.904 221.252 47.08 221.31 47.2343 221.408C47.4856 221.577 47.702 221.792 47.8719 222.043C48.0058 222.241 48.1507 222.431 48.3059 222.613C48.4562 222.784 48.6207 222.943 48.7976 223.086C49.1671 223.383 49.5619 223.648 49.9777 223.876C50.8085 224.369 51.758 224.778 52.599 225.416C53.0291 225.724 53.4117 226.093 53.735 226.51C54.0576 226.927 54.2729 227.417 54.3624 227.935L54.281 227.959C53.8605 227.041 53.0704 226.443 52.2463 225.967C51.4223 225.491 50.4694 225.149 49.5335 224.653C49.0617 224.402 48.6203 224.099 48.2177 223.748C48.0127 223.563 47.8233 223.362 47.6514 223.147C47.4936 222.937 47.3475 222.718 47.214 222.492C47.1101 222.318 46.9797 222.162 46.8274 222.029C46.7724 221.985 46.7073 221.956 46.638 221.944C46.5688 221.931 46.4975 221.936 46.4306 221.958C46.0915 222.056 45.7016 222.465 45.3082 222.765C44.5113 223.397 43.711 224.015 42.9344 224.653C42.1579 225.291 41.3983 225.98 40.5607 226.571C39.721 227.149 38.83 227.648 37.8987 228.064C36.975 228.495 36.0106 228.835 35.0197 229.077L34.9993 229.009Z" fill="#263238"/>
<path d="M35.5961 242.601C36.3896 242.014 37.173 241.45 37.9258 240.849C38.6786 240.248 39.4009 239.623 40.1266 238.995C40.8841 238.391 41.5875 237.724 42.2291 236.999C42.8487 236.252 43.3685 235.428 43.7754 234.547C43.8805 234.335 43.9721 234.112 44.1145 233.872C44.2553 233.593 44.4856 233.368 44.769 233.234C44.9543 233.158 45.1594 233.146 45.3522 233.2C45.5217 233.252 45.6771 233.343 45.8067 233.463C46.0339 233.669 46.1661 233.835 46.3424 234.021C47.0207 234.736 47.6582 235.473 48.2754 236.236C49.5023 237.769 50.5916 239.406 51.5308 241.129L51.4596 241.18C50.1031 239.758 48.8383 238.279 47.5768 236.79C46.9562 236.043 46.3492 235.283 45.7388 234.527C45.5896 234.348 45.4201 234.125 45.298 233.994C45.1759 233.862 45.1081 233.845 44.9996 233.855C44.8315 233.925 44.6877 234.042 44.5859 234.193C44.4536 234.358 44.3214 234.571 44.1789 234.777C43.6194 235.591 43.0328 236.378 42.4461 237.168C41.8796 237.978 41.2683 238.756 40.6149 239.498C39.9246 240.214 39.1504 240.844 38.309 241.375C37.4779 241.919 36.5812 242.356 35.6402 242.676L35.5961 242.601Z" fill="#263238"/>
<path d="M81.4061 267.78L81.318 268.914C79.9242 269.958 78.0015 270.103 76.3127 269.661C74.624 269.218 73.1251 268.256 71.711 267.239C66.626 263.587 62.2446 259.052 58.7775 253.85C57.1294 251.381 55.6509 248.592 55.7764 245.627C55.8722 243.564 56.7366 241.61 58.201 240.146C60.0763 238.292 63.3588 237.762 65.936 238.336C67.7435 238.735 69.2525 239.934 70.6835 241.112C72.1026 242.232 73.4252 243.468 74.6375 244.807C76.194 246.62 77.3504 248.734 78.4016 250.885C79.7377 253.62 80.9212 256.46 81.5282 259.442C82.1352 262.424 81.6435 264.744 81.4061 267.78Z" fill="#FF3E79"/>
<path d="M61.2293 256.058C60.8255 255.269 60.6898 254.371 60.8427 253.499C60.9069 253.067 61.0114 252.642 61.1547 252.229C61.2914 251.819 61.4674 251.423 61.6803 251.047C62.0974 250.297 62.6264 249.639 63.0062 248.893C63.4024 248.16 63.6491 247.357 63.7319 246.529C63.8167 245.732 63.6335 244.915 63.8268 243.979C63.9194 243.479 64.1715 243.022 64.5457 242.676C64.9297 242.346 65.4004 242.133 65.9022 242.061C66.7869 241.972 67.6806 242.054 68.5337 242.304C69.3373 242.47 70.1376 242.642 70.9345 242.348L70.9752 242.419C70.6187 242.686 70.1997 242.858 69.7578 242.919C69.3231 242.98 68.883 242.992 68.4455 242.956C68.0148 242.932 67.5977 242.878 67.2043 242.865C66.8218 242.846 66.4384 242.871 66.0616 242.939C65.7232 242.975 65.4035 243.111 65.1441 243.331C64.8846 243.55 64.6974 243.842 64.6068 244.168C64.4067 244.871 64.4508 245.762 64.1931 246.613C63.9381 247.421 63.6276 248.211 63.2639 248.977C62.9248 249.747 62.6298 250.551 62.3212 251.314C61.6938 252.823 61.0767 254.319 61.3039 255.998L61.2293 256.058Z" fill="#263238"/>
<path d="M69.6561 263.511C69.533 262.609 69.5114 261.696 69.5917 260.79C69.629 260.34 69.6866 259.888 69.7578 259.439C69.8424 258.992 69.9557 258.551 70.0969 258.118L70.5411 256.832C70.6124 256.619 70.687 256.406 70.748 256.19C70.809 255.974 70.8769 255.758 70.9345 255.542C71.1821 254.677 71.3618 253.782 71.6365 252.918L71.6941 252.722H71.9451C72.6504 252.671 73.3523 252.648 74.0577 252.621C74.763 252.594 75.465 252.587 76.1703 252.621C76.8757 252.655 77.5776 252.682 78.283 252.736C78.9883 252.79 79.6903 252.877 80.3956 252.992V253.043C79.6925 253.164 78.9883 253.256 78.283 253.316C77.581 253.374 76.8757 253.424 76.1737 253.448C75.4718 253.472 74.7664 253.475 74.0611 253.448C73.3557 253.421 72.6538 253.408 71.9484 253.364L72.2604 253.151C71.8445 253.943 71.4864 254.763 71.1888 255.606C71.0472 256.03 70.9339 256.463 70.8497 256.903C70.7717 257.345 70.7243 257.791 70.6768 258.233C70.6293 258.676 70.5785 259.118 70.5005 259.554C70.4699 259.773 70.4225 259.993 70.3852 260.209C70.3479 260.425 70.3139 260.648 70.2665 260.864C70.1071 261.738 69.9545 262.616 69.7375 263.501L69.6561 263.511Z" fill="#263238"/>
<path d="M61.3615 241.156C61.8532 241.578 62.3279 242.017 62.7925 242.466C63.2571 242.915 63.6979 243.385 64.1489 243.854C65.0302 244.797 65.8632 245.783 66.6447 246.809C67.0245 247.332 67.3874 247.866 67.757 248.396C68.1266 248.926 68.4725 249.467 68.8557 249.987C69.6018 251.034 70.4021 252.04 71.2091 253.05C71.6059 253.559 72.0094 254.063 72.3994 254.576C72.7894 255.089 73.1522 255.623 73.5218 256.15L74.6104 257.75C74.9664 258.291 75.2886 258.841 75.6447 259.388C76.9781 261.599 78.139 263.909 79.1171 266.297L79.0425 266.334C77.6047 264.19 76.2517 262.015 74.8783 259.854L70.8259 253.313C70.4868 252.776 70.1477 252.229 69.7713 251.699C69.3949 251.169 69.0219 250.659 68.6285 250.149C68.2352 249.639 67.8045 249.163 67.3806 248.68C66.9567 248.197 66.5125 247.731 66.092 247.245C65.6715 246.758 65.2544 246.275 64.8543 245.772C64.4541 245.269 64.0438 244.783 63.647 244.276C63.2503 243.77 62.8434 243.263 62.4568 242.763C62.0702 242.264 61.67 241.75 61.3004 241.213L61.3615 241.156Z" fill="#263238"/>
<path d="M1.36321 237.3C5.17478 238.758 9.47127 238.586 13.4049 237.492C17.3386 236.398 20.967 234.433 24.4666 232.335C27.7492 230.373 30.9944 228.243 33.5411 225.393C36.0878 222.542 37.8885 218.865 37.7969 215.052C37.7698 213.948 37.1458 212.51 36.0573 212.732C31.6048 210.541 26.1486 209.659 21.6995 211.858C19.5156 212.935 17.7251 214.64 15.9686 216.322C11.9501 220.165 7.90799 224.042 4.7102 228.587C2.72038 231.371 1.13469 234.42 0 237.644C0.213638 237.708 1.15297 237.218 1.36321 237.3Z" fill="#FF3E79"/>
<path d="M34.1922 213.685C32.9748 214.566 31.7099 215.373 30.462 216.17C29.2141 216.967 27.9323 217.757 26.6436 218.51C25.355 219.263 24.0359 219.969 22.7982 220.81C21.5648 221.651 20.393 222.579 19.2918 223.586C18.1931 224.599 17.1317 225.632 16.094 226.689C15.0564 227.746 14.0967 228.874 13.1641 230.019C11.279 232.309 9.64639 234.794 8.29455 237.431L8.21655 237.401C9.12639 234.516 10.566 231.824 12.4622 229.462C13.4074 228.282 14.434 227.169 15.5345 226.132C16.622 225.089 17.7787 224.12 18.9968 223.231C20.2074 222.336 21.435 221.475 22.6422 220.587C23.8494 219.699 25.0159 218.767 26.2706 217.923C27.5253 217.078 28.8173 216.329 30.1331 215.613C31.4488 214.897 32.7849 214.215 34.1651 213.61L34.1922 213.685Z" fill="#263238"/>
<path d="M8.60643 224.947C9.48133 224.947 10.3359 224.974 11.187 224.981C12.0382 224.987 12.8826 224.981 13.7371 225.001C14.5935 225.059 15.4533 225.047 16.3076 224.964C17.1597 224.848 17.9952 224.633 18.7966 224.322L19.2307 224.16L19.0916 224.656C18.9187 225.408 18.9187 226.188 19.0916 226.939C19.2408 227.716 19.4816 228.509 19.5935 229.364C19.7022 230.225 19.6458 231.1 19.4274 231.94C19.2173 232.755 18.9253 233.547 18.5558 234.304L18.4779 234.284C18.5728 233.453 18.7118 232.639 18.783 231.839C18.8655 231.058 18.8404 230.27 18.7084 229.495C18.583 228.719 18.3897 227.918 18.2913 227.064C18.2369 226.632 18.2267 226.195 18.2608 225.761C18.3041 225.314 18.4282 224.88 18.6271 224.477L18.9221 224.815C18.0574 224.96 17.1994 225.085 16.3449 225.237C15.4903 225.389 14.6493 225.595 13.7643 225.696C12.8903 225.781 12.0095 225.764 11.1396 225.646C10.2668 225.54 9.41032 225.328 8.58948 225.014L8.60643 224.947Z" fill="#263238"/>
<path d="M19.1292 215.248C20.0936 215.111 21.065 215.028 22.0387 214.998C23.0079 214.949 23.979 214.949 24.9482 214.998C25.9181 215.059 26.8845 215.208 27.8544 215.242C28.0985 215.242 28.3393 215.262 28.5835 215.242C28.8578 215.22 29.1313 215.292 29.36 215.444C29.4655 215.541 29.55 215.659 29.6083 215.789C29.6666 215.92 29.6975 216.061 29.6991 216.204C29.7103 216.456 29.7024 216.709 29.6754 216.96C29.6143 217.923 29.5703 218.878 29.5262 219.834C29.4821 220.79 29.4923 221.742 29.4957 222.694C29.4787 224.602 29.5533 226.51 29.6211 228.455H29.5364C28.9548 226.587 28.6387 224.647 28.597 222.691C28.5823 221.713 28.6288 220.735 28.7361 219.763C28.8279 218.792 28.99 217.828 29.221 216.879C29.2808 216.658 29.3216 216.432 29.3431 216.204C29.3563 216.106 29.3477 216.006 29.3178 215.911C29.2879 215.817 29.2375 215.73 29.1701 215.657C28.9984 215.531 28.7859 215.472 28.5733 215.491C28.3325 215.491 28.0884 215.491 27.8476 215.491C26.8778 215.491 25.9079 215.63 24.9381 215.67C23.9682 215.711 22.9984 215.67 22.0285 215.613C21.0549 215.56 20.0848 215.455 19.1224 215.299L19.1292 215.248Z" fill="#263238"/>
<path d="M62.2906 216.288C63.9842 214.61 66.0108 213.303 68.2407 212.449C70.4707 211.596 72.8549 211.215 75.2411 211.331C81.6536 211.709 87.2726 215.721 92.5186 219.577C90.7448 221.428 88.6097 222.898 86.2444 223.897C83.879 224.896 81.3336 225.403 78.7644 225.386C75.8888 225.338 72.9657 224.619 70.168 225.318C68.0249 225.855 66.1564 227.179 64.2438 228.32C62.5008 229.36 60.3068 230.525 58.2247 230.269C56.4105 230.042 56.6987 228.621 56.9462 227.101C57.6109 222.988 59.3675 219.172 62.2906 216.288Z" fill="#FF3E79"/>
<path d="M59.1945 224.46C59.3739 223.223 59.8006 222.033 60.4492 220.962C61.0856 219.885 61.8865 218.913 62.823 218.081C63.7763 217.294 64.7874 216.578 65.8478 215.941C66.8723 215.242 67.9736 214.662 69.1304 214.212C70.327 213.829 71.5809 213.656 72.8368 213.698C74.061 213.698 75.2818 213.675 76.5026 213.698C77.7233 213.722 78.9373 213.769 80.1819 213.894C80.8116 213.953 81.432 214.087 82.03 214.293C82.6315 214.499 83.1746 214.847 83.6136 215.306L83.5594 215.37C82.5421 214.694 81.328 214.576 80.1412 214.563C78.9543 214.549 77.7064 214.61 76.489 214.603C75.2716 214.597 74.044 214.539 72.8232 214.492C71.6318 214.401 70.4336 214.456 69.2558 214.657C68.0808 214.94 66.9741 215.453 66.0004 216.167C65.028 216.887 64.1264 217.698 63.3079 218.588C62.4722 219.438 61.7025 220.35 61.0054 221.317C60.3134 222.3 59.7344 223.358 59.2793 224.471L59.1945 224.46Z" fill="#263238"/>
<path d="M68.5303 212.256C69.2356 212.664 69.9884 212.984 70.7718 213.209L71.9519 213.546C72.355 213.654 72.7523 213.783 73.1422 213.931C73.9348 214.251 74.688 214.66 75.3871 215.15C76.0674 215.651 76.7069 216.204 77.2996 216.805C77.8635 217.379 78.48 217.899 79.141 218.358C79.8344 218.763 80.555 219.12 81.2977 219.426C82.0829 219.762 82.8298 220.181 83.5256 220.675C83.8747 220.937 84.1922 221.239 84.4718 221.573C84.7441 221.91 84.9563 222.29 85.0991 222.698L85.0245 222.735C84.5183 222.107 83.8837 221.594 83.1628 221.229C82.4387 220.862 81.6962 220.533 80.9383 220.243C80.1386 219.924 79.3812 219.509 78.6832 219.007C78.3308 218.745 78.0089 218.445 77.7235 218.112C77.4421 217.774 77.1979 217.437 76.9503 217.099C76.508 216.408 75.9245 215.818 75.2379 215.367C74.5393 214.938 73.7187 214.789 72.9285 214.586C72.5318 214.489 72.1316 214.384 71.7349 214.249C71.3306 214.123 70.9333 213.977 70.5446 213.81C69.7402 213.49 69.0282 212.976 68.4727 212.314L68.5303 212.256Z" fill="#263238"/>
<path d="M60.6561 218.294C60.9231 218.16 61.2232 218.105 61.5208 218.136C61.815 218.164 62.1032 218.237 62.3753 218.352C62.6343 218.458 62.8849 218.583 63.1248 218.727C63.3619 218.86 63.5886 219.012 63.803 219.179C64.2337 219.517 64.6101 219.929 65.0441 220.253C65.4827 220.575 65.9465 220.862 66.4311 221.111C66.9187 221.36 67.3878 221.643 67.835 221.958C68.288 222.262 68.7239 222.59 69.1405 222.941C69.9719 223.66 70.7009 224.488 71.3074 225.403L71.2498 225.464C70.3104 224.919 69.4127 224.306 68.5641 223.63C68.1436 223.292 67.7502 222.934 67.3433 222.583C66.9363 222.232 66.543 221.864 66.1598 221.482C65.7774 221.097 65.3519 220.757 64.8915 220.469C64.4303 220.185 63.9081 220.003 63.4266 219.763C62.9598 219.508 62.507 219.229 62.0701 218.926C61.6555 218.628 61.1732 218.436 60.6662 218.369L60.6561 218.294Z" fill="#263238"/>
<path d="M51.9988 206.3C51.9324 207.392 51.6139 208.454 51.0681 209.404C50.5223 210.354 49.7639 211.166 48.8519 211.777C46.2102 210.956 43.8568 209.447 41.517 207.958C38.2208 205.83 34.8874 203.733 31.5743 201.606C28.5936 199.687 25.623 197.786 22.6728 195.828C22.6558 195.76 22.6558 195.676 22.6389 195.608C22.6058 195.414 22.5888 195.217 22.588 195.021C22.571 193.633 23.2967 192.711 24.3547 191.603C25.6215 190.27 27.1516 189.213 28.8488 188.498C30.546 187.784 32.3734 187.426 34.216 187.45C37.8478 187.517 41.3813 188.989 44.2095 191.269C46.9938 193.619 49.1786 196.593 50.5847 199.948C51.4596 201.943 52.1175 204.105 51.9988 206.3Z" fill="#FF3E79"/>
<path d="M32.0186 201.606C31.9871 203.248 31.7502 204.881 31.3133 206.465C31.2749 206.695 31.1469 206.9 30.9572 207.036C30.6554 207.188 30.3027 206.934 30.0518 206.698C28.2986 205.07 26.5183 203.429 25.189 201.454C24.0777 199.758 23.3691 197.833 23.1171 195.824C26.0639 197.786 29.0413 199.687 32.0186 201.606Z" fill="#CE3A73"/>
<path d="M48.7296 208.549C48.3905 207.873 48.126 207.174 47.8412 206.492L47.4207 205.479C47.2783 205.141 47.146 204.804 47.0239 204.466L46.6679 203.402C46.5458 203.064 46.4101 202.69 46.2745 202.349C46.1329 202.007 45.9628 201.679 45.7658 201.366C45.5815 201.064 45.3396 200.801 45.0537 200.593C44.9395 200.516 44.8042 200.477 44.6667 200.482C44.5292 200.486 44.3966 200.533 44.2873 200.616C44.016 200.765 43.7346 200.998 43.4124 201.224C43.0842 201.438 42.7446 201.634 42.3951 201.812C42.056 201.987 41.7169 202.149 41.3574 202.291C39.9427 202.871 38.4343 203.192 36.905 203.237V203.156C38.3157 202.602 39.6823 202.075 41.0183 201.467L42.0357 201.021C42.3748 200.869 42.7139 200.714 43.0055 200.555C43.3329 200.338 43.679 200.151 44.0398 199.995C44.2624 199.906 44.5041 199.876 44.7417 199.907C44.9827 199.947 45.2035 200.066 45.3691 200.245C45.6423 200.537 45.8709 200.868 46.0473 201.227L46.556 202.24C46.8951 202.916 47.3596 203.507 47.7055 204.186C47.8808 204.521 48.0315 204.869 48.1566 205.226C48.282 205.563 48.4007 205.942 48.4957 206.306C48.6933 207.039 48.8071 207.791 48.8348 208.549H48.7296Z" fill="#263238"/>
<path d="M41.0558 189.435C41.2365 189.685 41.3688 189.967 41.4458 190.266C41.5324 190.549 41.5657 190.845 41.5441 191.14C41.5068 191.438 41.3813 191.735 41.3644 192.022C41.3445 192.316 41.3755 192.612 41.4559 192.896C41.4831 193.042 41.5238 193.19 41.5475 193.339C41.5712 193.487 41.5746 193.633 41.5814 193.781C41.5995 194.076 41.5904 194.372 41.5543 194.666C41.4607 195.267 41.2285 195.838 40.8761 196.334L40.7947 196.317C40.6629 195.743 40.6161 195.152 40.6556 194.565C40.682 194.283 40.725 194.004 40.7845 193.727C40.8293 193.441 40.8985 193.16 40.9914 192.886C41.0826 192.61 41.116 192.318 41.0897 192.029C41.0247 191.742 40.9408 191.46 40.8388 191.184C40.8024 191.047 40.7842 190.905 40.7845 190.762C40.7761 190.619 40.7761 190.476 40.7845 190.333C40.793 190.187 40.8111 190.042 40.8388 189.898C40.8632 189.744 40.9042 189.593 40.9608 189.449L41.0558 189.435Z" fill="#263238"/>
<path d="M23.2289 195.348C24.1453 194.022 25.3751 192.942 26.8099 192.201C27.5295 191.818 28.2906 191.518 29.0785 191.306C29.8652 191.084 30.6787 190.97 31.4963 190.968C33.1376 190.968 34.7077 191.39 36.2065 191.85C37.7148 192.317 39.1937 192.874 40.6353 193.518C41.3637 193.837 42.0746 194.194 42.7649 194.588C43.4664 195.001 44.1253 195.482 44.7317 196.024C45.3549 196.585 45.8959 197.231 46.3391 197.942C46.7626 198.647 47.1039 199.398 47.3564 200.181C47.6073 200.947 47.8006 201.714 47.9769 202.47C48.1533 203.226 48.3161 203.986 48.4856 204.749C48.8044 206.272 49.1062 207.789 49.313 209.359L49.191 209.393C48.5704 207.951 48.0414 206.485 47.5293 205.003C47.0173 203.52 46.5798 202.018 46.0813 200.613C45.8415 199.915 45.5467 199.238 45.1997 198.587C44.8474 197.957 44.4117 197.378 43.9043 196.864C43.3759 196.339 42.8092 195.854 42.2087 195.412C41.6017 194.963 40.9676 194.517 40.3131 194.109C39.0214 193.258 37.6004 192.621 36.1048 192.221C34.6162 191.873 33.0765 191.798 31.5608 191.998C30.8214 192.079 30.0876 192.204 29.3633 192.373C29.0005 192.457 28.6444 192.562 28.2884 192.68C27.9323 192.799 27.583 192.924 27.2371 193.069C25.8282 193.667 24.5126 194.463 23.3306 195.433L23.2289 195.348Z" fill="#263238"/>
<path d="M68.7913 277.492L67.5637 284.161L67.0923 286.69L66.1835 291.668L65.7122 294.197L64.8033 299.188L64.3354 301.721L63.2401 307.651H39.0447L37.7833 301.721L37.261 299.188L36.1996 294.197L35.6638 291.668L34.6194 286.69L34.2159 284.796L34.0802 284.161L32.6661 277.492H68.7913Z" fill="#282828"/>
<path d="M74.0101 272.902H28.0611V279.555H74.0101V272.902Z" fill="#363636"/>
<path d="M65.3255 311.193H36.3759L34.3718 307.202H67.0313L65.3255 311.193Z" fill="#282828"/>
<path d="M67.9978 306.317H32.0693V308.09H67.9978V306.317Z" fill="#363636"/>
<path d="M67.5637 284.161L67.0924 286.69H34.5855L34.2159 284.796L34.0803 284.161H67.5637Z" fill="#363636"/>
<path d="M66.1836 291.668L65.7122 294.197H36.1997L35.6639 291.668H66.1836Z" fill="#363636"/>
<path d="M64.8035 299.188L64.3356 301.721H37.7835L37.2612 299.188H64.8035Z" fill="#363636"/>
<path opacity="0.88" d="M141.682 270.522L120.397 311.237L113.716 310.315L132.462 270.251L141.682 270.522Z" fill="#273137"/>
<path d="M191.853 257.973L169.845 268.61H167.709L164.494 257.234L158.706 251.905L116.812 249.392L101.302 219.274L96.7303 214.884C95.8082 214.164 94.6703 213.773 93.4987 213.773L88.0187 214.505L88.6426 213.773H132.879L138.112 227.811L150.832 235.351L169.404 238.752L190.941 244.668L191.853 257.973Z" fill="#282828"/>
<path d="M191.854 311.237H182.359L159.194 271.025L141.679 270.522L132.459 270.265L131.886 270.248C131.886 270.248 112.875 270.448 112.285 270.65C111.695 270.853 91.3048 310.275 91.3048 310.275H85.5671L105.958 265.51L85.245 220.496C84.9722 219.904 84.8379 219.259 84.852 218.608C84.8661 217.957 85.0283 217.317 85.3263 216.738L86.2012 215.029C86.396 214.651 86.6919 214.333 87.0563 214.111C87.4207 213.89 87.8394 213.773 88.2664 213.773H95.3097L99.3281 216.91C101.278 218.434 102.849 220.384 103.92 222.61L116.806 249.386L158.699 251.898L164.488 257.227L167.709 268.611L167.913 269.35L191.854 311.237Z" fill="#363636"/>
<path d="M130.349 132.75C131.191 130.771 132.565 129.062 134.32 127.811C136.075 126.559 138.143 125.815 140.295 125.659C145.073 125.321 149.272 127.979 151.147 131.274C152.483 133.638 152.235 136.6 151.74 142.509C151.34 147.301 150.821 147.784 150.404 152.563C149.899 158.401 149.645 161.319 150.553 163.801C152.249 168.414 155.06 167.684 159.313 174.296C162.504 179.26 163.043 182.965 163.172 184.201C163.467 186.872 163.789 189.763 162.134 191.89C159.377 195.436 152.371 195.267 147.583 193.072C141.598 190.323 138.207 183.995 135.833 179.615C134.046 176.296 132.859 173.033 129.152 169.859C127.158 168.15 126.731 168.434 124.846 166.901C119.108 162.231 117.646 155.193 117.423 154.038C116.86 151.131 115.686 145.059 119.501 139.551C123.14 134.31 128.895 133.03 130.349 132.75Z" fill="#282828"/>
<path d="M140.957 157.692V172.034C140.957 173.631 140.319 175.164 139.185 176.294C138.05 177.423 136.512 178.058 134.907 178.058C133.303 178.058 131.764 177.423 130.629 176.294C129.495 175.164 128.857 173.631 128.857 172.034V157.692C128.857 156.094 129.495 154.562 130.629 153.432C131.764 152.302 133.303 151.667 134.907 151.667C136.512 151.667 138.05 152.302 139.185 153.432C140.319 154.562 140.957 156.094 140.957 157.692Z" fill="#FFC1A6"/>
<path d="M131.462 163.132C131.462 163.132 136.138 168.009 140.957 166.236C140.957 163.649 140.587 163.872 140.587 163.872C140.587 163.872 132.652 164.463 131.462 163.132Z" fill="#E89680"/>
<path d="M132.798 135.708C132.96 139.87 132.094 144.007 130.275 147.757C129.661 148.999 128.94 150.185 128.122 151.303C128.308 149.419 127.355 147.926 126.192 147.683C125.029 147.44 123.93 148.584 123.744 148.79C122.608 150.047 122.34 152.194 123.286 153.373C123.907 154.136 125.002 154.457 125.588 154.629C125.952 154.736 126.324 154.81 126.701 154.852C128.969 155.132 130.841 162.062 134.422 164.463C137.552 166.563 142.774 165.726 145.555 163.207C147.251 161.684 147.739 158.941 148.675 153.522C149.638 147.929 150.099 145.079 149.045 142.715C147.115 138.403 142.551 136.755 141.245 136.299C138.536 135.339 135.615 135.135 132.798 135.708Z" fill="#FFC1A6"/>
<path d="M138.366 143.907C136.982 143.955 135.595 144.029 134.208 144.029" stroke="#1E1D1D" stroke-width="1.5" stroke-miterlimit="10"/>
<path d="M143.785 142.408H148.092" stroke="#1E1D1D" stroke-width="1.5" stroke-miterlimit="10"/>
<path d="M136.684 148.865C137.339 148.865 137.871 148.336 137.871 147.683C137.871 147.03 137.339 146.501 136.684 146.501C136.028 146.501 135.497 147.03 135.497 147.683C135.497 148.336 136.028 148.865 136.684 148.865Z" fill="#1E1D1D"/>
<path d="M146.383 148.865C147.038 148.865 147.569 148.336 147.569 147.683C147.569 147.03 147.038 146.501 146.383 146.501C145.727 146.501 145.196 147.03 145.196 147.683C145.196 148.336 145.727 148.865 146.383 148.865Z" fill="#1E1D1D"/>
<path d="M141.215 146.599C141.995 148.49 144.267 151.327 143.805 152.164C143.687 152.377 142.279 152.664 141.52 152.914" stroke="#263238" stroke-miterlimit="10"/>
<path d="M140.109 155.082C139.895 155.114 139.676 155.104 139.466 155.051C139.255 154.999 139.058 154.904 138.885 154.774C138.688 154.616 138.546 154.393 138.332 154.254C137.911 153.984 137.291 153.802 137.009 154.217C136.879 154.43 136.821 154.68 136.846 154.928C136.872 155.176 136.978 155.409 137.148 155.592C137.488 155.956 138.03 155.929 138.529 155.929C138.858 155.964 139.191 155.909 139.492 155.771C139.695 155.932 139.88 156.114 140.044 156.314C140.357 156.626 140.748 156.849 141.177 156.959C141.628 157.091 142.021 156.959 142.116 156.5C142.154 156.277 142.154 156.048 142.116 155.825C141.903 154.457 141.136 154.953 140.109 155.082Z" fill="#FF2C68"/>
<path d="M197.083 307.202H209.701C209.701 307.202 209.256 308.387 209.701 308.313C210.145 308.239 216.086 309.495 216.086 310.001V311.227L197.096 311.038L197.083 307.202Z" fill="#FF3E79"/>
<path d="M179.408 247.977H191.182C191.182 247.977 193.858 281.686 195.251 287.403C196.645 293.12 198.907 307.894 198.907 307.894H208.524V250.949C208.524 250.949 210.304 239.687 204.567 234.169C198.829 228.651 181.602 229.043 181.602 229.043C181.602 229.043 172.48 239.096 179.408 247.977Z" fill="#FFC1A6"/>
<path d="M179.934 307.202H192.555C192.555 307.202 192.108 308.387 192.555 308.313C193.003 308.239 198.937 309.495 198.937 310.001V311.227L179.947 311.038L179.934 307.202Z" fill="#FF3E79"/>
<path d="M162.168 247.977H173.942C173.942 247.977 176.621 281.686 178.011 287.403C179.402 293.12 181.66 307.904 181.66 307.904H191.274V250.949C191.274 250.949 193.057 239.687 187.316 234.169C181.575 228.651 164.355 229.043 164.355 229.043C164.355 229.043 155.24 239.096 162.168 247.977Z" fill="#FFC1A6"/>
<path d="M159.57 209.741C159.57 209.741 163.233 216.133 167.271 216.282C171.31 216.43 172.243 214.654 174.054 210.811C175.864 206.968 179.934 188.783 179.588 185.383C181.67 184.792 183.023 183.019 183.627 182.722C184.23 182.425 185.98 178.724 185.912 178.065C185.844 177.407 185.441 174.442 185.034 172.814C184.627 171.186 184.356 169.731 183.627 168.971C182.898 168.211 182.209 166.624 182.209 166.624L181.399 168.38L181.365 172.334L180.158 169.873L180.334 166.638C180.334 166.638 180.422 163.858 179.927 163.811C179.432 163.764 178.805 163.504 178.94 164.692C179.076 165.881 178.221 170.548 178.221 170.548L177.146 169.613L177.19 167.441L177.37 164.24C177.37 164.24 177.685 162.859 176.967 162.714C176.248 162.568 176.112 163.649 176.112 163.649L175.753 168.873L175.529 170.106C175.529 170.106 175.441 170.893 175.081 170.106C174.722 169.319 174.722 167.148 174.722 167.148C174.722 167.148 174.945 165.121 174.81 164.389C174.674 163.656 173.735 163.798 173.735 163.798L173.196 165.03L172.745 170.744L173.06 174.59C172.824 173.937 172.44 173.347 171.938 172.865C171.086 172.027 170.144 170.838 169.964 170.838C169.784 170.838 169.513 170.541 168.842 170.639C168.17 170.737 167.539 171.281 167.943 171.774C168.346 172.267 168.302 171.872 168.797 172.561C169.293 173.25 170.547 175.765 170.547 175.765C170.556 176.508 170.617 177.249 170.727 177.984C170.859 178.426 171.086 181.729 171.219 182.374C171.351 183.019 166.553 198.637 166.553 198.637L166.149 200.758L163.813 198.59L159.57 209.741Z" fill="#FFC1A6"/>
<path d="M110 215.437C110.678 203.709 111.305 191.728 112 180C114.35 179.257 116.975 178.886 119.2 179.946C123.134 181.877 124.124 185.812 124.249 186.362C123.72 195.99 124.775 205.61 124.249 215.241C120.027 215.032 114.222 215.633 110 215.437Z" fill="#FF3E79"/>
<path d="M196.808 230.566C196.808 230.566 182.365 231.012 179.991 230.904C177.618 230.796 168.601 230.228 167.105 230.904C165.61 231.579 161.368 235.53 161.469 239.366C161.571 243.203 162.551 248.437 162.551 248.437C162.551 248.437 127.416 249.923 123.849 248.633C120.281 247.343 117.521 241.852 117.335 239.691C117.148 237.529 119.318 227.459 119.318 227.459C119.318 227.459 123.574 213.871 122.971 213.168C122.367 212.466 117.819 202.831 117.819 202.831L112 180C112 179.5 112.502 178.621 113.17 177.644C113.838 176.666 114.772 175.9 115.863 175.435C119.715 173.658 127.843 170.592 127.843 170.592L128.861 170.693V172.044C128.861 173.642 129.498 175.174 130.633 176.304C131.767 177.434 133.306 178.069 134.91 178.069C136.515 178.069 138.054 177.434 139.188 176.304C140.323 175.174 140.96 173.642 140.96 172.044V170.275C142.557 169.89 145.216 169.403 146.386 170.008L148.105 170.896L157.509 183.208L163.952 193.866L167.499 199.478L159.699 213.084C159.699 213.084 151.978 203.402 151.876 202.929C151.774 202.457 150.882 206.668 150.882 206.668C150.882 206.668 149.791 213.168 150.984 215.833C152.178 218.497 156.62 223.086 160.188 223.664C163.755 224.241 173.952 226.176 177.519 226.662C181.087 227.149 196.808 230.566 196.808 230.566Z" fill="#FF3E79"/>
<path d="M109.43 219.453C109.589 221.496 110.291 223.562 111.753 225.004C113.825 227.03 117.005 227.466 119.918 227.324C123.92 227.132 127.823 226.095 131.757 225.332C140.472 223.643 149.39 223.289 158.207 222.441C159.404 222.326 160.832 222.033 161.259 220.915C159.155 221.195 157.018 221.091 154.952 220.608C157.186 220.077 159.498 219.949 161.778 220.229C162.117 219.378 161.374 218.423 160.503 218.149C159.631 217.876 158.685 218.075 157.79 218.23C156.895 218.386 155.905 218.487 155.104 218.044L160.927 216.994C161.303 216.927 161.744 216.808 161.883 216.451C161.928 216.268 161.904 216.075 161.817 215.909C161.73 215.742 161.584 215.613 161.408 215.546C161.052 215.42 160.669 215.386 160.296 215.448L153.514 215.991C155.664 216.005 157.764 215.342 159.513 214.097C156.753 212.995 153.706 212.822 150.838 213.604C150.838 212.773 151.615 212.192 152.293 211.713C152.971 211.233 153.697 210.524 153.514 209.717C153.331 208.91 152.157 208.559 151.36 208.896C150.564 209.234 150.004 209.984 149.465 210.666C148.295 212.138 146.894 213.489 145.155 214.208C143.663 214.823 142.021 214.941 140.407 215.022C130.682 215.36 121.031 215.022 111.4 213.55C109.66 213.283 109.833 213.671 109.613 215.34C109.408 216.7 109.347 218.079 109.43 219.453Z" fill="#FFC1A6"/>
<path d="M238.677 302.866V311.048H221.01C221.01 311.048 225.859 308.779 226.453 308.09C227.046 307.401 226.751 303.163 226.751 303.163L238.677 302.866Z" fill="#FF3E79"/>
<path d="M280.449 300.046L282.822 307.874L265.921 313C265.921 313 269.916 309.437 270.282 308.59C270.648 307.742 269.126 303.791 269.126 303.791L280.449 300.046Z" fill="#FF3E79"/>
<path d="M267.281 307.202C267.281 307.202 278.563 305.132 282.025 299.908C276.681 292.418 256.789 253.586 256.491 251.81C256.192 250.034 278.465 214.664 279.652 211.696C280.839 208.727 283.511 201.052 282.025 197.307L281.235 195.828L262.184 194.696C262.184 194.696 235.608 244.222 235.608 247.92C235.608 251.618 235.31 254.424 236.944 257.676C238.579 260.928 267.281 307.202 267.281 307.202Z" fill="#282828"/>
<path d="M223.136 306.523H241.695L229.372 246.944C229.372 246.944 254.313 228.611 261.441 223.437C268.569 218.264 273.615 213.678 275.84 206.732C277.162 202.495 277.162 197.958 275.84 193.72L243.031 195.493C243.031 195.493 214.675 232.602 213.783 236.891C212.891 241.18 212.447 246.498 213.041 250.787C213.634 255.076 223.136 306.523 223.136 306.523Z" fill="#282828"/>
<path d="M229.372 246.944L259.641 224.393C262.164 222.512 264.697 220.678 267.03 218.581C269.363 216.484 271.513 214.225 273.11 211.581C273.91 210.266 274.574 208.873 275.091 207.424C275.614 205.981 275.969 204.483 276.149 202.96C276.327 201.437 276.343 199.9 276.196 198.374C276.122 197.612 276.009 196.855 275.857 196.105C275.714 195.364 275.522 194.634 275.281 193.92L275.864 194.305L243.065 196.331L242.974 194.659L275.799 193.136L276.251 193.116L276.383 193.521C276.867 195.068 277.168 196.666 277.281 198.283C277.411 199.884 277.369 201.495 277.156 203.088C276.944 204.68 276.548 206.243 275.976 207.745C275.418 209.246 274.705 210.685 273.85 212.04C272.154 214.742 269.896 217.058 267.508 219.132C265.121 221.205 262.527 223.029 259.98 224.873L229.372 246.944Z" fill="#363636"/>
<path d="M265.711 213.013C263.313 214.701 260.139 214.701 257.203 214.607C256.266 212.064 255.474 209.471 254.829 206.84C254.69 206.434 254.69 205.993 254.829 205.587C255.144 204.912 256.06 204.827 256.809 204.841L267.807 205.06C268.732 205.08 269.655 205.094 270.581 205.118C271.506 205.141 271.618 205.165 271.133 205.918C270.384 207.083 269.546 208.194 268.807 209.369C267.946 210.73 267.03 212.077 265.711 213.013Z" fill="#363636"/>
<path d="M243.669 179.521C241.173 183.761 237.3 187.027 232.689 188.78C230.278 189.688 227.497 190.131 225.167 189.037C223.923 188.446 222.916 187.466 221.986 186.46C218.31 182.485 215.448 177.852 212.247 173.489C209.046 169.126 205.384 164.936 200.633 162.345C199.453 161.697 198.201 161.147 197.16 160.299C196.119 159.451 195.278 158.222 195.292 156.882C196.759 158.657 198.749 159.929 200.982 160.515C202.162 160.822 203.597 160.853 204.414 159.958C205.496 158.759 204.655 156.706 203.251 155.906C201.847 155.105 200.141 155.119 198.53 154.947C196.92 154.774 195.139 154.271 194.349 152.866C197.666 151.273 201.721 151.955 204.943 153.734C208.164 155.514 210.725 158.246 213.224 160.937L226.449 175.185C227.69 176.535 229.501 177.981 231.135 177.18C231.865 176.843 232.326 176.103 232.77 175.428C234.347 173.027 241.831 162.396 245.439 164.848C247.026 165.925 246.636 169.167 246.483 170.754C246.187 173.843 245.227 176.833 243.669 179.521Z" fill="#FFC1A6"/>
<path d="M219.877 170.518C220.115 169.802 221.04 169.643 221.797 169.602C223.543 169.508 225.313 169.42 227.015 169.819C230.627 170.663 233.347 173.533 235.832 176.285C235.707 176.322 235.703 176.177 235.581 176.214C235.343 180.055 234.557 183.843 233.245 187.463C232.597 189.243 231.773 191.042 230.318 192.258C227.626 194.511 223.675 194.153 220.196 193.643C212.169 192.464 204.163 191.144 196.157 189.82C192.454 189.209 188.676 188.574 185.36 186.815C183.132 185.616 181.191 183.951 179.669 181.936C178.147 179.92 177.081 177.601 176.543 175.137C176.204 173.469 176.105 171.666 176.834 170.126C177.563 168.586 179.3 167.424 180.968 167.799C183.003 168.255 183.939 170.501 184.881 172.341C185.737 174.003 186.825 175.535 188.113 176.893C189.283 178.126 191.063 179.997 192.735 180.527C193.695 180.831 195 180.689 196.018 180.777C197.232 180.885 198.439 181.02 199.65 181.155C202.067 181.428 204.485 181.715 206.917 181.83C209.302 181.941 211.691 181.885 214.068 181.661C215.33 181.54 216.717 181.307 217.517 180.311C218.874 178.639 217.714 175.883 218.979 174.141C219.43 173.52 219.318 172.422 219.545 171.689C219.318 171.176 219.691 171.065 219.877 170.518Z" fill="#FFC1A6"/>
<path d="M237.226 168.029C236.805 174.107 236.436 179.173 236.436 179.173L218.575 175.235L219.165 145.359C219.165 145.359 221.068 141.439 224.113 140.466L235.571 167.441C235.571 167.441 236.307 167.661 237.226 168.029Z" fill="#FF3E79"/>
<path d="M282.46 198.59L245.209 199.265C245.209 199.265 242.652 172.672 241.54 170.794C240.861 169.636 238.745 168.633 237.233 168.029C236.307 167.661 235.585 167.441 235.585 167.441L224.126 140.466L224.025 140.233C224.025 140.233 252.93 135.607 253.232 135.607C253.534 135.607 259.963 141.824 259.963 141.824C259.963 141.824 267.763 153.552 271.54 162.717C275.318 171.882 282.46 198.59 282.46 198.59Z" fill="#FF3E79"/>
<path d="M279.55 182.235L249.668 187.699V199.731L219.582 238.299L212.013 233.426L240.8 199.427L241.356 189.209L241.489 186.676L242.045 176.407L233.33 167.056L233.971 164.679L246.891 171.213L249.668 184.197V185.187L279.096 179.807L279.55 182.235Z" fill="#363636"/>
<path d="M272.69 191.316C273.465 190.335 274.035 189.21 274.367 188.007C274.699 186.804 274.786 185.546 274.623 184.309C274.463 183.12 274.097 181.759 273.246 180.864C272.473 180.061 271.669 180.095 270.76 180.611C269.936 181.077 269.038 181.469 268.871 182.512C268.675 183.779 269.682 184.92 270.669 185.552C273.195 187.176 276.335 186.49 279.055 185.845C279.58 185.724 279.994 185.133 280.513 185.008C278.139 185.572 275.532 186.166 273.151 185.234C271.483 184.579 268.834 181.911 271.188 180.375L269.753 181.195C272.127 180.132 273.1 184.086 273.219 185.656C273.397 187.992 272.688 190.31 271.232 192.15C271.55 191.745 272.364 191.721 272.69 191.313V191.316Z" fill="#4C4C4C"/>
<path d="M273.483 184.491C273.619 179.679 270.255 175.418 266.867 172.307C264.405 170.045 260.624 166.746 257.057 167.698C255.684 168.063 254.432 168.711 254.605 170.399C254.843 172.689 257.213 174.563 258.895 175.88C260.858 177.417 262.893 178.859 264.846 180.409C266.799 181.959 268.793 183.279 271.32 183.488C271.452 183.488 272.507 183.255 272.537 183.151C273.924 179.007 278.278 176.694 279.319 172.277C280.099 168.991 278.271 163.885 274.033 164.645C266.145 166.063 270.072 178.896 271.571 183.718C271.571 183.742 272.788 183.38 272.788 183.38C271.727 179.963 270.845 176.377 270.618 172.79C270.462 170.271 270.791 165.53 273.866 164.686L272.947 164.925C277.4 164.615 279.021 169.579 277.949 173.145C276.715 177.234 272.632 179.51 271.31 183.465L272.527 183.127C268.186 182.769 264.792 178.97 261.452 176.529C259.488 175.097 252.557 169.646 257.403 167.566L256.955 167.691L257.372 167.58L256.599 167.779C258.634 167.512 260.526 168.792 262.154 169.863C263.926 171.037 265.558 172.408 267.02 173.949C269.811 176.883 272.374 180.571 272.256 184.775C272.256 184.664 273.47 184.579 273.473 184.437L273.483 184.491Z" fill="#4C4C4C"/>
<path d="M223.388 133.448C227.623 132.29 229.485 125.654 227.547 118.628C225.608 111.602 220.604 106.845 216.369 108.003C212.134 109.162 210.272 115.797 212.211 122.823C214.149 129.85 219.153 134.606 223.388 133.448Z" fill="#FFC1A6"/>
<path d="M219.592 119.077C219.158 118.854 211.454 114.842 209.643 111.165C209.285 110.438 209.055 109.656 208.965 108.852C208.89 107.69 209.229 106.447 210.077 104.799C211.488 102.064 219.131 95.7796 221.878 95.3439C224.625 94.9083 230.118 94.0877 233.309 95.8606C235.463 94.4558 235.683 91.2781 239.027 92.1629C241.068 92.6522 242.83 93.9288 243.927 95.712C244.296 96.2287 243.998 100.44 243.927 101.115C243.737 102.804 241.553 102.128 240.875 102.962C238.952 105.326 245.449 113.525 247.382 115.997C258.729 130.501 264.901 138.589 263.812 146.849C263.673 147.906 262.869 153.113 258.864 155.629C255.25 157.895 250.956 156.75 246.294 155.433C240.268 153.744 231.932 151.381 227.304 143.212C227.304 143.212 223.98 137.366 224.435 128.13C224.54 125.989 224.621 124.328 225.72 122.71C226.269 121.903 226.785 121.532 227.205 120.445C227.487 119.715 228.094 118.155 227.304 116.598C226.354 114.724 224.187 114.447 224.038 114.43C223.257 114.332 222.464 114.47 221.763 114.825C220.342 115.555 219.518 117.223 219.592 119.077Z" fill="#363636"/>
<path d="M212.83 110.729C214.163 110.226 215.659 110.26 217.066 110.415C218.473 110.571 219.864 110.864 221.217 110.945C222.554 111.026 223.895 110.852 225.167 110.432C226.454 110.015 227.678 109.429 228.809 108.69C229.967 107.949 231.069 107.123 232.105 106.221C233.174 105.34 234.201 104.384 235.276 103.476C237.399 101.635 239.552 99.8285 241.794 98.113C239.912 100.21 237.941 102.219 235.944 104.192C234.954 105.205 233.94 106.16 232.892 107.119C231.833 108.083 230.699 108.963 229.501 109.75C228.268 110.538 226.93 111.15 225.527 111.567C224.103 111.982 222.609 112.097 221.139 111.904C219.687 111.729 218.334 111.31 216.978 111.01C215.628 110.642 214.218 110.546 212.83 110.729Z" fill="#3F3F3F"/>
<path d="M235.405 96.1848C236.348 97.8902 237.172 99.6394 237.955 101.402C238.433 102.327 238.715 103.339 238.783 104.377C238.781 104.945 238.657 105.506 238.42 106.022C238.186 106.514 237.881 106.969 237.514 107.373C236.816 108.11 236.028 108.756 235.168 109.297C234.341 109.843 233.474 110.325 232.574 110.739C230.793 111.58 228.881 112.113 226.921 112.313C228.719 111.64 230.457 110.82 232.119 109.861C232.937 109.386 233.729 108.869 234.493 108.311C235.247 107.788 235.947 107.191 236.582 106.528C237.169 105.944 237.53 105.171 237.599 104.347C237.65 103.536 237.341 102.658 237.05 101.747C236.429 99.9231 235.87 98.0759 235.405 96.1848Z" fill="#3F3F3F"/>
<path d="M217.453 114.113C219.808 113.272 222.223 112.61 224.679 112.134C225.907 111.894 227.148 111.705 228.409 111.546C229.1 111.452 229.804 111.549 230.444 111.827C230.767 111.97 231.07 112.154 231.346 112.374C231.617 112.601 231.86 112.861 232.068 113.147C232.475 113.728 232.725 114.404 232.794 115.109L233.018 116.946C233.176 118.171 233.352 119.392 233.547 120.61C233.93 123.052 234.364 125.48 234.883 127.894C235.402 130.309 235.9 132.716 237.117 134.736C237.73 135.741 238.522 136.627 239.454 137.349C240.393 138.099 241.431 138.768 242.455 139.501C243.502 140.223 244.475 141.048 245.358 141.962C246.235 142.879 247.013 143.884 247.681 144.961C249.012 147.097 249.873 149.49 250.207 151.982C249.061 147.166 246.082 142.98 241.899 140.308C240.882 139.632 239.79 138.997 238.769 138.214C237.712 137.432 236.807 136.464 236.1 135.357C235.431 134.248 234.911 133.056 234.554 131.811C234.177 130.589 233.91 129.363 233.648 128.147C233.15 125.706 232.712 123.247 232.37 120.779C232.2 119.546 232.051 118.307 231.922 117.064C231.858 116.443 231.797 115.825 231.743 115.204C231.743 115.035 231.712 114.93 231.695 114.792C231.671 114.661 231.638 114.533 231.597 114.407C231.517 114.153 231.403 113.911 231.258 113.687C231.109 113.465 230.934 113.262 230.735 113.083C230.531 112.905 230.303 112.756 230.057 112.641C229.562 112.403 229.011 112.303 228.463 112.353C227.229 112.441 225.998 112.566 224.771 112.728C222.308 113.058 219.865 113.52 217.453 114.113Z" fill="#3F3F3F"/>
<path d="M232.526 108.298C236.575 108.872 240.325 111.459 242.482 115.052C243.025 115.954 243.465 116.913 243.795 117.912C244.096 118.904 244.335 119.913 244.51 120.934C244.7 121.947 244.849 122.93 245.063 123.892C245.171 124.379 245.27 124.865 245.402 125.341C245.534 125.817 245.653 126.304 245.812 126.776C246.392 128.686 247.104 130.553 247.942 132.365C248.756 134.195 249.695 135.968 250.655 137.741C251.614 139.514 252.642 141.253 253.673 142.996L255.206 145.62C255.688 146.505 256.283 147.324 256.976 148.058C256.182 147.412 255.488 146.654 254.914 145.809C254.314 144.988 253.734 144.157 253.151 143.327C251.998 141.658 250.862 139.97 249.804 138.231C248.73 136.494 247.746 134.703 246.857 132.865C245.967 131.009 245.214 129.09 244.605 127.124C244.029 125.159 243.603 123.153 243.33 121.123C243.19 120.145 242.991 119.177 242.733 118.223C242.451 117.289 242.08 116.384 241.624 115.521C240.663 113.778 239.364 112.241 237.802 111.002C236.24 109.762 234.447 108.843 232.526 108.298Z" fill="#3F3F3F"/>
<path d="M180.283 140.733C183.603 139.045 183.817 136.056 185.427 136.201C186.913 136.333 188.9 139.062 189.09 141.128C189.12 141.466 189.151 142.28 189.683 142.607C190.144 142.888 190.555 142.547 191.168 142.705C191.982 142.915 192.599 143.864 192.752 144.677C193.003 146.028 191.874 146.366 191.467 148.618C191.216 149.989 191.531 150.442 191.07 150.884C190.249 151.671 188.883 150.617 187.903 151.377C187.306 151.843 187.242 152.728 187.109 154.531C186.964 156.557 187.292 156.807 187.011 157.392C186.034 159.418 180.412 159.894 178.798 157.685C177.675 156.152 179.188 154.278 177.906 152.958C176.889 151.911 175.512 152.644 173.552 151.678C173.036 151.425 170.978 150.384 170.581 148.622C170.022 146.119 173.047 143.151 175.827 141.919C177.916 140.99 178.371 141.709 180.283 140.733Z" fill="#F9B2C9"/>
<path d="M190.155 154.643C190.053 155.244 189.853 155.629 189.476 155.564C188.181 155.328 184.329 155.564 182.932 155.564C181.535 155.564 182.647 153.822 182.932 151.141C183.086 149.593 183.834 148.164 185.021 147.153L190.016 150.529C190.041 150.685 190.058 150.842 190.066 150.999C190.172 151.809 190.341 153.569 190.155 154.643Z" fill="#FF3E79"/>
<path d="M205.313 159.131C205.313 159.131 204.356 160.171 202.135 160.623C200.199 158.796 192.779 155.696 190.155 154.643C190.341 153.569 190.155 151.809 190.07 150.989L203.766 155.379L205.313 159.131Z" fill="#282828"/>
<path d="M197.476 178.713L179.842 179.159C179.696 179.162 179.551 179.126 179.424 179.053C179.296 178.981 179.191 178.875 179.12 178.747L174.057 169.589C173.991 169.469 173.957 169.334 173.958 169.197C173.959 169.061 173.995 168.926 174.063 168.807C174.131 168.689 174.229 168.589 174.346 168.518C174.464 168.448 174.598 168.408 174.735 168.404L191.711 168.093C191.847 168.092 191.98 168.126 192.099 168.191C192.217 168.256 192.317 168.35 192.389 168.464L198.124 177.491C198.199 177.61 198.241 177.746 198.247 177.886C198.252 178.026 198.221 178.165 198.155 178.289C198.089 178.413 197.992 178.517 197.873 178.592C197.753 178.667 197.617 178.708 197.476 178.713Z" fill="#282828"/>
<path d="M195.326 177.366L181.47 177.447L177.167 170.106H190.575L195.326 177.366Z" fill="#DBDBDB"/>
<path d="M206.289 178.284H182.586C182.271 178.284 182.016 178.538 182.016 178.852V180.527C182.016 180.84 182.271 181.094 182.586 181.094H206.289C206.604 181.094 206.859 180.84 206.859 180.527V178.852C206.859 178.538 206.604 178.284 206.289 178.284Z" fill="#282828"/>
</g>
<defs>
<clipPath id="clip0_1_39481">
<rect width="305" height="313" fill="white"/>
</clipPath>
</defs>
</svg>
