<svg width="48" height="101" viewBox="0 0 48 101" fill="none" xmlns="http://www.w3.org/2000/svg">
<path d="M21.7412 48.0818H17.8232V61.6772H21.7412V48.0818Z" fill="#999999"/>
<path d="M39.5705 47.2112V60.9116C39.5699 61.5773 39.4381 62.2363 39.1828 62.851C38.9274 63.4658 38.5535 64.0242 38.0823 64.4944C37.6112 64.9646 37.052 65.3375 36.4368 65.5916C35.8216 65.8457 35.1623 65.9762 34.4966 65.9755H5.08914C3.74566 65.9755 2.45712 65.4422 1.50667 64.4927C0.556213 63.5431 0.0215901 62.2551 0.0202638 60.9116V47.2112C0.0200813 46.746 0.201401 46.299 0.525663 45.9654C0.849925 45.6318 1.29154 45.4378 1.75659 45.4248H5.75965C5.99466 45.4242 6.22749 45.4699 6.4448 45.5593C6.66211 45.6488 6.85963 45.7803 7.02604 45.9463C7.19245 46.1122 7.32448 46.3093 7.41457 46.5264C7.50465 46.7435 7.55102 46.9762 7.55102 47.2112V57.2539C7.55102 58.1364 7.9016 58.9828 8.52564 59.6068C9.14967 60.2308 9.99605 60.5814 10.8786 60.5814H28.7122C29.149 60.5814 29.5814 60.4953 29.9848 60.328C30.3883 60.1607 30.7548 59.9155 31.0634 59.6065C31.372 59.2974 31.6166 58.9306 31.7833 58.5269C31.95 58.1232 32.0354 57.6906 32.0348 57.2539V47.2112C32.0348 46.9762 32.0811 46.7435 32.1712 46.5264C32.2613 46.3093 32.3933 46.1122 32.5597 45.9463C32.7261 45.7803 32.9237 45.6488 33.141 45.5593C33.3583 45.4699 33.5911 45.4242 33.8261 45.4248H37.7892C38.2617 45.4274 38.714 45.6167 39.0476 45.9512C39.3813 46.2858 39.5692 46.7387 39.5705 47.2112Z" fill="#666666"/>
<path d="M34.4966 65.0097H5.08914C3.7452 65.0083 2.45668 64.4739 1.50637 63.5236C0.556055 62.5733 0.0215884 61.2847 0.0202637 59.9408V60.9065C0.0202637 62.2509 0.554302 63.5402 1.5049 64.4908C2.4555 65.4414 3.74479 65.9754 5.08914 65.9754H34.5167C35.8579 65.9714 37.1429 65.4355 38.0894 64.4852C39.036 63.5349 39.5668 62.2478 39.5655 60.9065V59.9408C39.5655 61.2851 39.0315 62.5744 38.0809 63.525C37.1303 64.4756 35.841 65.0097 34.4966 65.0097Z" fill="#333333"/>
<path d="M7.54077 47.2111V47.5314C7.54077 47.2963 7.4944 47.0636 7.40431 46.8466C7.31423 46.6295 7.18219 46.4324 7.01578 46.2664C6.84937 46.1005 6.65186 45.969 6.43455 45.8795C6.21724 45.7901 5.98441 45.7443 5.7494 45.745H1.79137C1.55636 45.7443 1.32353 45.7901 1.10622 45.8795C0.88891 45.969 0.691393 46.1005 0.524984 46.2664C0.358574 46.4324 0.226543 46.6295 0.136457 46.8466C0.046371 47.0636 -7.84271e-07 47.2963 1.37709e-07 47.5314V47.2111C-0.000182413 46.7459 0.181137 46.2989 0.505399 45.9653C0.829661 45.6317 1.27128 45.4378 1.73633 45.4247H5.73939C5.97524 45.4228 6.20914 45.4675 6.42761 45.5564C6.64608 45.6453 6.84478 45.7766 7.01226 45.9426C7.17973 46.1087 7.31266 46.3063 7.40337 46.524C7.49408 46.7417 7.54078 46.9753 7.54077 47.2111Z" fill="#E6E6E6"/>
<path d="M7.54053 57.579C7.54053 58.0158 7.62663 58.4482 7.79392 58.8517C7.9612 59.2551 8.20639 59.6216 8.51544 59.9302C8.8245 60.2388 9.19137 60.4834 9.59505 60.6501C9.99874 60.8168 10.4313 60.9022 10.8681 60.9016H28.7017C29.5829 60.9016 30.428 60.5515 31.0511 59.9284C31.6742 59.3053 32.0243 58.4602 32.0243 57.579V57.2538C32.0249 57.6905 31.9395 58.1231 31.7728 58.5268C31.6061 58.9305 31.3615 59.2974 31.0529 59.6064C30.7443 59.9155 30.3778 60.1607 29.9744 60.3279C29.5709 60.4952 29.1385 60.5813 28.7017 60.5813H10.8681C9.98555 60.5813 9.13918 60.2308 8.51514 59.6067C7.89111 58.9827 7.54053 58.1363 7.54053 57.2538V57.579Z" fill="#E6E6E6"/>
<path d="M37.7791 45.4248H33.816C33.581 45.4242 33.3482 45.4699 33.1309 45.5593C32.9136 45.6488 32.7161 45.7803 32.5496 45.9463C32.3832 46.1122 32.2512 46.3093 32.1611 46.5264C32.071 46.7435 32.0247 46.9762 32.0247 47.2112V47.5364C32.0247 47.0613 32.2134 46.6057 32.5493 46.2697C32.8853 45.9338 33.3409 45.745 33.816 45.745H37.7791C38.0141 45.745 38.2468 45.7914 38.4638 45.8815C38.6809 45.9716 38.878 46.1036 39.044 46.27C39.2099 46.4364 39.3414 46.634 39.4309 46.8513C39.5204 47.0686 39.5661 47.3014 39.5654 47.5364V47.2112C39.5654 46.7374 39.3772 46.283 39.0422 45.948C38.7072 45.613 38.2528 45.4248 37.7791 45.4248Z" fill="#E6E6E6"/>
<path d="M29.8627 29.5826H9.70728C9.51373 29.5823 9.32215 29.6216 9.14431 29.6979C8.96646 29.7743 8.80608 29.8862 8.67302 30.0268C8.53996 30.1673 8.43701 30.3336 8.37049 30.5153C8.30398 30.6971 8.27529 30.8905 8.28619 31.0838L9.24193 45.0945C9.32948 46.3897 9.90585 47.6032 10.8544 48.4895C11.8029 49.3758 13.0527 49.8686 14.3508 49.8682H25.2141C26.5123 49.8686 27.7621 49.3758 28.7106 48.4895C29.6591 47.6032 30.2355 46.3897 30.323 45.0945L31.2838 31.0838C31.294 30.8907 31.2648 30.6976 31.198 30.5161C31.1312 30.3347 31.0282 30.1687 30.8953 30.0283C30.7624 29.8879 30.6023 29.776 30.4248 29.6994C30.2473 29.6228 30.056 29.5831 29.8627 29.5826Z" fill="#666666"/>
<path d="M30.3229 42.5576C30.239 43.8555 29.6643 45.0727 28.7154 45.9622C27.7665 46.8516 26.5146 47.3464 25.214 47.3463H14.3507C13.0526 47.3467 11.8028 46.8539 10.8543 45.9676C9.90575 45.0814 9.32938 43.8678 9.24183 42.5726L8.41619 30.4333C8.31713 30.6477 8.27244 30.8831 8.28609 31.1189L9.24183 45.1296C9.32938 46.4248 9.90575 47.6383 10.8543 48.5246C11.8028 49.4109 13.0526 49.9036 14.3507 49.9032H25.214C26.5122 49.9036 27.762 49.4109 28.7105 48.5246C29.659 47.6383 30.2354 46.4248 30.3229 45.1296L31.2837 31.1189C31.2973 30.8831 31.2526 30.6477 31.1536 30.4333L30.3229 42.5576Z" fill="#333333"/>
<path d="M22.4171 65.9755H17.1431V90.4942H22.4171V65.9755Z" fill="#999999"/>
<path d="M19.3697 65.9755H18.7493V90.4942H19.3697V65.9755Z" fill="#CCCCCC"/>
<path d="M22.0519 65.9755H20.4307V90.4942H22.0519V65.9755Z" fill="#666666"/>
<g style="mix-blend-mode:multiply">
<path d="M22.4171 65.9755H17.1431V69.4631H22.4171V65.9755Z" fill="#CCCCCC"/>
</g>
<path d="M37.8638 90.4943H1.70117V92.1205H37.8638V90.4943Z" fill="#999999"/>
<path d="M11.3937 90.4943H4.42334V92.1205H11.3937V90.4943Z" fill="#B8B8B8"/>
<path d="M8.94679 90.4943H6.68506V92.1205H8.94679V90.4943Z" fill="#D1D1D1"/>
<path d="M14.8313 90.4943H13.7004V92.1205H14.8313V90.4943Z" fill="#666666"/>
<path d="M36.1826 90.4943H26.9656V92.1205H36.1826V90.4943Z" fill="#666666"/>
<g style="mix-blend-mode:multiply">
<path d="M39.5703 47.2112V60.9116C39.5697 61.5773 39.4379 62.2363 39.1826 62.851C38.9272 63.4658 38.5533 64.0242 38.0821 64.4944C37.611 64.9646 37.0518 65.3375 36.4366 65.5916C35.8214 65.8457 35.1621 65.9762 34.4964 65.9755H19.9553V60.5814H28.702C29.1388 60.5814 29.5712 60.4953 29.9747 60.328C30.3781 60.1607 30.7446 59.9155 31.0532 59.6065C31.3618 59.2974 31.6064 58.9306 31.7731 58.5269C31.9398 58.1232 32.0252 57.6906 32.0246 57.2539V47.2112C32.0246 46.9762 32.0709 46.7435 32.161 46.5264C32.2511 46.3093 32.3831 46.1122 32.5495 45.9463C32.7159 45.7803 32.9135 45.6488 33.1308 45.5593C33.3481 45.4699 33.5809 45.4242 33.8159 45.4248H37.779C38.2532 45.4248 38.7081 45.6129 39.0439 45.9477C39.3797 46.2826 39.569 46.7369 39.5703 47.2112Z" fill="#CCCCCC"/>
</g>
<g style="mix-blend-mode:multiply">
<path d="M7.54052 47.2111V56.8235L1.79113 45.745L1.73608 45.4247H5.73915C5.975 45.4228 6.2089 45.4675 6.42737 45.5564C6.64583 45.6453 6.84454 45.7766 7.01201 45.9426C7.17949 46.1087 7.31241 46.3063 7.40312 46.524C7.49383 46.7417 7.54053 46.9753 7.54052 47.2111Z" fill="#E6E6E6"/>
</g>
<path d="M11.644 32.9353L10.7132 35.7624C10.3797 36.7365 10.0577 37.7123 9.74751 38.6897L9.31718 40.0007L8.72673 41.792L8.25637 41.4118L8.0412 41.2366L4.53853 38.3844L4.30835 38.1943C5.39918 34.9118 6.30988 30.9788 7.13051 27.7213C8.06622 24.0935 8.9469 21.2964 9.97768 21.1362L10.9434 27.8964L11.644 32.9353Z" fill="#F0C5A3"/>
<path d="M8.72683 41.7919C8.72683 42.1872 7.13061 43.3231 5.64447 43.8535C4.93549 44.1296 4.19378 44.313 3.43778 44.3989C2.65719 44.3989 2.24187 44.1987 2.08175 43.9385C2.04494 43.8813 2.02019 43.8172 2.00901 43.7501C1.99782 43.683 2.00044 43.6143 2.0167 43.5483C2.55867 41.6789 3.32305 39.8813 4.29344 38.1941C4.68874 37.4986 5.66449 37.7238 6.5952 38.3993C7.34376 38.9359 7.95427 39.6424 8.37656 40.4609C8.59363 40.8719 8.71346 41.3273 8.72683 41.7919Z" fill="#F0C5A3"/>
<g style="mix-blend-mode:multiply">
<path d="M11.6288 32.9352L10.6981 35.7624C10.3645 36.7365 10.0426 37.7122 9.73235 38.6896C9.56198 39.1173 9.41826 39.5552 9.30202 40.0006L8.71157 41.792C8.58648 42.2924 7.11535 43.3232 5.62922 43.8536C5.53403 43.7832 5.44529 43.7045 5.36401 43.6184C6.08456 43.078 7.45061 42.2674 7.64576 42.0522C7.84091 41.837 9.24198 40.8563 6.64499 38.3243C6.92464 38.3273 7.20142 38.2678 7.45508 38.15C7.70875 38.0323 7.93289 37.8593 8.11111 37.6438C8.46915 37.2179 8.75177 36.7339 8.94675 36.2127C9.72974 34.2374 10.3718 32.2091 10.8682 30.1431C11.0042 29.4017 11.0228 28.6435 10.9233 27.8964L11.6288 32.9352Z" fill="#E6DCD4"/>
</g>
<path d="M6.62522 38.6795C6.61635 39.148 6.49629 39.6076 6.27496 40.0205C5.48936 41.5967 3.98821 42.6676 2.5421 43.6784C2.40213 43.787 2.24704 43.8747 2.08175 43.9385C2.04494 43.8813 2.02019 43.8172 2.00901 43.7501C1.99782 43.683 2.00044 43.6143 2.0167 43.5483C2.55866 41.6789 3.32305 39.8813 4.29344 38.1941C4.68874 37.4986 5.66449 37.7238 6.5952 38.3993C6.61532 38.4914 6.62539 38.5853 6.62522 38.6795Z" fill="#F2D0B6"/>
<path d="M9.59224 24.1936C9.68435 24.8752 9.63495 25.5685 9.44713 26.2301C9.1503 27.4317 8.7929 28.6174 8.37631 29.7829C7.64074 31.9545 6.90518 34.1262 6.06954 36.2578C6.00449 36.4229 5.8844 36.6181 5.70927 36.5881C5.53413 36.558 5.4941 36.2528 5.54414 36.0477C6.52156 32.088 7.49897 28.1299 8.47638 24.1736C8.54143 23.8934 8.66653 23.5581 8.97676 23.5081C9.06353 23.4988 9.1512 23.5125 9.23107 23.5476C9.31095 23.5827 9.38025 23.6381 9.43212 23.7082C9.52266 23.8553 9.5775 24.0215 9.59224 24.1936Z" fill="#F2D0B6"/>
<path d="M29.7725 32.9353L30.7032 35.7624C31.0368 36.7365 31.3587 37.7123 31.6689 38.6897L32.0992 40.0007L32.6897 41.792L33.1601 41.4118L33.3752 41.2366L36.8779 38.3844L37.1081 38.1943C36.0172 34.9118 35.1065 30.9788 34.2909 27.7213C33.3502 24.0935 32.4745 21.2964 31.4387 21.1362L30.478 27.8964L29.7725 32.9353Z" fill="#F0C5A3"/>
<path d="M32.6897 41.7919C32.6897 42.1872 34.2859 43.3231 35.7721 43.8535C36.4825 44.1303 37.226 44.3137 37.9837 44.3989C38.7643 44.3989 39.1797 44.1987 39.3348 43.9385C39.3724 43.8817 39.3981 43.8177 39.4101 43.7506C39.4222 43.6835 39.4204 43.6146 39.4048 43.5483C38.8579 41.6799 38.092 39.8827 37.1231 38.1941C36.7278 37.4986 35.757 37.7238 34.8213 38.3993C34.0756 38.9376 33.4671 39.6438 33.045 40.4609C32.8265 40.8716 32.705 41.3269 32.6897 41.7919Z" fill="#F0C5A3"/>
<g style="mix-blend-mode:multiply">
<path d="M29.7878 32.9352L30.7186 35.7624C31.0521 36.7365 31.3741 37.7122 31.6843 38.6896C31.8569 39.1165 32.0007 39.5545 32.1146 40.0006L32.7051 41.792C32.8302 42.2924 34.3013 43.3232 35.7874 43.8536C35.8833 43.782 35.9736 43.7034 36.0576 43.6184C35.3321 43.078 33.966 42.2674 33.7709 42.0522C33.5757 41.837 32.1747 40.8563 34.7717 38.3243C34.4921 38.3266 34.2156 38.2668 33.962 38.1491C33.7085 38.0314 33.4842 37.8588 33.3055 37.6438C32.9494 37.2165 32.667 36.7329 32.4699 36.2127C31.6885 34.2373 31.0481 32.209 30.5534 30.1431C30.4158 29.4019 30.3955 28.6438 30.4934 27.8964L29.7878 32.9352Z" fill="#E6DCD4"/>
</g>
<path d="M34.7917 38.6795C34.8024 39.1483 34.9241 39.608 35.147 40.0205C35.9326 41.5967 37.4288 42.6676 38.8749 43.6784C39.0161 43.7851 39.1709 43.8726 39.3352 43.9385C39.3729 43.8817 39.3985 43.8177 39.4106 43.7506C39.4226 43.6835 39.4208 43.6146 39.4053 43.5483C38.8583 41.6799 38.0924 39.8827 37.1235 38.1941C36.7282 37.4986 35.7575 37.7238 34.8218 38.3993C34.8041 38.4917 34.7941 38.5855 34.7917 38.6795Z" fill="#F2D0B6"/>
<path d="M31.8241 24.1936C31.732 24.8752 31.7814 25.5685 31.9692 26.2301C32.2495 27.4361 32.6448 28.612 33.0401 29.7829C33.7756 31.9545 34.5112 34.1262 35.3518 36.2578C35.4169 36.4229 35.537 36.6181 35.7121 36.5881C35.8872 36.558 35.9223 36.2528 35.8722 36.0477L32.945 24.1736C32.8749 23.8934 32.7498 23.5581 32.4696 23.5081C32.3829 23.4988 32.2952 23.5125 32.2153 23.5476C32.1354 23.5827 32.0661 23.6381 32.0143 23.7082C31.9113 23.8516 31.8459 24.0185 31.8241 24.1936Z" fill="#F2D0B6"/>
<g style="mix-blend-mode:multiply">
<path d="M18.2136 28.9622C18.9592 29.4225 20.7155 31.0938 20.7155 31.8193C20.7155 30.9737 22.7171 29.5676 23.2175 28.9622C21.0658 30.043 20.3803 30.048 18.2136 28.9622Z" fill="#E6DCD4"/>
</g>
<g style="mix-blend-mode:multiply">
<path d="M25.6594 35.8874C23.6579 35.6973 22.9273 34.5114 20.9458 34.3863H20.4754C18.4739 34.5164 17.7383 35.7023 15.7568 35.8874C14.7469 35.9725 13.732 35.7984 12.8082 35.3816C11.8844 34.9648 11.0823 34.3191 10.4778 33.5056C10.5177 33.7185 10.5695 33.929 10.6329 34.1361C10.8515 34.9084 11.265 35.6114 11.8338 36.1777C12.6545 36.9533 13.0498 38.5295 13.1999 40.1007C13.7072 40.0051 14.2084 39.8798 14.701 39.7254C18.6264 38.6104 22.7848 38.6104 26.7102 39.7254C27.2106 39.8555 27.711 40.0156 28.2114 40.1007C28.3615 38.5295 28.7568 36.9533 29.5724 36.1777C30.1447 35.6141 30.5588 34.9101 30.7733 34.1361C30.8334 33.9359 30.8884 33.7258 30.9334 33.5056C30.3287 34.3176 29.5273 34.9623 28.6046 35.379C27.6819 35.7957 26.6684 35.9707 25.6594 35.8874Z" fill="#E6E6E6"/>
</g>
<g style="mix-blend-mode:multiply">
<path d="M31.9143 50.3485L24.3735 53.1156L11.6438 49.2076C13.235 46.2453 17.148 44.7042 17.9736 44.4289C18.7993 44.1537 26.9055 42.7276 28.1764 42.7927C28.1764 42.8527 28.1764 42.9128 28.1764 42.9728C28.1764 43.1179 28.1765 43.253 28.2115 43.3831C28.2465 43.5132 28.2115 43.5082 28.2115 43.5683C28.4266 44.8793 31.9143 46.6757 31.9143 50.3485Z" fill="#E6E6E6"/>
</g>
<path d="M30.9183 46.1253L26.7351 54.3516C26.7351 54.3516 26.3749 54.6919 25.7644 55.2273C24.2997 56.5168 22.7427 57.6975 21.1058 58.76C19.1043 60.051 16.8676 61.1118 15.0212 61.1118C9.83721 61.1118 7.5955 57.1087 7.84569 54.3116C7.97503 52.9603 8.51059 51.6798 9.38186 50.6388C11.3834 48.1719 15.6066 46.1854 23.2875 46.2855C25.5542 46.3455 27.3056 46.1203 30.9183 46.1253Z" fill="#F0C5A3"/>
<path d="M21.4211 59.9359C19.4195 61.2218 16.8676 61.1168 15.0212 61.1168C9.83721 61.1168 7.5955 57.1137 7.84569 54.3166C8.18595 50.5437 11.9488 45.81 23.2875 45.9552C21.6462 49.1726 20.7506 58.1245 21.4211 59.9359Z" fill="#60A7CC"/>
<g style="mix-blend-mode:multiply">
<path d="M27.5564 48.9474L26.9559 52.1448L26.7007 55.2672C25.7 56.1579 23.4532 58.6698 21.5418 59.8908C19.5402 61.1767 16.8682 61.1167 15.0368 61.1167C9.85283 61.1167 7.61112 57.1136 7.86131 54.3165C7.86131 54.1997 7.87632 54.0796 7.90635 53.9562C7.93303 53.7561 7.96806 53.5459 8.01142 53.3257C8.01426 53.3109 8.01426 53.2956 8.01142 53.2807C8.13408 52.6975 8.28775 52.1212 8.47178 51.5544C8.6624 51.0091 8.88633 50.476 9.14229 49.9582C9.14229 50.2384 9.17732 50.5136 9.21234 50.7888C9.34244 51.7395 9.48756 52.7653 10.098 53.5109C14.1561 58.5147 21.0314 55.5124 22.0171 54.7818C23.2881 53.8211 25.6049 52.8504 27.5564 48.9474Z" fill="#E6DCD4"/>
</g>
<path d="M29.3874 57.7342C29.3498 59.5885 29.1691 61.437 28.847 63.2634L28.7269 63.939L28.6668 64.3042C28.4416 65.5452 28.1664 66.8462 27.8762 68.1822C27.8762 68.1822 27.8762 68.1822 27.8762 68.2072L27.7561 68.7076C27.4109 70.2088 27.0256 71.7399 26.6152 73.2711C25.2842 78.2449 23.703 83.1386 22.417 86.5312C22.2215 87.0555 22.1003 87.6046 22.0568 88.1625C22.0155 88.6952 22.0022 89.2296 22.0167 89.7637C22.0513 90.9445 21.8025 92.1164 21.2912 93.1813C20.9709 93.9219 20.5756 94.7225 20.1603 95.8233C19.8351 96.684 19.3797 99.6213 17.8986 100.432C17.0379 100.902 15.2666 100.582 15.4717 99.6213C15.7069 98.5604 15.867 97.4346 16.0071 96.2837C16.2423 94.4673 16.4375 92.5959 16.8478 90.8345C17.2581 89.0732 18.3189 87.3319 18.6041 85.9258C19.9551 79.1906 17.6634 59.7457 23.3528 55.4324C24.0568 54.8661 24.9002 54.4997 25.7946 54.3716C27.7962 54.1315 29.2973 55.4975 29.3724 56.8736V57.2839C29.3824 57.459 29.3874 57.5941 29.3874 57.7342Z" fill="#F0C5A3"/>
<g style="mix-blend-mode:multiply">
<path d="M29.3873 57.7342C29.3673 59.5894 29.1865 61.4394 28.8469 63.2634L28.7268 63.939L28.6667 64.3042C28.4818 65.6117 28.2178 66.9067 27.8761 68.1822C27.8761 68.1822 27.8761 68.1822 27.8761 68.2072C27.8239 68.3708 27.7837 68.5381 27.756 68.7076C27.4108 70.2088 27.0255 71.7399 26.6152 73.2711C25.2841 78.2449 23.7029 83.1386 22.417 86.5312C22.0736 87.5722 21.9375 88.6704 22.0166 89.7637C22.0512 90.9445 21.8024 92.1164 21.2911 93.1813C21.0588 91.257 21.1331 89.308 21.5113 87.4069C22.1267 84.3045 23.5128 81.4023 24.4735 78.4C25.0118 76.6813 25.4051 74.9204 25.6494 73.136C25.7295 72.5405 25.7945 71.9451 25.8396 71.3496C26.1048 68.0821 25.6544 64.8446 25.5794 61.6022C25.5243 59.2704 25.2942 56.6684 25.7945 54.3666C27.7961 54.1264 29.2972 55.4925 29.3723 56.8685V57.2789C29.3823 57.459 29.3873 57.5941 29.3873 57.7342Z" fill="#E6DCD4"/>
</g>
<path d="M47.221 90.0339C46.8607 91.0347 43.7183 91.1698 42.2522 90.1991C41.1564 89.4685 39.2199 87.0616 38.119 86.3461C37.3785 85.8457 34.5113 86.3461 34.4562 84.6798C34.4735 83.8762 34.6433 83.0832 34.9566 82.343C34.9867 82.263 35.0167 82.1729 35.0417 82.0878C35.0667 82.0028 35.1117 81.8677 35.1418 81.7526C35.2847 81.2659 35.3306 80.7558 35.2769 80.2514C34.9266 76.8238 32.1695 71.5097 29.7727 66.5459C28.1514 63.1584 26.7053 59.9309 26.315 57.5741C26.0936 55.7994 26.1936 53.9993 26.6102 52.26C26.8706 50.9993 27.2303 49.7612 27.6861 48.5572C27.7318 48.4073 27.7904 48.2617 27.8612 48.1219C28.1611 47.4962 28.64 46.9738 29.2372 46.6207C29.5469 46.4316 29.8847 46.2931 30.238 46.2104C30.4515 46.1601 30.6693 46.1299 30.8885 46.1203H30.9436C31.2545 46.1074 31.5658 46.136 31.8693 46.2054C31.9493 46.2054 32.0244 46.2454 32.0994 46.2654C32.2899 46.3201 32.4743 46.3938 32.6499 46.4856C32.9752 46.6457 33.274 46.855 33.5355 47.1061C33.7667 47.3322 33.9669 47.588 34.131 47.8667C34.3451 48.2349 34.4925 48.6381 34.5663 49.0576C34.5663 49.0576 37.9789 71.6599 39.8654 78.2099C40.0605 78.8904 40.9712 80.1614 41.3665 80.7418C42.3673 82.2029 43.9385 86.4462 44.9943 87.7972C45.0833 87.928 45.1952 88.0415 45.3246 88.1325C46.7607 89.0982 47.3561 89.6536 47.221 90.0339Z" fill="#F0C5A3"/>
<path d="M20.8155 46.6157V49.2327C20.0199 48.1469 15.5765 47.1311 11.4884 46.4756L11.3182 46.4456C10.6778 46.3455 10.0473 46.2504 9.44181 46.1704L8.22588 46.0102H8.19586L7.9957 45.9802C7.4653 45.9202 6.99494 45.8651 6.53459 45.8251L6.0342 45.7801L5.71396 45.755H5.46877H5.21358H4.84829H4.5881H4.40796V41.2916C4.60204 41.4645 4.80952 41.6218 5.02843 41.762C5.60852 42.1291 6.22997 42.4264 6.87985 42.6477C7.12504 42.7327 7.38023 42.8128 7.63543 42.8878C9.42003 43.3612 11.236 43.7073 13.0696 43.9236C17.0977 44.4591 20.8155 44.8444 20.8155 46.6157Z" fill="#ED8B3D"/>
<path d="M4.9085 47.1161L3.2122 46.6707L2.60674 46.5156C2.52431 46.4932 2.4481 46.4522 2.38392 46.3959C2.31975 46.3395 2.26931 46.2692 2.23646 46.1904C1.92622 45.4048 1.1206 43.0429 1.31575 42.1022C1.42083 41.5718 2.48665 40.9163 3.2022 40.8012C3.44421 40.7519 3.69587 40.7903 3.91221 40.9094C4.12854 41.0286 4.29545 41.2208 4.38309 41.4517V42.7227L4.75338 43.9536L4.9085 47.1161Z" fill="#F0C5A3"/>
<path d="M9.59227 46.6557C9.5927 46.7171 9.57998 46.7779 9.55495 46.834C9.52992 46.8901 9.49316 46.9402 9.44716 46.9809C9.36441 47.0545 9.25768 47.0955 9.14693 47.096H4.90869V45.765H8.7166C8.86036 45.7651 9.00186 45.8008 9.12847 45.8689C9.25507 45.937 9.36284 46.0354 9.44216 46.1553C9.54314 46.3024 9.59562 46.4773 9.59227 46.6557Z" fill="#F0C5A3"/>
<path d="M4.90907 47.111L3.21277 46.6707L2.63232 45.6799L3.40291 45.6099L4.90907 47.111Z" fill="#E0B089"/>
<path d="M3.33668 44.5648L2.62573 45.6959L4.90499 47.1285L5.61594 45.9973L3.33668 44.5648Z" fill="#F0C5A3"/>
<path d="M7.59067 45.0545L5.21886 44.4991L4.08799 43.6534L3.40747 44.5792L4.67844 45.8201L7.7558 46.2805C7.8084 46.2954 7.8635 46.2994 7.9177 46.2921C7.9719 46.2849 8.02405 46.2667 8.07093 46.2386C8.11782 46.2104 8.15844 46.173 8.1903 46.1286C8.22216 46.0842 8.24459 46.0337 8.25618 45.9802V45.9302C8.27798 45.8281 8.27747 45.7224 8.25471 45.6205C8.23194 45.5186 8.18745 45.4228 8.12427 45.3397C8.06109 45.2566 7.98071 45.1881 7.88862 45.1388C7.79653 45.0896 7.6949 45.0609 7.59067 45.0545Z" fill="#E0B089"/>
<path d="M7.74081 46.2304L4.67847 45.5149L4.97369 44.2489L7.59069 44.8444C7.80575 44.8956 7.99217 45.0291 8.11001 45.2162C8.22786 45.4032 8.26776 45.629 8.22118 45.8451V45.8952C8.21279 45.9493 8.19353 46.0011 8.16456 46.0475C8.13559 46.094 8.09751 46.1341 8.05262 46.1654C8.00773 46.1968 7.95696 46.2187 7.90336 46.2298C7.84977 46.241 7.79448 46.2412 7.74081 46.2304Z" fill="#F0C5A3"/>
<path d="M4.08078 43.4777L3.31299 44.5217L4.6715 45.5208L5.43929 44.4767L4.08078 43.4777Z" fill="#F0C5A3"/>
<path d="M7.93097 46.2653L6.50488 45.9451L6.5349 45.81C6.56695 45.6856 6.64561 45.5783 6.75459 45.5103C6.86358 45.4423 6.99453 45.4188 7.12035 45.4447L7.95599 45.6299C7.98621 45.637 8.01247 45.6556 8.02926 45.6818C8.04606 45.7079 8.05208 45.7395 8.04606 45.77L7.93097 46.2653Z" fill="#F7CEAD"/>
<path d="M4.75323 43.9536L4.50303 43.7685C4.39589 43.6923 4.30481 43.5957 4.235 43.4843C4.16519 43.3729 4.11802 43.2488 4.09618 43.1192C4.07434 42.9895 4.07826 42.8568 4.10772 42.7287C4.13717 42.6006 4.19159 42.4795 4.26785 42.3724L4.38294 42.2073V42.7077L4.75323 43.9536Z" fill="#E0B089"/>
<path d="M9.44696 46.6057V47.1061H7.98584V46.971C7.98584 46.8383 8.03856 46.711 8.1324 46.6171C8.22624 46.5233 8.35351 46.4706 8.48622 46.4706H9.34688C9.36285 46.4716 9.37841 46.4761 9.39246 46.4838C9.40652 46.4914 9.41874 46.502 9.42827 46.5149C9.43779 46.5278 9.4444 46.5426 9.44763 46.5582C9.45086 46.5739 9.45063 46.5901 9.44696 46.6057Z" fill="#F7CEAD"/>
<path d="M37.2537 41.2566C33.3708 44.7593 20.8162 43.3732 20.8162 46.6157V49.2327C22.2623 47.2712 35.6075 45.5449 37.2537 45.73V41.2566Z" fill="#ED8B3D"/>
<path d="M20.8161 46.6157C20.8161 43.3732 8.26652 44.7593 4.38354 41.2566V41.5819C8.26652 45.0845 20.8161 43.6935 20.8161 46.9409C20.8161 43.6935 33.3707 45.0795 37.2537 41.5819V41.2566C33.3707 44.7593 20.8161 43.3732 20.8161 46.6157Z" fill="#FFE8C2"/>
<path d="M39.3953 46.1903C39.365 46.2698 39.316 46.3409 39.2524 46.3975C39.1888 46.4541 39.1126 46.4946 39.03 46.5155L38.4246 46.6756L36.7933 47.096H36.7283L36.7883 45.83V45.6949V45.5348V45.4747V45.3046V44.9643L36.8233 44.1787V44.1387V43.9485L37.0885 43.0829L37.1986 42.7226V41.4516C37.2858 41.2234 37.4501 41.0329 37.6631 40.9131C37.8761 40.7934 38.1242 40.752 38.3645 40.7961C39.0801 40.9162 40.1459 41.5717 40.251 42.1021C40.5162 43.0428 39.7106 45.4047 39.3953 46.1903Z" fill="#F0C5A3"/>
<path d="M36.728 45.78V47.111H32.4848C32.374 47.1105 32.2673 47.0696 32.1845 46.996C32.1402 46.9542 32.1049 46.9038 32.0808 46.8479C32.0567 46.7919 32.0443 46.7316 32.0444 46.6707C32.0446 46.5376 32.0736 46.4062 32.1295 46.2854L32.1895 46.1853C32.27 46.0654 32.3787 45.967 32.5061 45.8989C32.6335 45.8309 32.7757 45.7952 32.9201 45.795L36.728 45.78Z" fill="#F0C5A3"/>
<path d="M39 45.6799L38.4246 46.6707L36.7883 47.096L36.7283 47.111L36.7933 47.041L38.2294 45.6099L39 45.6799Z" fill="#E0B089"/>
<path d="M38.2963 44.536L36.0171 45.9685L36.728 47.0997L39.0073 45.6671L38.2963 44.536Z" fill="#F0C5A3"/>
<path d="M34.026 45.0545L36.4029 44.4991L37.5487 43.6534L38.2292 44.5792L36.9583 45.8451L33.8809 46.3055C33.8283 46.3189 33.7736 46.3218 33.7199 46.314C33.6662 46.3062 33.6146 46.2877 33.5681 46.2598C33.5215 46.2319 33.481 46.195 33.4488 46.1513C33.4166 46.1076 33.3934 46.058 33.3805 46.0052V45.9552C33.3538 45.8529 33.35 45.7459 33.3692 45.6419C33.3885 45.5379 33.4304 45.4394 33.492 45.3535C33.5537 45.2675 33.6334 45.1962 33.7257 45.1445C33.818 45.0928 33.9205 45.0621 34.026 45.0545Z" fill="#E0B089"/>
<path d="M33.8907 46.2304L36.958 45.5149L36.6628 44.2489L34.0258 44.8444C33.8114 44.8968 33.6258 45.0305 33.5081 45.2172C33.3905 45.404 33.35 45.6291 33.3953 45.8451V45.8952C33.4027 45.9512 33.4219 46.005 33.4517 46.053C33.4814 46.1011 33.5209 46.1423 33.5677 46.174C33.6145 46.2056 33.6675 46.227 33.7232 46.2368C33.7788 46.2465 33.8359 46.2443 33.8907 46.2304Z" fill="#F0C5A3"/>
<path d="M37.5499 43.457L36.1914 44.4561L36.9592 45.5001L38.3177 44.5011L37.5499 43.457Z" fill="#F0C5A3"/>
<path d="M33.706 46.2654L35.1271 45.9451L35.097 45.81C35.065 45.6867 34.9871 45.5802 34.8792 45.5123C34.7714 45.4444 34.6417 45.4203 34.5166 45.4447L33.681 45.6299C33.6507 45.6371 33.6245 45.6557 33.6077 45.6818C33.5909 45.7079 33.5849 45.7395 33.5909 45.77L33.706 46.2654Z" fill="#F7CEAD"/>
<path d="M36.8782 43.9536L37.1334 43.7685C37.2405 43.6923 37.3316 43.5957 37.4014 43.4843C37.4712 43.3729 37.5184 43.2488 37.5402 43.1192C37.5621 42.9895 37.5581 42.8568 37.5287 42.7287C37.4992 42.6006 37.4448 42.4795 37.3685 42.3724L37.2535 42.2073V42.7077L36.8782 43.9536Z" fill="#E0B089"/>
<path d="M33.6457 46.9759V47.111H32.1846V46.6106C32.1846 46.5801 32.1967 46.5508 32.2183 46.5292C32.2399 46.5076 32.2691 46.4955 32.2997 46.4955H33.1603C33.287 46.4992 33.4076 46.5508 33.4977 46.64C33.5878 46.7292 33.6407 46.8492 33.6457 46.9759Z" fill="#F7CEAD"/>
<g style="mix-blend-mode:multiply">
<path d="M37.2534 41.842L37.2033 42.4325L37.1433 43.073L37.0832 43.7885V43.9837V44.2139L36.9781 45.3747V45.4948V45.68V45.8001L36.8681 47.016V47.066H36.803H33.6406C33.8717 47.2922 34.072 47.5479 34.2361 47.8266C33.4154 47.8266 32.4597 47.8516 31.4489 47.8867C30.3231 47.9267 29.1221 47.9918 27.9462 48.0868C24.6487 48.357 21.5564 48.8674 20.8908 49.7781C19.9902 48.5472 14.9763 47.7265 10.9632 47.3312H10.7631C10.9783 47.016 11.1884 46.7108 11.3986 46.4205C10.7581 46.3205 10.1276 46.2254 9.52214 46.1453C9.62312 46.2924 9.67561 46.4674 9.67226 46.6457C9.67269 46.7071 9.65996 46.768 9.63493 46.8241C9.6099 46.8802 9.57315 46.9302 9.52715 46.971V47.0861H7.39051C6.90049 47.0597 6.40941 47.0597 5.91939 47.0861L5.63417 46.0853L5.59414 45.9452V45.9102L5.55911 45.7801V45.735V45.695L5.31392 44.8043L5.19383 44.389L5.16381 44.2689L5.12878 44.1538V44.0637L4.6284 42.2123L4.52832 41.847L4.79353 42.0672C5.29728 42.443 5.84932 42.7493 6.43478 42.9779C6.65495 43.073 6.88512 43.1631 7.1203 43.2381C9.00403 43.8076 10.9348 44.2078 12.8897 44.434H12.9448C17.0679 45.0095 20.9509 45.3797 20.9509 47.1861C20.9509 45.3948 24.7888 45.0145 28.8719 44.444C30.8303 44.2213 32.7656 43.8295 34.6564 43.2731C34.8966 43.1981 35.1267 43.113 35.3469 43.0229C35.9324 42.8026 36.4873 42.5083 36.9982 42.1473C37.0875 42.0491 37.1726 41.9473 37.2534 41.842Z" fill="#E6DCD4"/>
</g>
<path d="M32.6698 48.7673C32.1394 48.9074 31.9542 49.5629 31.8942 50.1084C31.4739 53.9863 32.7048 57.8293 33.8957 61.5321C35.3301 65.9355 36.7696 70.3372 38.214 74.7372C38.067 72.6205 37.7795 70.5159 37.3534 68.4374L34.0708 50.3485C34.0245 49.9499 33.8967 49.565 33.6956 49.2177C33.589 49.0489 33.4344 48.9158 33.2516 48.8355C33.0688 48.7553 32.8662 48.7315 32.6698 48.7673Z" fill="#F2D0B6"/>
<g style="mix-blend-mode:multiply">
<path d="M36.533 80.5116C36.4726 80.9378 36.2903 81.3375 36.008 81.6624C35.7257 81.9873 35.3554 82.2237 34.9418 82.343C35.0118 82.1528 35.0719 81.9527 35.1269 81.7525C35.2698 81.2658 35.3157 80.7558 35.262 80.2514C34.9118 76.8238 32.1546 71.5097 29.7578 66.5459C32.2597 70.0936 34.7616 73.7214 36.1377 77.8195C36.4971 78.6684 36.6332 79.5952 36.533 80.5116Z" fill="#E6DCD4"/>
</g>
<path d="M22.0116 90.1189C22.0456 91.2997 21.7968 92.4714 21.286 93.5365C20.9658 94.2721 20.5705 95.0727 20.1552 96.1786C19.8299 97.0392 19.3746 99.9715 17.8935 100.787C17.0328 101.257 15.2614 100.932 15.4666 99.9715C15.7018 98.9157 15.8619 97.7848 16.002 96.6389C16.0897 96.7906 16.2157 96.9165 16.3673 97.0042C17.0923 97.2493 17.8537 97.3695 18.619 97.3595C20.2703 97.0242 20.1602 95.1177 20.6456 93.5015C21.1309 91.8853 21.246 90.154 21.9866 88.6378C22.0043 88.5941 22.026 88.5522 22.0516 88.5127C22.0103 89.047 21.997 89.5832 22.0116 90.1189Z" fill="#4D4D4D"/>
<path d="M22.0116 89.7936C22.0462 90.9744 21.7974 92.1463 21.286 93.2112C20.9658 93.9518 20.5705 94.7524 20.1552 95.8532C19.8299 96.7139 19.3746 99.6511 17.8935 100.462C17.0328 100.932 15.2614 100.612 15.4666 99.6511C15.7018 98.5903 15.8619 97.4645 16.002 96.3136C16.0862 96.4679 16.213 96.5947 16.3673 96.6789C17.0914 96.928 17.8533 97.0499 18.619 97.0391C20.2703 96.7039 20.1602 94.7974 20.6456 93.1812C21.1309 91.565 21.246 89.8286 21.9866 88.3125C22.0043 88.2704 22.0261 88.2302 22.0516 88.1924C22.0104 88.7251 21.9971 89.2595 22.0116 89.7936Z" fill="#FFB156"/>
<path d="M47.2762 90.2339C47.1511 91.3048 43.7035 91.4899 42.2724 90.5192C41.1766 89.7886 39.2701 87.6019 38.1493 86.8864C37.4137 86.386 34.1462 86.9514 34.4364 85.3102C34.5517 84.4205 34.7188 83.5383 34.9368 82.6682C34.9668 82.5831 34.9968 82.498 35.0219 82.408C37.2336 83.0484 38.2643 85.075 39.3101 87.0965C39.7905 87.8645 40.4867 88.4737 41.3117 88.8479C41.6927 89.0766 42.1236 89.2094 42.5672 89.2347C43.0109 89.2599 43.4541 89.177 43.8586 88.993C44.2889 88.7578 44.6292 88.3725 45.0395 88.1273C45.1299 88.2569 45.2416 88.3703 45.3698 88.4626C46.7608 89.4233 47.3663 89.4583 47.2762 90.2339Z" fill="#4D4D4D"/>
<path d="M47.2213 90.0338C46.861 91.0346 43.7186 91.1697 42.2525 90.199C41.1567 89.4684 39.2202 87.0616 38.1193 86.346C37.3788 85.8456 34.5116 86.346 34.4565 84.6797C34.4738 83.8762 34.6436 83.0832 34.9569 82.343C34.9869 82.2629 35.017 82.1728 35.042 82.0878C37.2537 82.7283 38.2845 84.7548 39.3303 86.7764C39.8093 87.5443 40.5061 88.1522 41.3318 88.5227C41.7119 88.7539 42.143 88.8881 42.5871 88.9134C43.0313 88.9387 43.4749 88.8544 43.8788 88.6678C44.3091 88.4376 44.6493 88.0473 45.0597 87.8021C45.1486 87.9329 45.2605 88.0465 45.3899 88.1374C46.7609 89.0981 47.3564 89.6536 47.2213 90.0338Z" fill="#FFB156"/>
<path fill-rule="evenodd" clip-rule="evenodd" d="M30.6435 7.59084L30.5985 7.73595L30.5634 7.86104L29.5076 11.4088V11.4438L29.4626 11.5839L29.0823 11.4638L27.9815 11.1135L26.08 10.5181L25.5446 10.353C25.4574 10.3214 25.3722 10.2847 25.2894 10.2429C24.9414 10.0579 24.6526 9.77854 24.4562 9.43691C24.2597 9.09529 24.1635 8.70519 24.1785 8.31139C24.1928 7.90009 24.3229 7.50118 24.5538 7.16051C24.5877 7.11167 24.6245 7.06489 24.6639 7.0204C24.857 6.78216 25.1023 6.59148 25.3808 6.46307C25.6593 6.33467 25.9636 6.27197 26.2701 6.27983C26.4274 6.28937 26.5832 6.31452 26.7355 6.35489L26.9557 6.42495L27.1558 6.48499L27.4911 6.59508L27.5912 6.6251L29.3575 7.18052L29.4576 7.21054L29.7378 7.30062L30.068 7.40069L30.6485 7.58583L30.6435 7.59084Z" fill="#E06C42"/>
<path d="M32.053 9.64518C32.0887 8.49057 31.2107 7.52656 30.092 7.49199C28.9734 7.45742 28.0375 8.36538 28.0019 9.51999C27.9662 10.6746 28.8441 11.6386 29.9628 11.6732C31.0815 11.7078 32.0173 10.7998 32.053 9.64518Z" fill="#FFC6B0"/>
<path fill-rule="evenodd" clip-rule="evenodd" d="M31.9043 9.63739C31.901 9.88861 31.8482 10.1367 31.7487 10.3674C31.6492 10.5981 31.5051 10.8069 31.3247 10.9818C31.1443 11.1566 30.9311 11.2941 30.6974 11.3862C30.4636 11.4784 30.214 11.5235 29.9628 11.5188C29.7699 11.5144 29.579 11.4789 29.3974 11.4137C29.0165 11.27 28.6906 11.0098 28.4661 10.6703C28.2415 10.3307 28.1297 9.92904 28.1464 9.52229C28.1543 9.0162 28.3626 8.5339 28.7257 8.18119C29.0887 7.82849 29.5768 7.63416 30.0829 7.64085C30.1512 7.63567 30.2198 7.63567 30.2881 7.64085C30.7578 7.71237 31.1839 7.95673 31.4829 8.32605C31.7819 8.69537 31.9322 9.16304 31.9043 9.63739Z" fill="#FFB156"/>
<path fill-rule="evenodd" clip-rule="evenodd" d="M31.2288 9.47225C31.2423 9.97226 31.0571 10.4573 30.7139 10.8211C30.3707 11.185 29.8973 11.398 29.3974 11.4137C29.0165 11.27 28.6906 11.0098 28.4661 10.6703C28.2415 10.3307 28.1297 9.92904 28.1464 9.52229C28.1543 9.0162 28.3626 8.5339 28.7257 8.18119C29.0887 7.82849 29.5768 7.63416 30.0829 7.64085C30.1512 7.63567 30.2198 7.63567 30.2881 7.64085C30.5961 7.83226 30.8463 8.10375 31.012 8.42632C31.1776 8.74888 31.2526 9.1104 31.2288 9.47225Z" fill="#AD5433"/>
<path fill-rule="evenodd" clip-rule="evenodd" d="M30.1076 7.41072H30.0776C29.5841 7.44505 29.1104 7.61855 28.7115 7.9111C28.5466 8.05816 28.4019 8.22642 28.2812 8.41148C28.0556 8.76539 27.9552 9.1847 27.996 9.6024C27.9825 9.98415 28.0784 10.3618 28.2726 10.6907C28.4668 11.0197 28.7511 11.2862 29.0918 11.4588L26.0895 10.5181C26.001 10.4879 25.9156 10.4494 25.8343 10.403C25.748 10.2422 25.6744 10.0749 25.6142 9.90263C25.4469 9.50422 25.3716 9.07319 25.394 8.64166C25.4082 8.48093 25.4435 8.32279 25.4991 8.1713C25.5401 8.05247 25.5938 7.9384 25.6592 7.83104C25.8543 7.49599 26.1272 7.21282 26.4548 7.00541C26.6963 6.85195 26.9594 6.73557 27.2354 6.66014C27.3226 6.63375 27.4111 6.61204 27.5006 6.59509L27.6007 6.62511L29.367 7.18054L29.4671 7.21056L29.7473 7.30063L30.1076 7.41072Z" fill="#754C24"/>
<path fill-rule="evenodd" clip-rule="evenodd" d="M29.7226 7.31565C29.5797 7.29791 29.4352 7.29791 29.2923 7.31565C28.5717 7.42073 28.2014 7.98616 27.8211 8.42149L28.0663 7.87608L27.8061 8.15629C27.9212 7.95614 28.0363 7.76099 28.1564 7.56584C27.9509 7.74884 27.7586 7.94615 27.581 8.15629C27.4659 8.28639 27.3608 8.42149 27.2557 8.5616C27.3121 8.28579 27.3994 8.01723 27.5159 7.76099C27.576 7.62418 27.6463 7.49204 27.7261 7.36569C27.6313 7.3897 27.5404 7.42675 27.4559 7.47578C27.2934 7.56734 27.1533 7.6938 27.0456 7.84605C27.1556 7.67592 27.2607 7.50079 27.3658 7.34567C27.044 7.52433 26.788 7.80142 26.6352 8.13628C26.7154 7.82545 26.8779 7.54196 27.1056 7.31565C26.7536 7.5816 26.4506 7.90668 26.2099 8.27639C26.1202 8.41593 26.0399 8.56137 25.9697 8.71172C26.0045 8.54073 26.0548 8.37324 26.1198 8.21134C26.3119 7.7318 26.6408 7.31936 27.0656 7.02543L26.355 7.47077C26.5878 7.16069 26.8938 6.91313 27.2457 6.75021C27.3545 6.69953 27.4665 6.65607 27.581 6.62012L29.3473 7.17554L29.4474 7.20556L29.7226 7.31565Z" fill="#AB6E35"/>
<path fill-rule="evenodd" clip-rule="evenodd" d="M29.4574 11.859L26.8654 15.1315L25.6595 14.1308L23.658 12.5195C23.5879 12.4579 23.5227 12.391 23.4628 12.3194C23.1142 11.9363 22.9209 11.4371 22.9207 10.9191C22.9204 10.4012 23.1133 9.90174 23.4616 9.51841C23.81 9.13507 24.2887 8.89536 24.8043 8.84611C25.3199 8.79685 25.8353 8.94159 26.2499 9.25204L26.4251 9.39716L28.1064 10.7682L29.4574 11.859Z" fill="#FFB156"/>
<path fill-rule="evenodd" clip-rule="evenodd" d="M29.998 14.2909C29.8256 14.6502 29.5511 14.9506 29.2089 15.1547C28.8667 15.3588 28.4719 15.4575 28.074 15.4385C27.676 15.4194 27.2924 15.2835 26.9713 15.0476C26.6501 14.8118 26.4056 14.4865 26.2683 14.1124C26.1311 13.7383 26.1071 13.3321 26.1995 12.9445C26.2918 12.5569 26.4964 12.2051 26.7876 11.9332C27.0788 11.6612 27.4437 11.4811 27.8367 11.4154C28.2297 11.3497 28.6334 11.4014 28.9972 11.5638C29.4911 11.7933 29.8738 12.2092 30.0614 12.7205C30.249 13.2317 30.2262 13.7965 29.998 14.2909Z" fill="#FFC6B0"/>
<path fill-rule="evenodd" clip-rule="evenodd" d="M29.8676 14.2308C29.6709 14.6978 29.2973 15.068 28.8284 15.2602C28.3595 15.4524 27.8336 15.4511 27.3657 15.2566C27.1834 15.1805 27.0145 15.0758 26.8653 14.9464C26.5662 14.6705 26.3612 14.3076 26.2795 13.9089C26.1978 13.5103 26.2434 13.096 26.41 12.7247C26.5081 12.4943 26.6508 12.2857 26.8298 12.1106C27.0088 11.9356 27.2206 11.7976 27.453 11.7046C27.6855 11.6116 27.934 11.5655 28.1844 11.5688C28.4347 11.5721 28.682 11.6248 28.9119 11.7239C28.9764 11.7479 29.0384 11.778 29.097 11.814C29.4971 12.0545 29.796 12.4324 29.9378 12.8772C30.0796 13.3219 30.0547 13.8031 29.8676 14.2308Z" fill="#FFB156"/>
<path fill-rule="evenodd" clip-rule="evenodd" d="M29.3022 13.8205C29.1266 14.289 28.7731 14.6692 28.3185 14.8782C27.864 15.0872 27.3452 15.1081 26.8753 14.9364C26.5762 14.6605 26.3712 14.2976 26.2895 13.8989C26.2078 13.5002 26.2535 13.086 26.42 12.7147C26.5181 12.4843 26.6608 12.2757 26.8398 12.1006C27.0188 11.9256 27.2306 11.7876 27.4631 11.6946C27.6955 11.6016 27.9441 11.5554 28.1944 11.5588C28.4447 11.5621 28.692 11.6148 28.9219 11.7139C28.9864 11.7378 29.0484 11.768 29.107 11.804C29.316 12.0923 29.4443 12.4312 29.4786 12.7857C29.5129 13.1402 29.452 13.4974 29.3022 13.8205Z" fill="#AD5433"/>
<path fill-rule="evenodd" clip-rule="evenodd" d="M28.5716 11.1285C28.0882 10.9584 27.5642 10.941 27.0705 11.0784C26.7452 11.2017 26.4534 11.3996 26.2186 11.6562C25.9837 11.9128 25.8125 12.221 25.7185 12.5559C25.6245 12.8909 25.6105 13.2432 25.6776 13.5845C25.7447 13.9258 25.891 14.2466 26.1047 14.5211L23.6629 12.5195C23.5928 12.4579 23.5276 12.3909 23.4677 12.3194C23.4551 12.1361 23.4551 11.9522 23.4677 11.769C23.4635 11.3354 23.5558 10.9064 23.7379 10.513C23.9007 10.2177 24.1286 9.96324 24.4043 9.76904C24.68 9.57484 24.9962 9.44595 25.3291 9.39214C25.6997 9.32453 26.0794 9.32453 26.45 9.39214L26.5351 9.4622L28.0362 10.6981L28.5716 11.1285Z" fill="#754C24"/>
<path fill-rule="evenodd" clip-rule="evenodd" d="M28.2766 10.8934C27.3709 10.428 26.7054 10.8934 26.0949 11.2186L26.5303 10.8033L26.18 10.9684L26.7254 10.5431C26.3055 10.703 25.9018 10.9024 25.5195 11.1386C25.7582 10.7793 26.056 10.4629 26.4002 10.2028C26.1173 10.1745 25.8331 10.2433 25.5946 10.398L26.0949 10.0377C25.7199 10.0774 25.3683 10.2391 25.0942 10.4981C25.2869 10.253 25.5381 10.0603 25.8247 9.93765C25.236 10.0971 24.695 10.3977 24.2485 10.8133C24.6244 10.226 25.2154 9.80932 25.8948 9.65244L25.1042 9.81756C25.5403 9.55564 26.0488 9.43992 26.5553 9.4873L28.2766 10.8934Z" fill="#AB6E35"/>
<path fill-rule="evenodd" clip-rule="evenodd" d="M16.6876 8.3163C16.7027 8.71011 16.6065 9.1002 16.41 9.44183C16.2135 9.78345 15.9247 10.0628 15.5767 10.2478C15.4957 10.2895 15.4121 10.3263 15.3266 10.3579L14.7861 10.523L12.8897 11.1184L11.7838 11.4687L11.4036 11.5888L11.3585 11.4487V11.4137L10.3027 7.86596L10.2677 7.74086L10.2227 7.59575L10.7981 7.41061L11.1334 7.31054L11.4086 7.22046L12.1892 6.97528L13.275 6.63502L13.3751 6.60499L13.8754 6.43487L14.0956 6.36481C14.2477 6.32365 14.4037 6.29849 14.561 6.28975C14.8742 6.28154 15.185 6.34699 15.4683 6.48083C15.7517 6.61467 15.9996 6.81317 16.1922 7.06034C16.2787 7.17393 16.3557 7.29443 16.4224 7.42062C16.5752 7.69622 16.6657 8.00195 16.6876 8.3163Z" fill="#FFB156"/>
<path fill-rule="evenodd" clip-rule="evenodd" d="M8.80161 9.64243C8.82637 10.0397 8.96756 10.4209 9.20759 10.7384C9.44762 11.056 9.77584 11.2958 10.1513 11.428C10.5268 11.5602 10.9328 11.5788 11.3188 11.4817C11.7049 11.3845 12.0537 11.1759 12.3219 10.8817C12.59 10.5875 12.7656 10.2209 12.8268 9.8276C12.8879 9.43427 12.8318 9.03164 12.6656 8.66998C12.4993 8.30831 12.2302 8.00362 11.8919 7.79392C11.5536 7.58421 11.161 7.47878 10.7631 7.49079C10.4929 7.50299 10.2278 7.56835 9.98297 7.68315C9.7381 7.79794 9.51827 7.9599 9.33607 8.15976C9.15388 8.35962 9.01288 8.59344 8.92117 8.84786C8.82946 9.10228 8.78884 9.37229 8.80161 9.64243Z" fill="#FFC6B0"/>
<path fill-rule="evenodd" clip-rule="evenodd" d="M8.94663 9.63732C8.95054 9.88834 9.00387 10.1361 9.10356 10.3665C9.20325 10.597 9.34736 10.8055 9.52765 10.9802C9.70794 11.1549 9.92088 11.2924 10.1543 11.3848C10.3877 11.4772 10.6371 11.5227 10.8881 11.5187C11.0827 11.5148 11.2753 11.4793 11.4586 11.4137C11.8381 11.268 12.1627 11.0074 12.387 10.6683C12.6112 10.3292 12.724 9.92852 12.7095 9.52222C12.7056 9.2712 12.6523 9.0234 12.5526 8.79298C12.4529 8.56257 12.3088 8.35405 12.1285 8.17934C11.9482 8.00462 11.7353 7.86714 11.5018 7.77473C11.2684 7.68233 11.0191 7.63681 10.768 7.64078C10.6997 7.63585 10.6312 7.63585 10.5629 7.64078C10.0936 7.71337 9.66817 7.95803 9.3694 8.32709C9.07063 8.69616 8.91992 9.16323 8.94663 9.63732Z" fill="#FFB156"/>
<path fill-rule="evenodd" clip-rule="evenodd" d="M9.62224 9.47218C9.6101 9.97266 9.79636 10.4576 10.1404 10.8213C10.4844 11.185 10.9583 11.398 11.4586 11.4137C11.8382 11.268 12.1628 11.0074 12.3871 10.6683C12.6113 10.3292 12.7241 9.92852 12.7096 9.52222C12.7057 9.2712 12.6524 9.0234 12.5527 8.79298C12.453 8.56257 12.3089 8.35405 12.1286 8.17934C11.9483 8.00462 11.7354 7.86714 11.5019 7.77473C11.2685 7.68233 11.0191 7.63681 10.7681 7.64078C10.6998 7.63585 10.6313 7.63585 10.563 7.64078C10.255 7.83219 10.0048 8.10368 9.83906 8.42625C9.67338 8.74881 9.59843 9.11033 9.62224 9.47218Z" fill="#AD5433"/>
<path fill-rule="evenodd" clip-rule="evenodd" d="M15.2668 9.90263C15.2048 10.075 15.1295 10.2423 15.0416 10.403C14.9604 10.4494 14.8749 10.4879 14.7864 10.5181L11.7841 11.4588C12.0831 11.2819 12.3368 11.0375 12.5247 10.7453C12.7127 10.453 12.8298 10.1209 12.8667 9.77535C12.9036 9.42983 12.8594 9.08046 12.7374 8.75507C12.6155 8.42968 12.4193 8.13727 12.1644 7.9011C11.7657 7.60806 11.2919 7.4345 10.7983 7.40071L11.1586 7.29062L11.4338 7.20056L12.2144 6.95537L13.3003 6.61511L13.4003 6.58508C13.5425 6.6135 13.6828 6.65026 13.8206 6.69517C14.0397 6.77166 14.2495 6.87236 14.4461 6.9954C14.84 7.24359 15.1543 7.59962 15.3518 8.02119C15.3818 8.09624 15.4119 8.1713 15.4369 8.25136C15.4724 8.37581 15.4975 8.50302 15.5119 8.63165C15.5254 9.06825 15.4417 9.50238 15.2668 9.90263Z" fill="#754C24"/>
<path fill-rule="evenodd" clip-rule="evenodd" d="M14.8914 8.7166L14.8514 8.64154L14.8064 8.54647C14.5475 8.06758 14.1892 7.64959 13.7555 7.32053C13.9751 7.54045 14.1352 7.81248 14.2209 8.11114C14.0861 7.81292 13.8669 7.5607 13.5904 7.38558L13.4853 7.32053L13.5754 7.46565L13.8056 7.83593C13.7365 7.73347 13.6501 7.64373 13.5504 7.57072C13.4253 7.47276 13.2827 7.39972 13.1301 7.35556C13.2639 7.58137 13.3761 7.81926 13.4653 8.0661C13.5146 8.2157 13.5564 8.36768 13.5904 8.52146C13.5904 8.52146 13.5904 8.52145 13.5904 8.55148L13.5654 8.51645L13.4203 8.33131C13.1977 8.05386 12.9534 7.79452 12.6897 7.55571C12.8048 7.75086 12.9249 7.94601 13.04 8.14617L12.7798 7.86595C12.8198 7.96603 12.8649 8.06611 12.9099 8.16118C12.9549 8.25625 12.985 8.33131 13.025 8.41137C12.5746 7.91099 12.1343 7.20545 11.1235 7.30052L11.3987 7.21045L12.1793 6.96526L13.2652 6.625C13.4389 6.6751 13.6067 6.74389 13.7656 6.83016C14.0588 6.98745 14.3135 7.20793 14.5111 7.47566L13.8056 7.03031C14.3237 7.38932 14.6964 7.92174 14.8564 8.53146C14.8592 8.55974 14.8592 8.58825 14.8564 8.61653C14.8764 8.65656 14.8814 8.68657 14.8914 8.7166Z" fill="#AB6E35"/>
<path fill-rule="evenodd" clip-rule="evenodd" d="M11.3938 11.859L13.9858 15.1315L15.1967 14.1308L17.1982 12.5195C17.2667 12.4578 17.3302 12.3909 17.3884 12.3194C17.6427 12.0192 17.8071 11.6534 17.8629 11.2639C17.9187 10.8745 17.8635 10.4772 17.7036 10.1177C17.4915 9.61434 17.0887 9.21547 16.5833 9.00824C16.0779 8.80102 15.511 8.80232 15.0066 9.01185C14.8642 9.07602 14.7299 9.15662 14.6063 9.25202L14.4261 9.39714L12.7448 10.7682L11.3938 11.859Z" fill="#FFB156"/>
<path fill-rule="evenodd" clip-rule="evenodd" d="M10.853 14.2909C11.0254 14.6502 11.2998 14.9506 11.642 15.1547C11.9842 15.3588 12.379 15.4575 12.777 15.4385C13.175 15.4194 13.5586 15.2835 13.8797 15.0476C14.2009 14.8118 14.4453 14.4865 14.5826 14.1124C14.7199 13.7383 14.7438 13.3321 14.6515 12.9445C14.5591 12.5569 14.3546 12.2051 14.0634 11.9332C13.7722 11.6612 13.4072 11.4811 13.0142 11.4154C12.6212 11.3497 12.2176 11.4014 11.8538 11.5638C11.3608 11.7943 10.979 12.2103 10.7915 12.7212C10.604 13.232 10.6261 13.7963 10.853 14.2909Z" fill="#FFC6B0"/>
<path fill-rule="evenodd" clip-rule="evenodd" d="M10.9835 14.2309C11.1812 14.697 11.5549 15.0663 12.0234 15.2583C12.4919 15.4504 13.0173 15.4498 13.4854 15.2567C13.6679 15.181 13.8368 15.0762 13.9858 14.9464C14.2858 14.6711 14.4916 14.3085 14.5743 13.9098C14.6569 13.5111 14.612 13.0965 14.4461 12.7247C14.2458 12.2613 13.8702 11.896 13.4015 11.7085C12.9327 11.521 12.4089 11.5265 11.9442 11.7239C11.8806 11.7499 11.8187 11.78 11.7591 11.814C11.3581 12.0537 11.0581 12.4313 10.9154 12.8762C10.7726 13.321 10.7968 13.8026 10.9835 14.2309Z" fill="#FFB156"/>
<path fill-rule="evenodd" clip-rule="evenodd" d="M11.5536 13.8206C11.7292 14.2879 12.0819 14.6671 12.5353 14.876C12.9887 15.0849 13.5062 15.1066 13.9755 14.9364C14.2755 14.6611 14.4814 14.2985 14.564 13.8998C14.6466 13.5011 14.6018 13.0865 14.4358 12.7147C14.2355 12.2513 13.86 11.886 13.3912 11.6985C12.9225 11.511 12.3986 11.5165 11.9339 11.7139C11.8703 11.7399 11.8085 11.77 11.7488 11.804C11.5398 12.0924 11.4115 12.4313 11.3772 12.7858C11.3429 13.1402 11.4038 13.4975 11.5536 13.8206Z" fill="#AD5433"/>
<path fill-rule="evenodd" clip-rule="evenodd" d="M12.2844 11.1285C12.7675 10.9565 13.2921 10.939 13.7856 11.0784C14.1101 11.2025 14.4012 11.4009 14.6354 11.6576C14.8696 11.9143 15.0404 12.2223 15.1343 12.5569C15.2281 12.8914 15.2424 13.2433 15.1759 13.5844C15.1094 13.9255 14.964 14.2462 14.7513 14.5211L17.1932 12.5195C17.2616 12.4578 17.3252 12.3909 17.3833 12.3194C17.396 12.1361 17.396 11.9522 17.3833 11.769C17.3865 11.3361 17.296 10.9076 17.1181 10.513C16.9537 10.218 16.7247 9.96396 16.4483 9.76987C16.1719 9.57578 15.8552 9.44665 15.5219 9.39214C15.1513 9.32453 14.7716 9.32453 14.401 9.39214L14.316 9.4622L12.8148 10.6981L12.2844 11.1285Z" fill="#754C24"/>
<path fill-rule="evenodd" clip-rule="evenodd" d="M12.5945 10.8933C13.5052 10.4279 14.1657 10.8933 14.7762 11.2185L14.3458 10.8032L14.6911 10.9683L14.1457 10.543C14.5656 10.7029 14.9693 10.9023 15.3516 11.1385C15.1158 10.7768 14.8176 10.46 14.4709 10.2027C14.7539 10.1731 15.0385 10.2421 15.2765 10.3979L14.7762 10.0376C15.1518 10.0751 15.504 10.2371 15.7769 10.498C15.586 10.2531 15.3365 10.0604 15.0514 9.93754C15.6302 10.1022 16.1607 10.4043 16.5975 10.8182C16.2216 10.2309 15.6307 9.8142 14.9513 9.65732L15.7769 9.80745C15.3391 9.54514 14.829 9.42943 14.3208 9.47719L12.5945 10.8933Z" fill="#AB6E35"/>
<path fill-rule="evenodd" clip-rule="evenodd" d="M21.2909 22.0969H19.5696C18.0685 22.0969 16.8726 21.031 16.8726 19.715V13.6504H23.988V19.715C23.988 21.031 22.7821 22.0969 21.2909 22.0969Z" fill="#F0C5A3"/>
<g style="mix-blend-mode:multiply">
<path fill-rule="evenodd" clip-rule="evenodd" d="M16.8726 18.5942V14.9114H23.988V18.5942C23.988 18.5942 22.662 21.2963 20.4103 21.2963C18.1585 21.2963 16.8726 18.5942 16.8726 18.5942Z" fill="#E6DCD4"/>
</g>
<path fill-rule="evenodd" clip-rule="evenodd" d="M27.471 9.06189C27.471 9.22201 27.471 9.39214 27.471 9.56227C27.471 9.7324 27.471 9.9926 27.426 10.2028C26.9656 15.2066 23.9233 19.66 20.4206 19.66C17.0531 19.66 14.0458 15.4068 13.4653 10.3379L13.4353 10.0877C13.4016 9.75517 13.3849 9.42114 13.3853 9.08692C13.3852 7.73617 13.7739 6.41394 14.505 5.27818C15.2362 4.14242 16.2788 3.24115 17.5084 2.68202C18.0203 2.44754 18.5601 2.27939 19.1146 2.18163C19.5456 2.10332 19.9826 2.06313 20.4206 2.06154C22.2831 2.05754 24.0711 2.7922 25.3928 4.10445C26.7144 5.41671 27.4618 7.19946 27.471 9.06189Z" fill="#F0C5A3"/>
<path fill-rule="evenodd" clip-rule="evenodd" d="M13.7056 10.0077C13.7056 10.0077 13.7056 9.97766 13.7056 9.96265C13.4462 10.0063 13.2105 10.1402 13.0402 10.3407C12.87 10.5412 12.776 10.7954 12.7749 11.0585V11.4338C12.7815 11.8832 12.9303 12.319 13.2 12.6786C13.4697 13.0382 13.8464 13.3031 14.2761 13.4353C13.9106 12.3289 13.7182 11.1728 13.7056 10.0077Z" fill="#F0C5A3"/>
<path fill-rule="evenodd" clip-rule="evenodd" d="M27.1506 10.0077V9.96265C27.4096 10.0064 27.6446 10.1405 27.8141 10.3411C27.9836 10.5417 28.0765 10.7959 28.0763 11.0585V11.4338C28.0713 11.8836 27.9231 12.3202 27.6532 12.6801C27.3832 13.04 27.0056 13.3045 26.5752 13.4353C26.9447 12.3298 27.1389 11.1732 27.1506 10.0077Z" fill="#F0C5A3"/>
<path fill-rule="evenodd" clip-rule="evenodd" d="M27.8409 10.398C26.9452 10.0477 26.2797 9.12704 25.4741 8.17131C25.1846 7.81745 24.872 7.48314 24.5384 7.17055C24.0028 6.62784 23.3625 6.19979 22.6562 5.91247C21.9499 5.62515 21.1926 5.48456 20.4303 5.49926C19.7668 5.49322 19.1059 5.58426 18.4688 5.76948C17.6342 6.02299 16.869 6.46466 16.2321 7.06046C15.9045 7.36986 15.6016 7.70446 15.3264 8.06122C15.1963 8.22134 15.0762 8.37647 14.9611 8.52659C14.9311 8.57162 14.896 8.61165 14.866 8.65169C14.3106 9.39225 13.8652 10.0027 13.3298 10.1178C13.3298 10.0377 13.4049 9.41226 13.4049 9.072C13.4049 8.87185 13.4049 8.66669 13.4049 8.47154V8.34143C13.4088 8.25218 13.4206 8.16345 13.4399 8.07623C13.4399 7.9061 13.49 7.74599 13.525 7.57586C13.5227 7.54087 13.5227 7.50576 13.525 7.47077V7.39071C13.5694 7.20258 13.6246 7.01714 13.6901 6.83529C13.7004 6.79268 13.7138 6.75088 13.7301 6.71019L13.8352 6.42998C14.5139 4.75861 15.8066 3.41041 17.448 2.6621C17.8247 2.48811 18.2167 2.34909 18.6189 2.24678L19.0542 2.1517C19.4852 2.07339 19.9222 2.03321 20.3602 2.03162C21.7939 2.03218 23.1956 2.45542 24.39 3.24841C25.5843 4.04141 26.5184 5.16896 27.0753 6.49003C27.1004 6.55007 27.1254 6.60511 27.1454 6.66516C27.1584 6.69584 27.1684 6.72767 27.1754 6.76023C27.2652 6.99125 27.3371 7.22879 27.3906 7.47077C27.4164 7.56454 27.4364 7.65979 27.4506 7.756C27.48 7.88638 27.5017 8.01838 27.5157 8.1513C27.5408 8.30359 27.5559 8.45737 27.5607 8.61165C27.5683 8.75332 27.5683 8.8953 27.5607 9.03697C27.5394 9.5069 27.6358 9.97471 27.8409 10.398Z" fill="#754C24"/>
<path fill-rule="evenodd" clip-rule="evenodd" d="M15.5018 8.50646C14.7512 8.06111 14.9213 8.50645 14.8913 8.71661C14.8688 9.03312 14.8688 9.35084 14.8913 9.66735C14.9513 11.9241 14.1707 13.3151 16.5175 13.9856C14.456 13.9306 14.4059 12.1943 14.1057 10.9283C14.0557 10.7231 13.6804 10.0176 13.4702 10.0476C13.7204 9.29498 14.1303 8.60528 14.6718 8.02577C15.2133 7.44626 15.8736 6.99063 16.6076 6.69006C16.4373 6.84331 16.3059 7.03484 16.2241 7.24885C16.1423 7.46286 16.1125 7.69323 16.1373 7.921C16.1373 8.37635 16.2824 8.82669 16.2924 9.28204C16.3144 9.50942 16.2803 9.73872 16.1931 9.94985C16.1058 10.161 15.9681 10.3475 15.792 10.493C15.9336 10.257 16.0185 9.99139 16.0402 9.71705C16.0619 9.44271 16.0198 9.16708 15.9171 8.91176C15.8291 8.73314 15.6825 8.59009 15.5018 8.50646Z" fill="#754C24"/>
<g style="mix-blend-mode:multiply">
<g style="mix-blend-mode:multiply">
<path fill-rule="evenodd" clip-rule="evenodd" d="M29.3421 7.18039C29.3276 7.22293 29.3109 7.26468 29.2921 7.30549C29.2834 7.335 29.2717 7.36351 29.257 7.39055C29.2194 7.48187 29.1725 7.56907 29.1169 7.65075L29.0519 7.75083C28.8786 7.99714 28.653 8.20218 28.3914 8.35129L28.2563 8.42134C28.0577 8.51736 27.8447 8.57992 27.6258 8.60648C27.1283 8.67382 26.6233 8.55825 26.2047 8.28123L26.1146 8.21618L26.0446 8.16615L25.6343 7.82588L25.284 7.53567L24.6485 7.03528L22.7721 5.4941C22.7032 5.42946 22.638 5.36096 22.5769 5.28894C22.226 4.88328 22.0447 4.35805 22.0708 3.82229C22.0969 3.28653 22.3283 2.78139 22.717 2.41174C23.7047 2.73548 24.611 3.2682 25.3743 3.97365C26.1376 4.6791 26.74 5.54072 27.1404 6.49987L27.4757 6.60995L27.5757 6.63998L29.3421 7.18039Z" fill="#E6E6E6"/>
</g>
<g style="mix-blend-mode:multiply">
<path fill-rule="evenodd" clip-rule="evenodd" d="M19.0047 5.27402C18.9449 5.34725 18.8797 5.41583 18.8095 5.47918L18.4693 5.75939L16.4677 7.41066L16.3076 7.54075L15.547 8.17123L15.4219 8.26631C15.3215 8.33702 15.2142 8.39739 15.1017 8.44645L14.9716 8.50149L14.8565 8.54153H14.8165C14.4205 8.6644 13.9965 8.6644 13.6005 8.54153L13.4404 8.48648C13.2609 8.40926 13.0926 8.30828 12.94 8.18625C12.683 7.98173 12.4802 7.71708 12.3496 7.41566C12.2835 7.281 12.2364 7.13788 12.2095 6.99034L13.2953 6.65007L13.3954 6.62005L13.8958 6.44992C14.5745 4.77856 15.8672 3.43036 17.5085 2.68204C17.8853 2.50806 18.2772 2.36904 18.6794 2.26672C18.9071 2.43937 19.0969 2.65682 19.2373 2.90566C19.3777 3.15451 19.4656 3.42948 19.4956 3.7136C19.5256 3.99773 19.4971 4.28498 19.4118 4.55766C19.3265 4.83034 19.1862 5.08266 18.9997 5.29904L19.0047 5.27402Z" fill="#E6E6E6"/>
</g>
</g>
<path fill-rule="evenodd" clip-rule="evenodd" d="M28.702 3.99313L26.045 7.22059L24.804 6.21983L22.7775 4.55355C22.7045 4.49151 22.6375 4.42284 22.5773 4.3484C22.2686 3.988 22.0916 3.53333 22.0754 3.05906C22.0592 2.5848 22.2048 2.11912 22.4882 1.73851C22.7717 1.3579 23.1761 1.08498 23.6351 0.964572C24.0941 0.844162 24.5804 0.883418 25.0142 1.07589C25.1621 1.14246 25.3015 1.22645 25.4295 1.32609L25.6146 1.4762L27.341 2.89229L28.702 3.99313Z" fill="#FFB156"/>
<path fill-rule="evenodd" clip-rule="evenodd" d="M29.2573 6.44487C29.0878 6.82251 28.81 7.14137 28.4592 7.36106C28.1083 7.58074 27.7002 7.69138 27.2864 7.67897C26.8727 7.66655 26.4719 7.53164 26.1349 7.29132C25.7978 7.05099 25.5397 6.71606 25.3931 6.32893C25.2465 5.9418 25.2181 5.51987 25.3115 5.11659C25.4048 4.7133 25.6157 4.34679 25.9175 4.06345C26.2193 3.78011 26.5984 3.59269 27.0068 3.52492C27.4151 3.45716 27.8344 3.51209 28.2115 3.68276C28.4622 3.79474 28.6882 3.95518 28.8766 4.15485C29.0649 4.35453 29.2119 4.58949 29.3092 4.84622C29.4064 5.10294 29.4518 5.37635 29.4429 5.65072C29.434 5.92508 29.371 6.19498 29.2573 6.44487Z" fill="#FFC6B0"/>
<path fill-rule="evenodd" clip-rule="evenodd" d="M29.1072 6.38485C28.9498 6.73507 28.6921 7.03077 28.3667 7.23455C28.0413 7.43833 27.6627 7.54104 27.2789 7.5297C26.8951 7.51837 26.5233 7.39348 26.2105 7.17084C25.8977 6.9482 25.6579 6.63781 25.5215 6.2789C25.385 5.91999 25.3581 5.5287 25.444 5.15448C25.53 4.78026 25.725 4.43993 26.0043 4.17652C26.2837 3.9131 26.6349 3.73844 27.0135 3.67461C27.3921 3.61077 27.7811 3.66063 28.1314 3.81788L28.3216 3.91796C28.7339 4.15972 29.0422 4.54541 29.1872 5.00082C29.3322 5.45624 29.3037 5.94919 29.1072 6.38485Z" fill="#FFB156"/>
<path fill-rule="evenodd" clip-rule="evenodd" d="M28.5417 5.96952C28.4476 6.20391 28.3082 6.41743 28.1314 6.59789C27.9547 6.77834 27.7441 6.92217 27.5117 7.02116C27.2794 7.12015 27.0298 7.17236 26.7772 7.17479C26.5246 7.17722 26.274 7.12984 26.0398 7.03534C25.6942 6.72634 25.4705 6.30387 25.4093 5.84432C25.3481 5.38477 25.4534 4.91849 25.7061 4.5298C25.9587 4.14111 26.3422 3.85566 26.787 3.72508C27.2318 3.59451 27.7087 3.62742 28.1314 3.81787L28.3215 3.91796C28.5411 4.20769 28.6776 4.55174 28.7164 4.91318C28.7552 5.27462 28.6948 5.6398 28.5417 5.96952Z" fill="#AD5433"/>
<path fill-rule="evenodd" clip-rule="evenodd" d="M27.7913 3.23746C27.3024 3.05755 26.771 3.02792 26.2651 3.15238C25.9549 3.24183 25.6716 3.40646 25.4403 3.63166C25.209 3.85687 25.0368 4.13568 24.9391 4.44337C24.782 4.79657 24.7305 5.18771 24.7909 5.56954C24.8513 5.95136 25.0209 6.30754 25.2794 6.59502L22.7775 4.53345C22.7045 4.4714 22.6375 4.40272 22.5773 4.32829C22.5647 4.14336 22.5647 3.95779 22.5773 3.77286C22.5724 3.33874 22.6665 2.90921 22.8525 2.5169C23.0233 2.22235 23.259 1.97058 23.5417 1.78071C23.8243 1.59083 24.1465 1.46784 24.4838 1.42106C24.8665 1.36505 25.2561 1.3769 25.6346 1.45609L25.7197 1.52614L27.2559 2.81213L27.7913 3.23746Z" fill="#754C24"/>
<path fill-rule="evenodd" clip-rule="evenodd" d="M27.4858 2.99224C26.5551 2.49186 25.8746 2.99224 25.2541 3.27246L25.6945 2.86715L25.3342 3.02227L25.8946 2.61196C25.465 2.7593 25.051 2.94869 24.6587 3.17738C24.9037 2.82234 25.2084 2.51251 25.5594 2.26168C25.2722 2.2239 24.9808 2.28572 24.7337 2.43682L25.2341 2.08655C24.8621 2.12277 24.5114 2.27707 24.2333 2.52688C24.4301 2.28319 24.6871 2.09517 24.9789 1.98147C24.3804 2.12632 23.8269 2.41681 23.3677 2.82712C23.5607 2.5371 23.809 2.28796 24.0983 2.09392C24.3877 1.89988 24.7124 1.76475 25.054 1.69625L24.2083 1.82635C24.665 1.57189 25.19 1.46689 25.7095 1.52612L27.4858 2.99224Z" fill="#AB6E35"/>
<path fill-rule="evenodd" clip-rule="evenodd" d="M12.8848 3.99308L15.5418 7.22055L16.7827 6.21979L18.7843 4.55351C18.856 4.49016 18.9229 4.4216 18.9844 4.34836C19.2947 3.98778 19.4728 3.53219 19.4894 3.05676C19.5059 2.58133 19.3599 2.11447 19.0754 1.7332C18.7909 1.35193 18.3849 1.07903 17.9245 0.95953C17.464 0.840025 16.9766 0.881056 16.5426 1.07585C16.3953 1.14356 16.256 1.22747 16.1272 1.32604L15.9471 1.47616L14.2208 2.89224L12.8848 3.99308Z" fill="#FFB156"/>
<path fill-rule="evenodd" clip-rule="evenodd" d="M12.3244 6.44494C12.4935 6.82266 12.7709 7.14172 13.1214 7.36175C13.4719 7.58178 13.8798 7.69287 14.2935 7.68099C14.7072 7.66911 15.108 7.53478 15.4453 7.295C15.7826 7.05522 16.0412 6.72078 16.1884 6.33398C16.3355 5.94718 16.3646 5.52542 16.272 5.12208C16.1793 4.71873 15.9691 4.35193 15.668 4.0681C15.3668 3.78427 14.9882 3.59616 14.5801 3.52758C14.1719 3.459 13.7526 3.51303 13.3752 3.68283C12.87 3.91017 12.4755 4.32869 12.2785 4.84654C12.0815 5.36439 12.098 5.93925 12.3244 6.44494Z" fill="#FFC6B0"/>
<path fill-rule="evenodd" clip-rule="evenodd" d="M12.4595 6.3849C12.5621 6.61931 12.71 6.83117 12.8946 7.00837C13.0793 7.18557 13.297 7.32462 13.5354 7.41757C13.7739 7.51053 14.0283 7.55555 14.2841 7.55008C14.54 7.5446 14.7922 7.48873 15.0264 7.38567C15.2096 7.30472 15.3785 7.19491 15.5268 7.06042C15.8703 6.75125 16.0921 6.32972 16.1526 5.8716C16.2131 5.41348 16.1082 4.94882 15.8568 4.56112C15.6053 4.17342 15.2239 3.88811 14.7809 3.75647C14.338 3.62483 13.8626 3.6555 13.4402 3.84296L13.2501 3.94303C12.8437 4.18414 12.5393 4.56517 12.3937 5.01469C12.2482 5.46421 12.2716 5.95138 12.4595 6.3849Z" fill="#FFB156"/>
<path fill-rule="evenodd" clip-rule="evenodd" d="M13.045 5.96958C13.1386 6.20438 13.2777 6.41836 13.4544 6.59917C13.631 6.77999 13.8416 6.92408 14.0742 7.02314C14.3067 7.12221 14.5566 7.17429 14.8093 7.17639C15.0621 7.17849 15.3128 7.13058 15.5469 7.0354C15.8904 6.72622 16.1123 6.30469 16.1727 5.84658C16.2332 5.38846 16.1283 4.92379 15.8769 4.53609C15.6254 4.14839 15.244 3.86308 14.801 3.73145C14.3581 3.59981 13.8827 3.63048 13.4603 3.81793L13.2702 3.91801C13.0498 4.20727 12.9125 4.55108 12.8728 4.91253C12.8331 5.27399 12.8927 5.63942 13.045 5.96958Z" fill="#AD5433"/>
<path fill-rule="evenodd" clip-rule="evenodd" d="M13.7954 3.23746C14.2765 3.0617 14.7987 3.0321 15.2966 3.15238C15.6079 3.24071 15.8924 3.40488 16.1247 3.63019C16.357 3.85549 16.5298 4.13489 16.6276 4.44337C16.784 4.79704 16.8347 5.18846 16.7734 5.5703C16.7122 5.95215 16.5416 6.30807 16.2823 6.59502L18.7842 4.53345C18.8559 4.4701 18.9228 4.40152 18.9844 4.32829C18.997 4.14336 18.997 3.95779 18.9844 3.77286C18.9893 3.33874 18.8951 2.90921 18.7092 2.5169C18.5383 2.22235 18.3027 1.97058 18.02 1.78071C17.7374 1.59083 17.4152 1.46784 17.0779 1.42106C16.6952 1.36505 16.3056 1.3769 15.927 1.45609L15.837 1.52614L14.2858 2.80212L13.7954 3.23746Z" fill="#754C24"/>
<path fill-rule="evenodd" clip-rule="evenodd" d="M14.0957 2.99224C15.0264 2.49186 15.7069 2.99224 16.3324 3.27246L15.8921 2.86715L16.2474 3.02227L15.6919 2.61196C16.1199 2.75933 16.5322 2.94873 16.9229 3.17738C16.6792 2.82121 16.3743 2.51116 16.0222 2.26168C16.3094 2.22265 16.6012 2.28456 16.8478 2.43682L16.3474 2.08655C16.7195 2.12277 17.0701 2.27707 17.3482 2.52688C17.1487 2.28399 16.8903 2.09623 16.5976 1.98147C17.1977 2.12614 17.7529 2.4166 18.2139 2.82712C18.0208 2.5371 17.7726 2.28796 17.4832 2.09392C17.1939 1.89988 16.8691 1.76475 16.5276 1.69625L17.3732 1.82635C16.9165 1.57189 16.3915 1.46689 15.8721 1.52612L14.0957 2.99224Z" fill="#AB6E35"/>
<path d="M24.1084 0H17.3733V3.43763H24.1084V0Z" fill="#FFB156"/>
<path fill-rule="evenodd" clip-rule="evenodd" d="M23.7179 3.44263H23.6028C23.5628 3.03732 23.5227 2.63201 23.4777 2.23171C23.5052 2.63581 23.4901 3.04169 23.4327 3.44263H23.3126C23.2826 3.08736 23.2575 2.73209 23.2275 2.37181C23.1407 2.74169 23.0131 3.10082 22.8472 3.44263H20.1001L20.3103 1.8314L19.8099 3.44263H19.6648L19.7349 2.44187C19.6098 2.76712 19.4797 3.09236 19.3496 3.44263H17.3831C17.6863 2.31555 17.8988 1.166 18.0185 0.00500488H18.1687C18.2386 0.581188 18.2487 1.16308 18.1987 1.74133C18.3038 1.16589 18.4038 0.585449 18.5039 0.00500488H18.599L18.659 1.37105C18.7391 0.915699 18.8242 0.460353 18.9042 0.00500488H22.602C22.602 0.680522 22.602 1.35103 22.577 2.00654C22.6871 1.33102 22.8022 0.660506 22.9173 0.00500488H23.0574L23.1375 0.625482L23.2375 0.00500488H23.9281L23.7179 3.44263Z" fill="#855629"/>
<path fill-rule="evenodd" clip-rule="evenodd" d="M20.7261 2.24669L20.5459 2.59196L20.5059 2.01151L19.8404 3.07733V1.93145C19.7453 2.26671 19.6502 2.59696 19.5602 2.93222C19.5602 2.74207 19.5602 2.55193 19.5602 2.36178C19.4962 2.55002 19.3901 2.72116 19.2499 2.86217V2.36178L18.9697 2.89219C19.0396 2.65198 19.0396 2.39683 18.9697 2.15662L18.6745 2.99226C18.6745 2.75208 18.6745 2.49188 18.6745 2.27671L18.4393 2.96224C18.4393 2.74207 18.4643 2.52191 18.4743 2.30674C18.3412 2.61977 18.1734 2.91685 17.974 3.19241L18.064 2.71705L17.7688 3.06232C17.8835 2.60186 17.9489 2.13052 17.9639 1.65624L18.039 2.5269C18.2792 1.84638 18.4894 1.15085 18.6645 0.450317C18.6645 0.875643 18.6645 1.30097 18.6395 1.72629L19.0148 0.480339C19.0148 0.870638 19.0148 1.26594 19.0148 1.65624C19.0814 1.44198 19.181 1.2394 19.31 1.05578C19.31 1.22091 19.31 1.39104 19.31 1.55617L19.4901 1.17087C19.5 1.43588 19.5576 1.69694 19.6602 1.94146C19.8654 1.4711 20.0656 1.00575 20.2707 0.54039C20.2628 0.913698 20.347 1.2832 20.5159 1.61621C20.512 1.53468 20.5246 1.4532 20.553 1.37667C20.5813 1.30014 20.6249 1.23014 20.681 1.17087C20.6638 1.38421 20.7223 1.5968 20.8462 1.77133C20.8749 1.54531 20.9668 1.33198 21.1114 1.15586C21.086 1.28913 21.088 1.42616 21.1173 1.55863C21.1465 1.6911 21.2024 1.81624 21.2815 1.92645L21.8219 0.725529C21.8238 1.07092 21.8989 1.41198 22.0421 1.72629C22.0596 1.52152 22.1266 1.32406 22.2372 1.15085C22.1968 1.33267 22.2179 1.52275 22.2973 1.69126L22.6425 0.660477C22.6992 1.07634 22.8137 1.48225 22.9828 1.8664C23.0779 1.6012 23.1779 1.341 23.278 1.0758C23.2558 1.29844 23.2797 1.52327 23.3481 1.7363L23.4982 1.23592C23.4268 1.82458 23.3029 2.40567 23.1279 2.97225C23.1655 2.70905 23.1553 2.44123 23.0979 2.18165C23.039 2.52558 22.9076 2.85306 22.7126 3.14238C22.7126 2.7771 22.6776 2.40682 22.6575 2.04154C22.5705 2.41391 22.4253 2.77022 22.2272 3.09735V2.28172L22.1221 2.71205C22.1515 2.46029 22.1224 2.20514 22.0371 1.96648C21.8946 2.33898 21.6973 2.6881 21.4516 3.00227V1.95647C21.3165 2.35177 21.1764 2.74707 21.0363 3.14738V2.11159L20.7511 2.90219L20.8011 2.21167L20.676 2.75708L20.7261 2.24669Z" fill="#AB6E35"/>
<g style="mix-blend-mode:multiply">
<path fill-rule="evenodd" clip-rule="evenodd" d="M23.0424 4.74866H22.9573H22.8272H22.7322H22.3719H20.2302H20.0201H19.91H19.6648H18.1286H17.4381L16.8276 8.24633H24.6586L24.0482 4.74866H23.0424Z" fill="#E6E6E6"/>
</g>
<path d="M24.4136 3.00732H17.073V7.44072H24.4136V3.00732Z" fill="#FFB156"/>
<path fill-rule="evenodd" clip-rule="evenodd" d="M23.2979 3.00732H23.2079L23.1028 4.56852C23.122 4.04779 23.1086 3.52638 23.0627 3.00732H22.9577L22.8826 4.38338C22.8086 3.91677 22.6982 3.45668 22.5523 3.00732H20.1755C20.2406 3.69785 20.3006 4.39338 20.3607 5.08391L19.9403 3.00732H19.8203L19.8803 4.27329L19.545 3.00732H17.8438C18.1081 4.47396 18.2918 5.95397 18.3942 7.44072H18.5243C18.5851 6.69499 18.5935 5.9459 18.5493 5.199C18.6394 5.94457 18.7244 6.70015 18.8145 7.44072H18.8695C18.8695 6.85026 18.9046 6.26482 18.9196 5.67437C18.9896 6.26482 19.0647 6.85026 19.1347 7.44072H22.3122C22.3122 6.57005 22.3122 5.69938 22.3122 4.82872C22.4122 5.69938 22.5073 6.57005 22.6074 7.44072H22.7325C22.7325 7.17051 22.7775 6.9053 22.8025 6.6401C22.8025 6.9053 22.8576 7.17051 22.8876 7.44072H23.4831L23.2979 3.00732Z" fill="#754C24"/>
<path fill-rule="evenodd" clip-rule="evenodd" d="M20.7055 4.54845C20.6555 4.40334 20.6054 4.25322 20.5504 4.10811L20.5204 4.84868L19.9399 3.48263C19.9399 3.98301 19.9399 4.4834 19.9399 4.95876C19.8599 4.52343 19.7748 4.0931 19.6947 3.66277C19.6947 3.90796 19.6947 4.16315 19.6947 4.40333C19.6495 4.17048 19.5576 3.9492 19.4245 3.75284C19.4245 3.97301 19.4245 4.19818 19.4245 4.41835L19.1844 3.73783C19.2419 4.05045 19.2419 4.37094 19.1844 4.68356C19.0943 4.32328 19.0092 3.968 18.9242 3.60773C18.9242 3.91797 18.9242 4.2232 18.9242 4.52843C18.8541 4.2332 18.7891 3.93798 18.724 3.64276L18.754 4.49341C18.6415 4.10054 18.4976 3.71735 18.3237 3.34753L18.4038 3.95799L18.1436 3.51766C18.248 4.11602 18.3049 4.72171 18.3137 5.32905C18.3137 4.95376 18.3587 4.57847 18.3787 4.20318C18.5839 5.08886 18.769 5.97955 18.9242 6.88024C18.9242 6.33482 18.9242 5.7844 18.9242 5.23898C19.0342 5.77439 19.1393 6.3098 19.2494 6.84521C19.2494 6.34482 19.2494 5.84444 19.2494 5.34406C19.3019 5.6122 19.3876 5.87275 19.5046 6.11965C19.5046 5.90449 19.5046 5.68933 19.5046 5.47416L19.6597 5.97454C19.6631 5.63561 19.7136 5.29879 19.8098 4.97378L20.3352 6.77515C20.3254 6.30574 20.3982 5.83827 20.5504 5.3941C20.5395 5.59552 20.5882 5.79567 20.6905 5.96954C20.6745 5.70139 20.7243 5.4334 20.8356 5.18894C20.8539 5.46767 20.9324 5.73911 21.0658 5.98455C21.0173 5.64394 21.0677 5.29659 21.2109 4.98378L21.6763 6.52996C21.6761 6.09101 21.7402 5.65439 21.8664 5.23397C21.8814 5.48859 21.9389 5.7389 22.0365 5.97454C22.0026 5.74015 22.0197 5.5012 22.0866 5.274L22.3868 6.60502C22.4364 6.07985 22.5352 5.56049 22.682 5.05383L22.9372 6.0546C22.9171 5.76798 22.9373 5.47996 22.9973 5.19895C23.0423 5.42412 23.0873 5.64429 23.1274 5.86446C23.0687 5.11445 22.9617 4.369 22.8071 3.63275C22.8377 3.96618 22.8293 4.30203 22.7821 4.63351C22.7345 4.20675 22.6214 3.78987 22.4468 3.39757L22.4018 4.81865C22.3294 4.35044 22.2035 3.8921 22.0265 3.45261V4.50342L21.9365 3.94799C21.9619 4.27019 21.9366 4.59438 21.8614 4.90873C21.7445 4.44787 21.5767 4.00145 21.361 3.57771V4.92374L21.0007 3.39257C21.0007 3.83791 21.0007 4.27825 21.0007 4.72359C20.9157 4.38333 20.8356 4.04807 20.7506 3.72282L20.7956 4.60849L20.6905 3.90796C20.7305 4.13313 20.7205 4.33829 20.7055 4.54845Z" fill="#8F5C2C"/>
<path fill-rule="evenodd" clip-rule="evenodd" d="M26.145 11.0585C26.5177 10.6798 26.7324 10.1735 26.7454 9.64236C26.7552 9.4309 26.715 9.2201 26.6281 9.02709C26.5412 8.83407 26.4099 8.66428 26.245 8.53151C26.0048 8.27132 25.6146 7.74091 25.2793 7.84599C25.7447 8.58656 26.225 9.41219 26.1149 10.2829C26.0937 10.515 26.0154 10.7384 25.8871 10.933C25.7588 11.1277 25.5844 11.2876 25.3794 11.3987C25.524 11.4007 25.6673 11.3713 25.7995 11.3126C25.9317 11.2538 26.0495 11.1671 26.145 11.0585Z" fill="#754C24"/>
<path d="M22.2469 16.6077C22.0053 16.9447 21.6838 17.2163 21.3112 17.3983C20.8461 17.6026 20.3238 17.6359 19.8366 17.4921C19.3494 17.3483 18.9288 17.0368 18.6492 16.6127H18.6842L19.0845 16.5526C19.3764 16.5135 19.6708 16.4968 19.9652 16.5026C20.1353 16.5026 20.3004 16.5026 20.4656 16.5026C20.6307 16.5026 20.7958 16.5026 20.9659 16.5026C21.2587 16.4968 21.5514 16.5135 21.8416 16.5526L22.2469 16.6127V16.6077Z" fill="#F0936A"/>
<path d="M18.649 16.6027C18.6955 16.6235 18.7458 16.6343 18.7967 16.6343C18.8475 16.6343 18.8978 16.6235 18.9443 16.6027L19.0493 16.5476C19.3412 16.5085 19.6356 16.4918 19.93 16.4976C20.1002 16.4976 20.2653 16.4976 20.4304 16.4976C20.5955 16.4976 20.7607 16.4976 20.9308 16.4976C21.2235 16.4918 21.5163 16.5085 21.8065 16.5476L21.9165 16.6027C21.963 16.6235 22.0133 16.6343 22.0642 16.6343C22.115 16.6343 22.1653 16.6235 22.2118 16.6027C22.1231 16.6758 22.0183 16.7267 21.906 16.751C21.7937 16.7754 21.6772 16.7726 21.5663 16.7428C21.3792 16.6827 21.1779 16.6827 20.9908 16.7428C20.8178 16.8616 20.6187 16.9371 20.4104 16.9629C20.2018 16.938 20.0025 16.8625 19.8299 16.7428C19.6445 16.6827 19.4449 16.6827 19.2595 16.7428C19.1489 16.7724 19.0328 16.7757 18.9207 16.7522C18.8085 16.7287 18.7035 16.6792 18.614 16.6077L18.649 16.6027Z" fill="#DE7A4E"/>
<path d="M21.9668 16.4876C21.7722 16.4108 21.5833 16.3205 21.4013 16.2174C21.2214 16.1132 21.0093 16.0793 20.8059 16.1223C20.6874 16.1818 20.561 16.224 20.4306 16.2474C20.2999 16.2247 20.1734 16.1826 20.0553 16.1223C19.8519 16.0793 19.6398 16.1132 19.4599 16.2174C19.2779 16.3205 19.0889 16.4108 18.8944 16.4876C18.8116 16.5322 18.718 16.5525 18.6242 16.5463C18.5304 16.5402 18.4402 16.5077 18.364 16.4526C18.4779 16.5634 18.6177 16.6438 18.7706 16.6867C18.9236 16.7295 19.0849 16.7333 19.2397 16.6978C19.4285 16.6294 19.6309 16.6071 19.8301 16.6327C20.0177 16.7278 20.2213 16.7872 20.4306 16.8079C20.6397 16.7864 20.8432 16.7271 21.0311 16.6327C21.2302 16.6075 21.4326 16.6298 21.6215 16.6978C21.7756 16.7329 21.936 16.7288 22.0881 16.686C22.2401 16.6432 22.3791 16.5629 22.4922 16.4526C22.4165 16.5067 22.3273 16.5386 22.2345 16.5448C22.1416 16.551 22.0489 16.5312 21.9668 16.4876Z" fill="#ED966F"/>
</svg>
