<svg width="68" height="101" viewBox="0 0 68 101" fill="none" xmlns="http://www.w3.org/2000/svg">
<path fill-rule="evenodd" clip-rule="evenodd" d="M24.3474 23.8925C25.1062 27.0109 24.996 30.2985 23.9324 31.7697C23.66 32.1474 22.5121 32.4439 21.308 32.6965C19.6651 33.0255 17.6006 33.2873 16.7143 33.4865C14.211 34.0449 13.8932 37.5364 14.025 38.952C14.198 40.8054 15.7674 40.4903 16.2149 42.0264C17.9832 48.0965 19.771 55.712 20.2639 58.5872L36.2609 58.6451L40.2061 41.4124L44 38.5813C43.9373 31.9713 37.7871 33.6765 34.5963 32.291C32.0022 31.1604 31.7601 28.8158 31.9741 24.0083L24.3474 23.8925Z" fill="#F1B287"/>
<path fill-rule="evenodd" clip-rule="evenodd" d="M43.2226 39.0968L44 38.4977C43.9392 31.8731 37.9774 33.5821 34.8844 32.1935C32.3698 31.0604 32.1351 28.7106 32.3426 23.8925H32.2545C32.1225 28.6502 31.3975 30.6587 33.2059 32.2701C33.8005 32.7194 34.4594 33.0539 35.1548 33.2593C37.2733 33.9559 40.7477 33.7864 42.0344 35.2423C42.5897 35.8599 42.9711 37.2601 43.2226 39.0968Z" fill="#F5BC95"/>
<path fill-rule="evenodd" clip-rule="evenodd" d="M38.91 52.4467C38.9314 52.8132 39.0215 55.0964 39.043 55.4651C39.2275 58.9297 39.0537 56.0615 39.0666 58.0305C39.0666 58.8682 39.4956 60.8304 40.0876 61.8138C40.7955 62.9861 41.7458 63.0999 42.4665 62.9223C43.5068 62.6628 44.3091 61.0626 44.7102 58.5791C45.3409 54.6775 44.8261 51.6705 44.2683 45.1602C43.9616 41.5796 44.2683 38.2493 43.7535 36.1233C43.4961 35.0716 42.5244 33.9653 41.6278 33.4941C39.6758 32.472 37.4642 33.3279 35.0382 32.5836C34.8236 32.5153 35.5937 33.6785 35.3706 33.5829C37.6122 41.2336 36.8464 39.0597 38.91 52.4467Z" fill="#ED327D"/>
<path fill-rule="evenodd" clip-rule="evenodd" d="M29.3854 51.043C29.1116 49.5076 28.4272 45.6538 30 42.3549C28.6627 46.4088 29.7563 50.5084 29.7632 50.6174L29.3854 51.043Z" fill="#E8A476"/>
<path fill-rule="evenodd" clip-rule="evenodd" d="M28.2292 51.0431C28.7767 49.6996 30.1456 46.3275 27 43.4409C29.6747 46.9881 27.4846 50.5753 27.4736 50.6706L28.2292 51.0431Z" fill="#F5BC95"/>
<path fill-rule="evenodd" clip-rule="evenodd" d="M24.6005 23.8925C25.2997 26.3005 25.4404 30.0195 24 31.4946C29.4215 31.3521 31.4247 27.7454 31.8929 25.9895C31.8824 25.1472 31.9475 25.1256 32 23.9918L24.6005 23.8925Z" fill="#E8A476"/>
<path fill-rule="evenodd" clip-rule="evenodd" d="M19.8036 55.5832C20.2604 57.8018 20.5319 60.0598 20.6147 62.3304C20.9525 74.5092 13.3471 74.4814 14.8187 89.8775C14.9585 91.339 15.1629 92.833 15.4146 94.4266L16.1956 101H40.4404L41.2149 94.4266C41.4645 92.833 41.671 91.339 41.8109 89.8775C42.9081 78.3912 38.9559 75.4867 37.0174 69.6984C35.6104 65.3485 35.9675 62.2031 36.7421 57.8856L37.7963 53.2531C37.8694 52.5582 42.5833 48.572 38.3815 44.0901C38.6848 40.6157 39.1495 36.7152 39.8875 33.447C38.2373 33.1088 36.4645 33.0787 35.1134 32.5807C36.5915 41.3824 32.1594 45.2042 28.3922 45.0282C24.7348 44.8568 21.7227 40.8172 21.6539 32.8957C20.6879 33.0903 19.5153 33.2038 18.5364 33.3034C16.3656 33.3427 15.3092 33.9727 14.4895 36.1315C13.1513 39.6614 14.4551 45.5238 14.4164 47.7127C14.3281 52.6509 14.724 52.4355 13.5278 56.3546C12.7726 58.8237 13.0287 58.196 13.0975 59.8289C13.2051 62.1451 14.8187 64.2715 16.03 64.3062C16.8454 64.3294 17.8738 64.3572 18.3729 63.0022C19.6164 59.6506 19.5153 59.0923 19.8036 55.5832Z" fill="#ED327D"/>
<path fill-rule="evenodd" clip-rule="evenodd" d="M44.2231 60.8172C44.4436 60.1381 44.6079 59.4393 44.7141 58.7289C45.3363 54.8171 44.8284 51.8022 44.2781 45.2748C43.9755 41.6848 44.2781 38.3458 43.7702 36.2141C43.5162 35.1597 42.5575 34.0505 41.6729 33.5781C40.0518 32.7153 38.2486 33.1878 36.291 32.9185C35.8531 32.8428 35.4214 32.7298 35 32.5807C35.0571 32.9185 35.1037 33.2471 35.1418 33.5712C37.2899 34.2194 40.7036 34.0802 41.9819 35.486C43.1797 36.8029 43.584 41.5866 43.5819 46.5757C43.5819 51.1631 44.9638 54.9632 44.2231 60.8172Z" fill="#FF61A0"/>
<path fill-rule="evenodd" clip-rule="evenodd" d="M40.3495 101L41.1692 94.386C41.4333 92.7826 41.6519 91.2794 41.7999 89.8088C42.9611 78.2518 38.7784 75.3293 36.7269 69.5054C35.2378 65.1287 35.6157 61.9638 36.4354 57.6197L37.5511 52.9587L35.8662 52.129C33.9513 58.4214 33.2614 64.9189 34.9896 70.8547C36.2168 75.0753 37.9951 76.1963 39.0038 82.9058C39.6072 86.9097 39.1518 92.6497 38.1978 101H40.3495Z" fill="#FF61A0"/>
<path fill-rule="evenodd" clip-rule="evenodd" d="M19.7766 55.5532C20.221 57.8597 20.465 60.2115 20.5052 62.5738C20.7041 60.9432 20.8691 59.3164 21 57.6934L19.8768 52.4008L18.2823 52.129C18.783 54.2239 19.1757 61.0383 17 64.0753C17.6755 63.9349 18.2057 63.6359 18.5533 62.6259C19.6843 59.3307 19.5135 58.9842 19.7766 55.5532Z" fill="#FF61A0"/>
<path fill-rule="evenodd" clip-rule="evenodd" d="M21.9668 32.5807H21.9359H21.9193H21.9027H21.8718H21.7911H21.7745H21.7081H21.6915H21.5941H21.5775H21.4446H21.428H21.1551H21.1384H21.1218H21.1052H21.0008H20.9842H20.8964C20.1013 32.6853 19.2658 32.7637 18.5229 32.8326C16.1282 32.873 14.9628 33.5194 14.0585 35.7342C12.5823 39.3558 14.0206 45.3706 13.9778 47.6163C13.8805 52.678 14.3172 52.457 13 56.4732C15.9098 54.1657 15.1005 51.0953 14.9438 47.7541C14.8774 46.3425 14.7326 44.5649 14.7065 43.1415C14.5878 38.3696 14.7065 36.1619 16.6835 35.007C18.6606 33.8521 20.481 33.6121 22 33.4457C21.981 33.2675 21.9715 32.9276 21.9668 32.5807Z" fill="#D92E72"/>
<path fill-rule="evenodd" clip-rule="evenodd" d="M21.2101 13.5728C20.5672 12.4515 19.8086 13.2158 20.0438 14.5751C20.2398 15.6826 20.673 16.9411 20.9161 18.2042C21.0827 19.0692 21.3492 19.6847 22 19.5223L21.9275 15.9206L21.2101 13.5728Z" fill="#F1B287"/>
<path fill-rule="evenodd" clip-rule="evenodd" d="M21.6152 15.493C21.0516 14.9159 20.848 15.2817 21.1186 15.9087C21.3148 16.3631 21.4886 17.2991 22 17.3764L21.6152 15.493Z" fill="#975B36"/>
<path fill-rule="evenodd" clip-rule="evenodd" d="M20.8998 13.1591C20.4428 12.8756 20.0978 13.0939 20.0153 13.5505C19.8826 14.2179 20.6521 15.505 20.8998 16.2903C20.8319 15.2064 20.0536 14.1526 20.2128 13.568C20.3101 13.2093 20.6521 13.1465 21 13.4702C20.9617 13.3523 20.9292 13.2494 20.8998 13.1591Z" fill="#E8A476"/>
<path fill-rule="evenodd" clip-rule="evenodd" d="M20 16.2903C20.6618 17.4184 20.8521 18.0276 21.6076 18.26L22 19.5122C21.0688 19.7964 20.7028 18.3231 20.6237 17.9892C20.5066 17.5222 20.1611 17.0439 20 16.2903Z" fill="#E8A476"/>
<path fill-rule="evenodd" clip-rule="evenodd" d="M34.9452 19.5483C34.5931 22.4714 33.6971 24.6093 32 25.881V26.0645C34.0413 25.0339 35.2815 21.4238 34.9452 19.5483Z" fill="#1F0300"/>
<path fill-rule="evenodd" clip-rule="evenodd" d="M31.6978 1.86574C33.1189 0.432872 35.2805 1.08244 36.6057 2.93801C39.7553 7.3608 36.6974 11.9675 35.893 16.6219C34.7897 23.0149 34.3993 23.7863 32.2398 26.0646C32.2964 25.609 32.2964 25.1469 32.2398 24.6914C31.7469 21.6083 33.3067 17.2333 33.6161 13.9305C33.9383 10.5227 33.0272 5.00851 31 2.21441L31.6978 1.86574Z" fill="#400E01"/>
<path fill-rule="evenodd" clip-rule="evenodd" d="M35.7887 13.5728C36.4342 12.4515 37.1915 13.2158 36.9561 14.5751C36.7599 15.6826 36.3263 16.9411 36.085 18.2042C35.9182 19.0692 35.6514 19.6847 35 19.5223L35.0706 15.9206L35.7887 13.5728Z" fill="#F1B287"/>
<path fill-rule="evenodd" clip-rule="evenodd" d="M31.6401 1.90545C31.8884 1.61448 32.1807 1.39251 32.4987 1.2534C32.8167 1.11429 33.1536 1.06103 33.4883 1.09693C32.7451 1.27215 32.2315 1.61258 32.465 1.86039C32.6051 2.01058 33.1673 2.1883 33.7607 2.53374C35.037 3.28468 35.6809 4.42862 36 6.01312C35.2957 4.23588 35.0914 4.15328 33.7568 3.32724C34.107 3.97305 34.216 4.60384 34.4027 5.25716C34.8988 7.00937 35.8521 11.2072 35.2646 13.1171L33.4144 14.1183C33.609 10.5263 32.7782 5.07694 31 2.26089L31.6401 1.90545Z" fill="#1F0300"/>
<path fill-rule="evenodd" clip-rule="evenodd" d="M31.4968 25.2712C32.4268 24.3866 33.2208 23.3444 33.8486 22.1844C34.8237 20.4625 35.206 19.2785 35.6141 16.3116C35.9255 14.0352 36.1832 11.6673 35.8289 9.52019C35.1738 5.33402 32.663 2.15329 28.6016 2.17208C24.1041 2.18852 21.9048 4.14066 21.2455 8.84599C20.8159 11.921 20.9899 13.9037 21.4602 16.4971C21.9864 19.3678 22.4418 20.984 23.5565 22.6965C24.1152 23.6084 24.7753 24.4409 25.5217 25.1749C26.9628 26.5444 27.7425 27.1505 28.5457 27.1505C29.349 27.1505 30.2146 26.5186 31.4968 25.2712Z" fill="#F1B287"/>
<path fill-rule="evenodd" clip-rule="evenodd" d="M34.8813 19.5483C35.2191 18.4629 35.4597 17.3493 35.6001 16.2207C35.9228 14.0523 36.1899 11.7966 35.8227 9.75125C35.582 8.18082 34.9556 6.69557 34 5.43005C34.0512 5.65383 34.1869 5.87761 34.1424 6.10139C34 6.82868 34.1001 9.43124 34.7322 11.716C35.5222 14.605 34.8791 16.6705 34.8813 19.5483Z" fill="#F5BC95"/>
<path fill-rule="evenodd" clip-rule="evenodd" d="M23.3854 4.34412C22.2407 5.41932 21.5543 7.07546 21.237 9.41092C20.8222 12.4772 20.9902 14.4543 21.4444 17.0404C21.9524 19.9029 22.3921 21.5145 23.4684 23.2222C24.0079 24.1315 24.6453 24.9617 25.3659 25.6935C25.8796 26.222 26.4257 26.7089 27 27.1506C24.9822 24.787 24.6483 21.7863 23.6301 19.9872C20.675 14.7776 20.7994 11.5543 23.3854 4.34412Z" fill="#E8A476"/>
<path fill-rule="evenodd" clip-rule="evenodd" d="M30.6596 15.2421C30.4742 15.455 30.2074 15.7156 30.1011 15.8807C29.9948 16.0458 29.9405 16.185 30.1011 16.2507C30.3091 16.3302 30.6732 16.2686 31.044 16.2507C32.0797 16.2069 32.0254 16.2507 33 15.9603L31.84 15.2043L30.6596 15.2421Z" fill="#FACCAD"/>
<path fill-rule="evenodd" clip-rule="evenodd" d="M31 15.8943C31.5372 12.7944 34.2229 13.4732 35 13.0322C34.8335 14.673 33.8487 16.0092 33.1271 16.239C32.5094 16.4314 31.761 16.0305 31 15.8943Z" fill="#B87244"/>
<path fill-rule="evenodd" clip-rule="evenodd" d="M30.0338 16.0457C30.5139 14.9975 31.366 14.4654 32.0236 14.3352C32.8733 14.1662 34.1839 14.269 35 14.1183C34.3495 15.2053 33.5598 16.0685 32.9574 16.2215C32.6235 16.2862 32.2816 16.3054 31.942 16.2786C31.39 16.2535 30.7251 16.1644 30.1874 16.2786C30.0434 16.3106 29.945 16.2467 30.0338 16.0457Z" fill="black"/>
<path fill-rule="evenodd" clip-rule="evenodd" d="M31.0424 16.0532C31.5681 14.8925 32.072 14.3278 32.4885 14.1812C32.905 14.0345 33.4491 14.1812 34 14.2498C33.5919 15.5852 33.2426 16.0189 32.8596 16.2061C32.6492 16.2863 32.4337 16.3094 32.2197 16.2747C31.8738 16.2435 31.4556 16.1374 31.1163 16.2747C31.0206 16.3153 30.9517 16.2529 31.0424 16.0532Z" fill="white"/>
<path fill-rule="evenodd" clip-rule="evenodd" d="M32.5587 16.0859C32.7324 16.0859 32.9022 16.0299 33.0466 15.9251C33.1911 15.8203 33.3036 15.6714 33.3701 15.4971C33.4366 15.3228 33.454 15.131 33.4201 14.946C33.3862 14.7609 33.3026 14.591 33.1797 14.4576C33.0569 14.3242 32.9004 14.2334 32.73 14.1966C32.5597 14.1597 32.3831 14.1786 32.2226 14.2508C32.0621 14.323 31.9249 14.4453 31.8284 14.6021C31.7319 14.759 31.6804 14.9434 31.6804 15.1321C31.681 15.3848 31.7737 15.6271 31.9383 15.8058C32.1029 15.9846 32.3259 16.0853 32.5587 16.0859Z" fill="#005928"/>
<path fill-rule="evenodd" clip-rule="evenodd" d="M32.1496 14.8413L31.8754 14.9902C31.8468 15.1294 31.8534 15.2743 31.8943 15.4098C31.9352 15.5453 32.0089 15.6663 32.1078 15.7601C32.2067 15.8539 32.327 15.917 32.4561 15.9428C32.5852 15.9687 32.7183 15.9562 32.8415 15.9068C33.1757 15.7765 33.4841 15.295 33.2249 14.6761L32.9786 14.7087C33.0286 14.7788 33.0624 14.8609 33.077 14.9482C33.0916 15.0354 33.0866 15.1252 33.0624 15.2099C33.0382 15.2947 32.9956 15.3718 32.9381 15.4348C32.8806 15.4978 32.81 15.5448 32.7322 15.5718C32.4709 15.6602 32.1046 15.523 32.1496 14.8413Z" fill="#057D3B"/>
<path fill-rule="evenodd" clip-rule="evenodd" d="M32.6079 15.4229C32.6856 15.4233 32.7617 15.3987 32.8265 15.3521C32.8913 15.3055 32.9419 15.239 32.9718 15.1611C33.0017 15.0833 33.0097 14.9975 32.9946 14.9147C32.9796 14.8319 32.9422 14.7558 32.8872 14.6961C32.8323 14.6364 32.7622 14.5958 32.686 14.5795C32.6097 14.5631 32.5307 14.5718 32.459 14.6043C32.3873 14.6368 32.3261 14.6917 32.2832 14.7621C32.2403 14.8324 32.2176 14.9151 32.218 14.9995C32.2186 15.1116 32.2598 15.2189 32.3328 15.2982C32.4058 15.3775 32.5047 15.4223 32.6079 15.4229Z" fill="black"/>
<path fill-rule="evenodd" clip-rule="evenodd" d="M32.1989 15.4322C32.2443 15.4321 32.2887 15.4172 32.3263 15.3894C32.3638 15.3617 32.3929 15.3223 32.4096 15.2764C32.4263 15.2305 32.43 15.1803 32.4202 15.1321C32.4103 15.0839 32.3874 15.0401 32.3543 15.0062C32.3213 14.9723 32.2796 14.95 32.2348 14.9421C32.1899 14.9342 32.1439 14.9412 32.1027 14.962C32.0615 14.9828 32.027 15.0166 32.0037 15.0589C31.9803 15.1013 31.9692 15.1503 31.9718 15.1995C31.9751 15.2625 32.0005 15.3217 32.0427 15.3649C32.0849 15.4082 32.1408 15.4323 32.1989 15.4322Z" fill="white"/>
<path fill-rule="evenodd" clip-rule="evenodd" d="M33.1371 15.73C33.2013 15.73 33.2628 15.7023 33.3082 15.653C33.3536 15.6037 33.3791 15.5368 33.3791 15.4671C33.3791 15.3974 33.3536 15.3305 33.3082 15.2812C33.2628 15.2319 33.2013 15.2042 33.1371 15.2042C33.0729 15.2042 33.0113 15.2319 32.9659 15.2812C32.9205 15.3305 32.895 15.3974 32.895 15.4671C32.895 15.5368 32.9205 15.6037 32.9659 15.653C33.0113 15.7023 33.0729 15.73 33.1371 15.73Z" fill="#0ABD5A"/>
<path fill-rule="evenodd" clip-rule="evenodd" d="M30.2544 12.7548C31.4045 12.3036 32.5545 12.0134 33.4538 11.9517C34.1944 11.9021 34.8569 12.2044 36 12.3562C34.6407 12.3562 34.0334 12.0991 33.5596 12.1337C32.8834 12.1833 32.4625 12.3833 30.9146 12.9728C30.7224 13.0368 30.4999 13.0497 30.2935 13.0089C30.0911 12.9743 29.7691 12.9397 30.2544 12.7548Z" fill="#400E01"/>
<path fill-rule="evenodd" clip-rule="evenodd" d="M29.006 19.8846C29.1806 19.7519 29.3678 19.647 29.5632 19.5725C29.6095 19.5516 29.659 19.5441 29.708 19.5506C29.7569 19.5572 29.8041 19.5776 29.8458 19.6102C29.8876 19.6429 29.9228 19.687 29.949 19.7392C29.9751 19.7915 29.9915 19.8505 29.9968 19.9117C30.0401 20.346 29.6369 20.4546 29.3463 20.4844C29.1851 20.5024 29.025 20.5341 28.8672 20.5794C28.625 20.6527 28.3723 20.6527 28.13 20.5794C27.973 20.5339 27.8136 20.5022 27.6531 20.4844C27.3669 20.46 26.9636 20.346 27.0026 19.9117C27.0079 19.8505 27.0243 19.7915 27.0504 19.7392C27.0766 19.687 27.1118 19.6429 27.1536 19.6102C27.1954 19.5776 27.2425 19.5572 27.2915 19.5506C27.3404 19.5441 27.3899 19.5516 27.4363 19.5725C27.6483 19.6478 27.8522 19.7553 28.0433 19.8927C28.4596 20.1289 28.6092 20.1289 29.006 19.8846Z" fill="#E8A476"/>
<path fill-rule="evenodd" clip-rule="evenodd" d="M29 20.6344C29.1561 20.3125 29.324 20.0193 29.5018 19.7578C29.657 19.5707 29.8461 19.4692 29.9358 19.6242C29.9646 19.6806 29.985 19.7549 29.9943 19.8373C30.0036 19.9197 30.0015 20.0063 29.9881 20.086C29.9748 20.1656 29.9508 20.2346 29.9194 20.2838C29.8881 20.333 29.8507 20.3601 29.8122 20.3618C29.5394 20.4204 29.2683 20.5114 29 20.6344Z" fill="#975B36"/>
<path fill-rule="evenodd" clip-rule="evenodd" d="M28 20.6344C27.8436 20.3125 27.676 20.0181 27.4988 19.7537C27.3438 19.5668 27.1549 19.4708 27.0653 19.6255C27.0362 19.6811 27.0155 19.7549 27.0059 19.8372C26.9963 19.9194 26.9984 20.0061 27.0119 20.0857C27.0253 20.1653 27.0495 20.2339 27.0811 20.2823C27.1127 20.3308 27.1503 20.3568 27.1888 20.3568C27.506 20.4209 27.6876 20.5116 28 20.6344Z" fill="#975B36"/>
<path fill-rule="evenodd" clip-rule="evenodd" d="M28.385 16.2449C28.3359 17.0251 28.2704 17.7752 28.2151 18.463C28.168 19.0562 27.994 19.1078 28.0002 19.2346C28.0063 19.3614 28.1353 19.4968 28.5099 19.5484C28.8272 19.4474 28.9849 19.3593 28.9992 19.2475C29.0135 19.1358 28.8334 19.0584 28.7945 18.4974C28.7412 17.8526 28.7842 17.1089 28.7515 16.2449C28.6942 14.8457 28.471 14.8693 28.385 16.2449Z" fill="#F5BC95"/>
<path fill-rule="evenodd" clip-rule="evenodd" d="M27.0166 13.8425C27.5974 14.4724 28.4568 17.266 27.7076 19.5484C28.0357 16.5174 27.0317 14.7143 25 13.0322L27.0166 13.8425Z" fill="#E8A476"/>
<path fill-rule="evenodd" clip-rule="evenodd" d="M35.5265 9.77417C36.2127 13.0014 36.0882 14.9116 35.5664 17.4803C34.993 20.3339 34.4712 21.8565 33.2515 23.5518C32.6077 24.4781 31.8515 25.322 31 26.0645C32.9436 22.8162 32.4524 22.2184 33.5265 20.2709C35.9354 15.9111 35.785 15.0937 35.5265 9.77417Z" fill="#F5BC95"/>
<path fill-rule="evenodd" clip-rule="evenodd" d="M22.2242 18.4623L21 15.2905L25.6272 9.3818L32.4332 5.43005C32.358 5.87439 33.5906 5.95238 34 6.20764C33.1393 8.47422 31.1944 10.0861 29.2245 11.3388C25.8507 13.4659 22.1427 13.4139 22.2242 18.4623Z" fill="#E8A476"/>
<path fill-rule="evenodd" clip-rule="evenodd" d="M26.3416 15.2421C26.5289 15.455 26.7928 15.7156 26.9011 15.8807C27.0094 16.0458 27.059 16.185 26.8898 16.2507C26.6845 16.3302 26.3213 16.2686 25.9514 16.2507C24.9159 16.2069 24.97 16.2507 24 15.9603L25.155 15.2043L26.3416 15.2421Z" fill="#FACCAD"/>
<path fill-rule="evenodd" clip-rule="evenodd" d="M26 15.8943C25.4626 12.7944 22.7756 13.4732 22 13.0322C22.1648 14.673 23.15 16.0092 23.8737 16.239C24.481 16.4314 25.2315 16.0305 26 15.8943Z" fill="#B87244"/>
<path fill-rule="evenodd" clip-rule="evenodd" d="M25.9729 16.0456C25.5887 14.9974 24.9067 14.4654 24.3803 14.3352C23.7002 14.1662 22.6513 14.269 22 14.1183C22.5187 15.2052 23.1527 16.0684 23.633 16.2214C23.9009 16.2863 24.1751 16.3055 24.4476 16.2785C24.8875 16.2534 25.4197 16.1643 25.85 16.2785C25.9653 16.3105 26.044 16.2465 25.9729 16.0456Z" fill="black"/>
<path fill-rule="evenodd" clip-rule="evenodd" d="M25.9587 16.0532C25.4315 14.8925 24.9277 14.3278 24.5113 14.1812C24.0948 14.0345 23.5508 14.1812 23 14.2498C23.4097 15.5852 23.7573 16.0189 24.1402 16.2061C24.3505 16.2863 24.566 16.3094 24.78 16.2747C25.1275 16.2435 25.5457 16.1374 25.8832 16.2747C25.9789 16.3153 26.0477 16.2529 25.9587 16.0532Z" fill="white"/>
<path fill-rule="evenodd" clip-rule="evenodd" d="M24.3885 16.0859C24.5622 16.0859 24.732 16.0299 24.8765 15.9251C25.0209 15.8203 25.1335 15.6714 25.2 15.4971C25.2664 15.3228 25.2838 15.131 25.2499 14.946C25.2161 14.7609 25.1324 14.591 25.0096 14.4576C24.8867 14.3242 24.7302 14.2334 24.5599 14.1966C24.3895 14.1597 24.2129 14.1786 24.0524 14.2508C23.8919 14.323 23.7548 14.4453 23.6583 14.6021C23.5618 14.759 23.5103 14.9434 23.5103 15.1321C23.5108 15.3848 23.6035 15.6271 23.7681 15.8058C23.9327 15.9846 24.1558 16.0853 24.3885 16.0859Z" fill="#005928"/>
<path fill-rule="evenodd" clip-rule="evenodd" d="M24.802 14.8413L25.0761 14.9902C25.1045 15.1291 25.0979 15.2737 25.0571 15.4089C25.0162 15.5441 24.9427 15.6649 24.8441 15.7586C24.7456 15.8523 24.6256 15.9155 24.4969 15.9416C24.3681 15.9677 24.2352 15.9557 24.1122 15.9068C23.7759 15.7765 23.4695 15.295 23.7287 14.6761L23.9729 14.7087C23.9229 14.7788 23.8891 14.8609 23.8745 14.9482C23.8599 15.0354 23.865 15.1252 23.8891 15.2099C23.9133 15.2947 23.9559 15.3718 24.0134 15.4348C24.0709 15.4978 24.1415 15.5448 24.2193 15.5718C24.4806 15.6602 24.8469 15.523 24.802 14.8413Z" fill="#057D3B"/>
<path fill-rule="evenodd" clip-rule="evenodd" d="M24.3457 15.4229C24.4234 15.4233 24.4995 15.3987 24.5643 15.3521C24.6291 15.3055 24.6797 15.239 24.7096 15.1611C24.7395 15.0833 24.7475 14.9975 24.7324 14.9147C24.7174 14.8319 24.68 14.7558 24.625 14.6961C24.5701 14.6364 24.5 14.5958 24.4238 14.5795C24.3475 14.5631 24.2685 14.5718 24.1968 14.6043C24.1251 14.6368 24.0639 14.6917 24.021 14.7621C23.9781 14.8324 23.9554 14.9151 23.9558 14.9995C23.9564 15.1116 23.9976 15.2189 24.0706 15.2982C24.1436 15.3775 24.2425 15.4223 24.3457 15.4229Z" fill="black"/>
<path fill-rule="evenodd" clip-rule="evenodd" d="M24.7548 15.4322C24.8002 15.4321 24.8446 15.4172 24.8822 15.3894C24.9197 15.3617 24.9488 15.3223 24.9655 15.2764C24.9822 15.2305 24.9859 15.1803 24.9761 15.1321C24.9662 15.0839 24.9433 15.0401 24.9102 15.0062C24.8772 14.9723 24.8355 14.95 24.7907 14.9421C24.7458 14.9342 24.6998 14.9412 24.6586 14.962C24.6174 14.9828 24.5829 15.0166 24.5596 15.0589C24.5362 15.1013 24.5251 15.1503 24.5277 15.1995C24.5277 15.2313 24.5336 15.2627 24.5452 15.2919C24.5567 15.3211 24.5737 15.3474 24.5949 15.3692C24.6162 15.391 24.6414 15.4078 24.6688 15.4186C24.6963 15.4295 24.7256 15.4341 24.7548 15.4322Z" fill="white"/>
<path fill-rule="evenodd" clip-rule="evenodd" d="M23.8165 15.73C23.8644 15.73 23.9112 15.7146 23.951 15.6857C23.9908 15.6568 24.0218 15.6157 24.0402 15.5677C24.0585 15.5197 24.0633 15.4668 24.0539 15.4158C24.0446 15.3648 24.0215 15.318 23.9877 15.2812C23.9538 15.2445 23.9107 15.2194 23.8637 15.2093C23.8168 15.1991 23.7681 15.2043 23.7239 15.2242C23.6797 15.2441 23.6419 15.2778 23.6153 15.3211C23.5887 15.3643 23.5745 15.4151 23.5745 15.4671C23.575 15.5366 23.6007 15.6032 23.646 15.6523C23.6913 15.7015 23.7525 15.7294 23.8165 15.73Z" fill="#0ABD5A"/>
<path fill-rule="evenodd" clip-rule="evenodd" d="M26.7439 12.7547C25.5937 12.3036 24.4551 12.0134 23.5465 11.9517C22.8057 11.9021 22.141 12.2044 21 12.3562C22.3595 12.3562 22.9645 12.0991 23.4406 12.1337C24.1169 12.1833 24.5379 12.3833 26.086 12.9728C26.2773 13.0368 26.4992 13.0498 26.7048 13.0088C26.9095 12.9743 27.2316 12.9397 26.7439 12.7547Z" fill="#400E01"/>
<path fill-rule="evenodd" clip-rule="evenodd" d="M20.3235 17.3763C17.8351 13.8746 16.6245 6.57626 20.4383 2.75615C23.767 -0.566411 28.668 -0.82816 31.6827 1.66435C31.308 1.78225 33.6903 5.38778 34 5.58586C31.6719 9.79506 22.4286 10.5214 20.3235 17.3763Z" fill="#400E01"/>
<path fill-rule="evenodd" clip-rule="evenodd" d="M20.3241 17.3763C17.8351 13.8746 16.6241 6.57626 20.439 2.75615C23.7686 -0.566411 28.6709 -0.82816 31.6864 1.66435C31.4503 2.74671 33.8289 3.64751 34 5.67311C30.3801 2.75615 21.5633 3.25606 19.397 8.741C21.7799 2.44959 27.2173 1.32007 32.3514 3.38812C29.4963 -0.125447 23.6862 1.22574 21.2751 3.23484C18.1145 5.8594 17.9607 12.1791 20.4086 17.091C20.3826 17.183 20.3523 17.2726 20.3241 17.3763Z" fill="#290700"/>
<path fill-rule="evenodd" clip-rule="evenodd" d="M34 6.20047C34.3777 7.96482 35.9517 10.0692 35.8363 12.6515C35.7825 14.2326 35.6336 15.8099 35.3903 17.3763C35.9779 15.5834 36.7019 13.2246 36.8829 12.2925C37.4076 9.77198 36.117 9.05625 34.0472 5.43005L34 6.20047Z" fill="#400E01"/>
<path fill-rule="evenodd" clip-rule="evenodd" d="M34 6.20047C34.357 7.96482 35.8446 10.0692 35.7355 12.6515C35.6846 14.2326 35.5439 15.8099 35.314 17.3763C36.7148 12.8584 35.8099 9.67449 34.0446 5.43005L34 6.20047Z" fill="#1F0300"/>
<path fill-rule="evenodd" clip-rule="evenodd" d="M26.2968 23.1977C26.4442 23.2381 26.619 23.2651 26.7251 23.292C27.3381 23.446 27.7075 23.6673 28.3147 23.8135L28.3029 23.8924L28.4994 23.8559L28.6958 23.8924L28.6821 23.8135C29.2873 23.6673 29.6645 23.446 30.2736 23.292C30.3777 23.2651 30.5546 23.2381 30.7 23.1977C30.9966 23.1169 31.0576 22.8648 30.9515 22.8128C30.9102 22.7955 30.8395 22.8128 30.755 22.886C30.627 23.0096 30.4587 23.0852 30.2795 23.0996C29.639 23.1958 29.3639 22.9533 28.5269 22.8148H28.5013H28.4758C27.6388 22.9533 27.3637 23.1996 26.7232 23.0996C26.544 23.0852 26.3757 23.0096 26.2477 22.886C26.1553 22.8109 26.0846 22.7955 26.0512 22.8128C25.9412 22.8648 26.0021 23.1169 26.2968 23.1977Z" fill="#472001"/>
<path fill-rule="evenodd" clip-rule="evenodd" d="M27 23.0866C27.3215 23.7451 28.0178 23.9231 28.5504 23.8883C29.0431 23.8556 29.6671 23.6613 30 23.0559L28.9442 22.8064L28.5428 22.9455L28.0444 22.9127L27 23.0866Z" fill="white"/>
<path fill-rule="evenodd" clip-rule="evenodd" d="M29.9303 21.8987C30.3902 22.1015 30.6962 22.4187 31 22.3017C30.6898 22.9621 29.9474 22.8503 29.4467 22.6579C28.8356 22.385 28.1644 22.385 27.5533 22.6579C27.0526 22.8503 26.3102 22.9621 26 22.3017C26.3017 22.4083 26.6098 22.1015 27.0697 21.8987C27.733 21.6049 28.1588 21.6387 28.5011 22.2705C28.8413 21.6517 29.2649 21.6049 29.9303 21.8987Z" fill="#D8323B"/>
<path fill-rule="evenodd" clip-rule="evenodd" d="M31 22.5432C30.8939 22.8296 30.1888 22.8035 30.0606 22.7879C29.8908 22.7641 29.7235 22.7205 29.561 22.6577C28.9296 22.3845 28.2362 22.3845 27.6048 22.6577C27.0875 22.8504 26.3205 22.9623 26 22.3011C26.3117 22.4078 26.63 22.1006 27.1052 21.8976C27.5805 21.6945 27.9054 21.6581 28.1905 21.8299C27.878 21.7889 27.5616 21.8344 27.2666 21.9627C27.0279 22.0616 26.6587 22.2646 26.5902 22.4261C26.4775 22.6864 27.1052 22.6864 27.6424 22.4755C27.9269 22.3642 28.2275 22.3208 28.5265 22.348C29.3289 22.3662 29.6074 22.5692 30.0517 22.7072C30.1578 22.7489 30.7458 22.7775 31 22.5432Z" fill="#940811"/>
<path fill-rule="evenodd" clip-rule="evenodd" d="M27 22.6682C27.2901 23.1619 27.6402 22.1567 28 22.3946C27.7266 20.9671 27.3333 22.1745 27 22.6682Z" fill="#FF757C"/>
<path fill-rule="evenodd" clip-rule="evenodd" d="M28 22.2347C28.7686 22.206 30.2254 23.3137 31 22.5189C30.4399 22.4469 29.4538 21.742 28.9146 21.7205C28.7406 21.7228 28.5691 21.7699 28.4114 21.8586C28.2537 21.9473 28.1134 22.0755 28 22.2347Z" fill="#FF757C"/>
<path fill-rule="evenodd" clip-rule="evenodd" d="M26.9663 23.184C26.7296 23.0689 26.5568 22.9932 26.3627 22.923C26.1686 22.8529 26.0715 22.7799 26.0313 22.8332C25.9129 22.9904 26.1567 23.3945 26.3224 23.6751C26.6614 24.1813 27.1097 24.5692 27.6196 24.7976C28.2895 25.0362 29.0849 25.0783 29.7145 24.6798C30.0134 24.4722 30.278 24.2022 30.4957 23.8828C30.6979 23.616 30.8618 23.3117 30.9809 22.9819C31.0733 22.6732 30.8105 22.85 30.6164 22.9258C30.4223 23.0016 30.1738 23.0942 29.9749 23.2064C28.7109 23.8491 28.2659 23.7846 26.9663 23.184Z" fill="#D8323B"/>
<path fill-rule="evenodd" clip-rule="evenodd" d="M26.8292 23.177C26.6261 23.0615 26.4778 22.9854 26.3112 22.915C26.1447 22.8445 26.0614 22.7713 26.0269 22.8248C25.9253 22.9826 26.1345 23.3883 26.2767 23.67C26.5675 24.1782 26.9522 24.5676 27.3898 24.7969C27.9647 25.0364 28.6472 25.0787 29.1875 24.6786C29.5125 24.4237 29.7906 24.0679 30 23.639C29.1977 25.1322 27.9972 24.9096 27.3858 24.5941C27.0506 24.425 26.6119 23.9179 26.7479 23.6277C26.8272 23.4587 27.2375 23.7151 27.6701 23.8081C28.1835 23.8944 28.7025 23.7311 29.1387 23.346C28.2531 23.8278 27.8469 23.7292 26.8292 23.177Z" fill="#940811"/>
<path fill-rule="evenodd" clip-rule="evenodd" d="M27.6568 23.852C28.5303 23.994 29.3492 23.7664 29.893 23.0919C29.9913 22.9708 30.0393 22.8643 29.9607 22.8225C29.8821 22.7807 29.8908 22.7933 28.9081 23.1963C27.9254 23.5994 27.03 23.3153 27.0016 23.4344C26.9863 23.4949 27.0715 23.756 27.6568 23.852Z" fill="#FF757C"/>
<path fill-rule="evenodd" clip-rule="evenodd" d="M34.121 2.172C35.3319 2.82771 33.4175 2.01262 33 2.56133C34.3173 2.82315 36.9143 3.7407 36.9477 8.31246C36.6157 7.28336 36.0124 5.04073 34.7056 4.78346C36.432 7.7205 36.5406 10.7964 36.2107 14.1182L36.8725 12.1443L36.9477 13.0049C38.8119 9.08656 38.3923 3.299 34.121 2.172Z" fill="#621F02"/>
<path fill-rule="evenodd" clip-rule="evenodd" d="M36 14.1183C36.92 11.5809 37.279 8.45249 36.7631 6.51611C37.1521 10.0192 36.0067 14.0554 36 14.1183Z" fill="#8A3511"/>
<path fill-rule="evenodd" clip-rule="evenodd" d="M34 2.172C37.2248 3.62632 37.3796 7.27866 36.3444 13.0322C37.7371 7.0709 36.8904 3.01721 34 2.172Z" fill="#D1673A"/>
<path fill-rule="evenodd" clip-rule="evenodd" d="M35 4.34412C35.8637 7.00846 35.9321 9.43058 35.805 13.0323C36.0555 9.60256 36.2851 6.72022 35 4.34412Z" fill="#8A3511"/>
<path fill-rule="evenodd" clip-rule="evenodd" d="M31.1221 3.00995C21.7858 -0.326073 16.1653 6.67243 20.4723 17.3763C23.0251 9.87024 29.765 11.0045 34 6.15058C29.3482 3.20773 21.8404 4.39917 19.2483 9.98939C20.3742 2.88127 26.5838 1.83758 31.1221 3.00995Z" fill="#621F02"/>
<path fill-rule="evenodd" clip-rule="evenodd" d="M34 6.51611C29.8891 8.13797 26.2532 8.20087 23.6455 10.2181C20.8452 12.3858 18.5422 17.1256 21.123 20.6344C18.9499 16.8156 22.2252 13.682 24.5909 11.9186C26.5399 10.4652 31.65 9.80252 34 6.51611Z" fill="url(#paint0_linear_1:46572)"/>
<path fill-rule="evenodd" clip-rule="evenodd" d="M35 5.43005C37.4555 8.2381 36.6289 9.66765 36.2295 13.0322C36.9866 9.8004 37.9313 8.02877 35 5.43005Z" fill="#D1673A"/>
<path fill-rule="evenodd" clip-rule="evenodd" d="M33 5.84928C28.1577 4.5496 18.0349 5.99629 20.3351 14.1182C22.3103 7.29384 29.2457 7.84141 33 5.84928Z" fill="url(#paint1_linear_1:46572)"/>
<path fill-rule="evenodd" clip-rule="evenodd" d="M33 6.51611C26.8881 8.55327 20.6556 9.05155 20 17.3763C21.1723 8.25894 29.0802 8.69001 33 6.51611Z" fill="#D1673A"/>
<path fill-rule="evenodd" clip-rule="evenodd" d="M32 7.60217C28.7144 9.98733 24.2624 10.2844 22 14.1183C23.5096 10.2155 27.3179 10.1014 32 7.60217Z" fill="#D1673A"/>
<path fill-rule="evenodd" clip-rule="evenodd" d="M34 5.43005C30.5489 8.13425 21.3333 5.24853 20 15.2042C20.44 5.78611 29.7511 6.93575 34 5.43005Z" fill="url(#paint2_linear_1:46572)"/>
<path fill-rule="evenodd" clip-rule="evenodd" d="M34 5.19612C28.593 1.90662 23.1772 2.63529 20 8.68816C23.2593 3.26153 28.3002 2.30005 34 5.19612Z" fill="#1F0300"/>
<path fill-rule="evenodd" clip-rule="evenodd" d="M33 3.81817C28.7511 -0.625182 22.1867 0.405091 19 6.51617C22.2822 1.02608 28.2978 0.00286138 33 3.81817Z" fill="#1F0300"/>
<path fill-rule="evenodd" clip-rule="evenodd" d="M26 5.43005C21.7311 7.47417 20.8248 8.669 20 13.0322C20.1541 8.63006 21.6292 6.71736 26 5.43005Z" fill="#D1673A"/>
<path fill-rule="evenodd" clip-rule="evenodd" d="M35.3852 15.493C35.9494 14.9159 36.1508 15.2817 35.8823 15.9087C35.686 16.3631 35.512 17.2991 35 17.3764L35.3852 15.493Z" fill="#975B36"/>
<path fill-rule="evenodd" clip-rule="evenodd" d="M36.1002 13.1591C36.554 12.8756 36.8987 13.0939 36.9842 13.5505C37.1197 14.2179 36.3477 15.505 36.1002 16.2903C36.168 15.2064 36.9488 14.1526 36.7897 13.568C36.6924 13.2093 36.3506 13.1465 36 13.4702L36.1002 13.1591Z" fill="#E8A476"/>
<path fill-rule="evenodd" clip-rule="evenodd" d="M37 16.2903C36.3392 17.4184 36.1462 18.0276 35.3918 18.26L35 19.5122C35.9298 19.7964 36.2953 18.3231 36.3743 17.9892C36.4883 17.5222 36.8333 17.0439 37 16.2903Z" fill="#F5BC95"/>
<path fill-rule="evenodd" clip-rule="evenodd" d="M42.9512 62.8175C42.8817 62.8441 42.8101 62.8656 42.7371 62.8818C41.9196 63.0725 40.5474 63.1345 39.7323 61.9629C38.5158 60.2078 38.618 52.5327 38.5158 50.4882C38.4136 48.4436 38.4355 51.5059 38.545 50.4491C38.9951 46.1027 42.2505 46.9321 37.6131 40.7731L37 40.1827C40.9148 41.9999 43.7079 45.6961 40.2384 50.9293C40.2943 51.7655 40.2676 51.9584 40.4355 55.2205C41.8247 56.2451 43.4865 56.9274 43.9828 60.1481C44.2505 61.8894 41.287 62.6521 42.2456 62.7256L42.9512 62.8175Z" fill="#D92E72"/>
<path fill-rule="evenodd" clip-rule="evenodd" d="M38.3374 41.2688C40.0968 43.1923 41 43.676 41 47.0598C41 49.7408 39.4263 52.034 37.3274 53.1566C34.2804 53.4441 30.2918 52.6477 29 51.2878C36.9516 53.9962 41.1623 49.0495 38.3374 41.2688Z" fill="#FF61A0"/>
<path fill-rule="evenodd" clip-rule="evenodd" d="M17.7892 40.1827C16.3226 41.8816 14.4666 43.8693 15.1437 47.8374C15.5157 50.0227 16.8612 51.8055 18.5636 52.7759C20.424 54.0549 25.9617 52.282 27 50.7536C20.2812 53.1956 14.2049 48.5016 17.7589 40.3827L17.7892 40.1827Z" fill="#D92E72"/>
<path fill-rule="evenodd" clip-rule="evenodd" d="M19.8748 55.3138C20.3052 57.5454 20.5609 59.8169 20.639 62.101C20.9572 74.352 13.7918 74.3241 15.1783 89.8114C15.31 91.2816 15.5026 92.7845 15.7398 94.3875L16.4755 101H18.2998C15.9222 77.9681 20.3876 75.7966 22.1511 68.9814C23.6875 63.047 23.0754 58.0445 20.8234 51.5765C20.8234 52.0425 19.5586 49.7125 18.9687 52.2452C18.9079 52.4898 19.9397 55.0179 19.8748 55.3138Z" fill="#D92E72"/>
<path fill-rule="evenodd" clip-rule="evenodd" d="M19.1289 69.6183C17.1487 75.4309 13.0651 78.2809 14.1939 89.7497C14.3369 91.2011 14.5459 92.6848 14.8033 94.2673L15.0233 96.0086C23.6592 100.22 33.8154 99.1967 40.9507 96.3099L41.1971 94.2673C41.4524 92.6848 41.6636 91.2011 41.8066 89.7497C42.9287 78.343 38.8869 75.4585 36.9045 69.7103C36.141 67.4101 35.7824 66.7982 35.5844 63.4399C35.349 59.4812 35.7406 55.8009 36.3545 51.8422C36.6039 50.1405 36.7224 48.4205 36.7087 46.699L19.6306 47.1199C20.4491 51.5708 22.5459 64.9925 19.1289 69.6183Z" fill="#1F1D1F"/>
<path fill-rule="evenodd" clip-rule="evenodd" d="M40.912 96.9177L41.1675 94.8267C41.4322 93.2065 41.6512 91.6877 41.7995 90.2018C42.963 78.5242 38.772 75.5713 36.7164 69.6866C35.9292 67.3506 35.5574 66.7266 35.3475 63.298C35.1193 59.5067 35.457 55.965 36.0319 52.2114L35.8699 52.129C33.9512 58.487 33.2599 65.0523 34.9916 71.05C36.2213 75.3146 38.0031 76.4473 39.0138 83.2268C39.5226 86.6413 39.2784 91.3038 38.6145 97.7419C39.4054 97.4876 40.1713 97.2129 40.912 96.9177Z" fill="#302E2F"/>
<path fill-rule="evenodd" clip-rule="evenodd" d="M35.7443 53.215C33.0356 53.1738 30.0712 52.3323 29 51.043C31.8841 52.1624 34.2717 52.1187 36 51.1845C35.9155 51.8665 35.8289 52.5433 35.7443 53.215Z" fill="#302E2F"/>
<path fill-rule="evenodd" clip-rule="evenodd" d="M21.2634 53.215C23.3748 53.1959 26.3128 52.0887 27 51.0939C24.7817 51.8787 22.6437 51.8066 21 51.043C21.0916 51.7281 21.1737 52.4556 21.2634 53.215Z" fill="black"/>
<path fill-rule="evenodd" clip-rule="evenodd" d="M19.3112 69.4143C17.2606 75.2074 13.0319 78.0478 14.2007 89.4781C14.3488 90.9247 14.5653 92.4034 14.8319 93.9806L15.0597 95.716C15.8025 96.0644 16.5551 96.3778 17.3176 96.6559C15.627 77.5618 20.1747 75.29 22.0452 68.9834C23.7495 63.2269 23.1024 58.3623 20.66 52.129C21.4301 57.9542 21.9063 66.0375 19.3112 69.4143Z" fill="black"/>
<path fill-rule="evenodd" clip-rule="evenodd" d="M35.064 32.5807C35.5807 38.0678 35.3626 41.1844 35 46.699H36.7847C37.1175 42.0883 37.0644 37.4593 36.6259 32.8568C36.0931 32.8476 35.5654 32.7544 35.064 32.5807Z" fill="#1F1D1F"/>
<path fill-rule="evenodd" clip-rule="evenodd" d="M21.936 32.5807C21.4193 38.0555 21.6374 41.1853 22 46.699H20.2153C19.8825 42.0882 19.9356 37.4592 20.3741 32.8567C20.907 32.8487 21.4349 32.7555 21.936 32.5807Z" fill="#1F1D1F"/>
<path fill-rule="evenodd" clip-rule="evenodd" d="M24.5199 25.0123C25.4675 26.5895 24.9516 32.9321 23.5055 38.6934C20.6541 50.1169 20.2376 49.6641 11.3123 52.129C17.8762 49.8533 18.3316 47.4222 20.4966 39.072C17.8848 48.3099 14.9709 51.3539 10 51.764C16.0243 49.8601 13.3974 45.4709 16.0437 36.1496C17.5848 30.7015 24.0753 29.0026 23.7191 23.8925C23.8573 24.1358 24.4465 24.8884 24.5199 25.0123Z" fill="#400E01"/>
<path fill-rule="evenodd" clip-rule="evenodd" d="M24.4947 25.0206C25.4479 26.5452 24.9919 32.4272 23.635 38.0107C24.3533 33.5576 24.6589 30.5699 24.4172 25.6792C24.139 27.1673 23.1698 30.1186 21.8061 32.7189C22.5723 30.4855 23.9885 27.4317 23.9793 25.4011C23.4863 26.6898 22.7191 27.8562 21.7308 28.8196C20.6795 29.9112 19.2223 31.1897 18 32.2381C20.5609 29.476 23.9041 27.5457 23.6395 23.8925C23.7946 24.134 24.4172 24.8952 24.4947 25.0206Z" fill="#1F0300"/>
<path fill-rule="evenodd" clip-rule="evenodd" d="M24.2969 24.9785C25.1866 37.1694 25.0174 46.5915 17 51.043C25.3992 47.3391 25.5829 37.3477 24.5797 25.5775L24.2969 24.9785Z" fill="#1F0300"/>
<path fill-rule="evenodd" clip-rule="evenodd" d="M16 48.8709C18.4675 46.4987 19.9645 39.8813 22 33.6666C17.1755 40.2794 18.6667 44.0966 16 48.8709Z" fill="#290700"/>
<path fill-rule="evenodd" clip-rule="evenodd" d="M24 26.0646C21.5225 30.4464 18.6261 31.7537 17.1441 33.866C14.6149 37.4687 16.9189 45.7043 15 49.957C17.1104 47.1101 17.1757 42.3246 19.2793 38.1939C21.6104 33.6407 23.1464 29.5546 24 26.0646Z" fill="url(#paint3_linear_1:46572)"/>
<path fill-rule="evenodd" clip-rule="evenodd" d="M23 28.2366C14.2082 37.4758 19.0229 47.7189 14 49.957C18.4329 47.7777 13.5951 38.261 23 28.2366Z" fill="#8A3511"/>
<path fill-rule="evenodd" clip-rule="evenodd" d="M22 28.2366C19.1684 31.1425 17.731 32.2199 16.6782 34.5378C13.4333 41.6843 16.378 48.8285 12 51.043C16.1435 48.4656 12.73 41.473 16.3574 34.3333C17.4925 32.1027 18.9381 30.5475 22 28.2366Z" fill="#290700"/>
<path fill-rule="evenodd" clip-rule="evenodd" d="M23 28.2366C15.4779 36.0188 16.0081 34.0644 16.0081 44.5269C16.7547 35.1507 17.1876 35.1649 23 28.2366Z" fill="url(#paint4_linear_1:46572)"/>
<path fill-rule="evenodd" clip-rule="evenodd" d="M23 27.1505C20.6707 32.8093 18.8407 37.5675 17 43.4408C17.495 33.6912 20.4714 31.7837 23 27.1505Z" fill="url(#paint5_linear_1:46572)"/>
<path fill-rule="evenodd" clip-rule="evenodd" d="M23 29.3226C16.8772 38.8511 17.7897 41.4852 17 44.5269C17.5152 41.9578 16.8242 37.4758 23 29.3226Z" fill="#D1673A"/>
<path fill-rule="evenodd" clip-rule="evenodd" d="M23 28.2366C15.6328 35.8672 16.5903 36.9399 16 44.5269C16.6095 39.3724 14.169 36.0785 23 28.2366Z" fill="#D1673A"/>
<path fill-rule="evenodd" clip-rule="evenodd" d="M16 36.9247C14.4768 45.3498 18.1956 50.4044 8 53.215C17.4195 49.2388 12.6983 45.8476 16 36.9247Z" fill="#290700"/>
<path fill-rule="evenodd" clip-rule="evenodd" d="M16 36.9247C15.14 49.7852 15.1481 49.2803 10 52.129C16.8316 49.3313 15.1055 47.2099 16 36.9247Z" fill="#1A0300"/>
<path fill-rule="evenodd" clip-rule="evenodd" d="M15 39.0968C14.3804 48.475 14.4465 50.328 10 52.1291C14.5271 50.3705 13.9632 46.8534 15 39.0968Z" fill="#1A0300"/>
<path fill-rule="evenodd" clip-rule="evenodd" d="M23 31.4946C18.0387 40.0808 20.3007 45.543 14 49.957C20.4282 46.2264 19.6811 38.7025 23 31.4946Z" fill="#1F0300"/>
<path fill-rule="evenodd" clip-rule="evenodd" d="M23.8528 27.1505C24.2456 34.6524 24.6259 50.2057 14 52.129C20.8249 47.5323 21.0659 35.4767 23.8528 27.1505Z" fill="url(#paint6_linear_1:46572)"/>
<path fill-rule="evenodd" clip-rule="evenodd" d="M24 31.4946C23.1634 37.5849 22.1666 45.7621 17 49.957C24.0512 47.7649 23.8576 36.8487 24 31.4946Z" fill="url(#paint7_linear_1:46572)"/>
<path fill-rule="evenodd" clip-rule="evenodd" d="M17 49.957C22.5872 42.8426 22.7765 38.0792 24 29.3226C21.6212 37.7957 20.851 41.803 17 49.957Z" fill="url(#paint8_linear_1:46572)"/>
<path fill-rule="evenodd" clip-rule="evenodd" d="M22.9976 34.7527C22.5957 44.5244 19.6591 48.8082 17 49.957C21.6651 48.1829 23.066 40.9917 22.9976 34.7527Z" fill="#D1673A"/>
<path fill-rule="evenodd" clip-rule="evenodd" d="M23 31.4946C20.08 41.3133 18.7159 46.1494 17 48.871C19.7666 45.4957 20.655 40.4224 23 31.4946Z" fill="#D1673A"/>
<path fill-rule="evenodd" clip-rule="evenodd" d="M40.0969 61.2722C41.0001 64.1325 44.2753 63.022 46.3116 60.8308C49.2491 57.683 51.7267 49.3849 54.0428 45.3197C54.5254 45.3082 55.4432 44.9288 55.9797 44.5126C56.711 43.9447 56.4582 43.9907 57.4443 42.8365C58.2957 41.8432 58.9379 41.4224 58.9938 40.7947C59.0373 40.3141 58.8468 40.1049 58.5464 39.491C58.1818 38.6471 58.0181 37.6952 57.5644 37.4216C57.1253 35.8857 57.2475 36.5019 56.1143 35.4833C56.6074 33.9244 56.6923 33.0667 56.4479 32.7241C56.2034 32.3816 54.4447 32.5977 53.5953 33.975L53.1996 34.3773L53.7755 34.4141L55.1531 33.7611L54.8175 35.4787C54.5399 36.3019 54.1339 36.2444 52.9345 37.4055C51.735 38.5667 52.3482 38.1275 51.9463 38.9667C50.8463 41.266 51.9277 42.4364 51.5755 43.3952C50.4942 46.3291 46.1148 52.4176 43.979 54.0846C41.7148 55.8505 39.5065 59.3914 40.0969 61.2722Z" fill="#F1B287"/>
<path fill-rule="evenodd" clip-rule="evenodd" d="M49.6355 39.0794L50.1932 39.9217L51.3002 43.4409L52 41.3017L51.824 39.0656L50.7319 38.3986C49.6588 36.001 48.4246 35.4656 48.0832 36.0633C47.8647 36.4487 47.9793 37.6648 49.6355 39.0794Z" fill="#E8A476"/>
<path fill-rule="evenodd" clip-rule="evenodd" d="M41 62.9753C45.3903 63.3166 48.3114 57.3416 50.5564 52.1115C51.8436 49.1137 53.1677 46.2334 53.7636 45.2603C54.4574 45.2168 55.129 44.9841 55.7139 44.5846C56.4788 44.0173 56.1841 44.1418 57.2156 42.9865C58.1062 41.988 58.934 41.3723 58.9925 40.7473C59.038 40.2654 58.8733 39.8918 58.5591 39.2853C58.3663 38.1668 58.1777 37.9847 58.0044 38.0285C57.5428 36.488 57.1679 36.5042 55.9717 35.4918C56.4875 33.9283 56.5785 33.0682 56.3206 32.7246C56.0628 32.381 54.2251 32.5977 53.3367 33.9791L52.9228 34.3826L53.5274 34.4172L54.9663 33.7646L54.6087 35.4872C53.9413 37.392 52.4417 36.9885 52.0365 38.3928C51.6139 39.8825 52.1145 42.2094 52.7603 42.9888C53.3323 43.6806 52.8274 44.0749 52.4612 45.9867C48.9984 52.6834 46.1098 60.8514 41 62.9753Z" fill="#E8A476"/>
<path fill-rule="evenodd" clip-rule="evenodd" d="M44.3698 31.2943C45.7101 29.9314 46.646 28.8959 47.5999 28.276C48.9246 27.4192 50.3475 27.1313 52.8271 26.4673C55.8316 25.664 58.615 24.7376 61.3157 23.8925L63 27.2312C61.5726 28.0461 58.5591 29.9732 55.912 31.7749C52.6841 33.9713 50.8836 36.1004 46.6706 35.8125C45.4219 35.9309 44.6334 34.5192 44.2625 33.5139C43.8537 32.3971 43.9476 31.6495 44.3698 31.2943Z" fill="#211F21"/>
<path fill-rule="evenodd" clip-rule="evenodd" d="M44.3541 31.1829C45.6377 29.8405 46.5341 28.8206 47.4475 28.21C48.7161 27.3662 50.0789 27.0826 52.4535 26.4286C55.3309 25.6373 57.9964 24.7249 60.5828 23.8925L61 24.7432C59.2757 25.2989 55.6004 26.4377 52.5583 27.3868C47.9888 28.816 48.2091 28.4844 44.8333 32.013C44.4311 32.3629 44.3391 33.097 44.7349 34.197C44.8011 34.3864 44.8768 34.5719 44.9617 34.7527C44.6647 34.334 44.4255 33.8719 44.2514 33.3806C43.8599 32.2692 43.9498 31.5328 44.3541 31.1829Z" fill="#403D40"/>
<path fill-rule="evenodd" clip-rule="evenodd" d="M60 24.2856C60.4122 24.1529 60.8244 24.0202 61.2342 23.8925L63 27.4257C62.6393 27.6321 62.1803 27.9171 61.6557 28.2365C60.9906 27.1161 60.2904 25.7672 60 24.2856Z" fill="black"/>
<path fill-rule="evenodd" clip-rule="evenodd" d="M51 35.1311C51.9986 36.9949 51.8557 38.2079 52.772 40.1558C53.5367 41.7843 55.3412 43.8331 55.5058 45.6129C56.7124 45.4087 58.2375 44.7939 59 43.9316C58.1552 41.3327 57.8909 40.7587 56.5543 38.4913C55.1159 36.051 55.2545 34.4778 56.069 31.4946C53.4609 33.0078 53.1988 32.9045 51 35.1311Z" fill="#211F21"/>
<path fill-rule="evenodd" clip-rule="evenodd" d="M51 35.143C51.9111 37.0047 51.7806 38.2163 52.6166 40.162C53.3142 41.7887 54.9605 43.8352 55.1107 45.6129C56.0711 45.4354 57.251 44.9436 58 44.255C57.398 44.5722 56.7651 44.7947 56.1166 44.9172C55.9664 43.1394 54.3202 41.0953 53.6225 39.4687C52.7866 37.523 52.917 36.3114 52.0059 34.4496C52.5918 33.7669 53.2216 33.1419 53.8893 32.5807C52.9209 33.1877 52.3755 33.6123 51 35.143Z" fill="#403D40"/>
<path fill-rule="evenodd" clip-rule="evenodd" d="M56.1477 45.6129C57.2292 45.3132 58.3618 44.7846 59 44.1097C58.0949 41.4737 57.8117 40.8914 56.3798 38.5915C54.8387 36.1163 54.9873 34.5205 55.8599 31.4946C55.3609 31.7675 54.9316 31.9819 54.5765 32.1792C53.7711 35.0394 53.6737 36.6157 55.1706 39.0203C56.6119 41.3202 56.8904 41.9049 57.7955 44.5361C57.3162 45.0014 56.757 45.3668 56.1477 45.6129Z" fill="black"/>
<path fill-rule="evenodd" clip-rule="evenodd" d="M63 28.0176C61.6127 28.7581 58.684 30.5091 56.1113 32.1462C52.9742 34.1419 51.2243 36.0764 47.1298 35.8148C46.1137 35.9056 45.4125 35.0216 45 34.1946C45.3973 34.6566 46.917 36.0701 45.6513 33.5807C46.0855 34.0955 46.561 34.5765 46.8063 34.5343C54.3767 33.22 58.0566 28.3678 62.4051 27.1505L63 28.0176Z" fill="black"/>
<path fill-rule="evenodd" clip-rule="evenodd" d="M60 24.2952C60.2766 25.7907 61.0284 27.1415 61.7133 28.2365L64.0223 26.9695C65.3497 27.0781 66.2532 27.1709 68 26.5577C67.1277 24.4785 66.2711 22.6458 65.2582 20.6344C63.9866 21.5801 63.4735 22.1548 62.4004 23.3291L60 24.2952Z" fill="#211F21"/>
<path fill-rule="evenodd" clip-rule="evenodd" d="M60 24.7364C60.2526 26.0645 60.9393 27.264 61.5648 28.2365L63.6654 27.1154C64.1789 26.3217 64.6252 25.4877 65 24.6218C63.6756 24.1918 62.9258 23.9306 62.1801 23.8925L60 24.7364Z" fill="#211F21"/>
<path fill-rule="evenodd" clip-rule="evenodd" d="M61 27.056C61.1928 27.4729 61.3937 27.8681 61.5885 28.2365L63.6809 26.8839C64.1882 25.9314 64.6294 24.9309 65 23.8925C63.7938 25.16 62.4479 26.2244 61 27.056Z" fill="black"/>
<path fill-rule="evenodd" clip-rule="evenodd" d="M60 24.3947C60.0652 24.5929 60.1558 24.7881 60.2712 24.9785C62.1064 24.4987 62.9874 24.3309 65 24.3285V24.3214C63.6746 24.0685 62.9241 23.9149 62.1778 23.8925L60 24.3947Z" fill="#403D40"/>
<path fill-rule="evenodd" clip-rule="evenodd" d="M45.148 31.6452C44.5371 32.6227 45.9576 35.1642 46.8569 35.8387H47C46.0452 35.1408 44.6631 32.5152 45.3018 31.4946L45.148 31.6452Z" fill="#403D40"/>
<path fill-rule="evenodd" clip-rule="evenodd" d="M63 23.2078C63.8406 23.3462 64.4148 23.6181 65.228 23.8925L66 22.851L65.2534 20.6344C64.4418 21.4071 63.6876 22.2683 63 23.2078Z" fill="#403D40"/>
<path fill-rule="evenodd" clip-rule="evenodd" d="M64 27.1301C64.5515 26.4993 65.0227 25.8254 65.4066 25.1184L66.9597 24.9785L68 26.736C66.5568 27.0178 65.6142 27.2167 64 27.1301Z" fill="black"/>
<path fill-rule="evenodd" clip-rule="evenodd" d="M57 33.243C56.985 32.8118 56.8112 32.6241 56.4464 32.5869C56.1717 32.5498 55.7618 32.686 55.3433 32.7932C54.9998 32.8858 54.6617 32.996 54.3305 33.1233C53.9013 33.3503 53.5365 33.8372 53 34.5036C53.6116 35.2835 55.0987 33.9837 55.1073 33.9796C55.7682 33.6825 57 33.6825 57 33.243Z" fill="#F1B287"/>
<path fill-rule="evenodd" clip-rule="evenodd" d="M53.2953 37.3243C53.1436 37.3802 51.9306 39.0908 51 39.9316C51.889 40.7567 53.1145 39.3636 53.9433 38.4334C54.9009 38.1629 55.3163 38.0175 56.0516 37.2103L56.816 38.3104C57.7528 37.7961 57.8546 39.0305 58 37.9504C57.8673 37.5281 57.6685 37.1333 57.4122 36.7832C56.9344 36.1839 56.8825 36.0945 56.4795 35.9156C55.5843 35.5176 54.8136 36.7676 53.2953 37.3243Z" fill="#F1B287"/>
<path fill-rule="evenodd" clip-rule="evenodd" d="M53.1955 39.844C52.471 40.5549 51.7465 41.2197 51 41.8992C51.8592 42.6994 52.862 42.4141 54.0149 41.2899C55.265 40.9828 55.4351 40.9683 56.5748 40.3227L57.6792 40.1873L57.8956 40.6902L59 40.3179C59 40.0036 58.7791 39.4306 58.6731 39.0824C58.6203 38.8692 58.5292 38.6696 58.4052 38.4952C58.2812 38.3209 58.1267 38.1753 57.9509 38.0669C57.6019 37.9146 56.9945 38.0911 56.4313 38.3667C55.2253 38.9615 54.6002 39.4838 53.1955 39.844Z" fill="#F1B287"/>
<path fill-rule="evenodd" clip-rule="evenodd" d="M55.158 40.9899C54.3274 41.2976 53.8307 41.6304 53 41.9165C53.4418 42.4796 54.4182 42.4957 55.3609 41.9902C56.2973 42.037 56.5277 41.9596 57.4112 41.6934C58.2376 41.7132 58.7914 41.7168 58.9478 41.2814C59.1042 40.846 58.8844 40.3657 58.618 40.2397C58.2207 40.0598 57.4175 40.3351 56.4431 40.6571C55.9866 40.8082 55.4434 40.9126 55.158 40.9899Z" fill="#F1B287"/>
<path fill-rule="evenodd" clip-rule="evenodd" d="M53.0756 34.2678L53.5103 33.7638C53.5346 33.7355 53.5641 33.7124 53.5971 33.6958C53.6302 33.6793 53.666 33.6695 53.7027 33.6672C53.7394 33.6648 53.7762 33.6699 53.8109 33.6822C53.8457 33.6944 53.8778 33.7136 53.9053 33.7385C53.9329 33.7635 53.9554 33.7938 53.9715 33.8276C53.9877 33.8615 53.9972 33.8983 53.9995 33.9359C54.0017 33.9735 53.9968 34.0113 53.9848 34.0469C53.9729 34.0826 53.9542 34.1155 53.9299 34.1437L53.4933 34.6555C53.469 34.6838 53.4395 34.7069 53.4065 34.7234C53.3735 34.74 53.3376 34.7498 53.3009 34.7521C53.2642 34.7544 53.2274 34.7493 53.1927 34.7371C53.1579 34.7248 53.1258 34.7057 53.0983 34.6807C53.0695 34.6557 53.046 34.625 53.0292 34.5903C53.0123 34.5557 53.0026 34.5179 53.0004 34.4793C52.9983 34.4406 53.0039 34.4019 53.0168 34.3656C53.0297 34.3292 53.0497 34.296 53.0756 34.2678Z" fill="#EDA580"/>
<path fill-rule="evenodd" clip-rule="evenodd" d="M53.0357 34.522L53.7552 33.7126C53.78 33.6853 53.8147 33.6688 53.8517 33.6668C53.8887 33.6649 53.9249 33.6775 53.9525 33.702C53.9804 33.7264 53.9973 33.7607 53.9997 33.7974C54.0021 33.8342 53.9897 33.8704 53.9653 33.8981L53.2458 34.7053C53.2209 34.7331 53.186 34.75 53.1486 34.7524C53.1113 34.7547 53.0745 34.7424 53.0463 34.718C53.0188 34.6934 53.0022 34.6589 53.0002 34.6222C52.9982 34.5854 53.011 34.5494 53.0357 34.522Z" fill="#F2B292"/>
<path fill-rule="evenodd" clip-rule="evenodd" d="M53.0206 34.631L53.8756 33.6882C53.8822 33.6813 53.8902 33.6759 53.899 33.6722C53.9078 33.6685 53.9173 33.6666 53.9269 33.6666C53.9365 33.6666 53.946 33.6685 53.9548 33.6722C53.9636 33.6759 53.9715 33.6813 53.9782 33.6882C53.9851 33.6947 53.9906 33.7026 53.9943 33.7113C53.9981 33.72 54 33.7294 54 33.7388C54 33.7483 53.9981 33.7576 53.9943 33.7663C53.9906 33.775 53.9851 33.7829 53.9782 33.7895L53.1232 34.7323C53.1094 34.7453 53.091 34.7526 53.0719 34.7526C53.0528 34.7526 53.0344 34.7453 53.0206 34.7323C53.0074 34.7186 53 34.7005 53 34.6816C53 34.6627 53.0074 34.6446 53.0206 34.631Z" fill="#F7BFA3"/>
<path fill-rule="evenodd" clip-rule="evenodd" d="M51.0892 39.652L51.5554 39.1749C51.5814 39.148 51.6118 39.1273 51.6449 39.114C51.678 39.1007 51.713 39.095 51.748 39.0973C51.783 39.0996 51.8173 39.1098 51.8488 39.1274C51.8803 39.1449 51.9085 39.1695 51.9316 39.1996C51.9789 39.2596 52.0033 39.3386 51.9996 39.4192C51.9959 39.4998 51.9643 39.5754 51.9118 39.6294L51.4456 40.1045C51.3928 40.1586 51.3233 40.1866 51.2525 40.1824C51.1816 40.1782 51.1152 40.142 51.0676 40.0819C51.0443 40.0521 51.0264 40.0173 51.0148 39.9795C51.0033 39.9418 50.9984 39.9018 51.0004 39.8619C51.0024 39.8219 51.0113 39.7829 51.0265 39.7469C51.0418 39.7109 51.063 39.6786 51.0892 39.652Z" fill="#EDA580"/>
<path fill-rule="evenodd" clip-rule="evenodd" d="M51.0373 39.9193L51.7815 39.1343C51.8071 39.1079 51.8405 39.0945 51.8745 39.0971C51.9085 39.0997 51.9402 39.118 51.9627 39.1481C51.9866 39.1765 52 39.2149 52 39.2548C52 39.2948 51.9866 39.3332 51.9627 39.3616L51.2185 40.1443C51.1932 40.171 51.1599 40.1848 51.1259 40.1826C51.092 40.1805 51.0601 40.1625 51.0373 40.1328C51.0134 40.1044 51 40.066 51 40.0261C51 39.9861 51.0134 39.9477 51.0373 39.9193Z" fill="#F2B292"/>
<path fill-rule="evenodd" clip-rule="evenodd" d="M51.0188 40.0475L51.8875 39.1192C51.9001 39.1048 51.9169 39.0968 51.9344 39.0968C51.9518 39.0968 51.9686 39.1048 51.9812 39.1192C51.9933 39.1342 52 39.1541 52 39.1749C52 39.1957 51.9933 39.2156 51.9812 39.2306L51.1151 40.1589C51.1088 40.1665 51.1013 40.1725 51.093 40.1766C51.0848 40.1807 51.0759 40.1828 51.0669 40.1828C51.058 40.1828 51.0491 40.1807 51.0409 40.1766C51.0326 40.1725 51.0251 40.1665 51.0188 40.1589C51.0067 40.1439 51 40.124 51 40.1032C51 40.0824 51.0067 40.0625 51.0188 40.0475Z" fill="#F7BFA3"/>
<path fill-rule="evenodd" clip-rule="evenodd" d="M51.1079 41.1761L51.5989 40.3002C51.6542 40.2016 51.7226 40.1629 51.7892 40.1924C51.8557 40.222 51.9149 40.3174 51.9538 40.4579C51.9926 40.5984 52.0078 40.7724 51.9962 40.9415C51.9846 41.1107 51.947 41.2612 51.8918 41.36L51.4025 42.2359C51.3474 42.3349 51.2791 42.3744 51.2126 42.3456C51.1461 42.3169 51.0867 42.2223 51.0476 42.0826C51.028 42.0131 51.0141 41.9345 51.0065 41.8512C50.999 41.7679 50.998 41.6817 51.0036 41.5974C51.0092 41.5132 51.0213 41.4326 51.0392 41.3603C51.0571 41.288 51.0804 41.2254 51.1079 41.1761Z" fill="#EDA580"/>
<path fill-rule="evenodd" clip-rule="evenodd" d="M51.0553 42.0412L51.8118 41.2991C51.8246 41.2865 51.8391 41.2776 51.8544 41.2728C51.8697 41.2681 51.8856 41.2675 51.901 41.2713C51.9165 41.275 51.9313 41.2829 51.9445 41.2946C51.9578 41.3063 51.9693 41.3215 51.9783 41.3393C51.9963 41.3753 52.0035 41.4195 51.9984 41.4627C51.9934 41.5059 51.9764 41.5447 51.9511 41.5708L51.1928 42.3255C51.1668 42.3502 51.1348 42.3598 51.1037 42.3523C51.0726 42.3448 51.0449 42.3207 51.0263 42.2852C51.0158 42.267 51.0082 42.246 51.0039 42.2234C50.9997 42.2008 50.9989 42.1773 51.0016 42.1542C51.0043 42.1312 51.0105 42.1092 51.0198 42.0898C51.029 42.0703 51.0411 42.0538 51.0553 42.0412Z" fill="#F2B292"/>
<path fill-rule="evenodd" clip-rule="evenodd" d="M52 42.2664C51.8553 42.3445 51.6859 42.3721 51.5217 42.3443C51.3575 42.3164 51.209 42.235 51.1023 42.1142C51.0151 41.98 50.9821 41.8208 51.0093 41.6655C51.0365 41.5103 51.1221 41.3695 51.2504 41.2688C51.2503 41.4445 51.3084 41.6159 51.4165 41.7591L51.5646 41.962C51.673 42.1033 51.825 42.2096 52 42.2664Z" fill="white"/>
<path fill-rule="evenodd" clip-rule="evenodd" d="M53.1117 41.727L53.6574 41.3038C53.7116 41.2649 53.7727 41.2582 53.8298 41.2849C53.8868 41.3116 53.9361 41.37 53.9687 41.4496C53.9838 41.4866 53.9938 41.5285 53.9979 41.5722C54.002 41.616 54.0001 41.6607 53.9925 41.7032C53.9849 41.7458 53.9716 41.7852 53.9536 41.8188C53.9356 41.8524 53.9133 41.8794 53.8883 41.8979L53.3426 42.3183C53.2884 42.3584 53.2271 42.3658 53.1698 42.339C53.1126 42.3122 53.0634 42.2531 53.0312 42.1726C53.0162 42.1357 53.0062 42.0941 53.0021 42.0505C52.998 42.0069 52.9999 41.9625 53.0075 41.9201C53.0152 41.8778 53.0284 41.8386 53.0464 41.8053C53.0644 41.7719 53.0867 41.7452 53.1117 41.727Z" fill="#EDA580"/>
<path fill-rule="evenodd" clip-rule="evenodd" d="M53.0515 42.0118L53.8419 41.2893C53.8668 41.267 53.8951 41.2627 53.9214 41.2773C53.9478 41.2919 53.9705 41.3243 53.9851 41.3685C53.9923 41.3886 53.997 41.4116 53.999 41.4356C54.0009 41.4597 54.0001 41.4843 53.9964 41.5076C53.9928 41.531 53.9865 41.5525 53.9779 41.5707C53.9694 41.5888 53.9589 41.6032 53.9471 41.6127L53.1585 42.3352C53.1336 42.3568 53.1054 42.3607 53.0791 42.3462C53.0529 42.3317 53.0302 42.2997 53.0153 42.2561C53.0081 42.2362 53.0032 42.2134 53.0012 42.1895C52.9991 42.1656 52.9998 42.1412 53.0033 42.1179C53.0067 42.0945 53.0128 42.073 53.0212 42.0546C53.0295 42.0363 53.0399 42.0217 53.0515 42.0118Z" fill="#F2B292"/>
<path fill-rule="evenodd" clip-rule="evenodd" d="M53.0256 42.1678L53.9197 41.2808C53.9325 41.2679 53.9471 41.2653 53.9607 41.2735C53.9743 41.2816 53.986 41.2999 53.9934 41.3249C53.9967 41.336 53.9988 41.3484 53.9996 41.3613C54.0004 41.3742 53.9999 41.3873 53.9981 41.3997C53.9963 41.4122 53.9933 41.4237 53.9892 41.4336C53.9851 41.4435 53.9801 41.4516 53.9744 41.4572L53.0803 42.3442C53.0675 42.356 53.053 42.358 53.0395 42.35C53.026 42.3419 53.0144 42.3242 53.0066 42.3001C53.0033 42.289 53.0012 42.2766 53.0004 42.2637C52.9996 42.2508 53.0001 42.2377 53.0019 42.2253C53.0037 42.2128 53.0067 42.2012 53.0108 42.1913C53.0149 42.1814 53.0199 42.1734 53.0256 42.1678Z" fill="#F7BFA3"/>
<path fill-rule="evenodd" clip-rule="evenodd" d="M4.11663 32.5807L4 37.9166C4 37.9166 7.93077 38.1285 7.98909 37.9166C8.0474 37.7047 7.85302 35.1753 7.85302 35.1753L7.29148 34.3461L5.7019 33.1513L4.11663 32.5807Z" fill="#F1B287"/>
<path fill-rule="evenodd" clip-rule="evenodd" d="M10.5 40.5584C10.5 40.1153 10.7006 39.6675 10.5401 38.6305C10.4739 38.2036 10.171 37.6492 9.98246 37.0645C9.79389 36.4799 9.73973 35.9208 9.55116 35.5496C9.22818 34.9116 8.72265 34.3618 8.34752 33.6217C8.11463 33.096 7.82328 32.6077 7.48089 32.1694C7.09573 31.6405 6.97537 31.3319 6.57014 30.4086C5.96832 30.796 5.99841 32.8445 6.63433 33.5568C7.00546 34.2527 7.43676 35.1436 7.52503 35.3153L4.00037 36.5959C4.01642 37.0808 3.92615 37.0924 4.24511 37.3754C4.0445 37.7883 4.03247 37.8765 4.18894 38.2013C4.38955 38.605 4.88705 39.0597 5.31033 39.526C5.74242 40.0303 6.19708 40.5081 6.67245 40.9574C7.70156 41.8738 7.87609 41.5467 8.36356 43.1242C9.44483 46.5856 11.0657 55.6102 12.2734 59.6516C12.486 60.3615 12.9334 62.192 13.8923 63.1988C14.5503 63.8948 15.9625 64.2474 16.6005 63.9922C17.77 63.5283 18.4521 61.1341 17.6557 58.4035C16.6145 54.8493 10.5121 43.5836 10.5 40.5584Z" fill="#F1B287"/>
<path fill-rule="evenodd" clip-rule="evenodd" d="M10.269 40.3028C10.2503 39.8549 10.476 39.4024 10.3104 38.3543C10.2421 37.9228 9.92947 37.3624 9.73488 36.7715C9.54029 36.1807 9.4844 35.6156 9.28981 35.2404C9.20187 35.0714 9.10509 34.9086 9 34.7527C9 34.7808 9.01242 34.8113 9.0207 34.8418C9.40574 36.6168 9.75972 37.3179 9.81561 38.3168C9.89635 39.7635 9.63138 40.1246 9.70176 40.6615C9.89221 42.1294 13.9454 51.3912 15.291 55.0046C16.6262 58.571 17.3921 62.6907 15.8354 64.0648C16.0776 64.0918 16.3221 64.0664 16.5558 63.9897C17.7627 63.5208 18.4665 61.101 17.6447 58.3412C16.5786 54.7466 10.4035 43.3604 10.269 40.3028Z" fill="#F5BC95"/>
<path fill-rule="evenodd" clip-rule="evenodd" d="M6.13032 30.4086C6.24577 32.3581 6.07351 31.7171 6.90185 33.3341C7.08511 33.6762 7.1016 33.8365 7.26837 34.1355C7.43514 34.4345 7.60374 34.8316 7.76685 35.1737C7.91068 35.5259 8.07104 35.8662 8.24699 36.1927C8.43025 36.4798 8.71614 36.64 8.84443 36.8864C8.96407 37.0911 9.01796 37.3484 8.9947 37.6041C8.97637 37.8744 8.81144 38.0825 8.74546 38.4293C8.67747 38.814 8.63334 39.2052 8.61352 39.5991L8.58053 40.1828C8.47138 39.9622 8.34283 39.7591 8.19751 39.5776C8.01384 39.4354 7.8191 39.3191 7.61657 39.2307C7.46449 39.1092 7.30368 39.0075 7.13642 38.9269C6.90002 38.8288 6.45652 38.7499 6.20546 38.6446C6.00649 38.5637 5.81714 38.4469 5.64284 38.2978C5.51579 38.1765 5.39851 38.0386 5.29281 37.8863C5.18176 37.4944 5.10432 37.0877 5.0619 36.6735C5.0619 36.5228 4.94828 34.9225 5.02891 34.7598C5.22202 34.4833 5.38596 34.1744 5.51639 33.8413C5.63184 33.4394 6.22745 32.9538 6.13032 32.4873C5.91773 31.4491 5.97454 31.4635 6.13032 30.4086Z" fill="#E8A476"/>
<path fill-rule="evenodd" clip-rule="evenodd" d="M4.171 36.927C3.96082 37.3469 3.94821 37.4366 4.11215 37.7669C4.32232 38.1773 4.84355 38.6397 5.28702 39.1139C5.44675 39.2861 6.45348 40.3099 6.66576 40.5293L6.58379 39.7744C6.12561 39.3922 4.84145 38.1231 4.57663 37.8423C4.31181 37.5616 4.03018 37.564 4.171 36.9247V36.927ZM8.20423 42.0579C8.27359 42.223 8.34505 42.4212 8.4144 42.6689C9.54724 46.1909 11.3064 55.469 12.5716 59.5784C12.7944 60.3002 13.2631 62.1615 14.2677 63.1853C14.9256 63.8553 16.2959 64.2139 17 64.0251C13.6372 61.9846 10.7221 49.7177 8.72756 41.6545C8.67082 41.3856 9.253 41.2629 9.66914 40.8218C9.33582 40.9835 8.98051 41.0809 8.61827 41.1096C8.24626 41.1096 8.30932 40.9704 8.03609 40.6968L8.20423 42.0579Z" fill="#E8A476"/>
<path fill-rule="evenodd" clip-rule="evenodd" d="M5.62025 29.3226V29.3607L7.97613 38.9303C8.03396 39.1685 7.98575 39.4178 7.84205 39.6238C7.69835 39.8299 7.47082 39.9758 7.20916 40.0298L6.56522 40.1607C6.30315 40.2139 6.02856 40.1704 5.80179 40.0396C5.57503 39.9089 5.41463 39.7016 5.35587 39.4634L3 29.8938C3 29.8819 3 29.8676 3 29.8557L5.62025 29.3226Z" fill="#211F21"/>
<path fill-rule="evenodd" clip-rule="evenodd" d="M5.42973 29.3226V29.3607L7.97422 38.9296C8.03667 39.1678 7.98461 39.4171 7.82941 39.6231C7.6742 39.8291 7.42845 39.9751 7.14584 40.0291L6.45035 40.1599C6.33275 40.1831 6.21122 40.1888 6.0913 40.1766L6.71611 40.06C6.99834 40.0054 7.24361 39.8594 7.3987 39.6535C7.55378 39.4477 7.60617 39.1987 7.54448 38.9605L5 29.4012L5.42973 29.3226Z" fill="#3D383D"/>
<path fill-rule="evenodd" clip-rule="evenodd" d="M3.44014 29.3226L5.49259 39.2422C5.51768 39.365 5.56478 39.4812 5.63121 39.5842C5.69764 39.6872 5.78209 39.775 5.87973 39.8425C5.97737 39.91 6.08629 39.9559 6.20026 39.9775C6.31422 39.9992 6.43099 39.9962 6.5439 39.9688L7 39.8572C6.90106 39.9376 6.78758 39.9942 6.66705 40.0234L6.10604 40.1598C5.87773 40.2152 5.6385 40.1698 5.44094 40.0336C5.24338 39.8973 5.10365 39.6814 5.05245 39.4331L3 29.4615C3 29.4491 3 29.4342 3 29.4218L3.44014 29.3226Z" fill="black"/>
<path fill-rule="evenodd" clip-rule="evenodd" d="M0.525205 20.3164L4.10872 19.5567C4.46824 19.4787 5.27599 19.9711 4.90713 20.0401C4.53827 20.1092 2.10569 20.6617 1.79519 20.7264C1.65292 20.7567 1.52905 20.8396 1.45073 20.957C1.3724 21.0743 1.346 21.2165 1.37731 21.3524L3.16557 29.0967C3.19787 29.2326 3.28534 29.3506 3.40877 29.425C3.53221 29.4993 3.68151 29.5239 3.82391 29.4933C4.29081 29.3953 6.58099 28.943 6.96619 28.8828C6.99603 28.9632 7.00632 29.049 6.99626 29.1336C6.9862 29.2183 6.95607 29.2997 6.90815 29.3717C6.86023 29.4436 6.79577 29.5042 6.71967 29.5488C6.64357 29.5934 6.55783 29.6209 6.46894 29.6292L2.88542 30.3934C2.71211 30.43 2.53065 30.3997 2.38064 30.3091C2.23063 30.2186 2.12424 30.0751 2.08468 29.9099L0.0162763 21.0828C-0.0227149 20.9168 0.00899747 20.7428 0.104438 20.599C0.199878 20.4553 0.35123 20.3537 0.525205 20.3164Z" fill="black"/>
<path fill-rule="evenodd" clip-rule="evenodd" d="M1.50443 20.1797L4.29429 19.5996C5.19475 19.4124 5.25227 19.7847 4.35845 19.9699L1.56859 20.55C1.40056 20.5924 1.22877 20.6206 1.05531 20.6344L1 20.3073C1.16346 20.2501 1.33235 20.2074 1.50443 20.1797Z" fill="black"/>
<path fill-rule="evenodd" clip-rule="evenodd" d="M1.50439 21.2663L4.29404 20.6848C5.19443 20.4999 5.25195 20.8697 4.36041 21.0547L1.56855 21.6362C1.40024 21.6773 1.22858 21.7055 1.05531 21.7204L1 21.3917C1.1641 21.337 1.33281 21.295 1.50439 21.2663Z" fill="black"/>
<path fill-rule="evenodd" clip-rule="evenodd" d="M1.50443 22.3518L4.29429 21.7717C5.19475 21.5845 5.25227 21.9568 4.35845 22.142L1.56859 22.7221C1.40056 22.7645 1.22877 22.7927 1.05531 22.8065L1 22.4794C1.16346 22.4222 1.33235 22.3795 1.50443 22.3518Z" fill="black"/>
<path fill-rule="evenodd" clip-rule="evenodd" d="M1.50633 22.3518L4.29443 21.7717C5.19432 21.5845 5.25181 21.9568 4.36076 22.142L1.56823 22.7221C1.40059 22.7657 1.2288 22.7939 1.05528 22.8065L1 22.4794C1.16446 22.4232 1.33388 22.3805 1.50633 22.3518Z" fill="black"/>
<path fill-rule="evenodd" clip-rule="evenodd" d="M2.37684 23.4378L4.47024 22.8576C5.1459 22.6704 5.18907 23.0428 4.52004 23.2279L2.42665 23.8081C2.29998 23.8503 2.17054 23.8786 2.03984 23.8924L2 23.5653C2.12213 23.5083 2.24829 23.4656 2.37684 23.4378Z" fill="black"/>
<path fill-rule="evenodd" clip-rule="evenodd" d="M2.50233 23.4378L5.295 22.8578C6.19565 22.6706 6.25097 23.0409 5.35917 23.228L2.56871 23.8081C2.39959 23.8491 2.22715 23.8774 2.05311 23.8924L2 23.5633C2.16345 23.5087 2.33146 23.4668 2.50233 23.4378Z" fill="black"/>
<path fill-rule="evenodd" clip-rule="evenodd" d="M2.50243 24.5238L5.29566 23.9437C6.19427 23.7565 6.25182 24.1288 5.35985 24.314L2.56883 24.8941C2.39995 24.9364 2.22737 24.9646 2.05312 24.9785L2 24.6514C2.16282 24.5944 2.33103 24.5517 2.50243 24.5238Z" fill="black"/>
<path fill-rule="evenodd" clip-rule="evenodd" d="M2.50233 25.1634L5.295 23.9949C6.19565 23.6205 6.25097 24.3652 5.35917 24.7355L2.56871 25.8958C2.40016 25.9827 2.2275 26.0392 2.05311 26.0645L2 25.4103C2.16332 25.3013 2.33138 25.2187 2.50233 25.1634Z" fill="black"/>
<path fill-rule="evenodd" clip-rule="evenodd" d="M2.50454 25.6058L5.295 25.0297C6.19565 24.8425 6.25097 25.2149 5.35917 25.4001L2.56871 25.9802C2.39987 26.0225 2.22733 26.0507 2.05311 26.0645L2 25.7374C2.16334 25.6789 2.33227 25.6348 2.50454 25.6058Z" fill="black"/>
<path fill-rule="evenodd" clip-rule="evenodd" d="M2.50443 26.694L5.29429 26.116C6.19475 25.9288 6.25227 26.299 5.35845 26.4862L2.56859 27.0663C2.40056 27.1086 2.22877 27.1368 2.05531 27.1506L2 26.8236C2.16338 26.7657 2.33227 26.7223 2.50443 26.694Z" fill="black"/>
<path fill-rule="evenodd" clip-rule="evenodd" d="M2.50439 26.6959L5.29404 26.1158C6.19443 25.9286 6.25195 26.301 5.36041 26.4861L2.56855 27.0662C2.40053 27.1086 2.22876 27.1368 2.05531 27.1506L2 26.8235C2.16344 26.7663 2.33232 26.7236 2.50439 26.6959Z" fill="black"/>
<path fill-rule="evenodd" clip-rule="evenodd" d="M2.50443 27.782L5.2943 27.2019C6.19475 27.0147 6.25227 27.385 5.35845 27.5722L2.56859 28.1522C2.40027 28.1933 2.2286 28.2216 2.05531 28.2365L2 27.9074C2.16411 27.8527 2.33284 27.8107 2.50443 27.782Z" fill="black"/>
<path fill-rule="evenodd" clip-rule="evenodd" d="M3.37829 28.8679L5.47053 28.2878C6.14582 28.1006 6.18896 28.473 5.52031 28.6581L3.42641 29.2382C3.30039 29.2806 3.17157 29.3088 3.04148 29.3226L3 28.9955C3.12267 28.9387 3.24931 28.896 3.37829 28.8679Z" fill="black"/>
<path fill-rule="evenodd" clip-rule="evenodd" d="M3.50454 28.868L6.295 28.288C7.19565 28.1008 7.25097 28.471 6.35917 28.6582L3.56872 29.2383C3.40028 29.2791 3.2286 29.3073 3.05532 29.3226L3 28.9935C3.16415 28.9387 3.33291 28.8968 3.50454 28.868Z" fill="black"/>
<path fill-rule="evenodd" clip-rule="evenodd" d="M3.01825 32.6173C2.87853 32.9559 3.58079 33.447 3.77565 33.5959L5 33.6667C4.79778 33.5166 4.04221 32.7398 4.03302 32.7374C3.74256 32.6569 3.21495 32.5129 3.01825 32.6173Z" fill="#E8A476"/>
<path fill-rule="evenodd" clip-rule="evenodd" d="M3.29765 36.9247L5 36.7497C4.76226 35.5348 4.68007 35.2408 4.93249 34.2737L3.79074 33.8339C3.47375 33.8023 3.31819 33.5909 3.20372 33.6954C2.95424 33.9092 2.97185 34.7329 3.05697 35.4643C3.12447 36.0912 3.24775 36.6307 3.29765 36.9247Z" fill="#E8A476"/>
<path fill-rule="evenodd" clip-rule="evenodd" d="M5.2254 35.6359C4.9619 35.5073 3.92437 35.2453 3.49618 35.0302C3.06799 34.815 2.91271 34.6279 3.04682 34.3028C3.14023 34.0655 3.30442 33.8623 3.51735 33.7204C3.92201 33.5286 4.38314 33.8912 5.08659 34.1554C5.46325 34.2918 5.83236 34.4479 6.19235 34.6232C6.64641 34.8758 7.28164 35.512 7.66277 35.9166C8.13331 36.4077 8.1733 37.0345 7.3828 36.9082C6.71935 36.8007 5.77357 35.9049 5.2254 35.6359Z" fill="#F1B287"/>
<path fill-rule="evenodd" clip-rule="evenodd" d="M5.38282 35.2299L5 35.0214C5.42147 34.9231 5.48589 34.7235 5.71227 34.7563C6.0638 34.8069 6.44847 35.1256 7.0411 35.6737C7.5454 36.1354 7.98712 36.2694 8 36.9247L5.38282 35.2299Z" fill="#E8A476"/>
<path fill-rule="evenodd" clip-rule="evenodd" d="M7.88852 36.4215L7.39087 35.926C7.34309 35.8699 7.28031 35.8387 7.21511 35.8387C7.14992 35.8387 7.08713 35.8699 7.03935 35.926C7.02189 35.959 7.00989 35.9961 7.00406 36.0351C6.99822 36.0741 6.99869 36.1142 7.00541 36.153C7.01213 36.1918 7.02499 36.2284 7.04319 36.2608C7.06139 36.2931 7.08458 36.3205 7.11135 36.3412L7.60899 36.8394C7.65722 36.8943 7.71983 36.9248 7.78475 36.9248C7.84967 36.9248 7.91229 36.8943 7.96052 36.8394C7.97802 36.8062 7.99006 36.7689 7.99591 36.7297C8.00177 36.6904 8.00133 36.6501 7.99461 36.6111C7.98789 36.5722 7.97504 36.5353 7.95681 36.5027C7.93858 36.4701 7.91536 36.4425 7.88852 36.4215Z" fill="#EDA580"/>
<path fill-rule="evenodd" clip-rule="evenodd" d="M7.95006 36.6806L7.18332 35.8807C7.16088 35.8537 7.13165 35.8387 7.10132 35.8387C7.071 35.8387 7.04177 35.8537 7.01933 35.8807C7.01088 35.8966 7.00501 35.9146 7.0021 35.9337C6.99919 35.9528 6.9993 35.9724 7.00243 35.9914C7.00555 36.0104 7.01162 36.0283 7.02025 36.0441C7.02888 36.0598 7.03989 36.073 7.05257 36.0829L7.81931 36.8828C7.84175 36.9098 7.87098 36.9248 7.9013 36.9248C7.93163 36.9248 7.96086 36.9098 7.9833 36.8828C7.99856 36.85 8.00361 36.8106 7.99742 36.7729C7.99123 36.7352 7.97425 36.7022 7.95006 36.6806Z" fill="#F2B292"/>
<path fill-rule="evenodd" clip-rule="evenodd" d="M7.97613 36.7999L7.09381 35.859C7.08175 35.8459 7.06669 35.8387 7.05116 35.8387C7.03563 35.8387 7.02057 35.8459 7.00852 35.859C7.00066 35.8764 6.99811 35.8971 7.0014 35.9169C7.00469 35.9367 7.01356 35.954 7.02616 35.9653L7.90849 36.9023C7.91948 36.9167 7.93426 36.9248 7.94966 36.9248C7.96506 36.9248 7.97984 36.9167 7.99084 36.9023C7.99881 36.886 8.00174 36.8662 7.99899 36.8471C7.99625 36.828 7.98805 36.8111 7.97613 36.7999Z" fill="#F7BFA3"/>
<path fill-rule="evenodd" clip-rule="evenodd" d="M9 38.8579C8.67456 38.4864 8.27847 37.9753 7.99158 37.6748C7.95732 37.6393 7.47773 37.502 7.01527 37.3056C6.55281 37.1092 6.15886 36.9247 6.15886 36.9247C5.91906 36.9247 4.37324 37.5328 4.18055 37.7174C4.07444 37.8347 4.01069 37.9907 4.00123 38.1562C3.99177 38.3218 4.03726 38.4854 4.12917 38.6165C4.26833 38.8248 4.50813 38.9786 4.92991 38.8153C5.49942 38.5952 5.9105 38.0084 6.13959 38.0297C6.68555 38.484 7.40493 38.432 7.46702 38.4675C7.9616 39.0401 8.69812 39.3359 9 38.8579Z" fill="#F1B287"/>
<path fill-rule="evenodd" clip-rule="evenodd" d="M9 37.6116C8.76561 37.3983 8.03341 36.6311 7.63159 36.1656C7.43515 35.9394 6.62259 35.5805 6.25649 35.3517C5.58679 34.9356 5.36356 34.7379 5.00862 34.7535C4.69163 34.7665 4.25187 35.0838 3.7987 35.4843C3.52413 35.7262 3.24732 35.8848 3.12901 36.0824C3.01795 36.2805 2.9764 36.5207 3.01293 36.7534C3.01293 37.2735 3.28304 37.3411 3.49288 37.3281C4.11346 37.2891 4.72512 36.4127 5.02871 36.4127C5.39704 36.4127 6.10469 36.7248 6.70741 37.0238C6.93957 37.1799 8.16958 38.722 9 37.6116Z" fill="#F1B287"/>
<path fill-rule="evenodd" clip-rule="evenodd" d="M8.89015 37.5088L8.39167 37.0101C8.34336 36.9551 8.28064 36.9247 8.21561 36.9247C8.15058 36.9247 8.08786 36.9551 8.03955 37.0101C8.02202 37.0434 8.00996 37.0807 8.00409 37.12C7.99823 37.1592 7.99867 37.1996 8.0054 37.2386C8.01213 37.2776 8.02501 37.3145 8.04326 37.3471C8.06152 37.3797 8.08479 37.4074 8.11167 37.4284L8.61015 37.9243C8.65824 37.9799 8.72105 38.0107 8.78621 38.0107C8.85137 38.0107 8.91418 37.9799 8.96227 37.9243C8.97918 37.8911 8.99073 37.8539 8.99626 37.815C9.00179 37.7761 9.00118 37.7362 8.99448 37.6976C8.98778 37.659 8.97512 37.6225 8.95722 37.5901C8.93931 37.5576 8.91652 37.53 8.89015 37.5088Z" fill="#EDA580"/>
<path fill-rule="evenodd" clip-rule="evenodd" d="M8.94929 37.7668L8.18317 36.9676C8.16099 36.94 8.13169 36.9247 8.10124 36.9247C8.07079 36.9247 8.04149 36.94 8.01931 36.9676C8.01087 36.9835 8.00501 37.0016 8.0021 37.0206C7.99919 37.0396 7.9993 37.0593 8.00243 37.0782C8.00555 37.0972 8.01161 37.1151 8.02023 37.1309C8.02886 37.1466 8.03985 37.1598 8.05253 37.1696L8.81865 37.9688C8.84106 37.9958 8.87028 38.0107 8.90057 38.0107C8.93087 38.0107 8.96008 37.9958 8.9825 37.9688C8.99831 37.9362 9.0037 37.8966 8.99747 37.8588C8.99125 37.8209 8.97392 37.7878 8.94929 37.7668Z" fill="#F2B292"/>
<path fill-rule="evenodd" clip-rule="evenodd" d="M8.97195 37.8771L8.09341 36.946C8.08166 36.9323 8.06657 36.9247 8.05095 36.9247C8.03532 36.9247 8.02023 36.9323 8.00848 36.946C8.00066 36.9633 7.99812 36.9839 8.00139 37.0035C8.00467 37.0232 8.0135 37.0405 8.02605 37.0516L8.9046 37.9866C8.90981 37.9942 8.91615 38.0003 8.9232 38.0044C8.93026 38.0086 8.93789 38.0107 8.9456 38.0107C8.9533 38.0107 8.96093 38.0086 8.96799 38.0044C8.97504 38.0003 8.98138 37.9942 8.98659 37.9866C9.01002 37.9553 9.00124 37.9084 8.97195 37.8771Z" fill="#F7BFA3"/>
<path fill-rule="evenodd" clip-rule="evenodd" d="M8.9929 37.9595L8.05021 36.9359C8.04436 36.9287 8.03677 36.9247 8.02891 36.9247C8.02105 36.9247 8.01347 36.9287 8.00761 36.9359C8.00274 36.9427 8 36.9519 8 36.9614C8 36.971 8.00274 36.9802 8.00761 36.987L8.95562 38.0107H8.9929C8.9929 38.0107 9.00888 37.9742 8.9929 37.9595Z" fill="#FCE3D6"/>
<path fill-rule="evenodd" clip-rule="evenodd" d="M8.88976 38.5931L8.39204 38.0982C8.34411 38.042 8.28114 38.0107 8.21577 38.0107C8.15039 38.0107 8.08743 38.042 8.0395 38.0982C8.02196 38.1313 8.0099 38.1685 8.00405 38.2076C7.99821 38.2468 7.99869 38.287 8.00547 38.3259C8.01225 38.3648 8.0252 38.4016 8.04352 38.434C8.06184 38.4664 8.08516 38.4937 8.11208 38.5144L8.6072 39.0093C8.65514 39.0655 8.7181 39.0968 8.78347 39.0968C8.84885 39.0968 8.91181 39.0655 8.95974 39.0093C8.9774 38.9764 8.98961 38.9394 8.99565 38.9004C9.00169 38.8614 9.00144 38.8212 8.9949 38.7823C8.98836 38.7435 8.97568 38.7067 8.95761 38.6741C8.93954 38.6416 8.91646 38.614 8.88976 38.5931Z" fill="#EDA580"/>
<path fill-rule="evenodd" clip-rule="evenodd" d="M8.94926 38.8534L8.18104 38.0531C8.15893 38.0259 8.12983 38.0107 8.0996 38.0107C8.06938 38.0107 8.04028 38.0259 8.01817 38.0531C8.01015 38.0691 8.00462 38.087 8.00191 38.1058C7.9992 38.1246 7.99938 38.144 8.00241 38.1627C8.00545 38.1814 8.01129 38.1992 8.01959 38.2149C8.02789 38.2306 8.03848 38.2439 8.05074 38.2541L8.81896 39.0544C8.84107 39.0816 8.87018 39.0968 8.9004 39.0968C8.93063 39.0968 8.95972 39.0816 8.98183 39.0544C8.98986 39.0384 8.99538 39.0205 8.99809 39.0017C9.00079 38.9829 9.00063 38.9635 8.99759 38.9448C8.99456 38.9261 8.98871 38.9083 8.98041 38.8927C8.97211 38.877 8.96152 38.8636 8.94926 38.8534Z" fill="#F2B292"/>
<path fill-rule="evenodd" clip-rule="evenodd" d="M8 38.9248C8.12756 39.0361 8.28661 39.0968 8.45063 39.0968C8.61464 39.0968 8.77368 39.0361 8.90124 38.9248C9.08559 38.6963 9.00366 38.313 8.72373 38.0107C8.73532 38.188 8.6813 38.363 8.57352 38.4972L8.43014 38.6741C8.31733 38.808 8.1656 38.8964 8 38.9248Z" fill="white"/>
<path fill-rule="evenodd" clip-rule="evenodd" d="M9 34.8514C8.72206 34.3024 8.27697 33.8215 7.9485 33.1853C7.74879 32.7316 7.49522 32.3088 7.19436 31.9278C6.85812 31.4682 6.7551 31.2044 6.41691 30.4086C5.86103 30.7235 5.86103 32.4683 6.41691 33.0896C6.73761 33.7003 7.11079 34.4599 7.19436 34.6067C7.43847 35.0951 7.78074 35.5163 8.19533 35.8387L9 34.8514Z" fill="#F1B287"/>
<path fill-rule="evenodd" clip-rule="evenodd" d="M6.0839 29.9363L6.53439 31.0948C6.64021 31.369 6.81255 31.5467 6.91837 31.481C7.02721 31.4269 7.02721 31.1566 6.91837 30.8824L6.46788 29.7239C6.36206 29.4459 6.18972 29.2682 6.0839 29.3377C5.97203 29.3879 5.97203 29.6621 6.0839 29.9363Z" fill="#EDA580"/>
<path fill-rule="evenodd" clip-rule="evenodd" d="M6.13224 30.4086C6.20315 32.1579 6.06306 31.5794 6.76347 33.0453C6.9122 33.3564 6.93641 33.5062 7.07823 33.7713C7.22004 34.0363 7.36185 34.4051 7.49847 34.7162C7.62009 35.034 7.7558 35.3419 7.90488 35.6382C7.93386 35.6868 7.96566 35.7322 8 35.7741L7.95503 35.8387C7.58614 35.4895 7.28159 35.0332 7.06439 34.5042C6.99694 34.3452 6.6649 33.5224 6.37263 32.8609C6.11322 32.5105 5.9887 31.826 6.0008 31.206C6.02848 31.0078 6.07344 30.7843 6.13224 30.4086Z" fill="#E8A476"/>
<path fill-rule="evenodd" clip-rule="evenodd" d="M4.63474 31.6308C4.25068 31.5076 3.85197 31.4675 3.45663 31.5125C2.94812 31.6337 2.87448 32.5717 3.18512 32.9633C3.383 33.214 4.5473 33.1662 4.82342 33.2281C5.34114 33.6451 5.44929 33.9634 5.74382 34.2254C6.28915 34.7127 6.80457 34.924 6.94493 34.5916C7.17503 34.0676 6.65961 33.2901 5.85426 32.2929C5.35955 31.6787 5.32964 31.7999 4.63474 31.6308Z" fill="#F1B287"/>
<path fill-rule="evenodd" clip-rule="evenodd" d="M6.9049 34.2984L6.42618 33.7757C6.38171 33.7169 6.31911 33.6788 6.25077 33.6691C6.18243 33.6594 6.11331 33.6787 6.05707 33.7232C6.03591 33.7519 6.02009 33.7851 6.01053 33.8208C6.00098 33.8565 5.99788 33.8939 6.00142 33.9309C6.00496 33.968 6.01507 34.0038 6.03116 34.0364C6.04724 34.069 6.06898 34.0977 6.0951 34.1208L6.57382 34.6436C6.61829 34.7024 6.68089 34.7405 6.74923 34.7502C6.81757 34.7599 6.88669 34.7406 6.94293 34.6961C6.96409 34.6674 6.97991 34.6342 6.98947 34.5985C6.99902 34.5628 7.00212 34.5254 6.99858 34.4883C6.99504 34.4513 6.98493 34.4154 6.96885 34.3828C6.95276 34.3502 6.93102 34.3215 6.9049 34.2984Z" fill="#EDA580"/>
<path fill-rule="evenodd" clip-rule="evenodd" d="M6.95424 34.5391L6.20194 33.7178C6.18097 33.69 6.15134 33.6721 6.11899 33.6677C6.08665 33.6633 6.054 33.6726 6.0276 33.6939C6.01749 33.7072 6.00989 33.7227 6.00525 33.7393C6.00061 33.756 5.99902 33.7735 6.00058 33.7908C6.00214 33.8082 6.00681 33.825 6.01433 33.8403C6.02184 33.8556 6.03204 33.8691 6.04431 33.8799L6.79661 34.7012C6.81799 34.7292 6.84804 34.7471 6.88078 34.7516C6.91352 34.756 6.94657 34.7466 6.97334 34.7251C6.98332 34.7116 6.99075 34.6961 6.9952 34.6793C6.99965 34.6625 7.00103 34.645 6.99924 34.6276C6.99746 34.6102 6.99256 34.5935 6.98483 34.5783C6.97709 34.563 6.96669 34.5497 6.95424 34.5391Z" fill="#F2B292"/>
<path fill-rule="evenodd" clip-rule="evenodd" d="M6.98182 34.635L6.11041 33.6859C6.09765 33.6735 6.08126 33.6666 6.0643 33.6666C6.04733 33.6666 6.03094 33.6735 6.01818 33.6859C6.00653 33.6991 6 33.7168 6 33.7353C6 33.7537 6.00653 33.7715 6.01818 33.7847L6.89277 34.7338C6.90501 34.7459 6.92087 34.7526 6.93729 34.7526C6.95372 34.7526 6.96957 34.7459 6.98182 34.7338C6.99347 34.7206 7 34.7029 7 34.6844C7 34.6659 6.99347 34.6482 6.98182 34.635Z" fill="#F7BFA3"/>
<path fill-rule="evenodd" clip-rule="evenodd" d="M6 34.5114C6.11221 34.6425 6.26038 34.7256 6.41982 34.7471C6.57926 34.7686 6.74034 34.7271 6.87619 34.6294C7.07211 34.4182 7.02857 34.0083 6.79456 33.6666C6.78208 33.8479 6.71247 34.0178 6.59864 34.1449L6.44626 34.325C6.32274 34.4479 6.1638 34.5142 6 34.5114Z" fill="white"/>
<path d="M23.2383 55H23.1045V53.5684H23.248V54.0791C23.2786 54.0322 23.3132 53.9974 23.3516 53.9746C23.3906 53.9512 23.4339 53.9395 23.4814 53.9395C23.5479 53.9395 23.6081 53.9593 23.6621 53.999C23.7168 54.0387 23.7604 54.099 23.793 54.1797C23.8255 54.2604 23.8418 54.3584 23.8418 54.4736C23.8418 54.6494 23.805 54.7852 23.7314 54.8809C23.6579 54.9759 23.5719 55.0234 23.4736 55.0234C23.4242 55.0234 23.3796 55.0107 23.3398 54.9854C23.3008 54.9593 23.2669 54.9209 23.2383 54.8701V55ZM23.2363 54.4736C23.2363 54.5811 23.2461 54.6615 23.2656 54.7148C23.2852 54.7682 23.3128 54.8089 23.3486 54.8369C23.3844 54.8649 23.4242 54.8789 23.4678 54.8789C23.527 54.8789 23.5794 54.8457 23.625 54.7793C23.6712 54.7122 23.6943 54.6123 23.6943 54.4795C23.6943 54.3434 23.6722 54.2435 23.6279 54.1797C23.5837 54.1159 23.5293 54.084 23.4648 54.084C23.4056 54.084 23.3525 54.1175 23.3057 54.1846C23.2594 54.251 23.2363 54.3473 23.2363 54.4736ZM24.5996 54.666L24.748 54.6885C24.7233 54.7992 24.6784 54.8828 24.6133 54.9395C24.5488 54.9954 24.4688 55.0234 24.373 55.0234C24.2526 55.0234 24.1549 54.9779 24.0801 54.8867C24.0059 54.7949 23.9688 54.6628 23.9688 54.4902C23.9688 54.3112 24.0062 54.1748 24.0811 54.0811C24.1566 53.9867 24.252 53.9395 24.3672 53.9395C24.4772 53.9395 24.569 53.9857 24.6426 54.0781C24.7161 54.1706 24.7529 54.3044 24.7529 54.4795L24.752 54.5264H24.1172C24.123 54.6429 24.1501 54.7308 24.1982 54.79C24.2464 54.8493 24.305 54.8789 24.374 54.8789C24.4821 54.8789 24.5573 54.8079 24.5996 54.666ZM24.126 54.3818H24.6006C24.5941 54.292 24.5749 54.2249 24.543 54.1807C24.4967 54.1162 24.4378 54.084 24.3662 54.084C24.3018 54.084 24.2467 54.111 24.2012 54.165C24.1556 54.2184 24.1305 54.2907 24.126 54.3818ZM25.4844 54.8721C25.4362 54.9222 25.3861 54.96 25.334 54.9854C25.2819 55.0107 25.2279 55.0234 25.1719 55.0234C25.0833 55.0234 25.0127 54.9967 24.96 54.9434C24.9072 54.89 24.8809 54.818 24.8809 54.7275C24.8809 54.6676 24.8932 54.6146 24.918 54.5684C24.9427 54.5221 24.9766 54.486 25.0195 54.46C25.0625 54.4339 25.1276 54.4147 25.2148 54.4023C25.332 54.3854 25.418 54.3652 25.4727 54.3418L25.4736 54.2969C25.4736 54.2259 25.4609 54.1761 25.4355 54.1475C25.3997 54.1058 25.3447 54.085 25.2705 54.085C25.2035 54.085 25.1533 54.099 25.1201 54.127C25.0869 54.1543 25.0625 54.2061 25.0469 54.2822L24.9053 54.2588C24.9255 54.1475 24.9661 54.0664 25.0273 54.0156C25.0892 53.9648 25.1774 53.9395 25.292 53.9395C25.3812 53.9395 25.4512 53.9564 25.502 53.9902C25.5527 54.0234 25.5846 54.0648 25.5977 54.1143C25.6113 54.1637 25.6182 54.236 25.6182 54.3311V54.5654C25.6182 54.7295 25.6211 54.833 25.627 54.876C25.6335 54.9183 25.6458 54.9596 25.6641 55H25.5137C25.4987 54.9642 25.4889 54.9215 25.4844 54.8721ZM25.4727 54.4795C25.4199 54.5055 25.3415 54.5277 25.2373 54.5459C25.1768 54.5563 25.1344 54.5684 25.1104 54.582C25.0863 54.5951 25.0674 54.6139 25.0537 54.6387C25.0407 54.6628 25.0342 54.6908 25.0342 54.7227C25.0342 54.7721 25.0495 54.8118 25.0801 54.8418C25.1107 54.8711 25.153 54.8857 25.207 54.8857C25.2585 54.8857 25.305 54.8724 25.3467 54.8457C25.389 54.819 25.4206 54.7835 25.4414 54.7393C25.4622 54.6943 25.4727 54.6292 25.4727 54.5439V54.4795ZM26.3994 55V54.8477C26.3662 54.9062 26.3271 54.9502 26.2822 54.9795C26.2373 55.0088 26.1865 55.0234 26.1299 55.0234C26.0628 55.0234 26.0055 55.0055 25.958 54.9697C25.9105 54.9333 25.8786 54.8874 25.8623 54.832C25.8467 54.7767 25.8389 54.7012 25.8389 54.6055V53.9629H25.9824V54.5381C25.9824 54.6449 25.9876 54.7165 25.998 54.7529C26.0091 54.7887 26.029 54.8177 26.0576 54.8398C26.0869 54.8613 26.1201 54.8721 26.1572 54.8721C26.2262 54.8721 26.2829 54.8438 26.3271 54.7871C26.3649 54.7383 26.3838 54.6488 26.3838 54.5186V53.9629H26.5283V55H26.3994ZM27.0752 54.8428L27.0947 54.998C27.055 55.0085 27.0192 55.0137 26.9873 55.0137C26.9372 55.0137 26.8968 55.0039 26.8662 54.9844C26.8356 54.9642 26.8145 54.9368 26.8027 54.9023C26.7917 54.8678 26.7861 54.7992 26.7861 54.6963V54.0996H26.6807V53.9629H26.7861V53.7061L26.9297 53.6006V53.9629H27.0752V54.0996H26.9297V54.7061C26.9297 54.762 26.9339 54.7982 26.9424 54.8145C26.9548 54.8379 26.9779 54.8496 27.0117 54.8496C27.028 54.8496 27.0492 54.8473 27.0752 54.8428ZM27.793 54.666L27.9414 54.6885C27.9167 54.7992 27.8717 54.8828 27.8066 54.9395C27.7422 54.9954 27.6621 55.0234 27.5664 55.0234C27.446 55.0234 27.3483 54.9779 27.2734 54.8867C27.1992 54.7949 27.1621 54.6628 27.1621 54.4902C27.1621 54.3112 27.1995 54.1748 27.2744 54.0811C27.3499 53.9867 27.4453 53.9395 27.5605 53.9395C27.6706 53.9395 27.7624 53.9857 27.8359 54.0781C27.9095 54.1706 27.9463 54.3044 27.9463 54.4795L27.9453 54.5264H27.3105C27.3164 54.6429 27.3434 54.7308 27.3916 54.79C27.4398 54.8493 27.4984 54.8789 27.5674 54.8789C27.6755 54.8789 27.7507 54.8079 27.793 54.666ZM27.3193 54.3818H27.7939C27.7874 54.292 27.7682 54.2249 27.7363 54.1807C27.6901 54.1162 27.6312 54.084 27.5596 54.084C27.4951 54.084 27.4401 54.111 27.3945 54.165C27.349 54.2184 27.3239 54.2907 27.3193 54.3818ZM28.6777 54.8721C28.6296 54.9222 28.5794 54.96 28.5273 54.9854C28.4753 55.0107 28.4212 55.0234 28.3652 55.0234C28.2767 55.0234 28.2061 54.9967 28.1533 54.9434C28.1006 54.89 28.0742 54.818 28.0742 54.7275C28.0742 54.6676 28.0866 54.6146 28.1113 54.5684C28.1361 54.5221 28.1699 54.486 28.2129 54.46C28.2559 54.4339 28.321 54.4147 28.4082 54.4023C28.5254 54.3854 28.6113 54.3652 28.666 54.3418L28.667 54.2969C28.667 54.2259 28.6543 54.1761 28.6289 54.1475C28.5931 54.1058 28.5381 54.085 28.4639 54.085C28.3968 54.085 28.3467 54.099 28.3135 54.127C28.2803 54.1543 28.2559 54.2061 28.2402 54.2822L28.0986 54.2588C28.1188 54.1475 28.1595 54.0664 28.2207 54.0156C28.2826 53.9648 28.3708 53.9395 28.4854 53.9395C28.5745 53.9395 28.6445 53.9564 28.6953 53.9902C28.7461 54.0234 28.778 54.0648 28.791 54.1143C28.8047 54.1637 28.8115 54.236 28.8115 54.3311V54.5654C28.8115 54.7295 28.8145 54.833 28.8203 54.876C28.8268 54.9183 28.8392 54.9596 28.8574 55H28.707C28.6921 54.9642 28.6823 54.9215 28.6777 54.8721ZM28.666 54.4795C28.6133 54.5055 28.5348 54.5277 28.4307 54.5459C28.3701 54.5563 28.3278 54.5684 28.3037 54.582C28.2796 54.5951 28.2607 54.6139 28.2471 54.6387C28.234 54.6628 28.2275 54.6908 28.2275 54.7227C28.2275 54.7721 28.2428 54.8118 28.2734 54.8418C28.304 54.8711 28.3464 54.8857 28.4004 54.8857C28.4518 54.8857 28.4984 54.8724 28.54 54.8457C28.5824 54.819 28.6139 54.7835 28.6348 54.7393C28.6556 54.6943 28.666 54.6292 28.666 54.5439V54.4795ZM29.5869 55V54.8691C29.5609 54.9193 29.5273 54.9577 29.4863 54.9844C29.4453 55.0104 29.401 55.0234 29.3535 55.0234C29.2533 55.0234 29.1663 54.9762 29.0928 54.8818C29.0199 54.7868 28.9834 54.6533 28.9834 54.4814C28.9834 54.3636 28.9997 54.2637 29.0322 54.1816C29.0648 54.0996 29.1081 54.0387 29.1621 53.999C29.2168 53.9593 29.2773 53.9395 29.3438 53.9395C29.3913 53.9395 29.4352 53.9521 29.4756 53.9775C29.5166 54.0023 29.5505 54.0371 29.5771 54.082V53.5684H29.7217V55H29.5869ZM29.1309 54.4824C29.1309 54.6165 29.154 54.7161 29.2002 54.7812C29.2471 54.8464 29.3014 54.8789 29.3633 54.8789C29.4245 54.8789 29.4775 54.8477 29.5225 54.7852C29.5674 54.7227 29.5898 54.6283 29.5898 54.502C29.5898 54.3568 29.5674 54.251 29.5225 54.1846C29.4775 54.1175 29.4209 54.084 29.3525 54.084C29.292 54.084 29.2399 54.1162 29.1963 54.1807C29.1527 54.2445 29.1309 54.3451 29.1309 54.4824ZM29.8936 54.4814C29.8936 54.3024 29.931 54.1673 30.0059 54.0762C30.0814 53.985 30.1768 53.9395 30.292 53.9395C30.4053 53.9395 30.5 53.985 30.5762 54.0762C30.6523 54.1673 30.6904 54.2988 30.6904 54.4707C30.6904 54.6569 30.653 54.7956 30.5781 54.8867C30.5033 54.9779 30.4079 55.0234 30.292 55.0234C30.1781 55.0234 30.083 54.9779 30.0068 54.8867C29.9313 54.7949 29.8936 54.6598 29.8936 54.4814ZM30.041 54.4814C30.041 54.6156 30.0654 54.7155 30.1143 54.7812C30.1631 54.8464 30.2236 54.8789 30.2959 54.8789C30.3636 54.8789 30.4215 54.846 30.4697 54.7803C30.5186 54.7139 30.543 54.6143 30.543 54.4814C30.543 54.348 30.5186 54.2487 30.4697 54.1836C30.4209 54.1178 30.3604 54.085 30.2881 54.085C30.2197 54.085 30.1615 54.1178 30.1133 54.1836C30.0651 54.2493 30.041 54.3486 30.041 54.4814ZM30.8594 55V53.9629H30.9893V54.1104C31.0205 54.0531 31.0586 54.0104 31.1035 53.9824C31.1491 53.9538 31.2012 53.9395 31.2598 53.9395C31.3053 53.9395 31.3473 53.9486 31.3857 53.9668C31.4248 53.9844 31.4561 54.0078 31.4795 54.0371C31.5036 54.0658 31.5215 54.1032 31.5332 54.1494C31.5449 54.1956 31.5508 54.2666 31.5508 54.3623V55H31.4062V54.3691C31.4062 54.293 31.3997 54.2373 31.3867 54.2021C31.3737 54.167 31.3532 54.14 31.3252 54.1211C31.2979 54.1016 31.266 54.0918 31.2295 54.0918C31.1605 54.0918 31.1055 54.1175 31.0645 54.1689C31.0234 54.2204 31.0029 54.3086 31.0029 54.4336V55H30.8594Z" fill="white"/>
<defs>
<linearGradient id="paint0_linear_1:46572" x1="-238.309" y1="198.457" x2="397.572" y2="-245.587" gradientUnits="userSpaceOnUse">
<stop stop-color="#B4562B"/>
<stop offset="1" stop-color="#641B00"/>
</linearGradient>
<linearGradient id="paint1_linear_1:46572" x1="2220.25" y1="652.091" x2="3287.19" y2="-196.937" gradientUnits="userSpaceOnUse">
<stop stop-color="#B4562B"/>
<stop offset="1" stop-color="#641B00"/>
</linearGradient>
<linearGradient id="paint2_linear_1:46572" x1="-33172.2" y1="13995.8" x2="145172" y2="-121829" gradientUnits="userSpaceOnUse">
<stop stop-color="#B4562B"/>
<stop offset="1" stop-color="#641B00"/>
</linearGradient>
<linearGradient id="paint3_linear_1:46572" x1="20.0586" y1="31.2937" x2="23.0931" y2="19.6198" gradientUnits="userSpaceOnUse">
<stop stop-color="#641B00"/>
<stop offset="1" stop-color="#3D0000"/>
</linearGradient>
<linearGradient id="paint4_linear_1:46572" x1="880.71" y1="2547.86" x2="1185.32" y2="2582.92" gradientUnits="userSpaceOnUse">
<stop stop-color="#B4562B"/>
<stop offset="1" stop-color="#641B00"/>
</linearGradient>
<linearGradient id="paint5_linear_1:46572" x1="1062.8" y1="2680.36" x2="1130.6" y2="2689.92" gradientUnits="userSpaceOnUse">
<stop stop-color="#B4562B"/>
<stop offset="1" stop-color="#641B00"/>
</linearGradient>
<linearGradient id="paint6_linear_1:46572" x1="658.3" y1="13890.2" x2="13693.4" y2="-1265.58" gradientUnits="userSpaceOnUse">
<stop stop-color="#641B00"/>
<stop offset="1" stop-color="#3D0000"/>
</linearGradient>
<linearGradient id="paint7_linear_1:46572" x1="811.08" y1="10269.8" x2="9558.36" y2="-5333.11" gradientUnits="userSpaceOnUse">
<stop stop-color="#B4562B"/>
<stop offset="1" stop-color="#641B00"/>
</linearGradient>
<linearGradient id="paint8_linear_1:46572" x1="1319.91" y1="5123.75" x2="1813.88" y2="-4484.48" gradientUnits="userSpaceOnUse">
<stop stop-color="#B4562B"/>
<stop offset="1" stop-color="#641B00"/>
</linearGradient>
</defs>
</svg>
