<svg width="24" height="15" viewBox="0 0 24 15" fill="none" xmlns="http://www.w3.org/2000/svg">
<path d="M16.7107 5.59125C16.8669 5.73606 16.8669 5.97072 16.7107 6.11553L12.794 9.74544C12.7159 9.81782 12.6136 9.85402 12.5112 9.85402C12.158 9.85402 11.9755 9.45545 12.2283 9.22116L16.1449 5.59125C16.3011 5.44653 16.5544 5.44653 16.7107 5.59125ZM16.5583 8.62862C16.9949 8.62862 17.35 8.95781 17.35 9.36235C17.35 9.7669 16.9949 10.096 16.5583 10.096C16.1218 10.096 15.7667 9.7669 15.7667 9.36235C15.7667 8.95781 16.1218 8.62862 16.5583 8.62862ZM16.55 9.36235C16.55 9.37093 16.5667 9.37093 16.5667 9.36235C16.5667 9.35383 16.55 9.35383 16.55 9.36235ZM13.4333 5.7324C13.4333 6.13694 13.0781 6.46614 12.6417 6.46614C12.2051 6.46614 11.85 6.13694 11.85 5.7324C11.85 5.32786 12.2051 4.99871 12.6417 4.99871C13.0781 4.99871 13.4333 5.32786 13.4333 5.7324ZM12.6417 5.72471C12.6305 5.72471 12.6308 5.74014 12.6417 5.74014C12.6526 5.74014 12.6527 5.72471 12.6417 5.72471ZM22.4 0.225746H9.675C9.4541 0.225746 9.275 0.391734 9.275 0.596462C9.275 0.801189 9.4541 0.967177 9.675 0.967177H22.4C22.8411 0.967177 23.2 1.2998 23.2 1.70861V13.3861C23.2 13.795 22.8411 14.1276 22.4 14.1276H7.3V13.3427C7.3 13.138 7.1209 12.972 6.9 12.972C6.6791 12.972 6.5 13.138 6.5 13.3427V14.1276H1.6C1.1589 14.1276 0.8 13.795 0.8 13.3861V11.3443C0.8 11.0702 0.9575 10.822 1.21115 10.6965C3.92675 9.35299 3.926 5.74125 1.2111 4.39815C0.9575 4.27275 0.8 4.02456 0.8 3.75046V1.70861C0.8 1.2998 1.1589 0.967177 1.6 0.967177H6.5V1.75203C6.5 1.95676 6.6791 2.12274 6.9 2.12274C7.1209 2.12274 7.3 1.95676 7.3 1.75203V0.596462C7.3 0.391734 7.1209 0.225746 6.9 0.225746H1.6C0.71775 0.225746 0 0.890949 0 1.70861V3.75046C0 4.29889 0.31975 4.79773 0.8344 5.05232C2.98615 6.11674 2.9857 8.97825 0.83445 10.0425C0.31975 10.2971 0 10.7959 0 11.3443V13.3861C0 14.2038 0.71775 14.869 1.6 14.869H22.4C23.2822 14.869 24 14.2038 24 13.3861V1.70861C24 0.890949 23.2822 0.225746 22.4 0.225746ZM7.3 4.55315C7.3 4.34843 7.1209 4.18244 6.9 4.18244C6.6791 4.18244 6.5 4.34843 6.5 4.55315V6.00437C6.5 6.20909 6.6791 6.37508 6.9 6.37508C7.1209 6.37508 7.3 6.20909 7.3 6.00437V4.55315ZM6.9 8.71967C6.6791 8.71967 6.5 8.88566 6.5 9.09039V10.5416C6.5 10.7463 6.6791 10.9123 6.9 10.9123C7.1209 10.9123 7.3 10.7463 7.3 10.5416V9.09039C7.3 8.88566 7.1209 8.71967 6.9 8.71967Z" fill="#54514C" fill-opacity="0.75"/>
</svg>
