<svg width="52" height="39" viewBox="0 0 52 39" fill="none" xmlns="http://www.w3.org/2000/svg">
<path d="M1 37.1198L3.22635 30.4407C1.30217 27.5949 0.606096 24.2248 1.26754 20.957C1.92898 17.6892 3.90292 14.7461 6.82236 12.675C9.74179 10.6038 13.4081 9.54544 17.1395 9.69674C20.8709 9.84803 24.4135 11.1987 27.1087 13.4975C29.8039 15.7963 31.4682 18.8869 31.7922 22.1947C32.1162 25.5024 31.0779 28.8022 28.8702 31.4805C26.6626 34.1588 23.4359 36.0333 19.79 36.7556C16.1442 37.4779 12.3273 36.9987 9.0491 35.4072L1 37.1198" stroke="#FF3E79" stroke-width="2" stroke-linecap="round" stroke-linejoin="round"/>
<path d="M16.4131 23.4192V23.4363" stroke="#FF3E79" stroke-width="2" stroke-linecap="round" stroke-linejoin="round"/>
<path d="M23.8862 23.4192V23.4363" stroke="#FF3E79" stroke-width="2" stroke-linecap="round" stroke-linejoin="round"/>
<path d="M9.56299 23.4192V23.4363" stroke="#FF3E79" stroke-width="2" stroke-linecap="round" stroke-linejoin="round"/>
<path d="M51 28.4373L48.7737 21.7583C50.6978 18.9124 51.3939 15.5423 50.7325 12.2745C50.071 9.00674 48.0971 6.06365 45.1776 3.99247C42.2582 1.92128 38.5919 0.862948 34.8605 1.01424C31.1291 1.16553 27.5865 2.51616 24.8913 4.81499C22.1961 7.11383 21.0838 9.87425 21.0838 10.3413C28.5569 14.0778 29.024 15.479 30.4252 17.8144C31.8264 20.1497 32.7605 25.7545 30.8922 28.0898C34.5381 28.8121 39.6727 28.3162 42.9509 26.7247L51 28.4373Z" stroke="#FF3E79" stroke-width="2" stroke-linecap="round" stroke-linejoin="round"/>
<path d="M35.5869 14.7367V14.7538" stroke="#FF3E79" stroke-width="2" stroke-linecap="round" stroke-linejoin="round"/>
<path d="M42.437 14.7367V14.7538" stroke="#FF3E79" stroke-width="2" stroke-linecap="round" stroke-linejoin="round"/>
</svg>
