<svg width="253" height="105" viewBox="0 0 253 105" fill="none" xmlns="http://www.w3.org/2000/svg">
<path d="M248.925 36V43.8765" stroke="#F2F2F2" stroke-miterlimit="10"/>
<path d="M245 39.9323H252.861" stroke="#F2F2F2" stroke-miterlimit="10"/>
<g opacity="0.9">
<path opacity="0.05" d="M203.798 26.5365C203.8 27.3374 203.644 28.1308 203.339 28.8712C203.034 29.6117 202.587 30.2846 202.022 30.8515C201.457 31.4184 200.786 31.8682 200.048 32.175C199.31 32.4819 198.518 32.6399 197.719 32.6399H156.355C155.523 32.6478 154.699 32.491 153.928 32.1784C153.157 31.8659 152.456 31.4037 151.864 30.8186C151.272 30.2334 150.801 29.5368 150.479 28.7688C150.157 28.0008 149.99 27.1766 149.986 26.3435C150.028 24.7898 150.666 23.312 151.768 22.2183C152.589 21.3999 153.624 20.8311 154.754 20.5779C155.188 20.4801 155.633 20.4315 156.078 20.4331H156.535C157.363 20.2191 158.095 19.7356 158.618 19.0587C159.141 18.3818 159.425 17.5499 159.425 16.6939V16.5491C159.43 15.856 159.242 15.1752 158.883 14.583C158.526 14.019 158.028 13.5577 157.439 13.2447C156.851 12.9317 156.191 12.7777 155.524 12.7978H151.263C150.813 12.7987 150.365 12.7502 149.926 12.6531C148.379 12.332 147.005 11.4458 146.074 10.1666C145.142 8.88749 144.718 7.30688 144.885 5.73209C145.051 4.1573 145.796 2.70085 146.975 1.64592C148.154 0.590976 149.682 0.0129246 151.263 0.024141H180.42C181.289 0.0161885 182.15 0.180016 182.956 0.506228C183.762 0.832441 184.495 1.31464 185.115 1.92523C185.734 2.53583 186.228 3.26283 186.566 4.06463C186.905 4.86644 187.083 5.72729 187.089 6.59794C187.039 8.25768 186.346 9.8328 185.158 10.9899C183.969 12.1471 182.378 12.7955 180.721 12.7978H171.439C170.465 12.8527 169.55 13.2788 168.88 13.9887C168.21 14.6986 167.837 15.6385 167.837 16.6155C167.837 17.5924 168.21 18.5323 168.88 19.2422C169.55 19.9521 170.465 20.3782 171.439 20.4331H197.719C198.518 20.4331 199.31 20.591 200.048 20.8979C200.786 21.2048 201.457 21.6546 202.022 22.2215C202.587 22.7884 203.034 23.4613 203.339 24.2017C203.644 24.9422 203.8 25.7355 203.798 26.5365Z" fill="#FE4335"/>
<path opacity="0.05" d="M223.637 50.8174C223.572 52.4697 222.871 54.0327 221.682 55.1793C220.493 56.3259 218.907 56.9672 217.257 56.969H179.011C178.184 56.9487 177.373 57.2025 176.705 57.6911C176.037 58.1796 175.548 58.8756 175.315 59.6709C175.232 59.9939 175.192 60.3264 175.195 60.66V60.9495C175.192 61.283 175.232 61.6155 175.315 61.9386C175.548 62.7338 176.037 63.4298 176.705 63.9183C177.373 64.4069 178.184 64.6607 179.011 64.6405H204.942C205.554 64.6403 206.163 64.7339 206.747 64.9179C208.143 65.3448 209.34 66.2606 210.117 67.4982C210.895 68.7357 211.202 70.2123 210.983 71.6582C210.764 73.1041 210.033 74.4228 208.924 75.3733C207.815 76.3238 206.401 76.8427 204.942 76.8352H133.999C132.552 76.8591 131.142 76.3791 130.009 75.4772C128.876 74.5752 128.091 73.3073 127.787 71.8897C127.594 70.9113 127.645 69.9001 127.937 68.9465C128.229 67.9929 128.753 67.1267 129.461 66.4256C130.152 65.7219 131.009 65.2035 131.953 64.9179C132.541 64.7327 133.154 64.6391 133.771 64.6405H135.576C136.403 64.6607 137.214 64.4069 137.882 63.9183C138.55 63.4298 139.039 62.7338 139.272 61.9386C139.355 61.6155 139.395 61.283 139.392 60.9495V60.6117C139.343 59.6241 138.912 58.6946 138.191 58.0194C137.47 57.3442 136.515 56.9762 135.528 56.9931H92.6232C91.7478 57.0011 90.8795 56.8345 90.069 56.5029C89.2584 56.1713 88.5219 55.6813 87.9023 55.0616C87.2826 54.4419 86.7923 53.7048 86.4599 52.8933C86.1275 52.0818 85.9596 51.2121 85.966 50.3349C86.0374 48.6879 86.741 47.1323 87.9299 45.9927C89.1188 44.8532 90.7011 44.2179 92.3463 44.2194H216.956C217.828 44.2099 218.693 44.3733 219.502 44.7003C220.31 45.0273 221.046 45.5114 221.667 46.1247C222.289 46.738 222.782 47.4684 223.12 48.2738C223.458 49.0792 223.634 49.9436 223.637 50.8174Z" fill="#FE4335"/>
<path opacity="0.05" d="M0 73.6749C0.0482416 75.6486 0.69951 77.5599 1.86595 79.1511C3.06588 80.3463 4.6884 81.0182 6.38036 81.0207H44.6264C45.4545 81.0032 46.2652 81.2595 46.9333 81.7501C47.6014 82.2407 48.0895 82.9382 48.3222 83.7347C48.3992 84.0547 48.4396 84.3825 48.4426 84.7117V85.0012C48.4403 85.3344 48.3999 85.6663 48.3222 85.9903C48.0891 86.7856 47.6005 87.4815 46.9322 87.9701C46.2639 88.4586 45.4534 88.7124 44.6264 88.6921H18.6956C18.0831 88.692 17.4742 88.7856 16.8899 88.9696C14.41 89.7416 12.6162 93.2516 12.6162 95.9897C12.6147 96.7906 12.7707 97.584 13.0755 98.3244C13.3804 99.0649 13.8279 99.7378 14.3926 100.305C14.9573 100.872 15.628 101.321 16.3664 101.628C17.1048 101.935 17.8963 102.093 18.6956 102.093H137.78C139.228 102.118 140.64 101.638 141.775 100.736C142.91 99.8344 143.697 98.5662 144.003 97.1476C144.188 95.9802 144.135 94.7874 143.848 93.641C143.56 92.4946 143.044 91.4185 142.33 90.4773C141.639 89.7736 140.782 89.2552 139.838 88.9696C139.25 88.7844 138.637 88.6908 138.02 88.6921H136.203C135.706 88.7188 135.21 88.6426 134.744 88.4681C134.278 88.2936 133.854 88.0247 133.497 87.6783C133.14 87.3318 132.858 86.9152 132.669 86.4545C132.48 85.9939 132.388 85.4991 132.398 85.0012V84.6634C132.448 83.6758 132.879 82.7463 133.6 82.0711C134.321 81.3959 135.276 81.0279 136.263 81.0448H179.168C182.779 81.0448 185.969 76.8472 185.813 73.1924C185.75 71.5434 185.052 69.983 183.864 68.84C182.676 67.697 181.091 67.0606 179.445 67.0649H6.65724C5.78673 67.0602 4.92383 67.2274 4.11791 67.5572C3.312 67.8869 2.57889 68.3727 1.96055 68.9867C1.34221 69.6006 0.850769 70.3307 0.514355 71.1352C0.17794 71.9396 0.00315256 72.8027 0 73.6749Z" fill="#FE4335"/>
</g>
<path opacity="0.5" d="M129.377 104C148.737 104 164.432 88.0527 164.432 68.3808C164.432 48.7088 148.737 32.7616 129.377 32.7616C110.016 32.7616 94.3208 48.7088 94.3208 68.3808C94.3208 88.0527 110.016 104 129.377 104Z" fill="#E0E0E0"/>
<path d="M95.4937 61.6056C95.7264 60.2113 96.0481 58.8334 96.4567 57.4804C98.2632 51.4457 101.686 46.0224 106.352 41.7997" stroke="#FE4335" stroke-width="2" stroke-miterlimit="10" stroke-linecap="round"/>
<path d="M114.478 36.408C116.628 35.3635 118.884 34.5546 121.208 33.9956C128.161 32.2841 135.474 32.7883 142.129 35.4379C148.783 38.0875 154.447 42.7505 158.331 48.7775C162.215 54.8044 164.127 61.8952 163.8 69.0621C163.472 76.229 160.922 83.1151 156.505 88.7614C152.087 94.4076 146.022 98.5327 139.154 100.562C132.286 102.592 124.957 102.424 118.189 100.084C111.42 97.743 105.549 93.3454 101.392 87.5035C97.2359 81.6616 95.0013 74.6662 95 67.4918" stroke="#FE4335" stroke-width="2" stroke-miterlimit="10" stroke-linecap="round"/>
<path d="M114 80.9961L142.464 53.4675" stroke="white" stroke-width="3" stroke-linecap="round" stroke-linejoin="round"/>
<path d="M115 81L143 54" stroke="#FE4335" stroke-width="3" stroke-linecap="round" stroke-linejoin="round"/>
<path d="M248.063 35.5468V43.4233" stroke="#E0E0E0" stroke-miterlimit="10"/>
<path d="M244.139 39.479H252" stroke="#E0E0E0" stroke-miterlimit="10"/>
<path d="M99.8464 28.9368C103.091 28.9368 105.721 26.3014 105.721 23.0505C105.721 19.7996 103.091 17.1642 99.8464 17.1642C96.6019 17.1642 93.9717 19.7996 93.9717 23.0505C93.9717 26.3014 96.6019 28.9368 99.8464 28.9368Z" stroke="#FE4335" stroke-miterlimit="10"/>
</svg>
