<svg width="25" height="23" viewBox="0 0 25 23" fill="none" xmlns="http://www.w3.org/2000/svg">
<path d="M20.6101 7.60292C20.6098 7.60292 20.6095 7.60292 20.6093 7.60292H0.43802C0.247301 7.60273 0.0924871 7.74497 0.0922854 7.92064C0.0922854 7.92087 0.0922854 7.92115 0.0922854 7.92138V16.8398C0.0920836 17.0155 0.246494 17.1581 0.437214 17.1583C0.437466 17.1583 0.437768 17.1583 0.43802 17.1583H14.1545C14.3454 17.1583 14.5002 17.0157 14.5002 16.8398C14.5002 16.664 14.3454 16.5214 14.1545 16.5214H0.783755V8.23985H20.2635V9.03619C20.2633 9.21187 20.4177 9.35447 20.6084 9.35466C20.6087 9.35466 20.609 9.35466 20.6093 9.35466C20.8 9.35484 20.9548 9.21261 20.955 9.03694C20.955 9.0367 20.955 9.03642 20.955 9.03619V7.92138C20.9552 7.74571 20.8008 7.60315 20.6101 7.60292Z" fill="#54514C" fill-opacity="0.75"/>
<path d="M18.2646 6.12445L2.1276 2.78003C2.03804 2.76159 1.94419 2.77655 1.86658 2.82165C1.78908 2.86712 1.73426 2.93898 1.71409 3.02157L0.90724 6.366C0.865788 6.53777 0.983386 6.70796 1.16987 6.74615C1.35635 6.78433 1.54112 6.67601 1.58257 6.50423L2.31398 3.47158L18.1129 6.74577C18.1379 6.75112 18.1635 6.75376 18.1891 6.75358C18.3801 6.75325 18.5346 6.61042 18.5343 6.43456C18.534 6.28587 18.422 6.1572 18.2646 6.12445Z" fill="#54514C" fill-opacity="0.75"/>
<path d="M16.3052 4.28166L6.623 0.565632C6.45472 0.50102 6.26083 0.567397 6.17923 0.717618L5.37239 2.20403C5.28126 2.35927 5.34399 2.5532 5.51258 2.63713C5.68111 2.72107 5.89164 2.66328 5.98277 2.508C5.98635 2.50191 5.98973 2.49569 5.99285 2.48937V2.49012L6.65487 1.26977L16.0381 4.87098C16.2148 4.93889 16.4179 4.86206 16.4916 4.69929C16.5653 4.53663 16.4819 4.34962 16.3052 4.28166Z" fill="#54514C" fill-opacity="0.75"/>
<path d="M16.5499 9.08929H13.3479C13.157 9.08929 13.0022 9.2319 13.0022 9.40776C13.0022 9.58362 13.157 9.72622 13.3479 9.72622H16.5499C16.7408 9.72622 16.8957 9.58362 16.8957 9.40776C16.8957 9.2319 16.7408 9.08929 16.5499 9.08929Z" fill="#54514C" fill-opacity="0.75"/>
<path d="M10.1202 9.11061C8.15951 9.11061 6.57007 10.5747 6.57007 12.3807C6.57209 14.186 8.16037 15.649 10.1202 15.6508C12.0809 15.6508 13.6703 14.1868 13.6703 12.3807C13.6703 10.5747 12.0809 9.11061 10.1202 9.11061ZM10.1202 15.0563C8.51599 15.0563 7.21555 13.8584 7.21555 12.3807C7.21731 10.9037 8.51674 9.7068 10.1202 9.70517C11.7244 9.70517 13.0249 10.903 13.0249 12.3807C13.0249 13.8584 11.7244 15.0563 10.1202 15.0563Z" fill="#54514C" fill-opacity="0.75"/>
<path d="M19.8024 10.1509C17.6643 10.1509 15.3647 10.6161 15.3647 11.6373V20.5558C15.3647 21.5769 17.6643 22.0422 19.8024 22.0422C21.9406 22.0422 24.2401 21.5769 24.2401 20.5558V11.6373C24.2401 10.6161 21.9406 10.1509 19.8024 10.1509ZM23.4332 20.5502C23.3723 20.7564 22.1625 21.299 19.8024 21.299C17.4424 21.299 16.2325 20.7564 16.1716 20.5558V19.9716C17.0301 20.37 18.4481 20.5558 19.8024 20.5558C21.1567 20.5558 22.5752 20.3681 23.4332 19.9712V20.5502ZM23.4332 19.0638C23.3723 19.27 22.1625 19.8126 19.8024 19.8126C17.4424 19.8126 16.2325 19.27 16.1716 19.0694V18.4852C17.0301 18.8836 18.4481 19.0694 19.8024 19.0694C21.1567 19.0694 22.5752 18.8817 23.4332 18.4848V19.0638ZM23.4332 17.5774C23.3723 17.7836 22.1625 18.3261 19.8024 18.3261C17.4424 18.3261 16.2325 17.7836 16.1716 17.5829V16.9988C17.0301 17.3971 18.4481 17.5829 19.8024 17.5829C21.1567 17.5829 22.5752 17.3953 23.4332 16.9984V17.5774ZM23.4332 16.091C23.3723 16.2972 22.1625 16.8397 19.8024 16.8397C17.4424 16.8397 16.2325 16.2972 16.1716 16.0965V15.5124C17.0301 15.9107 18.4481 16.0965 19.8024 16.0965C21.1567 16.0965 22.5752 15.9089 23.4332 15.512V16.091ZM23.4332 14.6045C23.3723 14.8108 22.1625 15.3533 19.8024 15.3533C17.4424 15.3533 16.2325 14.8108 16.1716 14.6101V14.026C17.0301 14.4225 18.4481 14.6101 19.8024 14.6101C21.1567 14.6101 22.5752 14.4225 23.4332 14.0256V14.6045ZM23.4332 13.1181C23.3723 13.3244 22.1625 13.8669 19.8024 13.8669C17.4424 13.8669 16.2325 13.3244 16.1716 13.1237V12.5395C17.0301 12.936 18.4481 13.1237 19.8024 13.1237C21.1567 13.1237 22.5752 12.936 23.4332 12.5392V13.1181ZM19.8024 12.3805C17.446 12.3805 16.2365 11.8394 16.1716 11.644V11.6418C16.2365 11.4348 17.446 10.8941 19.8024 10.8941C22.1423 10.8941 23.3526 11.427 23.4332 11.6373C23.3526 11.8476 22.1423 12.3805 19.8024 12.3805Z" fill="#54514C" fill-opacity="0.75"/>
<path d="M6.89329 15.0346H3.8438L2.39793 13.5779V11.1625L3.99468 9.72622H6.89329C7.08421 9.72622 7.23903 9.58362 7.23903 9.40776C7.23903 9.2319 7.08421 9.0893 6.89329 9.0893H3.85429C3.76392 9.08911 3.67704 9.12153 3.61224 9.17959L1.81014 10.7987C1.74282 10.8711 1.7059 10.9634 1.70606 11.0588V13.7016C1.70606 13.7811 1.73828 13.8577 1.79642 13.9164L3.43554 15.5678C3.50104 15.6339 3.59373 15.6715 3.6909 15.6715H6.89329C7.08421 15.6715 7.23903 15.5289 7.23903 15.353C7.23903 15.1772 7.08426 15.0346 6.89329 15.0346Z" fill="#54514C" fill-opacity="0.75"/>
<path d="M10.3221 12.0092H9.91872C9.79325 12.0092 9.71701 11.9445 9.71701 11.9163C9.71701 11.888 9.79325 11.8234 9.91872 11.8234H10.9273C11.1501 11.8234 11.3307 11.657 11.3307 11.4518C11.3307 11.2466 11.1501 11.0802 10.9273 11.0802H10.5239C10.5239 10.875 10.3432 10.7086 10.1204 10.7086C9.89764 10.7086 9.71701 10.875 9.71701 11.0802V11.0969C9.26956 11.1551 8.93058 11.4986 8.91016 11.9144C8.93905 12.4016 9.38958 12.776 9.91872 12.7524H10.3221C10.4476 12.7524 10.5239 12.817 10.5239 12.8453C10.5239 12.8735 10.4476 12.9382 10.3221 12.9382H9.31358C9.09079 12.9382 8.91016 13.1046 8.91016 13.3098C8.91016 13.515 9.09079 13.6814 9.31358 13.6814H9.71701C9.71701 13.8866 9.89764 14.053 10.1204 14.053C10.3432 14.053 10.5239 13.8866 10.5239 13.6814V13.6647C10.9713 13.6065 11.3103 13.263 11.3307 12.8471C11.3018 12.3599 10.8513 11.9856 10.3221 12.0092Z" fill="#54514C" fill-opacity="0.75"/>
</svg>
