<svg width="29" height="23" viewBox="0 0 29 23" fill="none" xmlns="http://www.w3.org/2000/svg">
<path d="M14.8043 8.25702C13.2636 8.25702 12.0145 9.44233 12.0145 10.9045C12.0145 12.3667 13.2635 13.5521 14.8043 13.5521C16.345 13.5521 17.5941 12.3668 17.5941 10.9045C17.5941 9.44233 16.3451 8.25702 14.8043 8.25702ZM14.8043 12.2913C13.9972 12.2913 13.343 11.6704 13.343 10.9045C13.343 10.1386 13.9972 9.51768 14.8043 9.51768C15.6114 9.51768 16.2656 10.1386 16.2656 10.9045C16.2656 11.6704 15.6114 12.2913 14.8043 12.2913Z" fill="#54514C" fill-opacity="0.75"/>
<path d="M25.9299 2.20392L7.79638 0.249862C7.0926 0.154907 6.37955 0.349885 5.83692 0.785689C5.29436 1.18493 4.94657 1.77675 4.87379 2.4246L4.5417 5.00908H3.51207C2.05075 5.00908 0.954755 6.23825 0.954755 7.62505V20.5158C0.917948 21.8383 2.01776 22.9387 3.41132 22.9736C3.44488 22.9745 3.47851 22.9747 3.51207 22.9742H21.7452C23.2065 22.9742 24.535 21.9026 24.535 20.5158V20.0116C24.9881 19.9285 25.4178 19.7567 25.797 19.5073C26.3351 19.0773 26.6797 18.4685 26.7602 17.8053L28.2879 5.00908C28.4437 3.61908 27.3926 2.36868 25.9299 2.20392ZM23.2065 20.5158C23.2065 21.2092 22.4759 21.7135 21.7452 21.7135H3.51207C2.85204 21.7319 2.30127 21.239 2.28189 20.6127C2.28087 20.5804 2.28131 20.5481 2.28322 20.5158V18.1835L7.43104 14.5905C8.04944 14.1399 8.92047 14.18 9.49017 14.685L13.1102 17.7107C13.66 18.1488 14.352 18.3936 15.0698 18.4041C15.6309 18.4107 16.1829 18.2688 16.6639 17.9944L23.2066 14.4014V20.5158H23.2065ZM23.2065 12.92L15.9664 16.9228C15.3447 17.2723 14.5578 17.2091 14.0069 16.7652L10.3536 13.708C9.30659 12.8542 7.77622 12.8018 6.66713 13.5819L2.28322 16.6076V7.62505C2.28322 6.93165 2.78141 6.2698 3.51207 6.2698H21.7452C22.5258 6.30051 23.1562 6.8852 23.2065 7.62505V12.92ZM26.9607 4.8389C26.9603 4.84306 26.9599 4.84728 26.9594 4.85144L25.3985 17.6477C25.4011 17.9795 25.2417 18.2937 24.9667 18.4987C24.8338 18.6248 24.5349 18.6878 24.5349 18.7508V7.62505C24.4825 6.1892 23.2587 5.0416 21.7451 5.00908H5.87011L6.16901 2.55068C6.23385 2.23234 6.40924 1.94385 6.6672 1.7312C6.95847 1.54008 7.31064 1.45098 7.66358 1.47903L25.7639 3.46464C26.4942 3.53046 27.0301 4.14574 26.9607 4.8389Z" fill="#54514C" fill-opacity="0.75"/>
</svg>
