<svg width="25" height="24" viewBox="0 0 25 24" fill="none" xmlns="http://www.w3.org/2000/svg">
<path d="M18.126 16.7947H19.5305V20.2069H18.126V16.7947Z" fill="#54514C" fill-opacity="0.75"/>
<path d="M18.8242 15.9104C19.1915 15.9104 19.5435 15.6039 19.5265 15.244C19.5094 14.8829 19.2179 14.5775 18.8242 14.5775C18.4569 14.5775 18.1049 14.8841 18.1219 15.244C18.139 15.6051 18.4305 15.9104 18.8242 15.9104Z" fill="#54514C" fill-opacity="0.75"/>
<path d="M20.0632 11.9294V0.592621H4.0436C2.34173 0.592621 0.957153 1.86794 0.957153 3.48301V20.4979H0.971994C1.12799 22.0901 2.5431 23.3408 4.26083 23.3408H18.8325C22.1934 23.3408 24.9277 20.7846 24.9277 17.5951C24.9277 14.8056 22.8362 12.4711 20.0632 11.9294ZM18.6565 11.8134C15.5619 11.8972 13.038 14.1805 12.7628 17.0703H6.6055V1.88895H18.6565V11.8134ZM4.0436 1.88895H5.19872V17.0703H4.26083C3.55524 17.0703 2.90116 17.282 2.36388 17.641V3.48301C2.36388 2.60401 3.11741 1.88895 4.0436 1.88895ZM4.26083 22.0058C3.21483 22.0058 2.36388 21.1982 2.36388 20.2056C2.36388 19.2129 3.21483 18.4053 4.26083 18.4053H12.7975C12.856 18.7997 12.9564 19.1814 13.0946 19.5463H4.52193V20.8813H13.8196C14.1248 21.2993 14.4864 21.6775 14.8941 22.0058H4.26083V22.0058ZM18.8326 22.0444C16.2474 22.0444 14.1442 20.0485 14.1442 17.5951C14.1442 15.1418 16.2474 13.1458 18.8326 13.1458C21.4178 13.1458 23.521 15.1418 23.521 17.5951C23.521 20.0485 21.4178 22.0444 18.8326 22.0444Z" fill="#54514C" fill-opacity="0.75"/>
<path d="M10.3596 4.48395H15.0676V5.81893H10.3596V4.48395Z" fill="#54514C" fill-opacity="0.75"/>
<path d="M8.76782 7.383H16.6564V8.71798H8.76782V7.383Z" fill="#54514C" fill-opacity="0.75"/>
</svg>
