<svg width="25" height="24" viewBox="0 0 25 24" fill="none" xmlns="http://www.w3.org/2000/svg">
<path d="M24.6869 0.894035C24.5379 0.835649 24.3657 0.867496 24.2515 0.976308L20.1393 4.87875V2.00263C20.1393 1.79334 19.9608 1.62349 19.7398 1.62349H3.35995C2.03797 1.62349 0.962891 2.64375 0.962891 3.89831V21.3385C0.962891 22.5931 2.03797 23.6134 3.35995 23.6134H19.7398C19.9608 23.6134 20.1393 23.4435 20.1393 23.2342V12.7754L22.0082 11.0018C23.8947 9.21151 24.9334 6.8313 24.9334 4.29981V1.24436C24.9334 1.09119 24.8364 0.952801 24.6869 0.894035ZM19.3403 22.8551H3.35995C2.47863 22.8551 1.76191 22.1749 1.76191 21.3385C1.76191 20.5022 2.47863 19.822 3.35995 19.822H19.3403V22.8551ZM19.3403 19.0637H3.35995C2.7455 19.0637 2.18659 19.2859 1.76191 19.6476V3.89831C1.76191 3.06193 2.47863 2.38176 3.35995 2.38176H19.3403V5.63702L13.8642 10.8338C13.7891 10.9047 13.7472 11.0014 13.7472 11.1019V14.3571L11.4672 16.5209L12.0321 17.057L14.3121 14.8932H17.7423C17.8485 14.8932 17.95 14.8534 18.0247 14.7822L19.3403 13.5337V19.0637ZM24.1344 4.29981C24.1344 6.62922 23.1784 8.81873 21.4433 10.4657L17.5769 14.135H15.1111L21.6203 7.95771L21.0554 7.42161L14.5462 13.5989V11.2588L24.1344 2.15959V4.29981Z" fill="#54514C" fill-opacity="0.75"/>
<path d="M10.5527 11.1026C12.7556 11.1026 14.5478 9.40181 14.5478 7.31125C14.5478 5.2207 12.7556 3.5199 10.5527 3.5199C8.34982 3.5199 6.55762 5.2207 6.55762 7.31125C6.55762 9.40181 8.34982 11.1026 10.5527 11.1026ZM8.58752 9.69829C8.72575 8.77358 9.55034 8.06952 10.5527 8.06952C11.5551 8.06952 12.3797 8.77358 12.5179 9.69829C11.975 10.1017 11.2938 10.3443 10.5527 10.3443C9.81162 10.3443 9.13046 10.1017 8.58752 9.69829ZM9.75369 6.55298C9.75369 6.1348 10.1121 5.79471 10.5527 5.79471C10.9934 5.79471 11.3517 6.1348 11.3517 6.55298C11.3517 6.97117 10.9934 7.31125 10.5527 7.31125C10.1121 7.31125 9.75369 6.97117 9.75369 6.55298ZM10.5527 4.27817C12.3149 4.27817 13.7488 5.63889 13.7488 7.31125C13.7488 7.9554 13.5346 8.55216 13.1723 9.0439C12.917 8.38648 12.3964 7.85645 11.7361 7.563C11.9909 7.29419 12.1507 6.94235 12.1507 6.55298C12.1507 5.71661 11.434 5.03644 10.5527 5.03644C9.67139 5.03644 8.95467 5.71661 8.95467 6.55298C8.95467 6.94235 9.11448 7.29419 9.36936 7.563C8.70897 7.85645 8.18841 8.38648 7.93313 9.0439C7.57077 8.55216 7.35664 7.9554 7.35664 7.31125C7.35664 5.63889 8.79047 4.27817 10.5527 4.27817Z" fill="#54514C" fill-opacity="0.75"/>
<path d="M6.95557 16.4083H10.9507V17.1666H6.95557V16.4083Z" fill="#54514C" fill-opacity="0.75"/>
<path d="M6.95557 14.5126H12.1492V15.2709H6.95557V14.5126Z" fill="#54514C" fill-opacity="0.75"/>
<path d="M6.95557 12.6169H12.9482V13.3752H6.95557V12.6169Z" fill="#54514C" fill-opacity="0.75"/>
</svg>
