<svg width="196" height="124" viewBox="0 0 196 124" fill="none" xmlns="http://www.w3.org/2000/svg">
<path d="M194.915 76.3978C193.699 84.1459 189.932 91.6665 183.715 96.4256C177.596 101.113 169.757 102.778 162.189 104.21C153.113 105.929 144.011 107.5 134.885 108.924C133.592 109.131 132.297 109.33 131.001 109.523H77.8458C77.792 109.451 77.7353 109.376 77.6816 109.301C77.5949 109.176 77.5083 109.05 77.4245 108.924C77.3768 108.852 77.329 108.777 77.2811 108.702H110.623C111.569 108.701 112.476 108.325 113.145 107.654C113.815 106.984 114.191 106.075 114.193 105.126V60.5121C114.408 59.8352 114.608 59.1553 114.791 58.4665C115.641 55.2588 116.194 51.9793 116.443 48.6697C116.622 46.3635 116.676 44.0573 116.637 41.7481C116.526 35.4016 115.699 29.0552 114.8 22.7536C114.734 22.2894 114.665 21.8221 114.599 21.3579C113.966 16.9792 113.389 12.214 115.591 8.37739C118.11 3.98666 123.7 2.15669 128.734 2.60594C137.789 3.4176 145.416 10.3691 149.381 18.5725C153.343 26.7729 154.23 36.0995 154.591 45.2044C154.783 50.0324 154.762 55.0761 154.09 59.9191C156.36 54.7137 158.633 49.5083 160.907 44.3029C162.12 41.5265 163.396 38.6603 165.643 36.6296C170.339 32.3797 178.107 33.2362 183.123 37.1058C188.136 40.9784 190.885 47.0973 192.713 53.1682C194.978 60.6768 196.134 68.6496 194.915 76.3978Z" fill="#F2F2F2"/>
<path d="M175.175 34.4007C178.514 40.183 180.046 46.8134 180.01 53.4301C179.958 59.9903 178.474 66.4641 175.656 72.418C173.107 77.7941 169.556 82.6589 165.185 86.7633C160.871 90.8586 155.752 94.0556 150.138 96.1609C143.623 98.548 136.577 99.2026 129.719 98.0578C128.767 97.8977 127.821 97.7037 126.882 97.4757C126.313 97.3385 126.07 98.1975 126.64 98.3349C133.776 100.064 141.26 99.8538 148.283 97.7264C154.132 95.8866 159.529 92.8847 164.136 88.9091C168.8 84.9227 172.656 80.1158 175.506 74.738C178.623 68.8502 180.442 62.3881 180.845 55.7698C181.243 49.0538 180.091 42.2182 177.121 36.126C176.761 35.3878 176.374 34.6628 175.962 33.9509C175.899 33.8532 175.799 33.7833 175.684 33.7559C175.569 33.7285 175.448 33.7458 175.346 33.8041C175.244 33.8624 175.169 33.9572 175.137 34.0685C175.105 34.1798 175.119 34.2989 175.175 34.4007H175.175Z" fill="white"/>
<path d="M126.765 2.10626C130.432 8.88423 133.29 16.0719 135.279 23.5206C139.261 38.4391 139.86 54.0625 137.034 69.2437C135.623 76.8287 133.321 84.2195 130.177 91.2619C127.043 98.245 122.529 105.603 114.82 108.048C113.95 108.322 113.059 108.522 112.155 108.645C111.582 108.724 111.826 109.596 112.395 109.518C120.369 108.421 125.91 101.778 129.385 95.006C132.981 87.9994 135.541 80.3907 137.244 72.7088C140.619 57.3811 140.497 41.4871 136.889 26.2129C135.097 18.6039 132.418 11.2327 128.907 4.25135C128.466 3.37708 128.012 2.50978 127.544 1.64947C127.267 1.13765 126.487 1.59396 126.765 2.10627V2.10626Z" fill="white"/>
<path d="M149.718 92.1308C149.72 92.6032 149.53 93.0572 149.189 93.393C148.849 93.7288 148.385 93.9189 147.901 93.9213H67.9542C67.4697 93.9189 67.0061 93.7289 66.6654 93.3931C66.3246 93.0573 66.1346 92.6032 66.1371 92.1308V38.8771C66.1346 38.4047 66.3246 37.9506 66.6653 37.6149C67.0061 37.2791 67.4697 37.089 67.9541 37.0865H147.901C148.385 37.089 148.849 37.279 149.189 37.6148C149.53 37.9506 149.72 38.4046 149.718 38.8771V92.1308Z" fill="#E6E6E6"/>
<path d="M146.374 91.0863C146.374 91.5427 146.191 91.9803 145.863 92.303C145.536 92.6256 145.092 92.8069 144.63 92.8069H67.882C67.4192 92.8069 66.9754 92.6256 66.6482 92.303C66.3209 91.9803 66.1371 91.5427 66.1371 91.0863V39.9215C66.1371 39.4652 66.3209 39.0275 66.6482 38.7049C66.9754 38.3822 67.4192 38.2009 67.882 38.2009H144.633C145.095 38.2018 145.538 38.3835 145.865 38.7061C146.191 39.0287 146.374 39.4658 146.374 39.9215V91.0863Z" fill="white"/>
<path d="M72.7206 39.3152H143.135C143.403 39.3152 143.66 39.4256 143.85 39.6221C144.039 39.8186 144.146 40.0851 144.146 40.363V89.5301C144.146 89.808 144.039 90.0745 143.85 90.271C143.66 90.4675 143.403 90.5779 143.135 90.5779H72.7206C72.5878 90.5779 72.4563 90.5508 72.3336 90.4982C72.2109 90.4455 72.0994 90.3683 72.0055 90.271C71.9116 90.1737 71.8372 90.0582 71.7863 89.9311C71.7355 89.804 71.7094 89.6677 71.7094 89.5301V40.363C71.7094 40.2254 71.7355 40.0891 71.7863 39.962C71.8372 39.8349 71.9116 39.7194 72.0055 39.6221C72.0994 39.5248 72.2109 39.4476 72.3336 39.3949C72.4563 39.3423 72.5878 39.3152 72.7206 39.3152Z" fill="#E6E6E6"/>
<path d="M72.7313 40.4297H142.009C142.281 40.4297 142.54 40.541 142.732 40.7391C142.924 40.9372 143.031 41.2058 143.031 41.486V88.4073C143.031 88.6875 142.924 88.9561 142.732 89.1542C142.54 89.3523 142.281 89.4636 142.009 89.4636H72.7313C72.4603 89.4636 72.2003 89.3523 72.0087 89.1542C71.817 88.9561 71.7094 88.6875 71.7094 88.4073V41.486C71.7094 41.2058 71.817 40.9372 72.0087 40.7391C72.2003 40.541 72.4603 40.4297 72.7313 40.4297Z" fill="white"/>
<path d="M131.887 98.8172C131.89 99.2896 131.7 99.7436 131.359 100.079C131.018 100.415 130.555 100.605 130.07 100.608H50.1237C49.8839 100.607 49.6466 100.559 49.4255 100.469C49.2043 100.378 49.0037 100.246 48.8349 100.079C48.6662 99.9132 48.5327 99.7162 48.4421 99.4996C48.3514 99.283 48.3054 99.0511 48.3067 98.8172V45.5635C48.3041 45.0911 48.4941 44.637 48.8349 44.3013C49.1757 43.9655 49.6392 43.7754 50.1237 43.7729H130.07C130.555 43.7754 131.018 43.9654 131.359 44.3012C131.7 44.637 131.89 45.091 131.887 45.5635V98.8172Z" fill="#E6E6E6"/>
<path d="M128.544 97.7726C128.544 98.2289 128.368 98.6666 128.054 98.9892C127.741 99.3119 127.315 99.4932 126.872 99.4932H53.322C52.8785 99.4932 52.4532 99.3119 52.1396 98.9892C51.826 98.6666 51.6498 98.2289 51.6498 97.7726V46.6078C51.6498 46.1515 51.826 45.7138 52.1396 45.3912C52.4532 45.0685 52.8785 44.8872 53.322 44.8872H126.875C127.318 44.8881 127.742 45.0698 128.055 45.3924C128.368 45.7149 128.544 46.1521 128.544 46.6078V97.7726Z" fill="white"/>
<path d="M54.8902 47.1161H125.304C125.572 47.1161 125.83 47.2265 126.019 47.423C126.209 47.6195 126.315 47.886 126.315 48.1639V97.331C126.315 97.6089 126.209 97.8755 126.019 98.0719C125.83 98.2684 125.572 98.3788 125.304 98.3788H54.8902C54.622 98.3788 54.3647 98.2684 54.1751 98.0719C53.9854 97.8755 53.8789 97.6089 53.8789 97.331V48.1639C53.8789 47.886 53.9854 47.6195 54.1751 47.423C54.3647 47.2265 54.622 47.1161 54.8902 47.1161Z" fill="#E6E6E6"/>
<path d="M54.9008 48.2306H124.179C124.45 48.2306 124.71 48.3343 124.902 48.5189C125.093 48.7035 125.201 48.9538 125.201 49.2149V92.937C125.201 93.1981 125.093 93.4484 124.902 93.633C124.71 93.8176 124.45 93.9213 124.179 93.9213H54.9008C54.6298 93.9213 54.3699 93.8176 54.1782 93.633C53.9866 93.4484 53.8789 93.1981 53.8789 92.937V49.2149C53.8789 48.9538 53.9866 48.7035 54.1782 48.5189C54.3699 48.3343 54.6298 48.2306 54.9008 48.2306Z" fill="white"/>
<path d="M114.057 106.548C114.059 107.039 113.869 107.511 113.529 107.86C113.188 108.209 112.724 108.406 112.24 108.409H32.2933C31.8089 108.406 31.3453 108.209 31.0045 107.86C30.6637 107.511 30.4737 107.039 30.4762 106.548V51.2058C30.4737 50.7148 30.6637 50.243 31.0045 49.894C31.3452 49.545 31.8088 49.3475 32.2932 49.345H112.24C112.48 49.3462 112.717 49.3954 112.938 49.4896C113.159 49.5838 113.36 49.7212 113.528 49.894C113.697 50.0667 113.831 50.2715 113.921 50.4966C114.012 50.7217 114.058 50.9626 114.057 51.2057V106.548Z" fill="#E6E6E6"/>
<path d="M112.942 105.574C112.942 106.03 112.761 106.467 112.438 106.79C112.116 107.113 111.678 107.294 111.222 107.294H35.54C35.0837 107.294 34.646 107.113 34.3233 106.79C34.0006 106.467 33.8193 106.03 33.8193 105.574V54.4087C33.8193 53.9524 34.0006 53.5147 34.3233 53.1921C34.646 52.8694 35.0837 52.6881 35.54 52.6881H111.225C111.681 52.689 112.118 52.8707 112.44 53.1933C112.761 53.5158 112.942 53.953 112.942 54.4087V105.574Z" fill="white"/>
<path d="M37.0597 53.8026H107.474C107.742 53.8026 107.999 53.913 108.189 54.1095C108.378 54.306 108.485 54.5725 108.485 54.8504V104.018C108.485 104.295 108.378 104.562 108.189 104.758C107.999 104.955 107.742 105.065 107.474 105.065H37.0597C36.7915 105.065 36.5343 104.955 36.3447 104.758C36.155 104.562 36.0485 104.295 36.0485 104.018V54.8504C36.0485 54.5725 36.155 54.306 36.3447 54.1095C36.5343 53.913 36.7915 53.8026 37.0597 53.8026Z" fill="#E6E6E6"/>
<path d="M38.1686 54.917H106.364C106.631 54.917 106.887 55.0258 107.076 55.2193C107.264 55.4129 107.37 55.6755 107.37 55.9493V101.804C107.37 102.078 107.264 102.341 107.076 102.534C106.887 102.728 106.631 102.837 106.364 102.837H38.1686C37.9018 102.837 37.6459 102.728 37.4572 102.534C37.2686 102.341 37.1626 102.078 37.1626 101.804V55.9493C37.1626 55.6755 37.2686 55.4129 37.4572 55.2193C37.6459 55.0258 37.9018 54.917 38.1686 54.917Z" fill="white"/>
<path d="M88.4252 62.0619V105.228C88.425 105.48 88.3301 105.722 88.1612 105.901C87.9924 106.079 87.7634 106.18 87.5247 106.18H44.7494C44.5106 106.18 44.2817 106.079 44.1128 105.901C43.944 105.722 43.8491 105.48 43.8489 105.228V56.9836C43.8491 56.7311 43.944 56.489 44.1128 56.3105C44.2817 56.132 44.5106 56.0316 44.7494 56.0314H82.1215L88.4252 62.0619Z" fill="#FF3E79"/>
<path d="M52.1956 72.7475C52.05 72.75 51.9112 72.8098 51.8091 72.914C51.707 73.0182 51.6498 73.1585 51.6498 73.3047C51.6498 73.4508 51.707 73.5911 51.8091 73.6953C51.9112 73.7995 52.05 73.8593 52.1956 73.8618H81.1766C81.3235 73.8636 81.4651 73.807 81.5705 73.7043C81.6758 73.6016 81.7363 73.4612 81.7387 73.3138C81.7411 73.1664 81.6853 73.024 81.5833 72.9179C81.4814 72.8118 81.3417 72.7505 81.1949 72.7475C81.1888 72.7474 81.1827 72.7474 81.1766 72.7475H52.1956Z" fill="white"/>
<path d="M52.1955 82.7773C52.0499 82.7798 51.9111 82.8396 51.8091 82.9438C51.707 83.048 51.6498 83.1883 51.6498 83.3344C51.6498 83.4805 51.707 83.6208 51.8091 83.725C51.9111 83.8292 52.0499 83.889 52.1955 83.8915H81.1722C81.2453 83.893 81.3179 83.88 81.386 83.8533C81.4541 83.8266 81.5162 83.7866 81.5688 83.7357C81.6215 83.6848 81.6636 83.6239 81.6927 83.5566C81.7219 83.4894 81.7375 83.4169 81.7387 83.3436C81.7399 83.2702 81.7267 83.1973 81.6997 83.1291C81.6728 83.0609 81.6327 82.9987 81.5818 82.9461C81.5308 82.8935 81.47 82.8515 81.4029 82.8225C81.3357 82.7936 81.2635 82.7782 81.1904 82.7773C81.1843 82.7772 81.1783 82.7772 81.1722 82.7773H52.1955Z" fill="white"/>
<path d="M52.1955 92.8071C52.0499 92.8146 51.9111 92.9939 51.8091 93.3065C51.707 93.6191 51.6498 94.04 51.6498 94.4784C51.6498 94.9169 51.707 95.3377 51.8091 95.6503C51.9111 95.963 52.0499 96.1423 52.1955 96.1498H81.1722C81.2453 96.1543 81.3179 96.1153 81.386 96.0351C81.4541 95.9549 81.5162 95.835 81.5688 95.6822C81.6215 95.5295 81.6636 95.347 81.6927 95.1451C81.7219 94.9433 81.7375 94.7261 81.7387 94.506C81.7399 94.2859 81.7267 94.0673 81.6997 93.8627C81.6728 93.658 81.6327 93.4714 81.5818 93.3136C81.5308 93.1557 81.47 93.0297 81.4029 92.9428C81.3357 92.8559 81.2635 92.8098 81.1904 92.8071C81.1843 92.8068 81.1783 92.8068 81.1722 92.8071H52.1955Z" fill="white"/>
<path d="M88.4252 62.7178H82.3756C82.2067 62.7178 82.0447 62.6437 81.9253 62.5117C81.8059 62.3797 81.7388 62.2007 81.7388 62.014V56.0314L88.4252 62.7178Z" fill="#FF3E79"/>
<path opacity="0.2" d="M88.4252 62.7178H82.3756C82.2067 62.7178 82.0447 62.6437 81.9253 62.5117C81.8059 62.3797 81.7388 62.2007 81.7388 62.014V56.0314L88.4252 62.7178Z" fill="black"/>
<path d="M24.1977 87.9983L22.4248 91.5655L7.28455 86.6823L9.90083 81.4176L24.1977 87.9983Z" fill="#F2CA93"/>
<path d="M20.0849 93.7963L23.6048 86.4371L28.0254 88.5515L22.5529 99.9933L22.2149 99.8316C21.1321 99.3137 20.2994 98.3869 19.8999 97.2551C19.5005 96.1232 19.567 94.8791 20.0849 93.7963Z" fill="#313131"/>
<path d="M28.0824 119.754L23.2733 119.618L23.0707 103.969L28.7084 104.247L28.0824 119.754Z" fill="#F2CA93"/>
<path d="M20.5274 118.828L28.6804 119.103L28.5151 124L15.8391 123.572L15.8517 123.198C15.8922 121.998 16.4076 120.864 17.2844 120.044C18.1613 119.225 19.3278 118.787 20.5274 118.828Z" fill="#313131"/>
<path d="M34.1581 54.266C34.1581 54.266 21.7909 51.1373 16.1845 55.7481L13.0515 64.8049L0.519531 82.5891L18.658 93.4572L21.9559 85.2238L14.0409 81.2717L23.6048 73.0383L21.9559 116.511L28.2219 117.499C28.2219 117.499 42.073 63.8168 34.1581 54.266Z" fill="#313131"/>
<path d="M15.1774 57.7391L15.3345 57.4656C16.9915 54.5823 16.723 49.887 16.206 46.456C15.7731 43.5822 15.7861 38.5177 15.8732 34.7751C15.8948 33.5118 16.355 32.2934 17.1783 31.3203C18.0016 30.3472 19.1388 29.6775 20.4027 29.4214C24.3259 28.6222 29.1423 28.4529 31.6641 28.423L31.6662 28.5913L31.6641 28.423C32.3493 28.4203 33.0083 28.6806 33.4996 29.1481C33.991 29.6155 34.2756 30.2529 34.2924 30.9233C34.3691 34.9536 34.3453 42.3031 33.3235 46.2463C31.807 52.0987 34.1784 56.0757 34.2026 56.1152L34.3456 56.3492L15.1774 57.7391Z" fill="#FF3E79"/>
<path d="M9.39016 73.2148C9.78791 73.022 10.1391 72.7432 10.4189 72.398C10.6987 72.0529 10.9004 71.6499 11.0097 71.2173C11.119 70.7847 11.1333 70.3331 11.0516 69.8944C10.9699 69.4556 10.7942 69.0403 10.5368 68.6777L17.4325 38.5708H12.2192L6.1334 68.0843C5.56046 68.5624 5.18066 69.2368 5.06596 69.9795C4.95126 70.7222 5.10963 71.4817 5.51107 72.1141C5.9125 72.7465 6.52912 73.2079 7.24406 73.4107C7.959 73.6136 8.72259 73.5439 9.39016 73.2148Z" fill="#F2CA93"/>
<path d="M51.2592 43.869L39.883 32.9332L36.8084 37.3076L44.495 44.1815L34.4144 52.3165C34.3416 52.3115 34.2691 52.3053 34.1949 52.3053C33.5746 52.3046 32.9672 52.4856 32.4455 52.8266C31.9237 53.1676 31.5097 53.6541 31.253 54.228C30.9962 54.8018 30.9075 55.4387 30.9976 56.0624C31.0877 56.6861 31.3526 57.2702 31.7608 57.7449C32.169 58.2195 32.7032 58.5646 33.2993 58.7389C33.8954 58.9132 34.5284 58.9092 35.1224 58.7275C35.7164 58.5458 36.2463 58.194 36.6487 57.7143C37.0511 57.2345 37.3089 56.6471 37.3914 56.0223L37.4233 56.0547L51.2592 43.869Z" fill="#F2CA93"/>
<path d="M19.6877 29.6641C19.6877 29.6641 12.3344 28.3902 11.6676 34.3765C11.0008 40.3628 10.6674 40.3628 10.6674 40.3628C10.6674 40.3628 16.0019 39.3064 17.3355 40.715C18.6692 42.1235 19.6877 29.6641 19.6877 29.6641Z" fill="#FF3E79"/>
<path d="M30.9634 29.7304C30.9634 29.7304 36.8385 28.7513 39.4496 31.3621C42.0608 33.9728 43.3664 34.6255 43.3664 34.6255C43.3664 34.6255 37.4913 37.8889 39.776 40.826C39.776 40.826 33.5745 37.8889 32.5954 38.8679C31.6162 39.847 30.9634 29.7304 30.9634 29.7304Z" fill="#FF3E79"/>
<path d="M24.9425 10.3751C23.0451 8.83543 22.5465 5.86383 23.6474 3.66468C24.7483 1.46553 27.2373 0.14061 29.6636 0.239555C32.09 0.3385 34.3763 1.75387 35.7819 3.76574C37.7565 6.59186 38.1709 10.5198 40.7965 12.7323C43.168 14.7307 46.5652 14.6735 49.6422 14.5145C50.6794 14.4609 51.7501 14.3988 52.6809 13.9305C53.6116 13.4623 54.372 12.4748 54.252 11.4266C55.025 12.6699 54.5765 14.4132 53.5395 15.439C52.5024 16.4649 51.0257 16.8947 49.5881 17.0658C47.052 17.3367 44.4901 16.9316 42.1549 15.8906C39.8197 14.8495 37.7916 13.2084 36.2704 11.1288C35.1998 9.62815 34.3736 7.88072 32.9045 6.78204C31.4355 5.68335 28.986 5.60687 28.0841 7.21791C27.6381 8.01473 27.6818 9.0142 27.2716 9.83065C26.8615 10.6471 25.5294 11.0873 25.1345 10.2632" fill="#54514C"/>
<path d="M25.3255 26.1679C30.3073 26.1679 34.3459 22.1294 34.3459 17.1475C34.3459 12.1657 30.3073 8.1272 25.3255 8.1272C20.3437 8.1272 16.3052 12.1657 16.3052 17.1475C16.3052 22.1294 20.3437 26.1679 25.3255 26.1679Z" fill="#54514C"/>
<path d="M24.7619 26.1678C28.8096 26.1678 32.0909 22.8865 32.0909 18.8388C32.0909 14.7911 28.8096 11.5098 24.7619 11.5098C20.7142 11.5098 17.4329 14.7911 17.4329 18.8388C17.4329 22.8865 20.7142 26.1678 24.7619 26.1678Z" fill="#F2CA93"/>
<path d="M18.5602 13.5819C19.5952 13.8135 19.2565 15.5898 20.0744 16.2788C20.8122 16.9003 21.8746 16.2611 22.8032 16.0297C23.9755 15.7376 25.2026 16.1655 26.2849 16.7111C27.3673 17.2567 28.4109 17.9337 29.5917 18.1879C30.7724 18.442 32.1722 18.1556 32.8341 17.1235C33.467 16.1366 33.234 14.8059 32.7389 13.7398C32.1233 12.4143 31.1571 11.2917 29.9499 10.4992C28.7426 9.70659 27.3425 9.27573 25.9082 9.25539C24.4739 9.23506 23.0627 9.62606 21.8344 10.3841C20.6062 11.1422 19.61 12.2369 18.9587 13.5445" fill="#54514C"/>
</svg>
