<svg width="24" height="24" viewBox="0 0 24 24" fill="none" xmlns="http://www.w3.org/2000/svg">
<path d="M20.3923 7.57324C20.392 7.57324 20.3917 7.57324 20.3915 7.57324H0.343621C0.154068 7.57304 0.000200675 7.72557 1.96196e-07 7.91396C1.96196e-07 7.91421 1.96196e-07 7.91451 1.96196e-07 7.91476V17.4789C-0.000200282 17.6673 0.153266 17.8202 0.342819 17.8204C0.343069 17.8204 0.34337 17.8204 0.343621 17.8204H13.9762C14.1659 17.8204 14.3198 17.6675 14.3198 17.4789C14.3198 17.2903 14.1659 17.1374 13.9762 17.1374H0.687241V8.25628H20.0479V9.11028C20.0477 9.29867 20.2011 9.4516 20.3907 9.4518C20.3909 9.4518 20.3912 9.4518 20.3915 9.4518C20.581 9.45199 20.7349 9.29947 20.7351 9.11107C20.7351 9.11082 20.7351 9.11053 20.7351 9.11028V7.91476C20.7353 7.72637 20.5818 7.57349 20.3923 7.57324Z" fill="#54514C" fill-opacity="0.75"/>
<path d="M18.0612 5.98775L2.02292 2.40121C1.9339 2.38143 1.84063 2.39747 1.7635 2.44584C1.68646 2.49461 1.63198 2.57167 1.61194 2.66024L0.810021 6.24678C0.768822 6.43099 0.885702 6.61351 1.07104 6.65445C1.25639 6.6954 1.44003 6.57923 1.48122 6.39503L2.20816 3.14283L17.9104 6.65405C17.9353 6.65978 17.9607 6.66262 17.9862 6.66242C18.176 6.66207 18.3296 6.5089 18.3293 6.32031C18.3289 6.16085 18.2177 6.02287 18.0612 5.98775Z" fill="#54514C" fill-opacity="0.75"/>
<path d="M16.1138 4.0115L6.49083 0.0264476C6.32358 -0.0428424 6.13087 0.0283406 6.04978 0.189436L5.24786 1.78346C5.1573 1.94993 5.21964 2.1579 5.38719 2.24791C5.55469 2.33793 5.76394 2.27596 5.85451 2.10943C5.85807 2.10291 5.86143 2.09623 5.86453 2.08946V2.09026L6.52251 0.781565L15.8484 4.64348C16.024 4.7163 16.2258 4.63391 16.299 4.45937C16.3723 4.28492 16.2894 4.08437 16.1138 4.0115Z" fill="#54514C" fill-opacity="0.75"/>
<path d="M16.3568 9.16724H13.1744C12.9847 9.16724 12.8308 9.32016 12.8308 9.50876C12.8308 9.69735 12.9847 9.85027 13.1744 9.85027H16.3568C16.5466 9.85027 16.7005 9.69735 16.7005 9.50876C16.7005 9.32016 16.5466 9.16724 16.3568 9.16724Z" fill="#54514C" fill-opacity="0.75"/>
<path d="M9.96666 9.19006C8.01795 9.19006 6.43823 10.7601 6.43823 12.6969C6.44024 14.6328 8.01881 16.2018 9.96666 16.2038C11.9154 16.2038 13.4951 14.6337 13.4951 12.6969C13.4951 10.7601 11.9154 9.19006 9.96666 9.19006ZM9.96666 15.5661C8.37225 15.5661 7.07976 14.2816 7.07976 12.6969C7.08152 11.113 8.373 9.82941 9.96666 9.82767C11.5611 9.82767 12.8536 11.1123 12.8536 12.6969C12.8536 14.2816 11.5611 15.5661 9.96666 15.5661Z" fill="#54514C" fill-opacity="0.75"/>
<path d="M19.5895 10.3057C17.4644 10.3057 15.179 10.8046 15.179 11.8997V21.4638C15.179 22.5589 17.4644 23.0578 19.5895 23.0578C21.7146 23.0578 24 22.5589 24 21.4638V11.8997C24 10.8046 21.7146 10.3057 19.5895 10.3057ZM23.1981 21.4578C23.1376 21.679 21.9351 22.2608 19.5895 22.2608C17.2439 22.2608 16.0414 21.679 15.9809 21.4638V20.8374C16.8341 21.2646 18.2435 21.4638 19.5895 21.4638C20.9355 21.4638 22.3453 21.2626 23.1981 20.837V21.4578ZM23.1981 19.8638C23.1376 20.085 21.9351 20.6668 19.5895 20.6668C17.2439 20.6668 16.0414 20.085 15.9809 19.8698V19.2433C16.8341 19.6705 18.2435 19.8698 19.5895 19.8698C20.9355 19.8698 22.3453 19.6685 23.1981 19.2429V19.8638ZM23.1981 18.2698C23.1376 18.491 21.9351 19.0728 19.5895 19.0728C17.2439 19.0728 16.0414 18.491 15.9809 18.2758V17.6493C16.8341 18.0765 18.2435 18.2758 19.5895 18.2758C20.9355 18.2758 22.3453 18.0745 23.1981 17.6489V18.2698ZM23.1981 16.6758C23.1376 16.8969 21.9351 17.4788 19.5895 17.4788C17.2439 17.4788 16.0414 16.8969 15.9809 16.6817V16.0553C16.8341 16.4825 18.2435 16.6817 19.5895 16.6817C20.9355 16.6817 22.3453 16.4805 23.1981 16.0549V16.6758ZM23.1981 15.0817C23.1376 15.3029 21.9351 15.8847 19.5895 15.8847C17.2439 15.8847 16.0414 15.3029 15.9809 15.0877V14.4613C16.8341 14.8865 18.2435 15.0877 19.5895 15.0877C20.9355 15.0877 22.3453 14.8865 23.1981 14.4609V15.0817ZM23.1981 13.4877C23.1376 13.7089 21.9351 14.2907 19.5895 14.2907C17.2439 14.2907 16.0414 13.7089 15.9809 13.4937V12.8673C16.8341 13.2925 18.2435 13.4937 19.5895 13.4937C20.9355 13.4937 22.3453 13.2925 23.1981 12.8669V13.4877ZM19.5895 12.6967C17.2475 12.6967 16.0454 12.1165 15.9809 11.9069V11.9045C16.0454 11.6825 17.2475 11.1027 19.5895 11.1027C21.915 11.1027 23.1179 11.6741 23.1981 11.8997C23.1179 12.1252 21.915 12.6967 19.5895 12.6967Z" fill="#54514C" fill-opacity="0.75"/>
<path d="M6.75927 15.5429H3.72843L2.2914 13.9808V11.3905L3.87839 9.85028H6.75927C6.94902 9.85028 7.10289 9.69735 7.10289 9.50876C7.10289 9.32016 6.94902 9.16724 6.75927 9.16724H3.73886C3.64904 9.16704 3.56269 9.20181 3.49828 9.26407L1.70721 11.0004C1.6403 11.0781 1.60361 11.177 1.60376 11.2793V14.1135C1.60376 14.1987 1.63579 14.2809 1.69357 14.3438L3.32266 16.1148C3.38777 16.1856 3.47989 16.226 3.57647 16.226H6.75927C6.94902 16.226 7.10289 16.073 7.10289 15.8844C7.10289 15.6958 6.94907 15.5429 6.75927 15.5429Z" fill="#54514C" fill-opacity="0.75"/>
<path d="M10.1673 12.2983H9.76631C9.64161 12.2983 9.56583 12.229 9.56583 12.1987C9.56583 12.1684 9.64161 12.0991 9.76631 12.0991H10.7687C10.9901 12.0991 11.1697 11.9206 11.1697 11.7006C11.1697 11.4805 10.9901 11.3021 10.7687 11.3021H10.3677C10.3677 11.082 10.1882 10.9036 9.96679 10.9036C9.74536 10.9036 9.56583 11.082 9.56583 11.3021V11.32C9.12112 11.3824 8.78421 11.7508 8.76392 12.1967C8.79263 12.7192 9.2404 13.1206 9.76631 13.0953H10.1673C10.292 13.0953 10.3677 13.1647 10.3677 13.195C10.3677 13.2253 10.292 13.2946 10.1673 13.2946H9.16487C8.94344 13.2946 8.76392 13.473 8.76392 13.6931C8.76392 13.9132 8.94344 14.0916 9.16487 14.0916H9.56583C9.56583 14.3117 9.74536 14.4901 9.96679 14.4901C10.1882 14.4901 10.3677 14.3117 10.3677 14.0916V14.0737C10.8125 14.0113 11.1494 13.6429 11.1697 13.197C11.1409 12.6745 10.6932 12.273 10.1673 12.2983Z" fill="#54514C" fill-opacity="0.75"/>
</svg>
