<svg width="232" height="157" viewBox="0 0 232 157" fill="none" xmlns="http://www.w3.org/2000/svg">
<g opacity="0.05">
<path d="M42.757 77.8453H1.81128V78.275H42.757V77.8453Z" fill="#3F3D56"/>
<path d="M5.82964 80.5477C7.20337 80.5477 8.317 79.434 8.317 78.0603C8.317 76.6866 7.20337 75.5729 5.82964 75.5729C4.45591 75.5729 3.34229 76.6866 3.34229 78.0603C3.34229 79.434 4.45591 80.5477 5.82964 80.5477Z" fill="#FF3E79"/>
<path d="M21.4078 45.5319C22.2232 48.0757 22.5213 50.757 22.2846 53.4179C20.4796 51.4447 19.1108 49.1131 18.2675 46.5753C17.4243 44.0375 17.1255 41.3504 17.3907 38.6893C19.1728 40.6794 20.5386 43.0059 21.4078 45.5319Z" fill="#FF3E79"/>
<path d="M23.1611 45.5319C22.3458 48.0757 22.0476 50.757 22.2843 53.4179C24.0894 51.4447 25.4582 49.1131 26.3014 46.5753C27.1447 44.0375 27.4434 41.3504 27.1782 38.6893C25.3962 40.6794 24.0303 43.0059 23.1611 45.5319Z" fill="#FF3E79"/>
<path d="M23.7052 45.576C23.7333 48.2472 23.2266 50.897 22.215 53.3694C21.0729 50.9513 20.4534 48.3196 20.3968 45.6459C20.3403 42.9723 20.8481 40.3167 21.887 37.8525C23.0022 40.28 23.6204 42.906 23.7052 45.576Z" fill="#3F3D56"/>
<path d="M24.5706 58.7364L24.4619 58.3206L43.9947 53.2188L35.8727 22.123L0.57492 31.3422L6.60037 54.4108L6.18449 54.5195L0.0507812 31.0351L36.1798 21.5986L44.5188 53.526L24.5706 58.7364Z" fill="#3F3D56"/>
<path d="M22.2845 92.3409C24.5386 92.3409 26.3659 90.5136 26.3659 88.2595C26.3659 86.0054 24.5386 84.1781 22.2845 84.1781C20.0304 84.1781 18.2031 86.0054 18.2031 88.2595C18.2031 90.5136 20.0304 92.3409 22.2845 92.3409Z" fill="#3F3D56"/>
<path d="M118.144 77.8456H77.198V78.2752H118.144V77.8456Z" fill="#3F3D56"/>
<path d="M97.6711 80.5479C99.0448 80.5479 100.158 79.4343 100.158 78.0605C100.158 76.6868 99.0448 75.5732 97.6711 75.5732C96.2973 75.5732 95.1837 76.6868 95.1837 78.0605C95.1837 79.4343 96.2973 80.5479 97.6711 80.5479Z" fill="#FF3E79"/>
<path d="M95.8893 35.9988C98.6354 44.2634 97.671 52.0233 97.671 52.0233C97.671 52.0233 92.2542 46.3837 89.5081 38.1191C86.762 29.8546 87.7264 22.0947 87.7264 22.0947C87.7264 22.0947 93.1432 27.7343 95.8893 35.9988Z" fill="#FF3E79"/>
<path d="M99.4522 35.9988C96.7061 44.2634 97.6705 52.0233 97.6705 52.0233C97.6705 52.0233 103.087 46.3837 105.833 38.1191C108.579 29.8546 107.615 22.0947 107.615 22.0947C107.615 22.0947 102.198 27.7343 99.4522 35.9988Z" fill="#FF3E79"/>
<path d="M100.559 36.0882C100.743 44.7951 97.5305 51.9245 97.5305 51.9245C97.5305 51.9245 94.0199 44.9373 93.8358 36.2304C93.6517 27.5234 96.8639 20.394 96.8639 20.394C96.8639 20.394 100.374 27.3813 100.559 36.0882Z" fill="#3F3D56"/>
<path d="M97.1974 29.2457C97.6681 29.2457 98.0498 28.8641 98.0498 28.3933C98.0498 27.9226 97.6681 27.541 97.1974 27.541C96.7267 27.541 96.345 27.9226 96.345 28.3933C96.345 28.8641 96.7267 29.2457 97.1974 29.2457Z" fill="#FF3E79"/>
<path d="M95.5396 35.6857C95.8012 35.6857 96.0132 35.4737 96.0132 35.2122C96.0132 34.9507 95.8012 34.7386 95.5396 34.7386C95.2781 34.7386 95.0661 34.9507 95.0661 35.2122C95.0661 35.4737 95.2781 35.6857 95.5396 35.6857Z" fill="#FF3E79"/>
<path d="M89.7628 30.9977C90.0244 30.9977 90.2364 30.7857 90.2364 30.5242C90.2364 30.2627 90.0244 30.0507 89.7628 30.0507C89.5013 30.0507 89.2893 30.2627 89.2893 30.5242C89.2893 30.7857 89.5013 30.9977 89.7628 30.9977Z" fill="#3F3D56"/>
<path d="M106.478 26.4045C106.74 26.4045 106.952 26.1925 106.952 25.931C106.952 25.6695 106.74 25.4575 106.478 25.4575C106.217 25.4575 106.005 25.6695 106.005 25.931C106.005 26.1925 106.217 26.4045 106.478 26.4045Z" fill="#3F3D56"/>
<path d="M92.2249 35.449C92.4864 35.449 92.6984 35.237 92.6984 34.9755C92.6984 34.714 92.4864 34.502 92.2249 34.502C91.9634 34.502 91.7513 34.714 91.7513 34.9755C91.7513 35.237 91.9634 35.449 92.2249 35.449Z" fill="#3F3D56"/>
<path d="M102.169 32.7024C102.431 32.7024 102.643 32.4904 102.643 32.2288C102.643 31.9673 102.431 31.7553 102.169 31.7553C101.907 31.7553 101.695 31.9673 101.695 32.2288C101.695 32.4904 101.907 32.7024 102.169 32.7024Z" fill="#3F3D56"/>
<path d="M92.5093 42.41C92.7708 42.41 92.9828 42.198 92.9828 41.9365C92.9828 41.675 92.7708 41.463 92.5093 41.463C92.2478 41.463 92.0358 41.675 92.0358 41.9365C92.0358 42.198 92.2478 42.41 92.5093 42.41Z" fill="#3F3D56"/>
<path d="M102.643 39.7108C102.904 39.7108 103.116 39.4988 103.116 39.2373C103.116 38.9757 102.904 38.7637 102.643 38.7637C102.381 38.7637 102.169 38.9757 102.169 39.2373C102.169 39.4988 102.381 39.7108 102.643 39.7108Z" fill="#3F3D56"/>
<path d="M98.0496 40.1843C98.3111 40.1843 98.5231 39.9723 98.5231 39.7108C98.5231 39.4493 98.3111 39.2372 98.0496 39.2372C97.7881 39.2372 97.576 39.4493 97.576 39.7108C97.576 39.9723 97.7881 40.1843 98.0496 40.1843Z" fill="#FF3E79"/>
<path d="M100.62 57.4047L100.512 56.9888L125.917 50.3533L115.347 9.88184L69.4239 21.8765L77.2581 51.8701L76.8422 51.9788L68.8998 21.5693L115.654 9.35748L115.708 9.56542L126.442 50.6603L100.62 57.4047Z" fill="#3F3D56"/>
<path d="M97.6706 92.3411C99.9247 92.3411 101.752 90.5138 101.752 88.2597C101.752 86.0056 99.9247 84.1783 97.6706 84.1783C95.4165 84.1783 93.5892 86.0056 93.5892 88.2597C93.5892 90.5138 95.4165 92.3411 97.6706 92.3411Z" fill="#3F3D56"/>
<path d="M212.281 77.8452H171.336V78.2748H212.281V77.8452Z" fill="#3F3D56"/>
<path d="M208.263 80.5475C209.637 80.5475 210.751 79.4339 210.751 78.0602C210.751 76.6864 209.637 75.5728 208.263 75.5728C206.89 75.5728 205.776 76.6864 205.776 78.0602C205.776 79.4339 206.89 80.5475 208.263 80.5475Z" fill="#FF3E79"/>
<path d="M189.333 37.0068C193.148 48.4885 191.808 59.269 191.808 59.269C191.808 59.269 184.283 51.4341 180.468 39.9525C176.653 28.4708 177.993 17.6903 177.993 17.6903C177.993 17.6903 185.518 25.5252 189.333 37.0068Z" fill="#FF3E79"/>
<path d="M194.284 37.0068C190.469 48.4885 191.809 59.269 191.809 59.269C191.809 59.269 199.334 51.4341 203.149 39.9525C206.964 28.4708 205.624 17.6903 205.624 17.6903C205.624 17.6903 198.099 25.5252 194.284 37.0068Z" fill="#FF3E79"/>
<path d="M195.82 37.1311C196.076 49.2273 191.613 59.1319 191.613 59.1319C191.613 59.1319 186.736 49.4248 186.48 37.3286C186.225 25.2324 190.687 15.3278 190.687 15.3278C190.687 15.3278 195.564 25.035 195.82 37.1311Z" fill="#3F3D56"/>
<path d="M191.15 27.625C191.804 27.625 192.334 27.0949 192.334 26.4409C192.334 25.7869 191.804 25.2567 191.15 25.2567C190.496 25.2567 189.966 25.7869 189.966 26.4409C189.966 27.0949 190.496 27.625 191.15 27.625Z" fill="#FF3E79"/>
<path d="M188.848 36.572C189.211 36.572 189.506 36.2774 189.506 35.9141C189.506 35.5508 189.211 35.2562 188.848 35.2562C188.484 35.2562 188.19 35.5508 188.19 35.9141C188.19 36.2774 188.484 36.572 188.848 36.572Z" fill="#FF3E79"/>
<path d="M180.822 30.0591C181.185 30.0591 181.48 29.7645 181.48 29.4012C181.48 29.0379 181.185 28.7433 180.822 28.7433C180.458 28.7433 180.164 29.0379 180.164 29.4012C180.164 29.7645 180.458 30.0591 180.822 30.0591Z" fill="#3F3D56"/>
<path d="M204.045 23.6778C204.408 23.6778 204.702 23.3833 204.702 23.0199C204.702 22.6566 204.408 22.3621 204.045 22.3621C203.681 22.3621 203.387 22.6566 203.387 23.0199C203.387 23.3833 203.681 23.6778 204.045 23.6778Z" fill="#3F3D56"/>
<path d="M184.243 36.243C184.606 36.243 184.901 35.9485 184.901 35.5852C184.901 35.2218 184.606 34.9273 184.243 34.9273C183.88 34.9273 183.585 35.2218 183.585 35.5852C183.585 35.9485 183.88 36.243 184.243 36.243Z" fill="#3F3D56"/>
<path d="M198.058 32.4273C198.421 32.4273 198.716 32.1328 198.716 31.7694C198.716 31.4061 198.421 31.1116 198.058 31.1116C197.695 31.1116 197.4 31.4061 197.4 31.7694C197.4 32.1328 197.695 32.4273 198.058 32.4273Z" fill="#3F3D56"/>
<path d="M184.637 45.9136C185.001 45.9136 185.295 45.6191 185.295 45.2558C185.295 44.8924 185.001 44.5979 184.637 44.5979C184.274 44.5979 183.98 44.8924 183.98 45.2558C183.98 45.6191 184.274 45.9136 184.637 45.9136Z" fill="#3F3D56"/>
<path d="M198.716 42.1638C199.079 42.1638 199.374 41.8692 199.374 41.5059C199.374 41.1426 199.079 40.848 198.716 40.848C198.353 40.848 198.058 41.1426 198.058 41.5059C198.058 41.8692 198.353 42.1638 198.716 42.1638Z" fill="#3F3D56"/>
<path d="M192.334 42.8217C192.698 42.8217 192.992 42.5272 192.992 42.1638C192.992 41.8005 192.698 41.506 192.334 41.506C191.971 41.506 191.676 41.8005 191.676 42.1638C191.676 42.5272 191.971 42.8217 192.334 42.8217Z" fill="#FF3E79"/>
<path d="M195.885 66.6646L195.776 66.2489L231.152 57.009L216.425 0.621795L152.464 17.3279L163.369 59.0777L162.953 59.1864L151.939 17.0207L216.732 0.0976562L216.786 0.305378L231.677 57.3162L195.885 66.6646Z" fill="#3F3D56"/>
<path d="M198.122 21.8077C199.708 21.8077 200.992 20.5227 200.992 18.9377C200.992 17.3526 199.708 16.0676 198.122 16.0676C196.537 16.0676 195.252 17.3526 195.252 18.9377C195.252 20.5227 196.537 21.8077 198.122 21.8077Z" fill="#FF3E79"/>
<path d="M184.92 21.999C185.766 21.999 186.451 21.3137 186.451 20.4684C186.451 19.623 185.766 18.9377 184.92 18.9377C184.075 18.9377 183.39 19.623 183.39 20.4684C183.39 21.3137 184.075 21.999 184.92 21.999Z" fill="#3F3D56"/>
<path d="M191.808 92.3407C194.062 92.3407 195.89 90.5134 195.89 88.2593C195.89 86.0052 194.062 84.1779 191.808 84.1779C189.554 84.1779 187.727 86.0052 187.727 88.2593C187.727 90.5134 189.554 92.3407 191.808 92.3407Z" fill="#3F3D56"/>
</g>
<path d="M140.495 157H140.295C129.942 157 120.115 156.485 112.626 155.55L112.324 155.511C112.119 155.484 111.917 155.457 111.717 155.43C110.542 155.275 109.391 155.101 108.299 154.913C102.875 153.969 100.125 152.843 100.125 151.567C100.125 150.509 101.929 149.587 105.639 148.748C107.424 148.344 109.628 147.972 112.189 147.642C112.656 147.58 113.136 147.522 113.627 147.466C120.964 146.608 130.435 146.135 140.295 146.135C142.244 146.135 144.216 146.154 146.157 146.191C162.68 146.507 180.464 148.325 180.464 151.567C180.464 153.504 174.034 154.754 168.64 155.461C161.131 156.446 151.135 156.993 140.495 157ZM140.295 146.564C130.451 146.564 120.998 147.036 113.677 147.893C113.188 147.948 112.71 148.007 112.245 148.068C109.696 148.397 107.506 148.766 105.734 149.167C101.059 150.224 100.555 151.198 100.555 151.567C100.555 152.037 101.316 153.261 108.372 154.49C109.458 154.676 110.603 154.849 111.774 155.004C111.974 155.032 112.176 155.058 112.38 155.085L112.681 155.124C120.152 156.057 129.959 156.57 140.295 156.57H140.494C164.146 156.554 180.035 153.97 180.035 151.567C180.035 149.455 167.36 147.026 146.148 146.62C144.211 146.583 142.241 146.564 140.295 146.564Z" fill="#54514C"/>
<path d="M120.905 147.004L120.675 146.917C120.624 146.898 115.582 144.967 113.22 140.586C110.858 136.206 112.014 130.931 112.026 130.879L112.081 130.639L112.311 130.725C112.362 130.744 117.404 132.676 119.766 137.056C122.128 141.437 120.971 146.711 120.96 146.764L120.905 147.004ZM113.598 140.382C115.595 144.086 119.579 145.984 120.589 146.418C120.781 145.336 121.383 140.96 119.388 137.26C117.393 133.561 113.407 131.659 112.397 131.225C112.205 132.307 111.603 136.682 113.598 140.382Z" fill="#54514C"/>
<path d="M115.025 139.05C119.27 141.603 120.904 146.676 120.904 146.676C120.904 146.676 115.657 147.608 111.412 145.054C107.168 142.5 105.533 137.428 105.533 137.428C105.533 137.428 110.78 136.496 115.025 139.05Z" fill="#FF3E79"/>
<path d="M148.05 56.4788C148.05 56.4788 144.496 55.9711 142.719 62.571C140.942 69.171 140.434 69.6787 140.434 69.6787C140.434 69.6787 150.842 71.2018 151.096 70.6941C151.35 70.1864 153.38 58.0018 148.05 56.4788Z" fill="#313131"/>
<path d="M146.019 53.9403C149.804 53.9403 152.873 50.8717 152.873 47.0864C152.873 43.3012 149.804 40.2326 146.019 40.2326C142.234 40.2326 139.165 43.3012 139.165 47.0864C139.165 50.8717 142.234 53.9403 146.019 53.9403Z" fill="#F2CA93"/>
<path d="M142.973 52.671C142.973 52.671 145.258 58.5094 144.496 59.271C143.734 60.0325 153.888 61.0479 153.888 61.0479C153.888 61.0479 154.65 57.2402 151.604 54.9556C151.604 54.9556 150.334 51.1479 150.588 50.3864C150.842 49.6248 142.973 52.671 142.973 52.671Z" fill="#F2CA93"/>
<path d="M149.065 55.2094C146.463 56.192 144.119 57.7546 142.211 59.7786C139.165 63.0786 137.642 64.0939 137.642 64.0939C137.642 64.0939 134.088 65.3632 135.357 71.4555C135.992 74.5016 135.548 77.9285 134.945 80.5939C134.024 84.7302 133.566 88.9562 133.58 93.1938V95.8246C133.58 95.8246 110.227 144.817 118.096 148.117C125.965 151.417 133.073 152.432 133.58 151.671C134.088 150.909 143.227 111.309 143.227 111.309C143.227 111.309 145.765 153.701 152.111 153.701C158.457 153.701 168.865 151.924 168.865 151.924L155.919 101.155C155.919 101.155 158.965 92.5246 151.35 86.4323L150.334 83.64C154.546 83.6422 156.471 56.9885 152.111 54.7017C152.111 54.7017 151.096 53.9401 149.065 55.2094Z" fill="#313131"/>
<path d="M142.719 68.9171L139.165 78.3093L130.788 95.8247C130.788 95.8247 126.98 107.248 130.026 107.248C133.073 107.248 135.357 96.3324 135.357 96.3324L144.749 81.6093L150.08 68.4094L142.719 68.9171Z" fill="#F2CA93"/>
<path d="M125.838 153.702C128.291 153.702 130.28 152.565 130.28 151.163C130.28 149.761 128.291 148.625 125.838 148.625C123.384 148.625 121.396 149.761 121.396 151.163C121.396 152.565 123.384 153.702 125.838 153.702Z" fill="#313131"/>
<path d="M159.853 153.702C162.307 153.702 164.295 152.565 164.295 151.163C164.295 149.761 162.307 148.625 159.853 148.625C157.4 148.625 155.411 149.761 155.411 151.163C155.411 152.565 157.4 153.702 159.853 153.702Z" fill="#313131"/>
<path d="M148.665 37.4751H148.665C148.312 37.4758 147.96 37.5108 147.614 37.5796C146.989 37.276 146.303 37.118 145.608 37.1172H145.425C141.914 37.1172 139.068 40.2943 139.068 44.2134V44.2134H140.245L140.435 42.7672L140.713 44.2134H141.693C141.388 45.3738 141.235 46.5688 141.238 47.7686V54.9914H143.017L144.047 52.3153L143.789 54.9914H155.222L156.158 52.5586L155.924 54.9914H157.211V49.3202C157.211 42.7783 153.385 37.4751 148.665 37.4751Z" fill="#313131"/>
</svg>
