<svg width="26" height="23" viewBox="0 0 26 23" fill="none" xmlns="http://www.w3.org/2000/svg">
<path d="M15.6116 6.50515V3.97758C15.6116 3.30723 15.331 2.66433 14.8315 2.19032C14.332 1.71631 13.6545 1.45001 12.9482 1.45001H3.62628C2.91991 1.45001 2.24246 1.71631 1.74298 2.19032C1.2435 2.66433 0.962891 3.30723 0.962891 3.97758V19.143C0.962891 19.8134 1.2435 20.4563 1.74298 20.9303C2.24246 21.4043 2.91991 21.6706 3.62628 21.6706H12.9482C13.6545 21.6706 14.332 21.4043 14.8315 20.9303C15.331 20.4563 15.6116 19.8134 15.6116 19.143V16.6154" stroke="#FF3E79" stroke-width="1.5" stroke-linecap="round" stroke-linejoin="round"/>
<path d="M24.9321 11.5616H6.28833H14.3996H24.9321ZM24.9321 11.5616L20.937 7.7702M24.9321 11.5616L20.937 15.3529" stroke="#FF3E79" stroke-width="1.5" stroke-linecap="round" stroke-linejoin="round"/>
</svg>
