<svg width="31" height="28" viewBox="0 0 31 28" fill="none" xmlns="http://www.w3.org/2000/svg">
<ellipse cx="15.0923" cy="13.8534" rx="15.0923" ry="13.8386" fill="#FF3E79"/>
<path d="M11.6726 10.0261H8.86902C8.37333 10.0261 7.89793 10.2078 7.54742 10.5312C7.19691 10.8546 7 11.2931 7 11.7505V19.5098C7 19.9671 7.19691 20.4057 7.54742 20.7291C7.89793 21.0525 8.37333 21.2341 8.86902 21.2341H17.2796C17.7753 21.2341 18.2507 21.0525 18.6012 20.7291C18.9517 20.4057 19.1487 19.9671 19.1487 19.5098V16.9234" stroke="white" stroke-linecap="round" stroke-linejoin="round"/>
<path d="M11.6724 16.9233H14.4759L22.4193 9.59505C22.791 9.25206 22.9999 8.78687 22.9999 8.30182C22.9999 7.81676 22.791 7.35158 22.4193 7.00859C22.0475 6.6656 21.5433 6.47292 21.0175 6.47292C20.4917 6.47292 19.9875 6.6656 19.6157 7.00859L11.6724 14.3369V16.9233Z" stroke="white" stroke-linecap="round" stroke-linejoin="round"/>
<path d="M18.2139 8.30179L21.0174 10.8882" stroke="white" stroke-linecap="round" stroke-linejoin="round"/>
</svg>
