<svg width="24" height="24" viewBox="0 0 24 24" fill="none" xmlns="http://www.w3.org/2000/svg">
<path d="M23.7532 0.030386C23.604 -0.031214 23.4316 0.00238599 23.3172 0.117186L19.2 4.23439V1.19999C19.2 0.979186 19.0212 0.799986 18.8 0.799986H2.4C1.0764 0.799986 0 1.87639 0 3.19999V21.6C0 22.9236 1.0764 24 2.4 24H18.8C19.0212 24 19.2 23.8208 19.2 23.6V12.5656L21.0712 10.6944C22.96 8.80558 24 6.29438 24 3.62359V0.399986C24 0.238386 23.9028 0.092386 23.7532 0.030386ZM18.4 23.2H2.4C1.5176 23.2 0.8 22.4824 0.8 21.6C0.8 20.7176 1.5176 20 2.4 20H18.4V23.2ZM18.4 19.2H2.4C1.7848 19.2 1.2252 19.4344 0.8 19.816V3.19999C0.8 2.31759 1.5176 1.59999 2.4 1.59999H18.4V5.03439L12.9172 10.5172C12.842 10.592 12.8 10.694 12.8 10.8V14.2344L10.5172 16.5172L11.0828 17.0828L13.3656 14.8H16.8C16.9064 14.8 17.008 14.758 17.0828 14.6828L18.4 13.3656V19.2ZM23.2 3.62359C23.2 6.08118 22.2428 8.39119 20.5056 10.1288L16.6344 14H14.1656L20.6828 7.48279L20.1172 6.91718L13.6 13.4344V10.9656L23.2 1.36559V3.62359Z" fill="#54514C" fill-opacity="0.75"/>
<path d="M9.59998 10.8C11.8056 10.8 13.6 9.00565 13.6 6.80005C13.6 4.59445 11.8056 2.80005 9.59998 2.80005C7.39438 2.80005 5.59998 4.59445 5.59998 6.80005C5.59998 9.00565 7.39438 10.8 9.59998 10.8ZM7.63238 9.31845C7.77078 8.34285 8.59638 7.60005 9.59998 7.60005C10.6036 7.60005 11.4292 8.34285 11.5676 9.31845C11.024 9.74405 10.342 10 9.59998 10C8.85798 10 8.17598 9.74405 7.63238 9.31845ZM8.79998 6.00005C8.79998 5.55885 9.15878 5.20005 9.59998 5.20005C10.0412 5.20005 10.4 5.55885 10.4 6.00005C10.4 6.44125 10.0412 6.80005 9.59998 6.80005C9.15878 6.80005 8.79998 6.44125 8.79998 6.00005ZM9.59998 3.60005C11.3644 3.60005 12.8 5.03565 12.8 6.80005C12.8 7.47965 12.5856 8.10925 12.2228 8.62805C11.9672 7.93445 11.446 7.37525 10.7848 7.06565C11.04 6.78205 11.2 6.41085 11.2 6.00005C11.2 5.11765 10.4824 4.40005 9.59998 4.40005C8.71758 4.40005 7.99998 5.11765 7.99998 6.00005C7.99998 6.41085 8.15998 6.78205 8.41518 7.06565C7.75398 7.37525 7.23278 7.93445 6.97718 8.62805C6.61438 8.10925 6.39998 7.47965 6.39998 6.80005C6.39998 5.03565 7.83558 3.60005 9.59998 3.60005Z" fill="#54514C" fill-opacity="0.75"/>
<path d="M6 16.3999H10V17.1999H6V16.3999Z" fill="#54514C" fill-opacity="0.75"/>
<path d="M6 14.4H11.2V15.2H6V14.4Z" fill="#54514C" fill-opacity="0.75"/>
<path d="M6 12.4H12V13.2H6V12.4Z" fill="#54514C" fill-opacity="0.75"/>
</svg>
