<svg width="27" height="25" viewBox="0 0 27 25" fill="none" xmlns="http://www.w3.org/2000/svg">
<path d="M23.7716 18.1112V22.3764C23.7716 22.7535 23.6137 23.1151 23.3328 23.3818C23.0518 23.6484 22.6708 23.7982 22.2734 23.7982H4.29551C3.50084 23.7982 2.73871 23.4986 2.1768 22.9653C1.61488 22.4321 1.29919 21.7088 1.29919 20.9547V3.89357M20.7753 6.73708V2.47181C20.7753 2.09473 20.6174 1.7331 20.3365 1.46647C20.0555 1.19984 19.6744 1.05005 19.2771 1.05005H4.29551C3.50084 1.05005 2.73871 1.34963 2.1768 1.8829C1.61488 2.41616 1.29919 3.13942 1.29919 3.89357C1.29919 4.64771 1.61488 5.37097 2.1768 5.90424C2.73871 6.4375 3.50084 6.73708 4.29551 6.73708H22.2734C22.6708 6.73708 23.0518 6.88688 23.3328 7.15351C23.6137 7.42014 23.7716 7.78177 23.7716 8.15884V12.4241L20.7753 6.73708Z" stroke="#54514C" stroke-opacity="0.75" stroke-width="1.5" stroke-linecap="round" stroke-linejoin="round"/>
<path d="M25.2697 12.4241V18.1112H19.2771C18.4824 18.1112 17.7203 17.8116 17.1584 17.2783C16.5964 16.7451 16.2808 16.0218 16.2808 15.2677C16.2808 14.5135 16.5964 13.7902 17.1584 13.257C17.7203 12.7237 18.4824 12.4241 19.2771 12.4241H25.2697Z" stroke="#54514C" stroke-opacity="0.75" stroke-width="1.5" stroke-linecap="round" stroke-linejoin="round"/>
</svg>
