<svg width="25" height="24" viewBox="0 0 25 24" fill="none" xmlns="http://www.w3.org/2000/svg">
<path d="M8.94836 12.0617C6.74452 12.0617 4.95227 10.3608 4.95227 8.26936C4.95227 6.1779 6.74452 4.47705 8.94836 4.47705C11.1522 4.47705 12.9445 6.1779 12.9445 8.26936C12.9445 10.3608 11.1522 12.0617 8.94836 12.0617ZM8.94836 5.42513C7.29598 5.42513 5.95129 6.70124 5.95129 8.26936C5.95129 9.83747 7.29598 11.1136 8.94836 11.1136C10.6007 11.1136 11.9454 9.83747 11.9454 8.26936C11.9454 6.70124 10.6007 5.42513 8.94836 5.42513Z" fill="#54514C" fill-opacity="0.75"/>
<path d="M19.6164 23.4339C18.6433 23.4339 17.5164 23.1419 16.2217 22.5588C14.7761 21.9084 14.0818 21.9302 13.6203 21.952C13.2496 21.9634 12.863 21.9795 12.4814 21.6174C12.3475 21.4903 11.7391 20.7982 12.9349 19.6634C13.5313 19.0974 14.3495 18.9343 15.0598 18.9248L10.9179 14.9941C10.6432 14.7343 10.4913 14.3864 10.4923 14.0176C10.4933 13.6488 10.6452 13.3027 10.9209 13.042C11.1966 12.7813 11.5613 12.6362 11.9499 12.6353H11.9519C12.3395 12.6353 12.7042 12.7785 12.9789 13.0401L14.6992 14.6737C14.7681 14.5428 14.86 14.4224 14.9719 14.3172C15.3665 13.9427 15.932 13.827 16.4325 13.974C16.5024 13.7863 16.6173 13.609 16.7752 13.4592C17.3166 12.9444 18.1848 12.9207 18.7542 13.3881C18.8222 13.2572 18.9141 13.1359 19.028 13.0278C19.5964 12.4893 20.5185 12.4865 21.086 13.025L23.7833 15.5848C25.4767 17.1908 25.2878 19.5193 23.3228 21.3851C23.3188 21.3889 23.3148 21.3927 23.3098 21.3974L22.1939 22.4555C21.4986 23.1077 20.6434 23.4339 19.6164 23.4339ZM13.891 20.9983C14.4365 20.9983 15.2746 21.0836 16.6503 21.7018C19.6324 23.0452 20.8412 22.3929 21.4926 21.7833L22.6175 20.7158C22.6205 20.712 22.6244 20.7091 22.6274 20.7063C23.8183 19.5629 24.6345 17.7322 23.086 16.2626L20.3806 13.6952C20.2038 13.5274 19.9141 13.5293 19.7353 13.6981C19.5574 13.8669 19.5555 14.1408 19.7313 14.3096L19.7323 14.3106L20.4066 14.9505C20.5045 15.0434 20.5525 15.1648 20.5525 15.2861C20.5525 15.4075 20.5035 15.5288 20.4066 15.6217C20.2118 15.8066 19.8951 15.8066 19.7003 15.6217L18.1268 14.1285C17.95 13.9607 17.6603 13.9607 17.4815 14.1314C17.3027 14.3011 17.3017 14.5751 17.4795 14.7438L18.6034 15.8104C18.7013 15.9033 18.7492 16.0247 18.7492 16.146C18.7492 16.2674 18.7003 16.3887 18.6034 16.4816C18.4086 16.6665 18.0919 16.6665 17.8971 16.4816L16.3236 14.9884C16.1468 14.8206 15.8581 14.8225 15.6782 14.9913C15.5913 15.0738 15.5434 15.1837 15.5434 15.2994C15.5434 15.4141 15.5903 15.5222 15.6752 15.6028L16.7991 16.6694C16.8971 16.7623 16.945 16.8836 16.945 17.005C16.945 17.1263 16.8961 17.2477 16.7991 17.3406C16.6043 17.5255 16.2876 17.5255 16.0928 17.3406L12.2716 13.7152C12.1857 13.6336 12.0718 13.5881 11.9509 13.5881C11.829 13.5891 11.7141 13.6346 11.6272 13.7171C11.5403 13.7995 11.4923 13.9086 11.4913 14.0242C11.4913 14.1389 11.5383 14.247 11.6242 14.3286L16.7942 19.2349C16.956 19.3875 16.987 19.6255 16.8701 19.8113C16.7532 19.9962 16.5174 20.0834 16.2996 20.0246C16.2807 20.0199 14.4914 19.5326 13.6402 20.3384C13.2536 20.7063 13.1967 20.9319 13.2067 20.9822C13.2496 21.0097 13.2576 21.0191 13.5803 21.0078C13.6732 21.0021 13.7761 20.9983 13.891 20.9983ZM19.3836 13.3634H19.3936H19.3836Z" fill="#54514C" fill-opacity="0.75"/>
<path d="M8.94934 15.8549C4.54265 15.8549 0.957153 12.4522 0.957153 8.27028C0.957153 4.08832 4.54265 0.685669 8.94934 0.685669C13.356 0.685669 16.9415 4.08832 16.9415 8.27028V9.69239C16.9415 10.9998 15.8206 12.0626 14.444 12.0626C13.0673 12.0626 11.9464 10.9998 11.9464 9.69239V4.95201C11.9464 4.69034 12.1702 4.47797 12.4459 4.47797C12.7216 4.47797 12.9454 4.69034 12.9454 4.95201V9.69239C12.9454 10.4765 13.6178 11.1145 14.444 11.1145C15.2702 11.1145 15.9425 10.4765 15.9425 9.69239V8.27028C15.9425 4.61165 12.8056 1.63375 8.94934 1.63375C5.09311 1.63375 1.95618 4.61165 1.95618 8.27028C1.95618 11.9289 5.09311 14.9068 8.94934 14.9068C9.22507 14.9068 9.44885 15.1192 9.44885 15.3809C9.44885 15.6425 9.22507 15.8549 8.94934 15.8549Z" fill="#54514C" fill-opacity="0.75"/>
</svg>
