<svg width="29" height="32" viewBox="0 0 29 32" fill="none" xmlns="http://www.w3.org/2000/svg">
<path d="M24.4406 4.21313H4.34618C2.49814 4.21313 1 5.71127 1 7.55932V27.6537C1 29.5018 2.49814 30.9999 4.34618 30.9999H24.4406C26.2886 30.9999 27.7868 29.5018 27.7868 27.6537V7.55932C27.7868 5.71127 26.2886 4.21313 24.4406 4.21313Z" stroke="#BDBDBD" stroke-width="2" stroke-linecap="round" stroke-linejoin="round"/>
<path d="M21.4877 1V7.70392" stroke="#BDBDBD" stroke-width="2" stroke-linecap="round" stroke-linejoin="round"/>
<path d="M8.09717 1V7.70392" stroke="#BDBDBD" stroke-width="2" stroke-linecap="round" stroke-linejoin="round"/>
<path d="M1 14.4021H27.7983" stroke="#BDBDBD" stroke-width="2" stroke-linecap="round" stroke-linejoin="round"/>
<path d="M6.78546 20.2086V19.7524H7.24164V20.2086H6.78546Z" fill="#BDBDBD" stroke="#BDBDBD" stroke-width="2"/>
<path d="M14.0264 20.2086V19.7524H14.4825V20.2086H14.0264Z" fill="#BDBDBD" stroke="#BDBDBD" stroke-width="2"/>
<path d="M21.2682 20.2086V19.7524H21.7244V20.2086H21.2682Z" fill="#BDBDBD" stroke="#BDBDBD" stroke-width="2"/>
<path d="M6.78546 25.536V25.0798H7.24164V25.536H6.78546Z" fill="#BDBDBD" stroke="#BDBDBD" stroke-width="2"/>
<path d="M14.0264 25.536V25.0798H14.4825V25.536H14.0264Z" fill="#BDBDBD" stroke="#BDBDBD" stroke-width="2"/>
<path d="M21.2682 25.536V25.0798H21.7244V25.536H21.2682Z" fill="#BDBDBD" stroke="#BDBDBD" stroke-width="2"/>
</svg>
