<svg width="44" height="44" viewBox="0 0 44 44" fill="none" xmlns="http://www.w3.org/2000/svg">
<circle cx="22" cy="22" r="22" fill="#FE4335"/>
<path d="M11 15.3333H32.3334" stroke="white" stroke-width="1.5" stroke-linecap="round" stroke-linejoin="round"/>
<path d="M19 20.6667V28.6668" stroke="white" stroke-width="1.5" stroke-linecap="round" stroke-linejoin="round"/>
<path d="M24.333 20.6667V28.6668" stroke="white" stroke-width="1.5" stroke-linecap="round" stroke-linejoin="round"/>
<path d="M12.333 15.3333L13.6663 31.3333C13.6663 32.0405 13.9473 32.7188 14.4474 33.2189C14.9475 33.719 15.6258 34 16.333 34H26.9997C27.707 34 28.3852 33.719 28.8853 33.2189C29.3854 32.7188 29.6664 32.0405 29.6664 31.3333L30.9997 15.3333" stroke="white" stroke-width="1.5" stroke-linecap="round" stroke-linejoin="round"/>
<path d="M17.6665 15.3333V11.3333C17.6665 10.9797 17.807 10.6406 18.057 10.3905C18.3071 10.1405 18.6462 10 18.9998 10H24.3332C24.6868 10 25.0259 10.1405 25.276 10.3905C25.526 10.6406 25.6665 10.9797 25.6665 11.3333V15.3333" stroke="white" stroke-width="1.5" stroke-linecap="round" stroke-linejoin="round"/>
</svg>
