<svg width="26" height="25" viewBox="0 0 26 25" fill="none" xmlns="http://www.w3.org/2000/svg">
<path d="M5.45164 24.1625C7.93388 24.1625 9.94614 22.2529 9.94614 19.8972C9.94614 17.5416 7.93388 15.632 5.45164 15.632C2.96941 15.632 0.957153 17.5416 0.957153 19.8972C0.957153 22.2529 2.96941 24.1625 5.45164 24.1625Z" stroke="#54514C" stroke-opacity="0.75" stroke-width="1.5" stroke-linecap="round" stroke-linejoin="round"/>
<path d="M20.4332 24.1625C22.9155 24.1625 24.9277 22.2529 24.9277 19.8972C24.9277 17.5416 22.9155 15.632 20.4332 15.632C17.951 15.632 15.9387 17.5416 15.9387 19.8972C15.9387 22.2529 17.951 24.1625 20.4332 24.1625Z" stroke="#54514C" stroke-opacity="0.75" stroke-width="1.5" stroke-linecap="round" stroke-linejoin="round"/>
<path d="M8.67419 16.8405L21.9329 1.41437" stroke="#54514C" stroke-opacity="0.75" stroke-width="1.5" stroke-linecap="round" stroke-linejoin="round"/>
<path d="M3.95349 1.41437L17.2122 16.8405" stroke="#54514C" stroke-opacity="0.75" stroke-width="1.5" stroke-linecap="round" stroke-linejoin="round"/>
</svg>
