<svg width="32" height="32" viewBox="0 0 32 32" fill="none" xmlns="http://www.w3.org/2000/svg">
<path d="M16 15.2645C18.9067 15.2645 21.2631 12.9081 21.2631 10.0013C21.2631 7.09456 18.9067 4.73816 16 4.73816C13.0932 4.73816 10.7368 7.09456 10.7368 10.0013C10.7368 12.9081 13.0932 15.2645 16 15.2645Z" stroke="#BDBDBD" stroke-width="2" stroke-linecap="round" stroke-linejoin="round"/>
<path d="M8.13904 28.4359V25.8043C8.13904 24.4078 8.69332 23.0684 9.68016 22.0803C10.667 21.0922 12.0057 20.5362 13.4022 20.5344H18.6721C20.0686 20.5362 21.4073 21.0922 22.3941 22.0803C23.381 23.0684 23.9353 24.4078 23.9353 25.8043V28.4359" stroke="#BDBDBD" stroke-width="2" stroke-linecap="round" stroke-linejoin="round"/>
<path d="M16 31C24.2843 31 31 24.2843 31 16C31 7.71573 24.2843 1 16 1C7.71572 1 1 7.71573 1 16C1 24.2843 7.71572 31 16 31Z" stroke="#BDBDBD" stroke-width="2" stroke-linecap="round" stroke-linejoin="round"/>
</svg>
