<svg width="189" height="133" viewBox="0 0 189 133" fill="none" xmlns="http://www.w3.org/2000/svg">
<path d="M96.5251 132.718C102.21 132.718 106.818 128.116 106.818 122.44C106.818 116.764 102.21 112.162 96.5251 112.162C90.8406 112.162 86.2324 116.764 86.2324 122.44C86.2324 128.116 90.8406 132.718 96.5251 132.718Z" fill="#FF3E79"/>
<path d="M158.014 132.141C163.772 130.414 169.894 128.613 174.461 124.508C178.542 120.84 181.297 115.238 179.606 109.737C177.919 104.247 172.866 100.586 167.648 98.765C164.689 97.7324 161.593 97.1594 158.499 96.7094C155.134 96.2201 151.755 95.8193 148.378 95.4336C134.703 93.8717 120.976 92.9176 107.197 92.5712C100.399 92.4002 93.6013 92.4043 86.8016 92.5029C80.7291 92.5909 74.3335 92.5887 68.7001 90.0115C64.3193 88.0074 60.3433 84.3612 59.1227 79.5698C57.7136 74.0388 60.3126 68.4063 64.0408 64.4006C66.0059 62.2891 68.3027 60.512 70.672 58.878C73.2424 57.1052 75.9024 55.458 78.62 53.9204C83.9724 50.8936 89.5682 48.3175 95.3493 46.2191C98.2012 45.1836 101.095 44.2903 104.015 43.4661C106.48 42.7702 108.953 42.0733 111.335 41.1251C115.941 39.2921 120.321 36.1873 121.492 31.0972C122.602 26.273 120.731 21.0359 117.45 17.4521C113.655 13.3059 107.932 11.4883 102.445 11.1943C96.2857 10.8641 90.268 12.4035 84.4785 14.3571C78.3036 16.4408 72.2618 18.8367 65.9565 20.5245C59.7039 22.1966 53.3303 23.3796 46.8936 24.0629C43.7426 24.398 40.4964 24.7763 37.3266 24.5198C34.6701 24.3048 32.0272 23.5247 30.0694 21.6421C28.3906 20.0278 27.3906 17.8093 27.7344 15.4681C27.7969 15.0429 28.4438 15.2237 28.3817 15.6463C27.9632 18.4962 29.9032 21.1223 32.2939 22.4675C35.0568 24.0222 38.419 24.0243 41.4951 23.8465C48.1649 23.4443 54.7897 22.488 61.3006 20.9876C67.6983 19.5285 73.8675 17.4426 80.0297 15.2143C85.8822 13.0981 91.8656 11.0327 98.1181 10.5743C103.543 10.1766 109.25 10.9658 113.977 13.7969C118.13 16.285 121.185 20.4344 122.158 25.1959C123.109 29.8488 121.792 34.532 118.265 37.7789C114.613 41.1407 109.605 42.578 104.939 43.9018C99.0198 45.5807 93.2279 47.5433 87.6217 50.0915C81.9391 52.6671 76.4892 55.7266 71.3323 59.2361C66.3546 62.6328 61.4422 66.9066 59.8679 72.9662C59.1346 75.7888 59.27 78.7826 60.497 81.4487C61.5881 83.8193 63.3849 85.8133 65.4782 87.3514C70.4725 91.0211 76.7672 91.7746 82.8 91.8496C89.5756 91.9337 96.3514 91.7054 103.129 91.8165C116.942 92.0429 130.727 92.8824 144.483 94.3352C147.93 94.6995 151.373 95.1022 154.811 95.5433C157.904 95.9401 161.007 96.3343 164.047 97.0391C169.454 98.2921 174.715 100.701 178.075 105.279C179.566 107.263 180.49 109.614 180.748 112.081C180.983 114.656 180.352 117.236 179.186 119.526C176.606 124.596 171.773 127.821 166.64 129.939C163.89 131.074 161.039 131.934 158.193 132.787C157.778 132.911 157.601 132.265 158.014 132.141V132.141Z" fill="#F2F2F2"/>
<path d="M28.168 20.8907C31.1338 20.8907 33.5381 18.4899 33.5381 15.5284C33.5381 12.5668 31.1338 10.166 28.168 10.166C25.2021 10.166 22.7979 12.5668 22.7979 15.5284C22.7979 18.4899 25.2021 20.8907 28.168 20.8907Z" fill="#F2F2F2"/>
<path d="M65.4233 31.057C68.3892 31.057 70.7934 28.6562 70.7934 25.6946C70.7934 22.7331 68.3892 20.3323 65.4233 20.3323C62.4575 20.3323 60.0532 22.7331 60.0532 25.6946C60.0532 28.6562 62.4575 31.057 65.4233 31.057Z" fill="#F2F2F2"/>
<path d="M96.9727 10.7247C99.9385 10.7247 102.343 8.32389 102.343 5.36235C102.343 2.40081 99.9385 0 96.9727 0C94.0068 0 91.6025 2.40081 91.6025 5.36235C91.6025 8.32389 94.0068 10.7247 96.9727 10.7247Z" fill="#F2F2F2"/>
<path d="M116.663 33.5147C119.629 33.5147 122.033 31.1139 122.033 28.1524C122.033 25.1908 119.629 22.79 116.663 22.79C113.697 22.79 111.293 25.1908 111.293 28.1524C111.293 31.1139 113.697 33.5147 116.663 33.5147Z" fill="#F2F2F2"/>
<path d="M90.0361 59.8795C93.0019 59.8795 95.4062 57.4787 95.4062 54.5171C95.4062 51.5556 93.0019 49.1548 90.0361 49.1548C87.0703 49.1548 84.666 51.5556 84.666 54.5171C84.666 57.4787 87.0703 59.8795 90.0361 59.8795Z" fill="#F2F2F2"/>
<path d="M56.2495 72.6151C59.2153 72.6151 61.6196 70.2143 61.6196 67.2527C61.6196 64.2912 59.2153 61.8904 56.2495 61.8904C53.2837 61.8904 50.8794 64.2912 50.8794 67.2527C50.8794 70.2143 53.2837 72.6151 56.2495 72.6151Z" fill="#F2F2F2"/>
<path d="M92.0503 92.5006C95.0161 92.5006 97.4204 90.0998 97.4204 87.1382C97.4204 84.1767 95.0161 81.7759 92.0503 81.7759C89.0845 81.7759 86.6802 84.1767 86.6802 87.1382C86.6802 90.0998 89.0845 92.5006 92.0503 92.5006Z" fill="#F2F2F2"/>
<path d="M130.536 103.672C133.502 103.672 135.906 101.271 135.906 98.3096C135.906 95.3481 133.502 92.9473 130.536 92.9473C127.57 92.9473 125.166 95.3481 125.166 98.3096C125.166 101.271 127.57 103.672 130.536 103.672Z" fill="#F2F2F2"/>
<path d="M175.511 101.214C178.477 101.214 180.881 98.8136 180.881 95.8521C180.881 92.8906 178.477 90.4897 175.511 90.4897C172.545 90.4897 170.141 92.8906 170.141 95.8521C170.141 98.8136 172.545 101.214 175.511 101.214Z" fill="#F2F2F2"/>
<path d="M95.4228 15.1941C79.3367 15.3076 66.1656 28.3609 65.9371 44.4226C65.9349 44.5709 65.934 45.6136 65.9341 46.9774C65.9342 48.9769 66.7297 50.8946 68.1456 52.3086C69.5616 53.7226 71.482 54.517 73.4844 54.5173H73.4845C74.4771 54.517 75.46 54.3215 76.377 53.9418C77.2939 53.5622 78.127 53.0058 78.8285 52.3045C79.53 51.6032 80.0863 50.7708 80.4656 49.8547C80.8448 48.9387 81.0395 47.957 81.0387 46.9658C81.0379 46.0381 81.0374 45.396 81.0374 45.3566C81.0369 42.8743 81.6835 40.4346 82.9137 38.2775C84.1438 36.1204 85.9151 34.3202 88.0533 33.0541C90.1915 31.7879 92.6229 31.0993 95.1084 31.0561C97.594 31.0129 100.048 31.6165 102.229 32.8075C104.41 33.9986 106.243 35.7361 107.548 37.8491C108.852 39.9621 109.584 42.3778 109.67 44.8587C109.756 47.3395 109.193 49.7999 108.038 51.998C106.883 54.1961 105.175 56.056 103.082 57.3949L103.084 57.3981C103.084 57.3981 92.3379 64.3065 89.0615 73.7835L89.0643 73.7842C88.4882 75.7256 88.1963 77.7401 88.1976 79.765C88.1976 80.5974 88.2466 87.8803 88.3414 93.7915C88.3745 95.8311 89.2093 97.7759 90.6656 99.2064C92.1219 100.637 94.083 101.438 96.1258 101.438H96.1258C97.1523 101.438 98.1686 101.235 99.1163 100.841C100.064 100.448 100.924 99.8706 101.648 99.1436C102.371 98.4166 102.944 97.5539 103.332 96.6051C103.721 95.6564 103.917 94.6403 103.911 93.6153C103.878 88.2018 103.86 81.8982 103.86 81.4407C103.86 75.6215 109.482 69.8235 114.1 66.0424C119.418 61.6884 123.245 55.755 124.782 49.0619C125.122 47.6839 125.309 46.2727 125.341 44.8539C125.341 40.9408 124.565 37.0663 123.059 33.4538C121.553 29.8413 119.346 26.5621 116.565 23.8051C113.784 21.0481 110.484 18.8679 106.856 17.39C103.227 15.9122 99.3415 15.1659 95.4228 15.1941Z" fill="#FF3E79"/>
<path d="M188.733 133H0.265651C0.195125 133 0.127559 132.972 0.0777624 132.922C0.0279654 132.872 0 132.804 0 132.734C0 132.664 0.0279654 132.596 0.0777624 132.546C0.127559 132.496 0.195125 132.468 0.265651 132.468H188.733C188.803 132.468 188.871 132.496 188.921 132.546C188.971 132.596 188.999 132.664 188.999 132.734C188.999 132.805 188.971 132.872 188.921 132.922C188.871 132.972 188.803 133 188.733 133Z" fill="#333E57"/>
<path d="M140.617 60.9957C144.325 60.9957 147.33 57.9947 147.33 54.2928C147.33 50.5908 144.325 47.5898 140.617 47.5898C136.91 47.5898 133.905 50.5908 133.905 54.2928C133.905 57.9947 136.91 60.9957 140.617 60.9957Z" fill="#313131"/>
<path d="M128.213 130.066H125.47L124.165 119.5H128.214L128.213 130.066Z" fill="#A0616A"/>
<path d="M123.51 129.283H128.801V132.609H120.179C120.179 132.173 120.265 131.74 120.433 131.337C120.6 130.933 120.846 130.566 121.155 130.257C121.464 129.949 121.831 129.704 122.235 129.536C122.64 129.369 123.073 129.283 123.51 129.283Z" fill="#313131"/>
<path d="M149.47 130.066H146.727L145.422 119.5H149.471L149.47 130.066Z" fill="#A0616A"/>
<path d="M144.767 129.283H150.057V132.609H141.436C141.436 132.173 141.522 131.74 141.69 131.337C141.857 130.933 142.102 130.566 142.412 130.257C142.721 129.949 143.088 129.704 143.492 129.536C143.896 129.369 144.33 129.283 144.767 129.283Z" fill="#313131"/>
<path d="M139.597 61.035C142.632 61.035 145.093 58.578 145.093 55.5473C145.093 52.5165 142.632 50.0596 139.597 50.0596C136.562 50.0596 134.102 52.5165 134.102 55.5473C134.102 58.578 136.562 61.035 139.597 61.035Z" fill="#A0616A"/>
<path d="M142.873 78.7384L145.332 73.0968C145.929 71.7733 146.1 70.2974 145.822 68.8727C145.543 67.4479 144.829 66.1446 143.777 65.1426C143.561 64.9294 143.331 64.7301 143.09 64.5461C141.876 63.5983 140.381 63.0817 138.841 63.0781C137.805 63.0821 136.782 63.3093 135.842 63.744C135.762 63.7797 135.683 63.8177 135.603 63.8557C135.448 63.9294 135.296 64.0098 135.149 64.0925C134.185 64.6448 133.366 65.4154 132.755 66.3422C132.145 67.269 131.762 68.326 131.636 69.428L130.55 78.5083C130.278 79.221 120.54 104.96 123.945 124.611C123.982 124.821 124.084 125.014 124.238 125.161C124.392 125.309 124.589 125.403 124.8 125.431L128.253 125.9C128.505 125.935 128.761 125.872 128.968 125.726C129.176 125.58 129.321 125.36 129.374 125.112L135.167 97.5379C135.203 97.3666 135.295 97.2123 135.43 97.0997C135.564 96.9871 135.732 96.9227 135.907 96.9168C136.082 96.9108 136.255 96.9638 136.396 97.067C136.538 97.1703 136.64 97.318 136.688 97.4865L144.873 126.483C144.931 126.694 145.057 126.88 145.231 127.012C145.406 127.145 145.619 127.216 145.837 127.216C145.903 127.216 145.968 127.21 146.032 127.198L150.25 126.387C150.495 126.342 150.714 126.206 150.865 126.007C151.015 125.808 151.085 125.561 151.062 125.313C150.442 118.411 147.149 83.8393 142.873 78.7384Z" fill="#313131"/>
<path d="M118.24 60.1141C118.202 60.4404 118.236 60.771 118.339 61.0827C118.443 61.3944 118.614 61.6797 118.84 61.9183C119.066 62.157 119.341 62.3433 119.647 62.464C119.953 62.5848 120.282 62.6371 120.61 62.6173L123.682 69.9888L126.006 66.5493L122.732 60.0764C122.663 59.5279 122.394 59.0239 121.977 58.6601C121.559 58.2963 121.023 58.098 120.469 58.1026C119.916 58.1073 119.383 58.3146 118.972 58.6853C118.561 59.056 118.3 59.5644 118.24 60.1141L118.24 60.1141Z" fill="#A0616A"/>
<path d="M139.292 86.161C139.619 86.122 139.933 86.012 140.212 85.8387C140.492 85.6654 140.73 85.433 140.91 85.158C141.089 84.8829 141.207 84.5718 141.253 84.2466C141.299 83.9214 141.274 83.59 141.178 83.2758L147.641 78.5752L143.75 77.1201L138.209 81.807C137.691 82.0027 137.263 82.3813 137.006 82.8711C136.749 83.3609 136.68 83.9279 136.814 84.4646C136.947 85.0013 137.273 85.4704 137.73 85.7831C138.187 86.0957 138.743 86.2302 139.292 86.161Z" fill="#A0616A"/>
<path d="M128.756 74.9033C128.508 74.903 128.261 74.8787 128.018 74.8306C127.43 74.7189 126.879 74.4645 126.413 74.0898C125.946 73.7151 125.58 73.2316 125.345 72.682L121.041 67.4419C120.95 67.3311 120.884 67.2022 120.847 67.0637C120.81 66.9253 120.803 66.7806 120.826 66.6393C120.85 66.4979 120.903 66.3632 120.983 66.2442C121.063 66.1252 121.167 66.0246 121.289 65.9492L124.351 64.0566C124.464 63.9867 124.59 63.9399 124.722 63.9188C124.853 63.8977 124.987 63.9028 125.116 63.9337C125.246 63.9647 125.367 64.0209 125.475 64.0991C125.582 64.1774 125.673 64.2761 125.742 64.3896L128.775 69.3797L134.584 65.0928C135.047 64.8506 135.581 64.7827 136.09 64.9015C136.598 65.0202 137.047 65.3177 137.354 65.7395C137.661 66.1614 137.806 66.6794 137.762 67.199C137.718 67.7187 137.488 68.2052 137.115 68.5697L131.317 73.8509C130.636 74.5253 129.715 74.9035 128.756 74.9033Z" fill="#313131"/>
<path d="M144.453 82.7842C144.445 82.7842 144.437 82.7842 144.429 82.7839C144.288 82.7805 144.149 82.7475 144.021 82.6871C143.894 82.6266 143.78 82.5401 143.688 82.4331L140.966 79.2618C140.873 79.1538 140.805 79.0274 140.764 78.8909C140.724 78.7545 140.714 78.611 140.733 78.4701C140.753 78.3292 140.802 78.194 140.877 78.0735C140.953 77.9529 141.053 77.8498 141.172 77.7709L146.27 74.3776L141.652 68.8337C141.383 68.3865 141.284 67.8577 141.374 67.3439C141.463 66.8302 141.735 66.3658 142.139 66.0355C142.543 65.7053 143.053 65.5312 143.575 65.5452C144.097 65.5592 144.597 65.7603 144.983 66.1117L150.595 71.5886C151.037 71.9915 151.374 72.4955 151.578 73.0572C151.782 73.619 151.846 74.2217 151.765 74.8136C151.684 75.4056 151.461 75.9691 151.114 76.4558C150.767 76.9425 150.307 77.3379 149.773 77.6079L145.186 82.4684C145.091 82.5681 144.978 82.6475 144.852 82.7017C144.726 82.756 144.59 82.7841 144.453 82.7842Z" fill="#313131"/>
<path d="M138.2 71.099C138.156 71.0989 138.113 71.0962 138.069 71.0907C137.88 71.0677 137.701 70.9908 137.554 70.8693C137.407 70.7477 137.297 70.5866 137.239 70.405L135.194 64.1424C135.142 63.984 135.15 63.8125 135.216 63.6595C135.281 63.5066 135.4 63.3825 135.55 63.3102L135.617 63.2789C135.677 63.2503 135.736 63.222 135.797 63.195C136.751 62.7532 137.79 62.5228 138.841 62.5195C140.206 62.522 141.541 62.9225 142.681 63.6717C142.834 63.7733 142.941 63.9308 142.978 64.1103C143.016 64.2897 142.982 64.4768 142.883 64.6312L139.045 70.6343C138.955 70.7768 138.831 70.8942 138.683 70.9755C138.535 71.0568 138.369 71.0993 138.2 71.099Z" fill="#E6E6E6"/>
<path d="M145.91 51.3005C147.123 51.3005 148.106 50.3185 148.106 49.1072C148.106 47.8958 147.123 46.9138 145.91 46.9138C144.697 46.9138 143.713 47.8958 143.713 49.1072C143.713 50.3185 144.697 51.3005 145.91 51.3005Z" fill="#313131"/>
<path d="M138.38 46.6963C136.837 46.6963 135.357 47.3083 134.266 48.3978C133.175 49.4872 132.563 50.9648 132.562 52.5055V54.9632H135.59L137.038 52.5055L137.472 54.9632H146.659L144.198 52.5055C144.198 50.9648 143.585 49.4872 142.494 48.3978C141.403 47.3083 139.923 46.6963 138.38 46.6963Z" fill="#313131"/>
<path d="M147.039 47.6048C147.281 46.8464 147.784 46.1978 148.459 45.7729C149.133 45.3481 149.936 45.1744 150.726 45.2821C152.126 45.5158 153.233 46.6394 153.892 47.8943C154.552 49.1492 154.856 50.5537 155.3 51.8999C155.743 53.2462 156.372 54.5998 157.491 55.4713C158.61 56.3427 160.327 56.5791 161.427 55.6826C161.301 56.6169 160.884 57.4882 160.236 58.1731C159.587 58.8581 158.739 59.322 157.812 59.4994C156.885 59.6768 155.925 59.5587 155.069 59.1617C154.213 58.7647 153.503 58.1089 153.041 57.2872C152.461 56.2568 152.311 55.0491 152.139 53.8796C151.967 52.7101 151.744 51.5001 151.051 50.5415C150.359 49.5828 149.063 48.9567 147.963 49.3933L147.039 47.6048Z" fill="#313131"/>
<path d="M75.6161 50.9509C73.6136 50.9506 71.6932 50.1562 70.2772 48.7422C68.8613 47.3282 68.0658 45.4105 68.0657 43.4109C68.0656 42.0472 68.0665 41.0045 68.0686 40.8562C68.1322 36.185 69.3104 31.5963 71.5052 27.4707C67.8991 32.4002 65.9163 38.327 65.8311 44.4311C65.829 44.5794 65.828 45.6221 65.8281 46.9858C65.8283 48.9854 66.6238 50.9031 68.0397 52.3171C69.4556 53.7311 71.376 54.5255 73.3785 54.5258C75.024 54.5251 76.6243 53.9882 77.9364 52.9965C79.2484 52.0049 80.2004 50.6127 80.6478 49.0315C79.2653 50.2694 77.4731 50.9531 75.6161 50.9509Z" fill="#333E57"/>
<path d="M95.9346 31.0813C98.2496 31.1917 100.503 31.8615 102.502 33.0332C104.501 34.2049 106.185 35.8434 107.409 37.8082C108.634 39.7729 109.363 42.0051 109.534 44.3131C109.704 46.6211 109.311 48.936 108.389 51.059C109.723 49.4938 110.704 47.6596 111.265 45.6815C111.825 43.7034 111.952 41.6278 111.636 39.5964C111.32 37.5649 110.57 35.6254 109.435 33.9099C108.301 32.1944 106.809 30.7433 105.063 29.6556C103.316 28.5678 101.354 27.869 99.3124 27.6068C97.2705 27.3446 95.196 27.5251 93.2303 28.136C91.2645 28.7469 89.4539 29.7739 87.9217 31.147C86.3894 32.52 85.1717 34.2068 84.3516 36.0924C85.7691 34.4272 87.5507 33.1094 89.559 32.2406C91.5673 31.3718 93.7485 30.9752 95.9346 31.0813Z" fill="#333E57"/>
<path d="M98.2571 97.8714C96.2143 97.8719 94.2532 97.0704 92.7969 95.64C91.3406 94.2095 90.5058 92.2647 90.4726 90.2251C90.3779 84.3139 90.3289 77.031 90.3289 76.1986C90.3275 74.1737 90.6195 72.1593 91.1956 70.2178L91.1928 70.2172C91.533 69.2427 91.9439 68.2942 92.4222 67.3794C90.954 69.3331 89.7855 71.4944 88.9553 73.7921L88.958 73.7927C88.3819 75.7342 88.09 77.7486 88.0913 79.7735C88.0913 80.6059 88.1404 87.8888 88.2351 93.8C88.2682 95.8396 89.103 97.7844 90.5593 99.2149C92.0156 100.645 93.9767 101.447 96.0195 101.446C97.7038 101.446 99.3427 100.9 100.69 99.8914C102.038 98.8823 103.021 97.4642 103.493 95.8497C102.062 97.153 100.194 97.8742 98.2571 97.8714Z" fill="#333E57"/>
<path d="M28.3132 130.168L31.0562 130.168L32.3613 119.602L28.3125 119.602L28.3132 130.168Z" fill="#FFB8B8"/>
<path d="M36.3467 132.711L27.7253 132.711L27.7251 129.385L33.0155 129.385C33.899 129.385 34.7462 129.735 35.3709 130.359C35.9957 130.983 36.3466 131.829 36.3467 132.711L36.3467 132.711Z" fill="#313131"/>
<path d="M18.468 130.168L21.211 130.168L22.5161 119.602L18.4673 119.602L18.468 130.168Z" fill="#FFB8B8"/>
<path d="M26.5015 132.711L17.88 132.711L17.8799 129.385L23.1703 129.385C24.0537 129.385 24.901 129.735 25.5257 130.359C26.1504 130.983 26.5014 131.829 26.5015 132.711L26.5015 132.711Z" fill="#313131"/>
<path d="M20.8651 126.918L18.1856 126.777C18.0475 126.77 17.9121 126.736 17.7874 126.676C17.6627 126.616 17.5512 126.532 17.4592 126.429C17.3673 126.326 17.2967 126.205 17.2517 126.074C17.2067 125.944 17.1881 125.806 17.197 125.668L20.3995 90.2615L35.1474 94.2353L36.5683 93.8483L32.1249 125.192C32.087 125.428 31.9698 125.644 31.7925 125.804C31.6152 125.964 31.3885 126.059 31.1497 126.074L28.2613 126.208C28.1169 126.216 27.9724 126.194 27.8369 126.143C27.7014 126.093 27.5779 126.015 27.4742 125.914C27.3705 125.813 27.2888 125.692 27.2344 125.558C27.1799 125.425 27.1539 125.281 27.1579 125.136L27.6812 106.324C27.6837 106.237 27.6534 106.153 27.5964 106.087C27.5394 106.021 27.4597 105.979 27.3732 105.969C27.2866 105.959 27.1994 105.981 27.1287 106.032C27.0581 106.083 27.009 106.159 26.9914 106.244L21.9441 126.087C21.8965 126.323 21.7686 126.534 21.5821 126.686C21.3957 126.838 21.1623 126.921 20.9218 126.92C20.903 126.92 20.8841 126.919 20.8651 126.918Z" fill="#313131"/>
<path d="M28.8057 61.2916C31.8409 61.2916 34.3014 58.8346 34.3014 55.8039C34.3014 52.7731 31.8409 50.3162 28.8057 50.3162C25.7705 50.3162 23.3101 52.7731 23.3101 55.8039C23.3101 58.8346 25.7705 61.2916 28.8057 61.2916Z" fill="#FFB8B8"/>
<path d="M19.6556 71.9264L20.2599 84.9452L20.4783 89.6816C20.487 89.8878 20.5571 90.0867 20.6797 90.2529C20.8022 90.419 20.9716 90.545 21.1662 90.6145L35.3379 95.7408C35.4524 95.7832 35.5737 95.8045 35.6959 95.8034C35.8354 95.8041 35.9737 95.7767 36.1025 95.7228C36.2312 95.6689 36.3478 95.5897 36.4452 95.4898C36.5426 95.39 36.6188 95.2715 36.6694 95.1416C36.7199 95.0117 36.7437 94.8729 36.7394 94.7336L36.1584 71.3254C36.1202 69.4048 35.4122 67.5578 34.1565 66.1026C32.9007 64.6475 31.1759 63.6754 29.2793 63.354C29.1423 63.3331 29.0028 63.3122 28.8633 63.2936C27.6873 63.1479 26.4936 63.2612 25.3661 63.6256C24.2387 63.9901 23.2049 64.5968 22.3375 65.4031C21.4394 66.228 20.7336 67.2398 20.2702 68.367C19.8068 69.4942 19.597 70.7093 19.6556 71.9264L19.6556 71.9264Z" fill="#CCCCCC"/>
<path d="M42.1077 93.1431C41.7725 93.0393 41.4663 92.8586 41.2134 92.6156C40.9606 92.3725 40.7681 92.0738 40.6514 91.7433C40.5347 91.4128 40.497 91.0596 40.5413 90.712C40.5855 90.3643 40.7106 90.0318 40.9064 89.741L36.1006 83.3598L40.2477 83.1035L44.1756 89.2025C44.5961 89.5272 44.8887 89.9893 45.0021 90.5078C45.1155 91.0264 45.0424 91.5682 44.7957 92.0383C44.549 92.5084 44.1444 92.8768 43.6529 93.0788C43.1614 93.2809 42.6143 93.3036 42.1077 93.1431H42.1077Z" fill="#FFB8B8"/>
<path d="M38.7287 88.5862C38.6014 88.5346 38.4856 88.4583 38.388 88.3617C38.2904 88.2651 38.2129 88.1502 38.1601 88.0235L30.9198 70.7983C30.7777 70.461 30.7036 70.0991 30.7017 69.7332C30.6998 69.3674 30.7701 69.0047 30.9086 68.666C31.047 68.3272 31.251 68.0191 31.5089 67.7591C31.7667 67.4991 32.0733 67.2924 32.4111 67.1508C32.749 67.0092 33.1115 66.9355 33.4779 66.9339C33.8443 66.9322 34.2074 67.0027 34.5465 67.1413C34.8856 67.2798 35.1941 67.4837 35.4542 67.7414C35.7144 67.999 35.9211 68.3054 36.0627 68.6428L43.303 85.8683C43.41 86.1237 43.4112 86.4111 43.3063 86.6673C43.2014 86.9236 42.999 87.1279 42.7435 87.2353L39.5291 88.5824C39.4026 88.6359 39.2667 88.6637 39.1293 88.6644C38.9919 88.6651 38.8557 88.6385 38.7287 88.5862L38.7287 88.5862Z" fill="#CCCCCC"/>
<path d="M27.039 87.9786L33.9931 74.6824C34.1272 74.4267 34.3574 74.2346 34.6332 74.1482C34.909 74.0617 35.2079 74.0881 35.4643 74.2214L45.5582 79.4855C45.8143 79.6194 46.0067 79.8493 46.0932 80.1247C46.1798 80.4001 46.1534 80.6985 46.0199 80.9545L39.0657 94.2506C38.9316 94.5063 38.7014 94.6985 38.4256 94.7849C38.1498 94.8714 37.8509 94.845 37.5946 94.7117L27.5007 89.4476C27.2446 89.3137 27.0522 89.0838 26.9656 88.8084C26.8791 88.533 26.9054 88.2346 27.039 87.9786Z" fill="#333E57"/>
<path d="M31.7025 81.9041C31.5789 81.5762 31.3802 81.2816 31.1223 81.0439C30.8644 80.8062 30.5545 80.632 30.2172 80.5352C29.8799 80.4384 29.5246 80.4216 29.1797 80.4863C28.8347 80.5509 28.5097 80.6952 28.2305 80.9076L21.5675 76.4939L21.5562 80.6429L27.8852 84.1982C28.2346 84.5982 28.7139 84.8625 29.2389 84.9449C29.764 85.0274 30.3014 84.9225 30.7568 84.6489C31.2122 84.3752 31.5566 83.9501 31.7295 83.4482C31.9025 82.9464 31.8929 82.3997 31.7025 81.9041Z" fill="#FFB8B8"/>
<path d="M23.2782 82.8369L17.8328 78.5297C17.2437 78.3321 16.7114 77.9948 16.2816 77.5467C15.8518 77.0985 15.5373 76.5529 15.3652 75.9567C15.193 75.3604 15.1683 74.7314 15.2932 74.1235C15.4181 73.5157 15.6889 72.9472 16.0822 72.4668L21.0266 65.9964C21.3702 65.5771 21.8534 65.2953 22.3879 65.2025C22.9224 65.1097 23.4725 65.2121 23.9376 65.491C24.4028 65.7698 24.7519 66.2065 24.9211 66.7212C25.0904 67.236 25.0685 67.7943 24.8594 68.2942L20.9473 74.6843L26.6965 77.4073C26.8302 77.4706 26.9489 77.5615 27.0448 77.674C27.1407 77.7865 27.2115 77.9181 27.2527 78.06C27.2939 78.2019 27.3045 78.3509 27.2838 78.4972C27.263 78.6435 27.2114 78.7837 27.1324 78.9086L24.8116 82.576C24.7332 82.6998 24.6296 82.8058 24.5075 82.887C24.3855 82.9683 24.2477 83.023 24.1031 83.0477C24.0973 83.0487 24.0916 83.0496 24.0858 83.0505C23.9437 83.0719 23.7987 83.064 23.6598 83.0273C23.5209 82.9905 23.3911 82.9258 23.2782 82.8369Z" fill="#CCCCCC"/>
<path d="M24.6531 59.4787C24.6295 59.4098 24.622 59.3364 24.6312 59.2642C24.6404 59.192 24.666 59.1229 24.7061 59.0621C24.7462 59.0013 24.7997 58.9504 24.8625 58.9135C24.9253 58.8765 24.9957 58.8544 25.0684 58.8488C25.2173 58.8569 25.3629 58.895 25.4966 58.9609C25.6303 59.0267 25.7492 59.119 25.8462 59.232C26.0451 59.461 26.2766 59.6595 26.5334 59.8212C26.7992 59.955 27.1598 59.9359 27.3114 59.6808C27.4537 59.4413 27.3562 59.1205 27.27 58.8422C27.0508 58.1342 26.9281 57.4 26.9053 56.6593C26.8805 55.8325 26.9973 54.9697 27.4557 54.3248C28.0473 53.4926 29.1051 53.1767 30.1061 53.1996C31.1072 53.2225 32.0921 53.5311 33.0837 53.7261C33.426 53.7935 33.8284 53.8279 34.0574 53.563C34.3008 53.2813 34.2114 52.8253 34.1078 52.445C33.8391 51.458 33.554 50.4375 32.9297 49.6404C32.2547 48.8121 31.2904 48.27 30.2311 48.1233C29.214 47.9975 28.1817 48.1145 27.2188 48.4648C25.65 48.9585 24.2696 49.9188 23.2622 51.2171C22.2237 52.5979 21.7749 54.3331 22.014 56.0433C22.2477 57.5328 23.0381 58.8785 24.226 59.8091L24.6531 59.4787Z" fill="#313131"/>
<path d="M94.2574 130.211C92.7953 129.575 91.5012 128.609 90.4772 127.388C89.4532 126.167 88.7273 124.725 88.3569 123.176C87.9865 121.627 87.9817 120.014 88.3428 118.462C88.704 116.911 89.4212 115.465 90.4379 114.238C89.2591 115.098 88.2769 116.198 87.5564 117.465C86.8358 118.733 86.3936 120.139 86.2588 121.59C86.1241 123.041 86.2999 124.504 86.7748 125.882C87.2497 127.26 88.0126 128.522 89.013 129.583C90.0135 130.644 91.2285 131.481 92.5774 132.037C93.9264 132.594 95.3785 132.857 96.8372 132.81C98.296 132.764 99.7281 132.408 101.039 131.766C102.349 131.124 103.508 130.212 104.438 129.088C102.987 130.147 101.284 130.808 99.4976 131.005C97.7114 131.202 95.9047 130.928 94.2574 130.211Z" fill="#333E57"/>
</svg>
