<svg width="31" height="31" viewBox="0 0 31 31" fill="none" xmlns="http://www.w3.org/2000/svg">
<path d="M10.8752 13.9583C14.2809 13.9583 17.0418 11.1974 17.0418 7.79167C17.0418 4.38591 14.2809 1.625 10.8752 1.625C7.46941 1.625 4.7085 4.38591 4.7085 7.79167C4.7085 11.1974 7.46941 13.9583 10.8752 13.9583Z" stroke="#FF3E79" stroke-width="2" stroke-linecap="round" stroke-linejoin="round"/>
<path d="M1.625 29.375V26.2917C1.625 24.6562 2.2747 23.0877 3.43117 21.9312C4.58765 20.7747 6.15616 20.125 7.79167 20.125H13.9583C15.5938 20.125 17.1624 20.7747 18.3188 21.9312C19.4753 23.0877 20.125 24.6562 20.125 26.2917V29.375" stroke="#FF3E79" stroke-width="2" stroke-linecap="round" stroke-linejoin="round"/>
<path d="M21.6665 1.82538C22.993 2.16501 24.1687 2.93646 25.0083 4.01811C25.8479 5.09975 26.3036 6.43007 26.3036 7.79934C26.3036 9.1686 25.8479 10.4989 25.0083 11.5806C24.1687 12.6622 22.993 13.4337 21.6665 13.7733" stroke="#FF3E79" stroke-width="2" stroke-linecap="round" stroke-linejoin="round"/>
<path d="M29.375 29.375V26.2917C29.3672 24.9306 28.9093 23.6104 28.0727 22.5368C27.2361 21.4632 26.0679 20.6965 24.75 20.3563" stroke="#FF3E79" stroke-width="2" stroke-linecap="round" stroke-linejoin="round"/>
</svg>
