<svg width="80" height="12" viewBox="0 0 80 12" fill="none" xmlns="http://www.w3.org/2000/svg">
<path d="M6 0L7.34708 4.1459H11.7063L8.17963 6.7082L9.52671 10.8541L6 8.2918L2.47329 10.8541L3.82037 6.7082L0.293661 4.1459H4.65292L6 0Z" fill="#F2C94C"/>
<path d="M23 0L24.3471 4.1459H28.7063L25.1796 6.7082L26.5267 10.8541L23 8.2918L19.4733 10.8541L20.8204 6.7082L17.2937 4.1459H21.6529L23 0Z" fill="#F2C94C"/>
<path d="M40 0L41.3471 4.1459H45.7063L42.1796 6.7082L43.5267 10.8541L40 8.2918L36.4733 10.8541L37.8204 6.7082L34.2937 4.1459H38.6529L40 0Z" fill="#F2C94C"/>
<path d="M57 0L58.3471 4.1459H62.7063L59.1796 6.7082L60.5267 10.8541L57 8.2918L53.4733 10.8541L54.8204 6.7082L51.2937 4.1459H55.6529L57 0Z" fill="#F2C94C"/>
<path d="M74 0L75.3471 4.1459H79.7063L76.1796 6.7082L77.5267 10.8541L74 8.2918L70.4733 10.8541L71.8204 6.7082L68.2937 4.1459H72.6529L74 0Z" fill="#F2C94C"/>
</svg>
