<svg width="25" height="24" viewBox="0 0 25 24" fill="none" xmlns="http://www.w3.org/2000/svg">
<path d="M20.5178 7.61987C20.5175 7.61987 20.5172 7.61987 20.517 7.61987H0.345735C0.155016 7.61967 0.00020191 7.77314 1.97403e-07 7.96269C1.97403e-07 7.96294 1.97403e-07 7.96324 1.97403e-07 7.96349V17.5865C-0.000201515 17.776 0.154209 17.9299 0.344928 17.9301C0.34518 17.9301 0.345483 17.9301 0.345735 17.9301H14.0622C14.2531 17.9301 14.4079 17.7762 14.4079 17.5865C14.4079 17.3967 14.2531 17.2428 14.0622 17.2428H0.69147V8.30711H20.1712V9.16637C20.171 9.35592 20.3254 9.50979 20.5162 9.50999C20.5164 9.50999 20.5167 9.50999 20.517 9.50999C20.7077 9.51019 20.8625 9.35672 20.8627 9.16717C20.8627 9.16692 20.8627 9.16662 20.8627 9.16637V7.96349C20.8629 7.77394 20.7085 7.62012 20.5178 7.61987Z" fill="#54514C" fill-opacity="0.75"/>
<path d="M18.1724 6.02452L2.03538 2.41591C1.94582 2.39601 1.85197 2.41215 1.77436 2.46082C1.69685 2.50988 1.64204 2.58742 1.62187 2.67653L0.815016 6.28515C0.773564 6.47049 0.891162 6.65413 1.07765 6.69533C1.26413 6.73652 1.4489 6.61964 1.49035 6.4343L2.22176 3.16209L18.0207 6.69492C18.0457 6.70069 18.0713 6.70355 18.0969 6.70334C18.2878 6.70299 18.4424 6.54888 18.4421 6.35912C18.4418 6.19869 18.3298 6.05986 18.1724 6.02452Z" fill="#54514C" fill-opacity="0.75"/>
<path d="M16.213 4.03618L6.53078 0.0266104C6.3625 -0.0431061 6.1686 0.028515 6.08701 0.190602L5.28016 1.79443C5.18904 1.96193 5.25177 2.17118 5.42035 2.26175C5.58888 2.35231 5.79942 2.28996 5.89054 2.12241C5.89412 2.11585 5.8975 2.10913 5.90063 2.10232V2.10312L6.56265 0.786375L15.9459 4.67205C16.1226 4.74533 16.3256 4.66243 16.3994 4.48681C16.4731 4.31129 16.3897 4.10951 16.213 4.03618Z" fill="#54514C" fill-opacity="0.75"/>
<path d="M16.4575 9.22375H13.2555C13.0646 9.22375 12.9098 9.37762 12.9098 9.56738C12.9098 9.75713 13.0646 9.911 13.2555 9.911H16.4575C16.6484 9.911 16.8032 9.75713 16.8032 9.56738C16.8032 9.37762 16.6484 9.22375 16.4575 9.22375Z" fill="#54514C" fill-opacity="0.75"/>
<path d="M10.028 9.2467C8.06735 9.2467 6.47791 10.8264 6.47791 12.7751C6.47992 14.723 8.06821 16.3015 10.028 16.3036C11.9887 16.3036 13.5782 14.7238 13.5782 12.7751C13.5782 10.8264 11.9887 9.2467 10.028 9.2467ZM10.028 15.662C8.42383 15.662 7.12339 14.3695 7.12339 12.7751C7.12515 11.1815 8.42458 9.88999 10.028 9.88824C11.6323 9.88824 12.9327 11.1807 12.9327 12.7751C12.9327 14.3695 11.6323 15.662 10.028 15.662Z" fill="#54514C" fill-opacity="0.75"/>
<path d="M19.7101 10.3693C17.5719 10.3693 15.2724 10.8713 15.2724 11.9731V21.5961C15.2724 22.6979 17.5719 23.1999 19.7101 23.1999C21.8482 23.1999 24.1477 22.6979 24.1477 21.5961V11.9731C24.1477 10.8713 21.8482 10.3693 19.7101 10.3693ZM23.3409 21.5901C23.28 21.8126 22.0701 22.398 19.7101 22.398C17.35 22.398 16.1402 21.8126 16.0792 21.5961V20.9658C16.9377 21.3956 18.3558 21.5961 19.7101 21.5961C21.0644 21.5961 22.4828 21.3936 23.3409 20.9654V21.5901ZM23.3409 19.9862C23.28 20.2088 22.0701 20.7942 19.7101 20.7942C17.35 20.7942 16.1402 20.2088 16.0792 19.9922V19.3619C16.9377 19.7918 18.3558 19.9922 19.7101 19.9922C21.0644 19.9922 22.4828 19.7898 23.3409 19.3615V19.9862ZM23.3409 18.3824C23.28 18.6049 22.0701 19.1903 19.7101 19.1903C17.35 19.1903 16.1402 18.6049 16.0792 18.3884V17.7581C16.9377 18.1879 18.3558 18.3884 19.7101 18.3884C21.0644 18.3884 22.4828 18.1859 23.3409 17.7577V18.3824ZM23.3409 16.7786C23.28 17.0011 22.0701 17.5865 19.7101 17.5865C17.35 17.5865 16.1402 17.0011 16.0792 16.7846V16.1543C16.9377 16.5841 18.3558 16.7846 19.7101 16.7846C21.0644 16.7846 22.4828 16.5821 23.3409 16.1539V16.7786ZM23.3409 15.1747C23.28 15.3973 22.0701 15.9827 19.7101 15.9827C17.35 15.9827 16.1402 15.3973 16.0792 15.1808V14.5504C16.9377 14.9783 18.3558 15.1808 19.7101 15.1808C21.0644 15.1808 22.4828 14.9783 23.3409 14.55V15.1747ZM23.3409 13.5709C23.28 13.7934 22.0701 14.3788 19.7101 14.3788C17.35 14.3788 16.1402 13.7934 16.0792 13.5769V12.9466C16.9377 13.3744 18.3558 13.5769 19.7101 13.5769C21.0644 13.5769 22.4828 13.3744 23.3409 12.9462V13.5709ZM19.7101 12.775C17.3537 12.775 16.1442 12.1912 16.0792 11.9803V11.9779C16.1442 11.7546 17.3537 11.1712 19.7101 11.1712C22.0499 11.1712 23.2602 11.7462 23.3409 11.9731C23.2602 12.2 22.0499 12.775 19.7101 12.775Z" fill="#54514C" fill-opacity="0.75"/>
<path d="M6.80088 15.6387H3.7514L2.30552 14.0669V11.4607L3.90228 9.911H6.80088C6.9918 9.911 7.14662 9.75713 7.14662 9.56738C7.14662 9.37762 6.9918 9.22376 6.80088 9.22376H3.76188C3.67152 9.22356 3.58463 9.25854 3.51983 9.32119L1.71773 11.0682C1.65041 11.1463 1.6135 11.2459 1.61365 11.3488V14.2004C1.61365 14.2862 1.64587 14.3688 1.70402 14.4322L3.34313 16.214C3.40864 16.2853 3.50132 16.326 3.5985 16.3259H6.80088C6.9918 16.3259 7.14662 16.172 7.14662 15.9823C7.14662 15.7925 6.99185 15.6387 6.80088 15.6387Z" fill="#54514C" fill-opacity="0.75"/>
<path d="M10.2299 12.3742H9.82643C9.70097 12.3742 9.62472 12.3044 9.62472 12.2739C9.62472 12.2435 9.70097 12.1737 9.82643 12.1737H10.835C11.0578 12.1737 11.2384 11.9942 11.2384 11.7727C11.2384 11.5513 11.0578 11.3718 10.835 11.3718H10.4316C10.4316 11.1504 10.2509 10.9708 10.0281 10.9708C9.80535 10.9708 9.62472 11.1504 9.62472 11.3718V11.3898C9.17727 11.4526 8.83829 11.8233 8.81787 12.2719C8.84677 12.7976 9.29729 13.2016 9.82643 13.1761H10.2299C10.3553 13.1761 10.4316 13.2459 10.4316 13.2763C10.4316 13.3068 10.3553 13.3766 10.2299 13.3766H9.2213C8.9985 13.3766 8.81787 13.5561 8.81787 13.7775C8.81787 13.999 8.9985 14.1785 9.2213 14.1785H9.62472C9.62472 14.3999 9.80535 14.5794 10.0281 14.5794C10.2509 14.5794 10.4316 14.3999 10.4316 14.1785V14.1604C10.879 14.0976 11.218 13.727 11.2384 13.2783C11.2095 12.7526 10.759 12.3487 10.2299 12.3742Z" fill="#54514C" fill-opacity="0.75"/>
</svg>
