<svg width="19" height="19" viewBox="0 0 19 19" fill="none" xmlns="http://www.w3.org/2000/svg">
<path fill-rule="evenodd" clip-rule="evenodd" d="M2.23851 0.60656C2.44629 0.39909 2.69579 0.238148 2.97048 0.134398C3.24517 0.0306479 3.53877 -0.0135401 3.83182 0.00476186C4.12488 0.0230639 4.4107 0.103438 4.67035 0.240558C4.92999 0.377678 5.15753 0.568413 5.33788 0.800122L7.46945 3.5385C7.86013 4.04081 7.99788 4.69512 7.84351 5.31262L7.19395 7.91325C7.16036 8.04795 7.16218 8.18904 7.19921 8.32283C7.23625 8.45662 7.30725 8.57856 7.40532 8.67681L10.323 11.5945C10.4214 11.6928 10.5435 11.7639 10.6775 11.8009C10.8116 11.838 10.9529 11.8397 11.0878 11.8059L13.6872 11.1563C13.9919 11.0801 14.31 11.0742 14.6173 11.139C14.9247 11.2038 15.2133 11.3376 15.4613 11.5304L18.1997 13.6607C19.1841 14.4267 19.2744 15.8814 18.3933 16.7613L17.1654 17.9892C16.2866 18.8679 14.9733 19.2539 13.7489 18.8228C10.6154 17.7202 7.77021 15.9263 5.42457 13.5741C3.07248 11.2288 1.27854 8.38404 0.175821 5.25087C-0.254054 4.02775 0.131883 2.71318 1.01063 1.83443L2.23851 0.60656Z" fill="#FF3E79"/>
</svg>
