<svg width="24" height="26" viewBox="0 0 24 26" fill="none" xmlns="http://www.w3.org/2000/svg">
<path d="M1 6.33331H22.3333" stroke="#FF3E79" stroke-width="1.5" stroke-linecap="round" stroke-linejoin="round"/>
<path d="M9 11.6667V19.6667" stroke="#FF3E79" stroke-width="1.5" stroke-linecap="round" stroke-linejoin="round"/>
<path d="M14.3337 11.6667V19.6667" stroke="#FF3E79" stroke-width="1.5" stroke-linecap="round" stroke-linejoin="round"/>
<path d="M2.33374 6.33331L3.66707 22.3333C3.66707 23.0406 3.94803 23.7188 4.44812 24.2189C4.94822 24.719 5.6265 25 6.33374 25H17.0004C17.7077 25 18.3859 24.719 18.886 24.2189C19.3861 23.7188 19.6671 23.0406 19.6671 22.3333L21.0004 6.33331" stroke="#FF3E79" stroke-width="1.5" stroke-linecap="round" stroke-linejoin="round"/>
<path d="M7.66687 6.33333V2.33333C7.66687 1.97971 7.80735 1.64057 8.05739 1.39052C8.30744 1.14048 8.64658 1 9.0002 1H14.3335C14.6872 1 15.0263 1.14048 15.2763 1.39052C15.5264 1.64057 15.6669 1.97971 15.6669 2.33333V6.33333" stroke="#FF3E79" stroke-width="1.5" stroke-linecap="round" stroke-linejoin="round"/>
</svg>
