<svg width="252" height="105" viewBox="0 0 252 105" fill="none" xmlns="http://www.w3.org/2000/svg">
<path d="M125.925 36V43.8765" stroke="#F2F2F2" stroke-miterlimit="10"/>
<path d="M122 39.9323H129.861" stroke="#F2F2F2" stroke-miterlimit="10"/>
<g opacity="0.9">
<path opacity="0.05" d="M203.798 26.5364C203.8 27.3374 203.644 28.1308 203.339 28.8712C203.034 29.6116 202.587 30.2845 202.022 30.8514C201.457 31.4184 200.786 31.8681 200.048 32.175C199.31 32.4819 198.518 32.6398 197.719 32.6398H156.355C155.523 32.6478 154.699 32.491 153.928 32.1784C153.157 31.8658 152.456 31.4037 151.864 30.8185C151.272 30.2334 150.801 29.5368 150.479 28.7688C150.157 28.0008 149.99 27.1765 149.986 26.3434C150.028 24.7897 150.666 23.3119 151.768 22.2182C152.589 21.3998 153.624 20.831 154.754 20.5778C155.188 20.48 155.633 20.4314 156.078 20.433H156.535C157.363 20.219 158.095 19.7355 158.618 19.0586C159.141 18.3818 159.425 17.5499 159.425 16.6938V16.5491C159.43 15.856 159.242 15.1751 158.883 14.583C158.526 14.0189 158.028 13.5577 157.439 13.2447C156.851 12.9317 156.191 12.7776 155.524 12.7978H151.263C150.813 12.7987 150.365 12.7501 149.926 12.653C148.379 12.332 147.005 11.4457 146.074 10.1666C145.142 8.88743 144.718 7.30682 144.885 5.73203C145.051 4.15724 145.796 2.70079 146.975 1.64585C148.154 0.590915 149.682 0.0128636 151.263 0.0240799H180.42C181.289 0.0161275 182.15 0.179955 182.956 0.506167C183.762 0.83238 184.495 1.31457 185.115 1.92517C185.734 2.53577 186.228 3.26277 186.566 4.06457C186.905 4.86638 187.083 5.72723 187.089 6.59788C187.039 8.25762 186.346 9.83274 185.158 10.9899C183.969 12.147 182.378 12.7954 180.721 12.7978H171.439C170.465 12.8526 169.55 13.2787 168.88 13.9887C168.21 14.6986 167.837 15.6385 167.837 16.6154C167.837 17.5923 168.21 18.5322 168.88 19.2421C169.55 19.9521 170.465 20.3782 171.439 20.433H197.719C198.518 20.433 199.31 20.591 200.048 20.8979C200.786 21.2047 201.457 21.6545 202.022 22.2214C202.587 22.7883 203.034 23.4612 203.339 24.2017C203.644 24.9421 203.8 25.7355 203.798 26.5364Z" fill="#21A621"/>
<path opacity="0.05" d="M223.637 50.8173C223.572 52.4697 222.872 54.0327 221.682 55.1792C220.493 56.3258 218.908 56.9671 217.257 56.969H179.011C178.184 56.9487 177.374 57.2025 176.705 57.6911C176.037 58.1796 175.548 58.8756 175.315 59.6709C175.232 59.9939 175.192 60.3264 175.195 60.6599V60.9494C175.192 61.283 175.232 61.6155 175.315 61.9385C175.548 62.7338 176.037 63.4298 176.705 63.9183C177.374 64.4069 178.184 64.6607 179.011 64.6404H204.942C205.554 64.6403 206.163 64.7339 206.748 64.9178C208.144 65.3447 209.34 66.2606 210.117 67.4982C210.895 68.7357 211.203 70.2123 210.984 71.6582C210.764 73.1041 210.034 74.4227 208.924 75.3732C207.815 76.3237 206.401 76.8426 204.942 76.8351H133.999C132.553 76.8591 131.142 76.3791 130.01 75.4771C128.877 74.5752 128.091 73.3072 127.788 71.8897C127.594 70.9113 127.645 69.9 127.937 68.9464C128.229 67.9928 128.753 67.1267 129.461 66.4256C130.153 65.7219 131.009 65.2035 131.953 64.9178C132.541 64.7326 133.154 64.6391 133.771 64.6404H135.577C136.404 64.6607 137.214 64.4069 137.882 63.9183C138.551 63.4298 139.039 62.7338 139.272 61.9385C139.355 61.6155 139.396 61.283 139.393 60.9494V60.6117C139.343 59.6241 138.912 58.6946 138.191 58.0194C137.47 57.3442 136.515 56.9762 135.528 56.9931H92.6235C91.748 57.0011 90.8797 56.8345 90.0692 56.5029C89.2587 56.1712 88.5221 55.6813 87.9025 55.0616C87.2829 54.4418 86.7926 53.7048 86.4601 52.8932C86.1277 52.0817 85.9598 51.212 85.9662 50.3348C86.0376 48.6879 86.7412 47.1322 87.9301 45.9927C89.119 44.8532 90.7013 44.2178 92.3466 44.2194H216.956C217.828 44.2098 218.693 44.3733 219.502 44.7003C220.311 45.0273 221.047 45.5114 221.668 46.1247C222.289 46.738 222.783 47.4684 223.121 48.2738C223.459 49.0792 223.634 49.9436 223.637 50.8173Z" fill="#21A621"/>
<path opacity="0.05" d="M0 73.6749C0.0482416 75.6486 0.69951 77.5599 1.86595 79.1511C3.06588 80.3463 4.6884 81.0182 6.38036 81.0207H44.6264C45.4545 81.0032 46.2652 81.2595 46.9333 81.7501C47.6014 82.2407 48.0895 82.9382 48.3222 83.7347C48.3992 84.0547 48.4396 84.3825 48.4426 84.7117V85.0012C48.4403 85.3344 48.3999 85.6663 48.3222 85.9903C48.0891 86.7856 47.6005 87.4815 46.9322 87.9701C46.2639 88.4586 45.4534 88.7124 44.6264 88.6921H18.6956C18.0831 88.692 17.4742 88.7856 16.8899 88.9696C14.41 89.7416 12.6162 93.2516 12.6162 95.9897C12.6147 96.7906 12.7707 97.584 13.0755 98.3244C13.3804 99.0649 13.8279 99.7378 14.3926 100.305C14.9573 100.872 15.628 101.321 16.3664 101.628C17.1048 101.935 17.8963 102.093 18.6956 102.093H137.78C139.228 102.118 140.64 101.638 141.775 100.736C142.91 99.8344 143.697 98.5662 144.003 97.1476C144.188 95.9802 144.135 94.7874 143.848 93.641C143.56 92.4946 143.044 91.4185 142.33 90.4773C141.639 89.7736 140.782 89.2552 139.838 88.9696C139.25 88.7844 138.637 88.6908 138.02 88.6921H136.203C135.706 88.7188 135.21 88.6426 134.744 88.4681C134.278 88.2936 133.854 88.0247 133.497 87.6783C133.14 87.3318 132.858 86.9152 132.669 86.4545C132.48 85.9939 132.388 85.4991 132.398 85.0012V84.6634C132.448 83.6758 132.879 82.7463 133.6 82.0711C134.321 81.3959 135.276 81.0279 136.263 81.0448H179.168C182.779 81.0448 185.969 76.8472 185.813 73.1924C185.75 71.5434 185.052 69.983 183.864 68.84C182.676 67.697 181.091 67.0606 179.445 67.0649H6.65724C5.78673 67.0602 4.92383 67.2274 4.11791 67.5572C3.312 67.8869 2.57889 68.3727 1.96055 68.9867C1.34221 69.6006 0.850769 70.3307 0.514355 71.1352C0.17794 71.9396 0.00315256 72.8027 0 73.6749Z" fill="#21A621"/>
</g>
<path opacity="0.5" d="M129.377 105C148.738 105 164.433 89.0527 164.433 69.3808C164.433 49.7088 148.738 33.7616 129.377 33.7616C110.016 33.7616 94.3209 49.7088 94.3209 69.3808C94.3209 89.0527 110.016 105 129.377 105Z" fill="#E0E0E0"/>
<path d="M95.4525 61.8059C95.6853 60.4116 96.007 59.0337 96.4156 57.6806C98.2221 51.6459 101.645 46.2227 106.311 42" stroke="#21A621" stroke-width="2" stroke-miterlimit="10" stroke-linecap="round"/>
<path d="M114.437 36.6083C116.587 35.5638 118.843 34.755 121.166 34.1959C128.12 32.4845 135.433 32.9887 142.088 35.6382C148.742 38.2878 154.405 42.9508 158.29 48.9778C162.174 55.0047 164.086 62.0955 163.758 69.2624C163.431 76.4293 160.881 83.3155 156.463 88.9617C152.046 94.6079 145.981 98.733 139.113 100.763C132.245 102.792 124.916 102.625 118.148 100.284C111.379 97.9433 105.508 93.5457 101.351 87.7038C97.1947 81.8619 94.9602 74.8665 94.9589 67.6921" stroke="#21A621" stroke-width="2" stroke-miterlimit="10" stroke-linecap="round"/>
<path d="M112.884 66.3412L124.561 78.0414L144.894 57.6807" stroke="white" stroke-width="2" stroke-linecap="round" stroke-linejoin="round"/>
<path d="M112.884 66.9442L124.561 78.6444L144.894 58.2837" stroke="#21A621" stroke-width="2" stroke-linecap="round" stroke-linejoin="round"/>
<path d="M248.063 35.5468V43.4233" stroke="#54514C" stroke-opacity="0.75" stroke-miterlimit="10"/>
<path d="M244.139 39.479H252" stroke="#54514C" stroke-opacity="0.75" stroke-miterlimit="10"/>
<path d="M99.8466 28.9368C103.091 28.9368 105.721 26.3015 105.721 23.0506C105.721 19.7997 103.091 17.1643 99.8466 17.1643C96.602 17.1643 93.9718 19.7997 93.9718 23.0506C93.9718 26.3015 96.602 28.9368 99.8466 28.9368Z" stroke="#21A621" stroke-miterlimit="10"/>
</svg>
