<svg width="22" height="22" viewBox="0 0 22 22" fill="none" xmlns="http://www.w3.org/2000/svg">
<path d="M9.35854 8.33389L1.52972 9.88899C0.898798 10.0223 0.472256 10.5555 0.472256 11.1864V20.2504C0.472256 20.988 1.06764 21.5833 1.8052 21.5833H9.80286C9.55404 21.5833 9.35854 21.3878 9.35854 21.139V20.6947H1.8052C1.56527 20.6947 1.36088 20.4992 1.36088 20.2504V11.1864C1.36088 10.982 1.50306 10.7954 1.70745 10.751L9.35854 9.24029V8.33389Z" fill="#54514C" fill-opacity="0.75"/>
<path d="M4.47106 12.6969C4.22224 12.6969 4.02674 12.8924 4.02674 13.1412C4.02674 13.39 4.22224 13.5855 4.47106 13.5855H6.24831C6.49713 13.5855 6.69263 13.39 6.69263 13.1412C6.69263 12.8924 6.49713 12.6969 6.24831 12.6969H4.47106Z" fill="#54514C" fill-opacity="0.75"/>
<path d="M4.47106 15.363C4.22224 15.363 4.02674 15.5585 4.02674 15.8073C4.02674 16.0561 4.22224 16.2516 4.47106 16.2516H6.24831C6.49713 16.2516 6.69263 16.0561 6.69263 15.8073C6.69263 15.5585 6.49713 15.363 6.24831 15.363H4.47106Z" fill="#54514C" fill-opacity="0.75"/>
<path d="M4.47106 18.0288C4.22224 18.0288 4.02674 18.2243 4.02674 18.4731C4.02674 18.722 4.22224 18.9175 4.47106 18.9175H6.24831C6.49713 18.9175 6.69263 18.722 6.69263 18.4731C6.69263 18.2243 6.49713 18.0288 6.24831 18.0288H4.47106Z" fill="#54514C" fill-opacity="0.75"/>
<path d="M9.35856 21.139C9.35856 21.3878 9.55406 21.5833 9.80288 21.5833C10.0517 21.5833 10.2472 21.3878 10.2472 21.139V20.6947V8.69819C10.2472 8.5649 10.185 8.44049 10.0872 8.35163C9.9806 8.27165 9.84731 8.23611 9.71401 8.26277L9.35856 8.33386V9.24026V20.6947V21.139Z" fill="#54514C" fill-opacity="0.75"/>
<path d="M10.2471 20.6947V21.139C10.2471 21.3878 10.0516 21.5833 9.80279 21.5833H13.3573C13.1085 21.5833 12.913 21.3878 12.913 21.139V20.6947H10.2471Z" fill="#54514C" fill-opacity="0.75"/>
<path d="M12.4686 4.69933C12.2198 4.69933 12.0243 4.89482 12.0243 5.14364C12.0243 5.39246 12.2198 5.58795 12.4686 5.58795H14.2459C14.4947 5.58795 14.6902 5.39246 14.6902 5.14364C14.6902 4.89482 14.4947 4.69933 14.2459 4.69933H12.4686Z" fill="#54514C" fill-opacity="0.75"/>
<path d="M12.0243 7.80949C12.0243 8.0583 12.2198 8.2538 12.4686 8.2538H14.2459C14.4947 8.2538 14.6902 8.0583 14.6902 7.80949C14.6902 7.56067 14.4947 7.36517 14.2459 7.36517H12.4686C12.2198 7.36517 12.0243 7.56067 12.0243 7.80949Z" fill="#54514C" fill-opacity="0.75"/>
<path d="M12.4686 10.031C12.2198 10.031 12.0243 10.2265 12.0243 10.4754C12.0243 10.7242 12.2198 10.9197 12.4686 10.9197H14.2459C14.4947 10.9197 14.6902 10.7242 14.6902 10.4754C14.6902 10.2265 14.4947 10.031 14.2459 10.031H12.4686Z" fill="#54514C" fill-opacity="0.75"/>
<path d="M12.4686 12.6969C12.2198 12.6969 12.0243 12.8924 12.0243 13.1412C12.0243 13.39 12.2198 13.5855 12.4686 13.5855H14.2459C14.4947 13.5855 14.6902 13.39 14.6902 13.1412C14.6902 12.8924 14.4947 12.6969 14.2459 12.6969H12.4686Z" fill="#54514C" fill-opacity="0.75"/>
<path d="M16.4674 13.1412C16.4674 13.39 16.6629 13.5855 16.9117 13.5855H18.689C18.9378 13.5855 19.1333 13.39 19.1333 13.1412C19.1333 12.8924 18.9378 12.6969 18.689 12.6969H16.9117C16.6629 12.6969 16.4674 12.8924 16.4674 13.1412Z" fill="#54514C" fill-opacity="0.75"/>
<path d="M16.9117 4.69933C16.6629 4.69933 16.4674 4.89482 16.4674 5.14364C16.4674 5.39246 16.6629 5.58795 16.9117 5.58795H18.689C18.9378 5.58795 19.1333 5.39246 19.1333 5.14364C19.1333 4.89482 18.9378 4.69933 18.689 4.69933H16.9117Z" fill="#54514C" fill-opacity="0.75"/>
<path d="M16.9117 7.36517C16.6629 7.36517 16.4674 7.56067 16.4674 7.80949C16.4674 8.0583 16.6629 8.2538 16.9117 8.2538H18.689C18.9378 8.2538 19.1333 8.0583 19.1333 7.80949C19.1333 7.56067 18.9378 7.36517 18.689 7.36517H16.9117Z" fill="#54514C" fill-opacity="0.75"/>
<path d="M16.9117 10.031C16.6629 10.031 16.4674 10.2265 16.4674 10.4754C16.4674 10.7242 16.6629 10.9197 16.9117 10.9197H18.689C18.9378 10.9197 19.1333 10.7242 19.1333 10.4754C19.1333 10.2265 18.9378 10.031 18.689 10.031H16.9117Z" fill="#54514C" fill-opacity="0.75"/>
<path d="M13.8017 16.6959C13.8017 16.4471 14.0061 16.2516 14.246 16.2516H16.9119C17.1607 16.2516 17.3562 16.4471 17.3562 16.6959V20.6947H18.2449V16.6959C18.2449 15.9583 17.6495 15.363 16.9119 15.363H14.246C13.5085 15.363 12.9131 15.9583 12.9131 16.6959V20.6947H13.8017V16.6959Z" fill="#54514C" fill-opacity="0.75"/>
<path d="M17.3562 20.6947H13.8017H12.9131V21.139C12.9131 21.3878 13.1086 21.5833 13.3574 21.5833H17.8006C18.0494 21.5833 18.2449 21.3878 18.2449 21.139V20.6947H17.3562Z" fill="#54514C" fill-opacity="0.75"/>
<path d="M20.2442 0.434018L10.4782 1.91803C9.82949 2.02466 9.35851 2.57561 9.35851 3.2332V8.33393L9.71397 8.26284C9.84726 8.23618 9.98055 8.27172 10.0872 8.3517C10.1849 8.44056 10.2471 8.56497 10.2471 8.69827V3.2332C10.2471 3.01104 10.4071 2.82443 10.6204 2.78888L20.3864 1.31376C20.4131 1.30487 20.4397 1.30487 20.4664 1.30487C20.573 1.30487 20.6708 1.34042 20.7507 1.41151C20.8574 1.50037 20.9107 1.61589 20.9107 1.74919V20.2504C20.9107 20.4993 20.7063 20.6948 20.4664 20.6948H18.2448V21.1391C18.2448 21.3879 18.0493 21.5834 17.8005 21.5834H20.4664C21.2039 21.5834 21.7993 20.988 21.7993 20.2504V1.74919C21.7993 1.35819 21.6305 0.984968 21.3283 0.736152C21.0262 0.47845 20.6352 0.371814 20.2442 0.434018Z" fill="#54514C" fill-opacity="0.75"/>
</svg>
