<svg width="49" height="53" viewBox="0 0 49 53" fill="none" xmlns="http://www.w3.org/2000/svg">
<path d="M48.0893 8.20226L44.7931 4.90397C44.5995 4.71092 44.3408 4.59698 44.0676 4.58447C43.7944 4.57195 43.5263 4.66175 43.3158 4.83629L40.5798 7.09771L40.2443 6.76231C40.0385 6.5616 39.7624 6.44927 39.4749 6.44927C39.1874 6.44927 38.9113 6.5616 38.7055 6.76231L25.733 19.7309L29.6232 6.90387C29.8179 6.26508 29.8847 5.59421 29.8199 4.92959C29.755 4.26497 29.5599 3.61963 29.2455 3.03046C28.9311 2.44128 28.5036 1.91979 27.9876 1.49583C27.4715 1.07186 26.8769 0.75373 26.2378 0.559578C26.0999 0.516801 25.9549 0.501827 25.8112 0.51556C25.6675 0.529293 25.5279 0.571462 25.4007 0.639577C25.1432 0.776599 24.9507 1.01005 24.8651 1.28877L16.5554 28.4935C16.4347 28.3759 16.2889 28.2872 16.129 28.2339C15.9691 28.1806 15.7993 28.1642 15.6321 28.1859C15.4641 28.2085 15.3035 28.2698 15.1631 28.3648C15.0227 28.4598 14.9062 28.586 14.8227 28.7335L12.3605 33.0626L1.70561 43.7174C1.33589 44.0868 1.0426 44.5255 0.842503 45.0082C0.642403 45.491 0.539413 46.0085 0.539413 46.5311C0.539413 47.0537 0.642403 47.5711 0.842503 48.0539C1.0426 48.5367 1.33589 48.9753 1.70561 49.3448L2.07801 49.7201L0.480692 51.317C0.327792 51.472 0.242409 51.6812 0.243169 51.8989C0.243929 52.1166 0.330771 52.3251 0.484749 52.4791C0.638727 52.633 0.847345 52.7198 1.0651 52.7206C1.28286 52.7213 1.49209 52.636 1.64713 52.4831L3.24445 50.8863L3.61685 51.2585C3.98666 51.6282 4.42569 51.9215 4.90888 52.1216C5.39206 52.3217 5.90993 52.4247 6.43292 52.4247C6.95592 52.4247 7.4738 52.3217 7.95698 52.1216C8.44016 51.9215 8.87919 51.6282 9.249 51.2585L19.9039 40.6068L24.2373 38.1453C24.384 38.061 24.5094 37.9441 24.6038 37.8037C24.6982 37.6632 24.759 37.503 24.7816 37.3353C24.8042 37.1676 24.788 36.997 24.7342 36.8366C24.6803 36.6761 24.5904 36.5302 24.4712 36.4101L24.2835 36.2254L46.2089 14.3066C46.4089 14.1004 46.5208 13.8246 46.5208 13.5374C46.5208 13.2502 46.4089 12.9743 46.2089 12.7682L45.8703 12.4297L48.1355 9.69756C48.3097 9.48675 48.3989 9.21858 48.3859 8.94546C48.3728 8.67234 48.2583 8.41393 48.0647 8.22074L48.0893 8.20226ZM26.6133 3.18403C27.0545 3.54796 27.3777 4.03461 27.5421 4.58232C27.7064 5.13004 27.7045 5.71418 27.5366 6.2608L19.7593 31.6841L18.3312 30.2535L26.6133 3.18403ZM13.4623 35.0901L17.8973 39.5238L16.5954 40.8252L12.1605 36.3916L13.4623 35.0901ZM7.22389 41.3268L8.52575 40.0253L12.9607 44.4589L11.6588 45.7603L7.22389 41.3268ZM10.4924 46.9265L9.18745 48.2279L4.75559 43.7943L6.05745 42.4928L10.4924 46.9265ZM9.69218 38.8592L10.994 37.5577L15.429 41.9913L14.1271 43.2928L9.69218 38.8592ZM6.45755 50.2186C6.2238 50.2192 5.99225 50.1735 5.77622 50.0843C5.56019 49.995 5.36394 49.864 5.19878 49.6986L3.28446 47.7849C3.11854 47.6197 2.98689 47.4233 2.89706 47.2071C2.80723 46.9909 2.76099 46.7591 2.76099 46.525C2.76099 46.2908 2.80723 46.059 2.89706 45.8428C2.98689 45.6266 3.11854 45.4302 3.28446 45.265L3.59223 44.9573L8.02716 49.3909L7.71939 49.6986C7.55235 49.867 7.3533 50.0003 7.13395 50.0907C6.9146 50.181 6.67939 50.2266 6.44216 50.2247L6.45755 50.2186ZM19.1961 38.4899L14.4964 33.7918L16.0353 31.0688L21.9106 36.9424L19.1961 38.4899ZM22.7385 34.6625L21.5074 33.4318L24.3296 24.2015L39.4503 9.08529L43.8852 13.5158L22.7385 34.6625ZM42.1278 8.65761L43.9314 7.16539L45.8118 9.04529L44.3192 10.8483L42.1278 8.65761Z" fill="#FFB156"/>
</svg>
