<svg width="22" height="43" viewBox="0 0 22 43" fill="none" xmlns="http://www.w3.org/2000/svg">
<path d="M1.26824 41.761C7.6984 43.4071 14.4398 43.4071 20.8699 41.761C21.0387 41.7175 21.1835 41.6088 21.2723 41.4589C21.3611 41.3089 21.3869 41.1299 21.3439 40.961L16.1642 20.7928H16.4227C16.9413 20.7928 17.4387 20.587 17.8057 20.2207C18.1727 19.8544 18.3793 19.3575 18.3801 18.839V18.6575C18.381 18.4004 18.3309 18.1456 18.2326 17.9079C18.1343 17.6703 17.9899 17.4544 17.8077 17.273C17.6353 17.1035 17.4341 16.966 17.2136 16.8668C18.0677 12.5955 18.0677 8.19733 17.2136 3.92595C17.5606 3.77233 17.8554 3.52137 18.0625 3.20352C18.2695 2.88567 18.3799 2.51458 18.3801 2.13528V1.95375C18.3793 1.4353 18.1727 0.938363 17.8057 0.572052C17.4387 0.205742 16.9413 -6.40857e-07 16.4227 0H5.71546C5.19711 0.00081095 4.70018 0.206814 4.33336 0.572949C3.96654 0.939084 3.75969 1.43555 3.75807 1.95375V2.13528C3.75831 2.51458 3.86863 2.88567 4.07568 3.20352C4.28272 3.52137 4.57761 3.77233 4.92452 3.92595C4.06892 8.19821 4.06892 12.5977 4.92452 16.8699C4.57762 17.0227 4.28263 17.273 4.07553 17.5904C3.86842 17.9078 3.75813 18.2786 3.75807 18.6575V18.839C3.75888 19.3578 3.96537 19.855 4.33227 20.2218C4.69918 20.5886 5.19658 20.7951 5.71546 20.7959H5.97398L0.794264 40.961C0.751277 41.1299 0.777027 41.3089 0.865871 41.4589C0.954715 41.6088 1.09942 41.7175 1.26824 41.761ZM5.51541 2.13528V1.95375C5.51541 1.90071 5.5365 1.84984 5.57401 1.81233C5.61153 1.77483 5.66241 1.75376 5.71546 1.75376H16.4227C16.4758 1.75376 16.5266 1.77483 16.5642 1.81233C16.6017 1.84984 16.6227 1.90071 16.6227 1.95375V2.13528C16.6231 2.1616 16.6181 2.18773 16.6081 2.21206C16.598 2.23639 16.5831 2.25842 16.5643 2.27681C16.5458 2.29551 16.5237 2.31032 16.4994 2.32036C16.4751 2.3304 16.449 2.33547 16.4227 2.33527H5.71546C5.66241 2.33527 5.61153 2.3142 5.57401 2.27669C5.5365 2.23919 5.51541 2.18832 5.51541 2.13528ZM6.67569 4.0921H15.4501C16.3066 8.25343 16.3066 12.5455 15.4501 16.7068H6.67569C5.81923 12.5455 5.81923 8.25343 6.67569 4.0921ZM5.50924 18.839V18.6575C5.50883 18.6311 5.51373 18.6049 5.52363 18.5805C5.53354 18.556 5.54825 18.5338 5.56691 18.5152C5.58557 18.4965 5.60779 18.4818 5.63225 18.4719C5.65671 18.462 5.68292 18.4571 5.7093 18.4575H16.4165C16.4699 18.4583 16.5207 18.4801 16.5582 18.5181C16.5956 18.5561 16.6166 18.6073 16.6166 18.6606V18.8421C16.6168 18.8684 16.6117 18.8945 16.6017 18.9188C16.5916 18.9431 16.5768 18.9652 16.5581 18.9837C16.5198 19.0201 16.4694 19.0409 16.4165 19.0421H5.7093C5.65624 19.0421 5.60537 19.021 5.56785 18.9835C5.53034 18.946 5.50924 18.8952 5.50924 18.8421V18.839ZM7.32816 20.7928H14.7977L19.9097 40.6441C14.1011 42.0259 8.04931 42.0259 2.24076 40.6441L7.34048 20.7928H7.32816Z" fill="#FFB156"/>
</svg>
