<svg width="46" height="49" viewBox="0 0 46 49" fill="none" xmlns="http://www.w3.org/2000/svg">
<path d="M30.9062 35.6597C31.3677 32.7696 30.9874 29.8077 29.8105 27.1279L30.7523 26.1864C31.1688 25.7711 31.4699 25.2545 31.6258 24.6874C31.7818 24.1204 31.7873 23.5225 31.6417 22.9527L37.5724 17.0238L43.8447 23.2942C43.988 23.4368 44.1712 23.5325 44.37 23.5686C44.5689 23.6047 44.774 23.5795 44.9582 23.4965C45.1425 23.4134 45.2971 23.2762 45.4016 23.1033C45.5062 22.9304 45.5557 22.7298 45.5436 22.5281L45.2358 17.4853C45.2158 17.2404 45.1062 17.0115 44.9281 16.8423L42.5059 14.4208L42.9368 13.9932C43.0361 13.894 43.1133 13.775 43.1633 13.6438C43.2133 13.5127 43.2349 13.3724 43.2268 13.2323C43.2186 13.0922 43.1809 12.9554 43.1161 12.831C43.0512 12.7065 42.9608 12.5972 42.8506 12.5102L28.6625 1.19998C28.4715 1.04742 28.2309 0.970588 27.9867 0.984211C27.7426 0.997834 27.512 1.10095 27.3391 1.27382L25.2801 3.3322C25.0941 3.51952 24.9897 3.77277 24.9897 4.03675C24.9897 4.30073 25.0941 4.55402 25.2801 4.74134L29.8351 9.29189L29.6874 9.62724C29.0929 10.9851 28.1156 12.1403 26.8748 12.9518C25.6341 13.7632 24.1837 14.1956 22.701 14.1962C22.5702 14.1958 22.4406 14.2212 22.3197 14.271C22.1987 14.3207 22.0888 14.3939 21.9961 14.4863C21.9035 14.5786 21.83 14.6883 21.7799 14.809C21.7297 14.9298 21.7039 15.0593 21.7039 15.19C21.7039 15.4544 21.8089 15.708 21.9959 15.8949C22.183 16.0819 22.4366 16.1869 22.701 16.1869C24.5009 16.1865 26.2646 15.6812 27.7913 14.7282C29.318 13.7752 30.5466 12.4129 31.337 10.7964L32.1034 11.5625L26.1727 17.5068C25.6027 17.3613 25.0047 17.3668 24.4375 17.5228C23.8703 17.6787 23.3535 17.9796 22.938 18.396L22.0147 19.319C19.7393 18.3174 17.2537 17.8865 14.7739 18.0636C12.294 18.2407 9.89488 19.0205 7.78502 20.3353C5.67516 21.65 3.91838 23.46 2.66733 25.6079C1.41628 27.7558 0.708831 30.1765 0.606427 32.6599C0.585376 33.2113 0.678657 33.7611 0.880458 34.2747C1.08226 34.7884 1.38819 35.2547 1.779 35.6443L13.4988 47.3607C13.8933 47.7535 14.3651 48.0602 14.8842 48.2615C15.4034 48.4627 15.9586 48.5541 16.5149 48.5299C20.0332 48.3825 23.3917 47.0203 26.018 44.6752C28.6444 42.3301 30.3762 39.1473 30.9185 35.669L30.9062 35.6597ZM43.2692 17.9837L43.3954 20.0298L40.1546 16.7899L41.1148 15.83L43.2692 17.9837ZM38.745 15.3808L29.0842 5.71973L30.0075 4.7967L40.7793 13.3655L38.745 15.3808ZM28.1178 3.30448L28.8256 3.86755L28.0254 4.66442L27.3914 4.03059L28.1178 3.30448ZM36.1659 15.6116L30.5738 21.2051L27.9208 18.5529L33.5129 12.9594L36.1659 15.6116ZM16.4195 46.53C16.1362 46.5449 15.8529 46.5003 15.5878 46.399C15.3228 46.2978 15.0819 46.1422 14.8807 45.9423L3.1578 34.226C2.96209 34.03 2.80889 33.7958 2.70775 33.538C2.60661 33.2802 2.55974 33.0043 2.56999 32.7276C2.66102 30.5152 3.30439 28.3607 4.44146 26.4605C5.57854 24.5603 7.17316 22.9747 9.08007 21.8483C10.987 20.7218 13.1455 20.0904 15.3591 20.0114C17.5726 19.9323 19.7707 20.4082 21.7531 21.3958C21.9401 21.4886 22.1514 21.5204 22.3573 21.4867C22.5633 21.453 22.7535 21.3556 22.9011 21.2082L24.3322 19.7774C24.5957 19.5159 24.9519 19.3692 25.3232 19.3692C25.6945 19.3692 26.0508 19.5159 26.3142 19.7774L27.293 20.759L19.2264 28.8232L12.9233 22.522C12.8246 22.4243 12.7007 22.3558 12.5654 22.3243C12.4301 22.2928 12.2887 22.2995 12.1569 22.3435C9.98159 23.075 8.07401 24.4387 6.67815 26.26C5.2823 28.0813 4.46164 30.2774 4.32117 32.5676C4.31525 32.6734 4.33165 32.7794 4.36929 32.8785C4.40694 32.9776 4.46497 33.0677 4.53967 33.143L15.964 44.5608C16.0387 44.6354 16.1283 44.6934 16.227 44.7311C16.3256 44.7687 16.4311 44.7851 16.5365 44.7792C19.3304 44.6082 21.9666 43.4272 23.9537 41.4564C25.233 40.1923 26.193 38.6419 26.7544 36.9335C26.7978 36.8022 26.8041 36.6615 26.7726 36.5269C26.7411 36.3922 26.673 36.2689 26.5759 36.1705L20.282 29.8785L28.3517 21.8143L29.3304 22.7927C29.592 23.0561 29.7388 23.4122 29.7388 23.7834C29.7388 24.1546 29.592 24.5108 29.3304 24.7742L27.8962 26.211C27.7484 26.3578 27.6506 26.5472 27.6163 26.7525C27.5821 26.9579 27.6132 27.1688 27.7054 27.3556C28.9277 29.8325 29.3575 32.6255 28.9364 35.3551C28.465 38.3788 26.9597 41.1456 24.6769 43.1843C22.394 45.223 19.4748 46.4075 16.4165 46.5361L16.4195 46.53ZM13.3265 35.792C13.3957 35.8615 13.4779 35.9166 13.5685 35.9543C13.6591 35.9919 13.7562 36.0113 13.8543 36.0113C13.9524 36.0113 14.0495 35.9919 14.1401 35.9543C14.2306 35.9166 14.3129 35.8615 14.3821 35.792L19.2417 30.9369L25.2001 36.8904C24.6991 38.2079 23.9203 39.402 22.9165 40.3918C21.2694 42.0287 19.1043 43.0424 16.7919 43.2593L5.85385 32.3245C6.07145 29.9983 7.09596 27.8215 8.74995 26.171C9.73364 25.181 10.9157 24.4104 12.2185 23.9096L18.1861 29.8754L13.3265 34.7367C13.2569 34.8059 13.2018 34.8881 13.1642 34.9787C13.1265 35.0692 13.1071 35.1663 13.1071 35.2644C13.1071 35.3625 13.1265 35.4595 13.1642 35.5501C13.2018 35.6406 13.2569 35.7228 13.3265 35.792Z" fill="#FFB156"/>
</svg>
