

<svg width="29" height="26" viewBox="0 0 29 26" fill="none" xmlns="http://www.w3.org/2000/svg">
<path d="M28.7054 24.7268L27.1881 23.2099C27.9013 22.3383 28.2652 21.2328 28.209 20.1081C28.1528 18.9834 27.6807 17.9196 26.8842 17.1233C26.0876 16.327 25.0236 15.855 23.8985 15.7988C22.7735 15.7427 21.6677 16.1064 20.7958 16.8194L16.4686 12.4935L25.3107 0.727932C25.3811 0.636408 25.4138 0.521426 25.4021 0.406583C25.3905 0.291739 25.3353 0.185722 25.248 0.11021C25.1606 0.0346987 25.0477 -0.00458789 24.9324 0.000427282C24.817 0.00544245 24.7079 0.0543712 24.6275 0.137177L14.3727 10.3951L4.11168 0.137177C4.03123 0.0543712 3.92215 0.00544245 3.80679 0.000427282C3.69143 -0.00458789 3.57852 0.0346987 3.49118 0.11021C3.40385 0.185722 3.3487 0.291739 3.33703 0.406583C3.32537 0.521426 3.35806 0.636408 3.42843 0.727932L12.2737 12.4935L7.94646 16.8194C7.1478 16.1654 6.15022 15.8026 5.11785 15.7907C4.08548 15.7789 3.07983 16.1188 2.26639 16.7544C1.45295 17.39 0.880172 18.2835 0.64231 19.2879C0.404448 20.2922 0.515671 21.3476 0.957679 22.2804C1.39969 23.2132 2.14614 23.9677 3.07422 24.4199C4.0023 24.8721 5.05671 24.995 6.06395 24.7683C7.07119 24.5417 7.97125 23.979 8.61602 23.1729C9.26079 22.3668 9.61187 21.3653 9.61148 20.3331C9.61505 19.3559 9.29952 18.4042 8.7128 17.6225L8.78359 17.5856C9.57947 17.1831 10.4585 16.9724 11.3504 16.9702C11.7877 16.9695 12.2236 17.0201 12.6492 17.121C12.7352 17.1404 12.8249 17.1347 12.9078 17.1047C12.9907 17.0748 13.0633 17.0217 13.117 16.9518L14.3727 15.2811L15.6283 16.9518C15.681 17.022 15.753 17.0754 15.8355 17.1055C15.9181 17.1355 16.0075 17.1409 16.0931 17.121C17.3954 16.8134 18.7645 16.9758 19.9586 17.5794L20.0294 17.6164C19.3657 18.5053 19.0504 19.6064 19.1431 20.7118C19.2357 21.8172 19.7298 22.8505 20.5322 23.6167C21.3346 24.3829 22.3897 24.829 23.4986 24.8708C24.6074 24.9126 25.6932 24.5473 26.551 23.8438L28.0683 25.3606C28.1103 25.4026 28.1602 25.436 28.2152 25.4588C28.2701 25.4815 28.3289 25.4932 28.3884 25.4932C28.4479 25.4932 28.5067 25.4815 28.5616 25.4588C28.6166 25.436 28.6665 25.4026 28.7085 25.3606C28.7927 25.2754 28.8399 25.1604 28.8399 25.0406C28.8399 24.9208 28.7927 24.8059 28.7085 24.7206L28.7054 24.7268ZM7.42633 22.693C6.88056 23.2398 6.16203 23.5804 5.3932 23.6568C4.62436 23.7333 3.85279 23.5408 3.20998 23.1123C2.56718 22.6838 2.09291 22.0456 1.868 21.3067C1.6431 20.5677 1.68147 19.7736 1.97659 19.0598C2.2717 18.346 2.80529 17.7565 3.48643 17.3919C4.16757 17.0273 4.9541 16.9102 5.71199 17.0603C6.46987 17.2105 7.15221 17.6188 7.64272 18.2156C8.13322 18.8124 8.40155 19.5607 8.40196 20.3331C8.40209 21.2179 8.05123 22.0666 7.42633 22.693ZM20.7342 5.3123L15.8099 11.8474L14.9974 11.0351L20.7342 5.3123ZM12.563 16.1826C11.6446 16.0124 10.7006 16.0386 9.79307 16.2595L12.8338 13.2135L13.8187 14.5242L12.563 16.1826ZM17.3888 16.0687C16.982 16.0697 16.5761 16.1078 16.1762 16.1826L8.00494 5.3123L18.9522 16.2595C18.4407 16.1331 17.9157 16.069 17.3888 16.0687ZM21.3128 22.693C20.8462 22.2266 20.5285 21.6323 20.3998 20.9853C20.271 20.3384 20.3371 19.6678 20.5896 19.0583C20.8421 18.4489 21.2697 17.928 21.8184 17.5615C22.367 17.195 23.012 16.9994 23.6719 16.9994C24.3317 16.9994 24.9767 17.195 25.5254 17.5615C26.074 17.928 26.5016 18.4489 26.7541 19.0583C27.0066 19.6678 27.0727 20.3384 26.944 20.9853C26.8152 21.6323 26.4975 22.2266 26.0309 22.693C25.7226 23.0053 25.3553 23.2533 24.9503 23.4225C24.5453 23.5917 24.1108 23.6789 23.6719 23.6789C23.2329 23.6789 22.7984 23.5917 22.3934 23.4225C21.9885 23.2533 21.6212 23.0053 21.3128 22.693Z" fill="#FFB156"/>
</svg>
