<svg width="32" height="33" viewBox="0 0 32 33" fill="none" xmlns="http://www.w3.org/2000/svg">
<path d="M31.5722 7.72246C31.5725 7.62915 31.5541 7.53673 31.5181 7.45061C31.4822 7.3645 31.4294 7.28643 31.363 7.22095L25.1091 0.953584C25.0436 0.887163 24.9654 0.83439 24.8793 0.798393C24.7932 0.762397 24.7008 0.743896 24.6075 0.743896C24.5141 0.743896 24.4217 0.762397 24.3356 0.798393C24.2495 0.83439 24.1714 0.887163 24.1058 0.953584L22.5669 2.49196L21.5513 1.47662C21.5019 1.42703 21.4431 1.38771 21.3784 1.36086C21.3137 1.33402 21.2444 1.32019 21.1743 1.32019C21.1043 1.32019 21.0349 1.33402 20.9702 1.36086C20.9055 1.38771 20.8467 1.42703 20.7973 1.47662C20.6979 1.57688 20.6421 1.71234 20.6421 1.85351C20.6421 1.99469 20.6979 2.13015 20.7973 2.23041L21.8129 3.24268L20.5818 4.47338L19.5662 3.45803C19.5168 3.40845 19.458 3.36912 19.3933 3.34228C19.3286 3.31544 19.2593 3.30164 19.1892 3.30164C19.1192 3.30164 19.0498 3.31544 18.9851 3.34228C18.9204 3.36912 18.8616 3.40845 18.8122 3.45803C18.7128 3.5583 18.657 3.69379 18.657 3.83497C18.657 3.97615 18.7128 4.1116 18.8122 4.21186L19.8278 5.22413L18.5968 6.45484L17.5811 5.43949C17.5317 5.38991 17.4729 5.35058 17.4082 5.32374C17.3435 5.29689 17.2742 5.28306 17.2041 5.28306C17.1341 5.28306 17.0647 5.29689 17 5.32374C16.9353 5.35058 16.8766 5.38991 16.8271 5.43949C16.7277 5.53975 16.6719 5.67521 16.6719 5.81639C16.6719 5.95756 16.7277 6.09302 16.8271 6.19328L17.8427 7.20555L16.6117 8.43625L15.596 7.42091C15.5466 7.37132 15.4878 7.33199 15.4231 7.30515C15.3584 7.27831 15.289 7.26448 15.219 7.26448C15.149 7.26448 15.0796 7.27831 15.0149 7.30515C14.9502 7.33199 14.8915 7.37132 14.842 7.42091C14.7426 7.52117 14.6868 7.65666 14.6868 7.79784C14.6868 7.93902 14.7426 8.07447 14.842 8.17474L15.8576 9.18696L14.6266 10.4177L13.6109 9.40236C13.5109 9.3024 13.3753 9.24623 13.2339 9.24623C13.0925 9.24623 12.9569 9.3024 12.8569 9.40236C12.7569 9.50232 12.7007 9.63789 12.7007 9.77926C12.7007 9.92062 12.7569 10.0562 12.8569 10.1562L13.8725 11.1715L12.6414 12.4022L11.6289 11.3869C11.5289 11.2869 11.3933 11.2308 11.2519 11.2308C11.1105 11.2308 10.9749 11.2869 10.8749 11.3869C10.7749 11.4868 10.7187 11.6224 10.7187 11.7638C10.7187 11.9051 10.7749 12.0407 10.8749 12.1407L11.8905 13.156L10.3517 14.6944C10.2852 14.7599 10.2325 14.838 10.1965 14.9241C10.1604 15.0102 10.1419 15.1026 10.1419 15.1959C10.1419 15.2892 10.1604 15.3816 10.1965 15.4677C10.2325 15.5538 10.2852 15.6319 10.3517 15.6974L11.5827 16.9281L0.977065 27.5276C0.477659 28.0329 0.198545 28.7152 0.200696 29.4256C0.202847 30.136 0.486086 30.8167 0.988543 31.319C1.491 31.8213 2.17185 32.1044 2.88243 32.1066C3.59301 32.1087 4.27558 31.8297 4.78107 31.3305L15.3713 20.7433L16.6024 21.974C16.668 22.0404 16.7461 22.0932 16.8322 22.1292C16.9183 22.1652 17.0107 22.1837 17.1041 22.1837C17.1974 22.1837 17.2898 22.1652 17.3759 22.1292C17.4621 22.0932 17.5402 22.0404 17.6057 21.974L19.1446 20.4356L20.2618 21.5525C20.3112 21.6021 20.37 21.6414 20.4347 21.6682C20.4994 21.6951 20.5687 21.7089 20.6388 21.7089C20.7088 21.7089 20.7782 21.6951 20.8429 21.6682C20.9076 21.6414 20.9663 21.6021 21.0158 21.5525C21.1152 21.4522 21.171 21.3168 21.171 21.1756C21.171 21.0344 21.1152 20.899 21.0158 20.7987L19.8986 19.6849L21.1297 18.4542L22.2469 19.571C22.2963 19.6206 22.3551 19.66 22.4198 19.6868C22.4845 19.7137 22.5538 19.7275 22.6239 19.7275C22.6939 19.7275 22.7633 19.7137 22.828 19.6868C22.8927 19.66 22.9515 19.6206 23.0009 19.571C23.1003 19.4708 23.1561 19.3353 23.1561 19.1941C23.1561 19.053 23.1003 18.9175 23.0009 18.8172L21.8837 17.7004L23.1148 16.4697L24.232 17.5865C24.3327 17.6852 24.468 17.7405 24.609 17.7405C24.75 17.7405 24.8853 17.6852 24.986 17.5865C25.0854 17.4863 25.1412 17.3508 25.1412 17.2096C25.1412 17.0685 25.0854 16.933 24.986 16.8327L23.8688 15.7159L25.0999 14.4852L26.214 15.602C26.3147 15.7007 26.45 15.756 26.591 15.756C26.732 15.756 26.8673 15.7007 26.968 15.602C27.0674 15.5018 27.1232 15.3663 27.1232 15.2251C27.1232 15.0839 27.0674 14.9485 26.968 14.8482L25.8508 13.7313L27.0819 12.5006L28.196 13.6175C28.296 13.7175 28.4316 13.7736 28.573 13.7736C28.7144 13.7736 28.8501 13.7175 28.95 13.6175C29.05 13.5175 29.1062 13.382 29.1062 13.2406C29.1062 13.0992 29.05 12.9637 28.95 12.8637L27.8328 11.7469L29.0639 10.5161L30.178 11.633C30.2787 11.7317 30.4141 11.7869 30.5551 11.7869C30.696 11.7869 30.8314 11.7317 30.9321 11.633C30.9817 11.5836 31.021 11.5248 31.0479 11.4601C31.0747 11.3955 31.0885 11.3261 31.0885 11.2561C31.0885 11.1861 31.0747 11.1167 31.0479 11.0521C31.021 10.9874 30.9817 10.9286 30.9321 10.8792L29.8149 9.76236L31.3537 8.22397C31.4202 8.1585 31.473 8.08038 31.5089 7.99427C31.5448 7.90815 31.5632 7.81577 31.563 7.72246H31.5722ZM3.76544 30.3367C3.5275 30.5745 3.20478 30.7082 2.86828 30.7082C2.53179 30.7082 2.20909 30.5745 1.97115 30.3367C1.73321 30.0988 1.59953 29.7762 1.59953 29.4398C1.59953 29.1034 1.73321 28.7808 1.97115 28.5429L12.5737 17.9435L14.368 19.7372L3.76544 30.3367ZM28.8023 8.76545L28.393 8.35625C28.2918 8.26255 28.1583 8.21175 28.0204 8.21451C27.8825 8.21727 27.7511 8.27338 27.6538 8.37105C27.5565 8.46873 27.5009 8.60035 27.4987 8.73818C27.4965 8.87602 27.5479 9.00932 27.642 9.11005L28.0483 9.51928L26.8172 10.75L26.4079 10.3408C26.3067 10.2471 26.1732 10.1962 26.0353 10.199C25.8975 10.2018 25.766 10.2579 25.6687 10.3556C25.5714 10.4533 25.5158 10.5848 25.5136 10.7227C25.5114 10.8605 25.5628 10.9939 25.6569 11.0946L26.0632 11.5038L24.8321 12.7345L24.4228 12.3253C24.374 12.273 24.3151 12.2311 24.2497 12.2021C24.1843 12.1731 24.1138 12.1576 24.0422 12.1565C23.9707 12.1553 23.8997 12.1686 23.8334 12.1955C23.7671 12.2224 23.707 12.2624 23.6565 12.3131C23.606 12.3637 23.5663 12.4241 23.5396 12.4904C23.513 12.5568 23.5 12.6278 23.5014 12.6993C23.5028 12.7708 23.5187 12.8413 23.548 12.9066C23.5772 12.9718 23.6194 13.0305 23.6718 13.0791L24.0781 13.4883L22.847 14.719L22.4377 14.3098C22.3889 14.2575 22.33 14.2157 22.2646 14.1867C22.1992 14.1577 22.1287 14.1421 22.0571 14.141C21.9856 14.1398 21.9146 14.1531 21.8483 14.18C21.782 14.2069 21.7219 14.2469 21.6714 14.2976C21.6209 14.3482 21.5812 14.4086 21.5545 14.4749C21.5279 14.5413 21.5149 14.6124 21.5163 14.6839C21.5177 14.7554 21.5336 14.8258 21.5629 14.8911C21.5921 14.9563 21.6343 15.015 21.6867 15.0636L22.093 15.4728L20.8619 16.7035L20.4526 16.2974C20.3508 16.2096 20.2195 16.1635 20.0852 16.1684C19.9508 16.1734 19.8233 16.2289 19.7282 16.324C19.6332 16.419 19.5776 16.5465 19.5726 16.6808C19.5677 16.8151 19.6138 16.9464 19.7016 17.0481L20.1079 17.4573L18.8768 18.688L18.4675 18.2819C18.3667 18.1878 18.2334 18.1364 18.0955 18.1386C17.9576 18.1408 17.826 18.1964 17.7283 18.2937C17.6306 18.391 17.5744 18.5224 17.5717 18.6602C17.5689 18.798 17.6197 18.9315 17.7135 19.0326L18.1228 19.4418L17.0795 20.4849L11.8413 15.2051L12.8846 14.1621L13.3955 14.6698C13.4433 14.7252 13.5021 14.7701 13.5681 14.8018C13.634 14.8335 13.7059 14.8512 13.779 14.8539C13.8522 14.8566 13.9251 14.8442 13.9933 14.8174C14.0614 14.7907 14.1233 14.7501 14.1751 14.6984C14.2268 14.6466 14.2674 14.5848 14.2941 14.5167C14.3209 14.4485 14.3333 14.3756 14.3307 14.3025C14.328 14.2294 14.3102 14.1575 14.2785 14.0916C14.2468 14.0256 14.2019 13.9668 14.1464 13.919L13.6386 13.4083L14.8697 12.1776L15.3806 12.6853C15.4824 12.7731 15.6136 12.8191 15.748 12.8142C15.8823 12.8093 16.0099 12.7537 16.1049 12.6587C16.2 12.5636 16.2556 12.4361 16.2605 12.3018C16.2654 12.1675 16.2194 12.0363 16.1315 11.9345L15.6237 11.4238L16.8548 10.1931L17.3657 10.7007C17.4147 10.7506 17.4731 10.7902 17.5376 10.8173C17.602 10.8443 17.6712 10.8582 17.7412 10.8582C17.8111 10.8582 17.8803 10.8443 17.9447 10.8173C18.0092 10.7902 18.0677 10.7506 18.1166 10.7007C18.1662 10.6513 18.2056 10.5926 18.2324 10.5279C18.2593 10.4632 18.2731 10.3939 18.2731 10.3238C18.2731 10.2538 18.2593 10.1845 18.2324 10.1198C18.2056 10.0551 18.1662 9.9964 18.1166 9.94695L17.6088 9.43928L18.8399 8.20858L19.3508 8.71625C19.3998 8.76611 19.4582 8.80572 19.5227 8.83275C19.5871 8.85979 19.6564 8.87369 19.7263 8.87369C19.7962 8.87369 19.8654 8.85979 19.9298 8.83275C19.9943 8.80572 20.0527 8.76611 20.1017 8.71625C20.1513 8.6668 20.1907 8.60804 20.2175 8.54337C20.2444 8.47869 20.2582 8.40938 20.2582 8.33935C20.2582 8.26933 20.2444 8.19998 20.2175 8.1353C20.1907 8.07062 20.1513 8.01187 20.1017 7.96242L19.5939 7.45478L20.825 6.22408L21.3359 6.73171C21.3847 6.78397 21.4436 6.82586 21.509 6.85487C21.5744 6.88387 21.6449 6.8994 21.7164 6.90054C21.788 6.90168 21.859 6.88842 21.9253 6.86152C21.9915 6.83461 22.0517 6.79463 22.1022 6.74396C22.1527 6.69329 22.1924 6.63298 22.2191 6.56661C22.2457 6.50024 22.2587 6.42917 22.2573 6.35767C22.2558 6.28618 22.24 6.21571 22.2107 6.15047C22.1814 6.08522 22.1393 6.02653 22.0868 5.97792L21.579 5.47025L22.8101 4.23954L23.321 4.74722C23.3701 4.79684 23.4286 4.83627 23.493 4.8632C23.5575 4.89013 23.6266 4.90404 23.6965 4.90414C23.8043 4.90601 23.9101 4.87529 24.0002 4.81602C24.0903 4.75675 24.1604 4.67168 24.2013 4.57193C24.2422 4.47219 24.252 4.36243 24.2295 4.25701C24.207 4.15159 24.1531 4.05543 24.075 3.98111L23.5641 3.47343L24.6075 2.43041L29.8734 7.69474L28.83 8.73777L28.8023 8.76545Z" fill="#FFB156"/>
</svg>
