<svg width="42" height="42" viewBox="0 0 42 42" fill="none" xmlns="http://www.w3.org/2000/svg">
<path d="M37.9422 4.48281C35.1323 1.67373 31.1713 0.372256 26.7764 0.821464C22.4676 1.26144 18.2328 3.35056 14.8812 6.70116C11.5296 10.0518 9.44295 14.2762 8.99977 18.5929C8.65658 21.4609 9.19323 24.3655 10.5386 26.9217L1.47482 35.992C1.14967 36.3172 0.891779 36.7033 0.715886 37.1282C0.539992 37.5531 0.449564 38.0085 0.449707 38.4683C0.44985 38.9282 0.540555 39.3835 0.716712 39.8083C0.89287 40.233 1.15101 40.619 1.47636 40.944C1.80172 41.2691 2.18793 41.5269 2.61295 41.7027C3.03797 41.8786 3.49348 41.969 3.95346 41.9689C4.41343 41.9687 4.86887 41.878 5.29378 41.7019C5.71869 41.5258 6.10472 41.2678 6.42988 40.9425L15.4937 31.8814C17.5401 32.9726 19.8284 33.5312 22.1476 33.5059C22.7078 33.506 23.2676 33.4773 23.8249 33.4198C28.1337 32.9798 32.3685 30.8907 35.7201 27.5401C39.0717 24.1895 41.1615 19.9682 41.6016 15.6484C42.0509 11.2517 40.7491 7.28882 37.9422 4.48281ZM5.12186 39.6318C4.81128 39.9423 4.39006 40.1167 3.95083 40.1167C3.5116 40.1167 3.09034 39.9423 2.77976 39.6318C2.46917 39.3213 2.2947 38.9002 2.2947 38.4611C2.2947 38.022 2.46917 37.6009 2.77976 37.2904L11.5696 28.5031C11.9062 28.9429 12.2711 29.3602 12.6622 29.7523C13.0536 30.1451 13.4711 30.511 13.9117 30.8476L5.12186 39.6318ZM39.758 15.4546C39.358 19.3528 37.459 23.1772 34.406 26.2232C31.3529 29.2692 27.5274 31.1738 23.6341 31.5707C23.1413 31.622 22.6462 31.6477 22.1507 31.6476C18.9253 31.6476 16.0568 30.5338 13.964 28.4416C8.93818 23.4172 9.93537 14.2485 16.1831 7.99956C19.7532 4.43358 24.2742 2.57829 28.4322 2.57829C31.556 2.57829 34.4767 3.6244 36.6342 5.78121C39.0409 8.18724 40.1551 11.6271 39.7642 15.4484L39.758 15.4546Z" fill="#FFB156"/>
</svg>
