<svg width="50" height="46" viewBox="0 0 50 46" fill="none" xmlns="http://www.w3.org/2000/svg">
<path d="M49.2526 4.39439C49.2101 4.21655 49.1232 4.0524 48.9999 3.91733C48.8767 3.78225 48.7211 3.68067 48.5478 3.62212L39.7611 0.653035C39.571 0.589426 39.3671 0.579938 39.1719 0.62558C38.9768 0.671222 38.7982 0.770221 38.6562 0.91151L34.963 4.60363L34.7229 4.36363C34.6233 4.26335 34.5049 4.18377 34.3744 4.12945C34.244 4.07514 34.104 4.04716 33.9627 4.04716C33.8214 4.04716 33.6815 4.07514 33.551 4.12945C33.4205 4.18377 33.3021 4.26335 33.2025 4.36363L26.5948 10.9694L25.7576 10.1326C25.5547 9.93381 25.2815 9.82322 24.9974 9.82488C24.7136 9.82422 24.4407 9.93465 24.2372 10.1326L1.29008 33.0606C1.08898 33.2624 0.976074 33.5357 0.976074 33.8206C0.976074 34.1054 1.08898 34.3787 1.29008 34.5805L12.3697 45.6569C12.5716 45.8579 12.845 45.9708 13.1299 45.9708C13.4149 45.9708 13.6882 45.8579 13.8901 45.6569L36.825 22.7442C36.9253 22.6447 37.0049 22.5263 37.0592 22.3959C37.1135 22.2654 37.1415 22.1255 37.1415 21.9843C37.1415 21.843 37.1135 21.703 37.0592 21.5726C37.0049 21.4422 36.9253 21.3238 36.825 21.2243L35.9909 20.3874L42.5987 13.7816C42.7998 13.5798 42.9127 13.3065 42.9127 13.0216C42.9127 12.7368 42.7998 12.4635 42.5987 12.2617L42.3586 12.0217L48.9633 5.4159C49.0932 5.28664 49.1879 5.12638 49.2385 4.95033C49.2891 4.77427 49.294 4.58824 49.2526 4.40979V4.39439ZM13.133 43.3585L3.59218 33.8206L24.9882 12.4186L34.5444 21.9565L13.133 43.3585ZM34.4675 18.8398L28.1059 12.4801L33.9535 6.63428L40.315 12.994L34.4675 18.8398ZM40.8352 10.4741L36.4772 6.12969L39.6995 2.90833L46.218 5.10822L40.8352 10.4741Z" fill="#FFB156"/>
</svg>
