<svg width="22" height="44" viewBox="0 0 22 44" fill="none" xmlns="http://www.w3.org/2000/svg">
<path d="M1.26832 42.17C7.69847 43.8161 14.4398 43.8161 20.87 42.17C21.039 42.1258 21.1838 42.0166 21.2726 41.8661C21.3613 41.7157 21.387 41.5362 21.344 41.3669L16.1642 21.2018H16.4228C16.9419 21.2018 17.4398 20.9956 17.8069 20.6286C18.1739 20.2617 18.3802 19.7639 18.3802 19.245V19.0634C18.3807 18.8063 18.3304 18.5517 18.2322 18.314C18.1339 18.0764 17.9897 17.8606 17.8077 17.6789C17.6361 17.5094 17.4347 17.3727 17.2137 17.2758C18.0678 13.0034 18.0678 8.60429 17.2137 4.33187C17.5604 4.17878 17.8551 3.92838 18.0622 3.61105C18.2692 3.29373 18.3797 2.92312 18.3802 2.54425V2.35965C18.3802 1.84067 18.1739 1.34295 17.8069 0.97597C17.4398 0.608994 16.9419 0.402832 16.4228 0.402832H5.71554C5.19665 0.403646 4.69926 0.610072 4.33235 0.976872C3.96544 1.34367 3.75896 1.84092 3.75814 2.35965V2.54117C3.7586 2.92004 3.86903 3.29065 4.07609 3.60797C4.28315 3.9253 4.57793 4.1757 4.92459 4.32879C4.06899 8.60106 4.06899 13.0005 4.92459 17.2727C4.57863 17.4268 4.28451 17.6774 4.07759 17.9945C3.87068 18.3116 3.75975 18.6818 3.75814 19.0604V19.2419C3.75814 19.7609 3.96437 20.2586 4.33145 20.6256C4.69853 20.9925 5.1964 21.1987 5.71554 21.1987H5.97405L0.794342 41.3639C0.751278 41.5331 0.776929 41.7126 0.865723 41.863C0.954518 42.0135 1.09926 42.1227 1.26832 42.1669V42.17ZM5.51548 2.54425V2.35965C5.51548 2.33339 5.52064 2.30737 5.5307 2.28311C5.54075 2.25884 5.55551 2.23682 5.57409 2.21825C5.59267 2.19968 5.6147 2.18495 5.63897 2.1749C5.66324 2.16485 5.68927 2.15965 5.71554 2.15965H16.4228C16.449 2.15965 16.475 2.16485 16.4993 2.1749C16.5236 2.18495 16.5456 2.19968 16.5642 2.21825C16.5828 2.23682 16.5975 2.25884 16.6076 2.28311C16.6176 2.30737 16.6228 2.33339 16.6228 2.35965V2.54117C16.6228 2.59421 16.6017 2.64507 16.5642 2.68258C16.5267 2.72008 16.4758 2.74117 16.4228 2.74117H5.71554C5.66248 2.74117 5.61161 2.72008 5.57409 2.68258C5.53657 2.64507 5.51548 2.59421 5.51548 2.54117V2.54425ZM6.67577 4.51339H15.4502C16.3071 8.67468 16.3071 12.9669 15.4502 17.1281H6.67577C5.81887 12.9669 5.81887 8.67468 6.67577 4.51339ZM5.50932 19.2573V19.0757C5.50932 19.0227 5.53041 18.9718 5.56793 18.9343C5.60544 18.8968 5.65632 18.8758 5.70938 18.8758H16.4166C16.4697 18.8758 16.5205 18.8968 16.5581 18.9343C16.5956 18.9718 16.6167 19.0227 16.6167 19.0757V19.2573C16.6167 19.3103 16.5956 19.3612 16.5581 19.3987C16.5205 19.4362 16.4697 19.4572 16.4166 19.4572H5.70938C5.65632 19.4572 5.60544 19.4362 5.56793 19.3987C5.53041 19.3612 5.50932 19.3103 5.50932 19.2573ZM7.32823 21.2141H14.7978L19.8974 41.0654C14.0885 42.4438 8.0375 42.4438 2.22855 41.0654L7.32823 21.2141Z" fill="#FFB156"/>
</svg>
